<?xml version="1.0" encoding="UTF-8" standalone="no"?><svg xmlns="http://www.w3.org/2000/svg" xmlns:xlink="http://www.w3.org/1999/xlink" contentScriptType="application/ecmascript" contentStyleType="text/css" height="609px" preserveAspectRatio="none" style="width:284px;height:609px;" version="1.1" viewBox="0 0 284 609" width="284px" zoomAndPan="magnify"><defs><filter height="300%" id="f1xzae335xbtyg" width="300%" x="-1" y="-1"><feGaussianBlur result="blurOut" stdDeviation="2.0"/><feColorMatrix in="blurOut" result="blurOut2" type="matrix" values="0 0 0 0 0 0 0 0 0 0 0 0 0 0 0 0 0 0 .4 0"/><feOffset dx="4.0" dy="4.0" in="blurOut2" result="blurOut3"/><feBlend in="SourceGraphic" in2="blurOut3" mode="normal"/></filter></defs><g><!--class users--><rect fill="#FEFECE" filter="url(#f1xzae335xbtyg)" height="99.2188" id="users" style="stroke: #A80036; stroke-width: 1.5;" width="155" x="72" y="8"/><ellipse cx="127.75" cy="24" fill="#ADD1B2" rx="11" ry="11" style="stroke: #A80036; stroke-width: 1.0;"/><path d="M130.7188,29.6406 Q130.1406,29.9375 129.5,30.0781 Q128.8594,30.2344 128.1563,30.2344 Q125.6563,30.2344 124.3281,28.5938 Q123.0156,26.9375 123.0156,23.8125 Q123.0156,20.6875 124.3281,19.0313 Q125.6563,17.375 128.1563,17.375 Q128.8594,17.375 129.5,17.5313 Q130.1563,17.6875 130.7188,17.9844 L130.7188,20.7031 Q130.0938,20.125 129.5,19.8594 Q128.9063,19.5781 128.2813,19.5781 Q126.9375,19.5781 126.25,20.6563 Q125.5625,21.7188 125.5625,23.8125 Q125.5625,25.9063 126.25,26.9844 Q126.9375,28.0469 128.2813,28.0469 Q128.9063,28.0469 129.5,27.7813 Q130.0938,27.5 130.7188,26.9219 L130.7188,29.6406 Z "/><text fill="#000000" font-family="sans-serif" font-size="12" lengthAdjust="spacingAndGlyphs" textLength="35" x="148.25" y="28.1543">users</text><line style="stroke: #A80036; stroke-width: 1.5;" x1="73" x2="226" y1="40" y2="40"/><ellipse cx="83" cy="51.9023" fill="none" rx="3" ry="3" style="stroke: #038048; stroke-width: 1.0;"/><text fill="#000000" font-family="sans-serif" font-size="11" lengthAdjust="spacingAndGlyphs" textLength="31" x="92" y="54.2104">email</text><ellipse cx="83" cy="64.707" fill="none" rx="3" ry="3" style="stroke: #038048; stroke-width: 1.0;"/><text fill="#000000" font-family="sans-serif" font-size="11" lengthAdjust="spacingAndGlyphs" textLength="56" x="92" y="67.0151">password</text><ellipse cx="83" cy="77.5117" fill="none" rx="3" ry="3" style="stroke: #038048; stroke-width: 1.0;"/><text fill="#000000" font-family="sans-serif" font-size="11" lengthAdjust="spacingAndGlyphs" textLength="42" x="92" y="79.8198">verified</text><ellipse cx="83" cy="90.3164" fill="none" rx="3" ry="3" style="stroke: #038048; stroke-width: 1.0;"/><text fill="#000000" font-family="sans-serif" font-size="11" lengthAdjust="spacingAndGlyphs" textLength="129" x="92" y="92.6245">code_password_forgot</text><line style="stroke: #A80036; stroke-width: 1.5;" x1="73" x2="226" y1="99.2188" y2="99.2188"/><!--class trading_accounts--><rect fill="#FEFECE" filter="url(#f1xzae335xbtyg)" height="124.8281" id="trading_accounts" style="stroke: #A80036; stroke-width: 1.5;" width="141" x="6" y="167"/><ellipse cx="21" cy="183" fill="#ADD1B2" rx="11" ry="11" style="stroke: #A80036; stroke-width: 1.0;"/><path d="M23.9688,188.6406 Q23.3906,188.9375 22.75,189.0781 Q22.1094,189.2344 21.4063,189.2344 Q18.9063,189.2344 17.5781,187.5938 Q16.2656,185.9375 16.2656,182.8125 Q16.2656,179.6875 17.5781,178.0313 Q18.9063,176.375 21.4063,176.375 Q22.1094,176.375 22.75,176.5313 Q23.4063,176.6875 23.9688,176.9844 L23.9688,179.7031 Q23.3438,179.125 22.75,178.8594 Q22.1563,178.5781 21.5313,178.5781 Q20.1875,178.5781 19.5,179.6563 Q18.8125,180.7188 18.8125,182.8125 Q18.8125,184.9063 19.5,185.9844 Q20.1875,187.0469 21.5313,187.0469 Q22.1563,187.0469 22.75,186.7813 Q23.3438,186.5 23.9688,185.9219 L23.9688,188.6406 Z "/><text fill="#000000" font-family="sans-serif" font-size="12" lengthAdjust="spacingAndGlyphs" textLength="109" x="35" y="187.1543">trading_accounts</text><line style="stroke: #A80036; stroke-width: 1.5;" x1="7" x2="146" y1="199" y2="199"/><ellipse cx="17" cy="210.9023" fill="none" rx="3" ry="3" style="stroke: #038048; stroke-width: 1.0;"/><text fill="#000000" font-family="sans-serif" font-size="11" lengthAdjust="spacingAndGlyphs" textLength="74" x="26" y="213.2104">account_type</text><ellipse cx="17" cy="223.707" fill="none" rx="3" ry="3" style="stroke: #038048; stroke-width: 1.0;"/><text fill="#000000" font-family="sans-serif" font-size="11" lengthAdjust="spacingAndGlyphs" textLength="53" x="26" y="226.0151">broker_id</text><ellipse cx="17" cy="236.5117" fill="none" rx="3" ry="3" style="stroke: #038048; stroke-width: 1.0;"/><text fill="#000000" font-family="sans-serif" font-size="11" lengthAdjust="spacingAndGlyphs" textLength="58" x="26" y="238.8198">username</text><ellipse cx="17" cy="249.3164" fill="none" rx="3" ry="3" style="stroke: #038048; stroke-width: 1.0;"/><text fill="#000000" font-family="sans-serif" font-size="11" lengthAdjust="spacingAndGlyphs" textLength="56" x="26" y="251.6245">password</text><ellipse cx="17" cy="262.1211" fill="none" rx="3" ry="3" style="stroke: #038048; stroke-width: 1.0;"/><text fill="#000000" font-family="sans-serif" font-size="11" lengthAdjust="spacingAndGlyphs" textLength="49" x="26" y="264.4292">currency</text><ellipse cx="17" cy="274.9258" fill="none" rx="3" ry="3" style="stroke: #038048; stroke-width: 1.0;"/><text fill="#000000" font-family="sans-serif" font-size="11" lengthAdjust="spacingAndGlyphs" textLength="42" x="26" y="277.2339">user_id</text><line style="stroke: #A80036; stroke-width: 1.5;" x1="7" x2="146" y1="283.8281" y2="283.8281"/><!--class transactions--><rect fill="#FEFECE" filter="url(#f1xzae335xbtyg)" height="201.6563" id="transactions" style="stroke: #A80036; stroke-width: 1.5;" width="132" x="10.5" y="352"/><ellipse cx="34.95" cy="368" fill="#ADD1B2" rx="11" ry="11" style="stroke: #A80036; stroke-width: 1.0;"/><path d="M37.9188,373.6406 Q37.3406,373.9375 36.7,374.0781 Q36.0594,374.2344 35.3563,374.2344 Q32.8563,374.2344 31.5281,372.5938 Q30.2156,370.9375 30.2156,367.8125 Q30.2156,364.6875 31.5281,363.0313 Q32.8563,361.375 35.3563,361.375 Q36.0594,361.375 36.7,361.5313 Q37.3563,361.6875 37.9188,361.9844 L37.9188,364.7031 Q37.2938,364.125 36.7,363.8594 Q36.1063,363.5781 35.4813,363.5781 Q34.1375,363.5781 33.45,364.6563 Q32.7625,365.7188 32.7625,367.8125 Q32.7625,369.9063 33.45,370.9844 Q34.1375,372.0469 35.4813,372.0469 Q36.1063,372.0469 36.7,371.7813 Q37.2938,371.5 37.9188,370.9219 L37.9188,373.6406 Z "/><text fill="#000000" font-family="sans-serif" font-size="12" lengthAdjust="spacingAndGlyphs" textLength="79" x="51.05" y="372.1543">transactions</text><line style="stroke: #A80036; stroke-width: 1.5;" x1="11.5" x2="141.5" y1="384" y2="384"/><ellipse cx="21.5" cy="395.9023" fill="none" rx="3" ry="3" style="stroke: #038048; stroke-width: 1.0;"/><text fill="#000000" font-family="sans-serif" font-size="11" lengthAdjust="spacingAndGlyphs" textLength="62" x="30.5" y="398.2104">open_price</text><ellipse cx="21.5" cy="408.707" fill="none" rx="3" ry="3" style="stroke: #038048; stroke-width: 1.0;"/><text fill="#000000" font-family="sans-serif" font-size="11" lengthAdjust="spacingAndGlyphs" textLength="64" x="30.5" y="411.0151">close_price</text><ellipse cx="21.5" cy="421.5117" fill="none" rx="3" ry="3" style="stroke: #038048; stroke-width: 1.0;"/><text fill="#000000" font-family="sans-serif" font-size="11" lengthAdjust="spacingAndGlyphs" textLength="59" x="30.5" y="423.8198">open_date</text><ellipse cx="21.5" cy="434.3164" fill="none" rx="3" ry="3" style="stroke: #038048; stroke-width: 1.0;"/><text fill="#000000" font-family="sans-serif" font-size="11" lengthAdjust="spacingAndGlyphs" textLength="61" x="30.5" y="436.6245">close_date</text><ellipse cx="21.5" cy="447.1211" fill="none" rx="3" ry="3" style="stroke: #038048; stroke-width: 1.0;"/><text fill="#000000" font-family="sans-serif" font-size="11" lengthAdjust="spacingAndGlyphs" textLength="62" x="30.5" y="449.4292">instrument</text><ellipse cx="21.5" cy="459.9258" fill="none" rx="3" ry="3" style="stroke: #038048; stroke-width: 1.0;"/><text fill="#000000" font-family="sans-serif" font-size="11" lengthAdjust="spacingAndGlyphs" textLength="41" x="30.5" y="462.2339">volume</text><ellipse cx="21.5" cy="472.7305" fill="none" rx="3" ry="3" style="stroke: #038048; stroke-width: 1.0;"/><text fill="#000000" font-family="sans-serif" font-size="11" lengthAdjust="spacingAndGlyphs" textLength="49" x="30.5" y="475.0386">stoploss</text><ellipse cx="21.5" cy="485.5352" fill="none" rx="3" ry="3" style="stroke: #038048; stroke-width: 1.0;"/><text fill="#000000" font-family="sans-serif" font-size="11" lengthAdjust="spacingAndGlyphs" textLength="54" x="30.5" y="487.8433">takeprofit</text><ellipse cx="21.5" cy="498.3398" fill="none" rx="3" ry="3" style="stroke: #038048; stroke-width: 1.0;"/><text fill="#000000" font-family="sans-serif" font-size="11" lengthAdjust="spacingAndGlyphs" textLength="17" x="30.5" y="500.6479">pip</text><ellipse cx="21.5" cy="511.1445" fill="none" rx="3" ry="3" style="stroke: #038048; stroke-width: 1.0;"/><text fill="#000000" font-family="sans-serif" font-size="11" lengthAdjust="spacingAndGlyphs" textLength="30" x="30.5" y="513.4526">profit</text><ellipse cx="21.5" cy="523.9492" fill="none" rx="3" ry="3" style="stroke: #038048; stroke-width: 1.0;"/><text fill="#000000" font-family="sans-serif" font-size="11" lengthAdjust="spacingAndGlyphs" textLength="106" x="30.5" y="526.2573">trading_account_id</text><ellipse cx="21.5" cy="536.7539" fill="none" rx="3" ry="3" style="stroke: #038048; stroke-width: 1.0;"/><text fill="#000000" font-family="sans-serif" font-size="11" lengthAdjust="spacingAndGlyphs" textLength="80" x="30.5" y="539.062">transaction_id</text><line style="stroke: #A80036; stroke-width: 1.5;" x1="11.5" x2="141.5" y1="545.6563" y2="545.6563"/><!--class services--><rect fill="#FEFECE" filter="url(#f1xzae335xbtyg)" height="86.4141" id="services" style="stroke: #A80036; stroke-width: 1.5;" width="83" x="182" y="186.5"/><ellipse cx="197" cy="202.5" fill="#ADD1B2" rx="11" ry="11" style="stroke: #A80036; stroke-width: 1.0;"/><path d="M199.9688,208.1406 Q199.3906,208.4375 198.75,208.5781 Q198.1094,208.7344 197.4063,208.7344 Q194.9063,208.7344 193.5781,207.0938 Q192.2656,205.4375 192.2656,202.3125 Q192.2656,199.1875 193.5781,197.5313 Q194.9063,195.875 197.4063,195.875 Q198.1094,195.875 198.75,196.0313 Q199.4063,196.1875 199.9688,196.4844 L199.9688,199.2031 Q199.3438,198.625 198.75,198.3594 Q198.1563,198.0781 197.5313,198.0781 Q196.1875,198.0781 195.5,199.1563 Q194.8125,200.2188 194.8125,202.3125 Q194.8125,204.4063 195.5,205.4844 Q196.1875,206.5469 197.5313,206.5469 Q198.1563,206.5469 198.75,206.2813 Q199.3438,206 199.9688,205.4219 L199.9688,208.1406 Z "/><text fill="#000000" font-family="sans-serif" font-size="12" lengthAdjust="spacingAndGlyphs" textLength="51" x="211" y="206.6543">services</text><line style="stroke: #A80036; stroke-width: 1.5;" x1="183" x2="264" y1="218.5" y2="218.5"/><ellipse cx="193" cy="230.4023" fill="none" rx="3" ry="3" style="stroke: #038048; stroke-width: 1.0;"/><text fill="#000000" font-family="sans-serif" font-size="11" lengthAdjust="spacingAndGlyphs" textLength="31" x="202" y="232.7104">urlws</text><ellipse cx="193" cy="243.207" fill="none" rx="3" ry="3" style="stroke: #038048; stroke-width: 1.0;"/><text fill="#000000" font-family="sans-serif" font-size="11" lengthAdjust="spacingAndGlyphs" textLength="42" x="202" y="245.5151">version</text><ellipse cx="193" cy="256.0117" fill="none" rx="3" ry="3" style="stroke: #038048; stroke-width: 1.0;"/><text fill="#000000" font-family="sans-serif" font-size="11" lengthAdjust="spacingAndGlyphs" textLength="42" x="202" y="258.3198">user_id</text><line style="stroke: #A80036; stroke-width: 1.5;" x1="183" x2="264" y1="264.9141" y2="264.9141"/><!--link users to trading_accounts--><path d="M128.581,107.215 C120.618,125.759 111.437,147.139 103.0228,166.734 " fill="none" id="users-trading_accounts" style="stroke: #A80036; stroke-width: 1.0;"/><text fill="#000000" font-family="sans-serif" font-size="13" lengthAdjust="spacingAndGlyphs" textLength="20" x="84.83" y="156.1322">0.n</text><!--link users to services--><path d="M170.705,107.215 C181.596,132.234 194.734,162.417 205.18,186.414 " fill="none" id="users-services" style="stroke: #A80036; stroke-width: 1.0;"/><text fill="#000000" font-family="sans-serif" font-size="13" lengthAdjust="spacingAndGlyphs" textLength="20" x="180.6665" y="175.3963">0.n</text><!--link trading_accounts to transactions--><path d="M76.5,292.2 C76.5,310.633 76.5,331.338 76.5,351.579 " fill="none" id="trading_accounts-transactions" style="stroke: #A80036; stroke-width: 1.0;"/><text fill="#000000" font-family="sans-serif" font-size="13" lengthAdjust="spacingAndGlyphs" textLength="20" x="55.7969" y="341.0041">0.n</text><rect fill="#DDDDDD" height="26.2969" rx="5" ry="5" style="stroke: #000000; stroke-width: 1.0;" width="265" x="8.5" y="572"/><text fill="#000000" font-family="sans-serif" font-size="14" lengthAdjust="spacingAndGlyphs" textLength="253" x="14.5" y="589.9951">Diagramme de modèle des données</text><!--
@startuml
legend
Diagramme de modèle des données
endlegend

class users {
    + email
    + password
    + verified
    + code_password_forgot
}

class trading_accounts {
    + account_type
    + broker_id
    + username
    + password
    + currency
    + user_id
}

class transactions {
    + open_price
    + close_price
    + open_date
    + close_date
    + instrument
    + volume
    + stoploss
    + takeprofit
    + pip
    + profit
    + trading_account_id
    + transaction_id
}

class services {
    + urlws
    + version
    + user_id
}

users - - "0.n" trading_accounts
users - - "0.n" services
trading_accounts - - "0.n" transactions
@enduml

PlantUML version 1.2018.10(Sat Aug 25 19:02:59 CEST 2018)
(APACHE source distribution)
Java Runtime: Java(TM) SE Runtime Environment
JVM: Java HotSpot(TM) 64-Bit Server VM
Java Version: 11.0.1+13-LTS
Operating System: Linux
OS Version: 4.9.0-8-amd64
Default Encoding: UTF-8
Language: fr
Country: FR
--></g></svg>