<?xml version="1.0" encoding="UTF-8" standalone="no"?><svg xmlns="http://www.w3.org/2000/svg" xmlns:xlink="http://www.w3.org/1999/xlink" contentScriptType="application/ecmascript" contentStyleType="text/css" height="65px" preserveAspectRatio="none" style="width:584px;height:65px;" version="1.1" viewBox="0 0 584 65" width="584px" zoomAndPan="magnify"><defs/><g><text fill="#000000" font-family="sans-serif" font-size="12" lengthAdjust="spacingAndGlyphs" textLength="10" x="6" y="17.1387">#</text><text fill="#000000" font-family="sans-serif" font-size="12" lengthAdjust="spacingAndGlyphs" textLength="30" x="18" y="17.1387">Date</text><text fill="#000000" font-family="sans-serif" font-size="12" lengthAdjust="spacingAndGlyphs" textLength="43" x="132" y="17.1387">Capital</text><text fill="#000000" font-family="sans-serif" font-size="12" lengthAdjust="spacingAndGlyphs" textLength="109" x="177" y="17.1387">Performances ($)</text><text fill="#000000" font-family="sans-serif" font-size="12" lengthAdjust="spacingAndGlyphs" textLength="112" x="288" y="17.1387">Performances (%)</text><text fill="#000000" font-family="sans-serif" font-size="12" lengthAdjust="spacingAndGlyphs" textLength="26" x="402" y="17.1387">Pips</text><text fill="#000000" font-family="sans-serif" font-size="12" lengthAdjust="spacingAndGlyphs" textLength="26" x="430" y="17.1387">Lots</text><text fill="#000000" font-family="sans-serif" font-size="12" lengthAdjust="spacingAndGlyphs" textLength="64" x="458" y="17.1387">Drawdown</text><path d="M527,7 L525,10 L527,13 L533,13 L533,7 L527,7 M528.5,7.781 L530,9.281 L531.5,7.781 L532.219,8.5 L530.719,10 L532.219,11.5 L531.5,12.219 L530,10.719 L528.5,12.219 L527.781,11.5 L529.281,10 L527.781,8.5 L528.5,7.781 " fill="#000000" style="stroke: ; stroke-width: 0.0; stroke-dasharray: ;"/><path d="M554,7 L552,10 L554,13 L560,13 L560,7 L554,7 M555.5,7.781 L557,9.281 L558.5,7.781 L559.219,8.5 L557.719,10 L559.219,11.5 L558.5,12.219 L557,10.719 L555.5,12.219 L554.781,11.5 L556.281,10 L554.781,8.5 L555.5,7.781 " fill="#000000" style="stroke: ; stroke-width: 0.0; stroke-dasharray: ;"/><text fill="#000000" font-family="sans-serif" font-size="12" lengthAdjust="spacingAndGlyphs" textLength="8" x="6" y="33.1074">1</text><text fill="#000000" font-family="sans-serif" font-size="12" lengthAdjust="spacingAndGlyphs" textLength="112" x="18" y="33.1074">01.01.2019 10:23</text><text fill="#000000" font-family="sans-serif" font-size="12" lengthAdjust="spacingAndGlyphs" textLength="40" x="132" y="33.1074">10000</text><text fill="#000000" font-family="sans-serif" font-size="12" lengthAdjust="spacingAndGlyphs" textLength="24" x="177" y="33.1074">400</text><text fill="#000000" font-family="sans-serif" font-size="12" lengthAdjust="spacingAndGlyphs" textLength="31" x="288" y="33.1074">0.4%</text><text fill="#000000" font-family="sans-serif" font-size="12" lengthAdjust="spacingAndGlyphs" textLength="24" x="402" y="33.1074">245</text><text fill="#000000" font-family="sans-serif" font-size="12" lengthAdjust="spacingAndGlyphs" textLength="8" x="430" y="33.1074">9</text><text fill="#000000" font-family="sans-serif" font-size="12" lengthAdjust="spacingAndGlyphs" textLength="39" x="458" y="33.1074">10.3%</text><rect fill="#EEEEEE" height="12" rx="5" ry="5" style="stroke: #000000; stroke-width: 2.5;" width="20" x="526.5" y="24.4688"/><path d="M534.5,27.4688 L532.5,30.4688 L534.5,33.4688 L540.5,33.4688 L540.5,27.4688 L534.5,27.4688 M536,28.2498 L537.5,29.7498 L539,28.2498 L539.719,28.9688 L538.219,30.4688 L539.719,31.9688 L539,32.6878 L537.5,31.1878 L536,32.6878 L535.281,31.9688 L536.781,30.4688 L535.281,28.9688 L536,28.2498 " fill="#000000" style="stroke: ; stroke-width: 0.0; stroke-dasharray: ;"/><rect fill="#EEEEEE" height="12" rx="5" ry="5" style="stroke: #000000; stroke-width: 2.5;" width="20" x="553.5" y="24.4688"/><path d="M563.531,27.4688 C561.001,27.4688 559.5,30.4688 559.5,30.4688 C559.5,30.4688 561.001,33.4688 563.531,33.4688 C566.001,33.4688 567.5,30.4688 567.5,30.4688 C567.5,30.4688 566.001,27.4688 563.531,27.4688 M563.5,28.4688 C564.6,28.4688 565.5,29.3688 565.5,30.4688 C565.5,31.5688 564.6,32.4688 563.5,32.4688 C562.4,32.4688 561.5,31.5688 561.5,30.4688 C561.5,29.3688 562.4,28.4688 563.5,28.4688 M563.5,29.4688 C562.95,29.4688 562.5,29.9188 562.5,30.4688 C562.5,31.0188 562.95,31.4688 563.5,31.4688 C564.05,31.4688 564.5,31.0188 564.5,30.4688 C564.5,30.3688 564.468,30.2778 564.437,30.1878 C564.357,30.3478 564.2,30.4688 563.999,30.4688 C563.719,30.4688 563.499,30.2488 563.499,29.9688 C563.499,29.7688 563.62,29.6118 563.78,29.5308 C563.69,29.5008 563.599,29.4678 563.499,29.4678 " fill="#000000" style="stroke: ; stroke-width: 0.0; stroke-dasharray: ;"/><text fill="#000000" font-family="sans-serif" font-size="12" lengthAdjust="spacingAndGlyphs" textLength="8" x="6" y="52.1074">2</text><text fill="#000000" font-family="sans-serif" font-size="12" lengthAdjust="spacingAndGlyphs" textLength="112" x="18" y="52.1074">01.01.2019 11:23</text><text fill="#000000" font-family="sans-serif" font-size="12" lengthAdjust="spacingAndGlyphs" textLength="40" x="132" y="52.1074">10000</text><text fill="#000000" font-family="sans-serif" font-size="12" lengthAdjust="spacingAndGlyphs" textLength="24" x="177" y="52.1074">500</text><text fill="#000000" font-family="sans-serif" font-size="12" lengthAdjust="spacingAndGlyphs" textLength="31" x="288" y="52.1074">0.5%</text><text fill="#000000" font-family="sans-serif" font-size="12" lengthAdjust="spacingAndGlyphs" textLength="24" x="402" y="52.1074">234</text><text fill="#000000" font-family="sans-serif" font-size="12" lengthAdjust="spacingAndGlyphs" textLength="16" x="430" y="52.1074">11</text><text fill="#000000" font-family="sans-serif" font-size="12" lengthAdjust="spacingAndGlyphs" textLength="31" x="458" y="52.1074">9.3%</text><rect fill="#EEEEEE" height="12" rx="5" ry="5" style="stroke: #000000; stroke-width: 2.5;" width="20" x="526.5" y="43.4688"/><path d="M534.5,46.4688 L532.5,49.4688 L534.5,52.4688 L540.5,52.4688 L540.5,46.4688 L534.5,46.4688 M536,47.2498 L537.5,48.7498 L539,47.2498 L539.719,47.9688 L538.219,49.4688 L539.719,50.9688 L539,51.6878 L537.5,50.1878 L536,51.6878 L535.281,50.9688 L536.781,49.4688 L535.281,47.9688 L536,47.2498 " fill="#000000" style="stroke: ; stroke-width: 0.0; stroke-dasharray: ;"/><rect fill="#EEEEEE" height="12" rx="5" ry="5" style="stroke: #000000; stroke-width: 2.5;" width="20" x="553.5" y="43.4688"/><path d="M563.531,46.4688 C561.001,46.4688 559.5,49.4688 559.5,49.4688 C559.5,49.4688 561.001,52.4688 563.531,52.4688 C566.001,52.4688 567.5,49.4688 567.5,49.4688 C567.5,49.4688 566.001,46.4688 563.531,46.4688 M563.5,47.4688 C564.6,47.4688 565.5,48.3688 565.5,49.4688 C565.5,50.5688 564.6,51.4688 563.5,51.4688 C562.4,51.4688 561.5,50.5688 561.5,49.4688 C561.5,48.3688 562.4,47.4688 563.5,47.4688 M563.5,48.4688 C562.95,48.4688 562.5,48.9188 562.5,49.4688 C562.5,50.0188 562.95,50.4688 563.5,50.4688 C564.05,50.4688 564.5,50.0188 564.5,49.4688 C564.5,49.3688 564.468,49.2778 564.437,49.1878 C564.357,49.3478 564.2,49.4688 563.999,49.4688 C563.719,49.4688 563.499,49.2488 563.499,48.9688 C563.499,48.7688 563.62,48.6118 563.78,48.5308 C563.69,48.5008 563.599,48.4678 563.499,48.4678 " fill="#000000" style="stroke: ; stroke-width: 0.0; stroke-dasharray: ;"/><line style="stroke: #000000; stroke-width: 1.0;" x1="5" x2="17" y1="5" y2="5"/><line style="stroke: #000000; stroke-width: 1.0;" x1="17" x2="131" y1="5" y2="5"/><line style="stroke: #000000; stroke-width: 1.0;" x1="131" x2="176" y1="5" y2="5"/><line style="stroke: #000000; stroke-width: 1.0;" x1="176" x2="287" y1="5" y2="5"/><line style="stroke: #000000; stroke-width: 1.0;" x1="287" x2="401" y1="5" y2="5"/><line style="stroke: #000000; stroke-width: 1.0;" x1="401" x2="429" y1="5" y2="5"/><line style="stroke: #000000; stroke-width: 1.0;" x1="429" x2="457" y1="5" y2="5"/><line style="stroke: #000000; stroke-width: 1.0;" x1="457" x2="523" y1="5" y2="5"/><line style="stroke: #000000; stroke-width: 1.0;" x1="523" x2="550" y1="5" y2="5"/><line style="stroke: #000000; stroke-width: 1.0;" x1="550" x2="577" y1="5" y2="5"/><line style="stroke: #000000; stroke-width: 1.0;" x1="5" x2="17" y1="58.9688" y2="58.9688"/><line style="stroke: #000000; stroke-width: 1.0;" x1="17" x2="131" y1="58.9688" y2="58.9688"/><line style="stroke: #000000; stroke-width: 1.0;" x1="131" x2="176" y1="58.9688" y2="58.9688"/><line style="stroke: #000000; stroke-width: 1.0;" x1="176" x2="287" y1="58.9688" y2="58.9688"/><line style="stroke: #000000; stroke-width: 1.0;" x1="287" x2="401" y1="58.9688" y2="58.9688"/><line style="stroke: #000000; stroke-width: 1.0;" x1="401" x2="429" y1="58.9688" y2="58.9688"/><line style="stroke: #000000; stroke-width: 1.0;" x1="429" x2="457" y1="58.9688" y2="58.9688"/><line style="stroke: #000000; stroke-width: 1.0;" x1="457" x2="523" y1="58.9688" y2="58.9688"/><line style="stroke: #000000; stroke-width: 1.0;" x1="523" x2="550" y1="58.9688" y2="58.9688"/><line style="stroke: #000000; stroke-width: 1.0;" x1="550" x2="577" y1="58.9688" y2="58.9688"/><line style="stroke: #000000; stroke-width: 1.0;" x1="5" x2="17" y1="39.9688" y2="39.9688"/><line style="stroke: #000000; stroke-width: 1.0;" x1="17" x2="131" y1="39.9688" y2="39.9688"/><line style="stroke: #000000; stroke-width: 1.0;" x1="131" x2="176" y1="39.9688" y2="39.9688"/><line style="stroke: #000000; stroke-width: 1.0;" x1="176" x2="287" y1="39.9688" y2="39.9688"/><line style="stroke: #000000; stroke-width: 1.0;" x1="287" x2="401" y1="39.9688" y2="39.9688"/><line style="stroke: #000000; stroke-width: 1.0;" x1="401" x2="429" y1="39.9688" y2="39.9688"/><line style="stroke: #000000; stroke-width: 1.0;" x1="429" x2="457" y1="39.9688" y2="39.9688"/><line style="stroke: #000000; stroke-width: 1.0;" x1="457" x2="523" y1="39.9688" y2="39.9688"/><line style="stroke: #000000; stroke-width: 1.0;" x1="523" x2="550" y1="39.9688" y2="39.9688"/><line style="stroke: #000000; stroke-width: 1.0;" x1="550" x2="577" y1="39.9688" y2="39.9688"/><line style="stroke: #000000; stroke-width: 1.0;" x1="5" x2="17" y1="20.9688" y2="20.9688"/><line style="stroke: #000000; stroke-width: 1.0;" x1="17" x2="131" y1="20.9688" y2="20.9688"/><line style="stroke: #000000; stroke-width: 1.0;" x1="131" x2="176" y1="20.9688" y2="20.9688"/><line style="stroke: #000000; stroke-width: 1.0;" x1="176" x2="287" y1="20.9688" y2="20.9688"/><line style="stroke: #000000; stroke-width: 1.0;" x1="287" x2="401" y1="20.9688" y2="20.9688"/><line style="stroke: #000000; stroke-width: 1.0;" x1="401" x2="429" y1="20.9688" y2="20.9688"/><line style="stroke: #000000; stroke-width: 1.0;" x1="429" x2="457" y1="20.9688" y2="20.9688"/><line style="stroke: #000000; stroke-width: 1.0;" x1="457" x2="523" y1="20.9688" y2="20.9688"/><line style="stroke: #000000; stroke-width: 1.0;" x1="523" x2="550" y1="20.9688" y2="20.9688"/><line style="stroke: #000000; stroke-width: 1.0;" x1="550" x2="577" y1="20.9688" y2="20.9688"/><line style="stroke: #000000; stroke-width: 1.0;" x1="5" x2="5" y1="5" y2="20.9688"/><line style="stroke: #000000; stroke-width: 1.0;" x1="17" x2="17" y1="5" y2="20.9688"/><line style="stroke: #000000; stroke-width: 1.0;" x1="131" x2="131" y1="5" y2="20.9688"/><line style="stroke: #000000; stroke-width: 1.0;" x1="176" x2="176" y1="5" y2="20.9688"/><line style="stroke: #000000; stroke-width: 1.0;" x1="287" x2="287" y1="5" y2="20.9688"/><line style="stroke: #000000; stroke-width: 1.0;" x1="401" x2="401" y1="5" y2="20.9688"/><line style="stroke: #000000; stroke-width: 1.0;" x1="429" x2="429" y1="5" y2="20.9688"/><line style="stroke: #000000; stroke-width: 1.0;" x1="457" x2="457" y1="5" y2="20.9688"/><line style="stroke: #000000; stroke-width: 1.0;" x1="523" x2="523" y1="5" y2="20.9688"/><line style="stroke: #000000; stroke-width: 1.0;" x1="550" x2="550" y1="5" y2="20.9688"/><line style="stroke: #000000; stroke-width: 1.0;" x1="577" x2="577" y1="5" y2="20.9688"/><line style="stroke: #000000; stroke-width: 1.0;" x1="5" x2="5" y1="39.9688" y2="58.9688"/><line style="stroke: #000000; stroke-width: 1.0;" x1="17" x2="17" y1="39.9688" y2="58.9688"/><line style="stroke: #000000; stroke-width: 1.0;" x1="131" x2="131" y1="39.9688" y2="58.9688"/><line style="stroke: #000000; stroke-width: 1.0;" x1="176" x2="176" y1="39.9688" y2="58.9688"/><line style="stroke: #000000; stroke-width: 1.0;" x1="287" x2="287" y1="39.9688" y2="58.9688"/><line style="stroke: #000000; stroke-width: 1.0;" x1="401" x2="401" y1="39.9688" y2="58.9688"/><line style="stroke: #000000; stroke-width: 1.0;" x1="429" x2="429" y1="39.9688" y2="58.9688"/><line style="stroke: #000000; stroke-width: 1.0;" x1="457" x2="457" y1="39.9688" y2="58.9688"/><line style="stroke: #000000; stroke-width: 1.0;" x1="523" x2="523" y1="39.9688" y2="58.9688"/><line style="stroke: #000000; stroke-width: 1.0;" x1="550" x2="550" y1="39.9688" y2="58.9688"/><line style="stroke: #000000; stroke-width: 1.0;" x1="577" x2="577" y1="39.9688" y2="58.9688"/><line style="stroke: #000000; stroke-width: 1.0;" x1="5" x2="5" y1="20.9688" y2="39.9688"/><line style="stroke: #000000; stroke-width: 1.0;" x1="17" x2="17" y1="20.9688" y2="39.9688"/><line style="stroke: #000000; stroke-width: 1.0;" x1="131" x2="131" y1="20.9688" y2="39.9688"/><line style="stroke: #000000; stroke-width: 1.0;" x1="176" x2="176" y1="20.9688" y2="39.9688"/><line style="stroke: #000000; stroke-width: 1.0;" x1="287" x2="287" y1="20.9688" y2="39.9688"/><line style="stroke: #000000; stroke-width: 1.0;" x1="401" x2="401" y1="20.9688" y2="39.9688"/><line style="stroke: #000000; stroke-width: 1.0;" x1="429" x2="429" y1="20.9688" y2="39.9688"/><line style="stroke: #000000; stroke-width: 1.0;" x1="457" x2="457" y1="20.9688" y2="39.9688"/><line style="stroke: #000000; stroke-width: 1.0;" x1="523" x2="523" y1="20.9688" y2="39.9688"/><line style="stroke: #000000; stroke-width: 1.0;" x1="550" x2="550" y1="20.9688" y2="39.9688"/><line style="stroke: #000000; stroke-width: 1.0;" x1="577" x2="577" y1="20.9688" y2="39.9688"/></g></svg>