<?xml version="1.0" encoding="UTF-8" standalone="no"?><svg xmlns="http://www.w3.org/2000/svg" xmlns:xlink="http://www.w3.org/1999/xlink" contentScriptType="application/ecmascript" contentStyleType="text/css" height="93px" preserveAspectRatio="none" style="width:384px;height:93px;" version="1.1" viewBox="0 0 384 93" width="384px" zoomAndPan="magnify"><defs/><g><text fill="#000000" font-family="sans-serif" font-size="12" lengthAdjust="spacingAndGlyphs" textLength="50" x="8" y="17.1387">Position</text><line style="stroke: #000000; stroke-width: 1.0;" x1="6" x2="6" y1="6" y2="19.9688"/><line style="stroke: #000000; stroke-width: 1.0;" x1="6" x2="61" y1="6" y2="6"/><line style="stroke: #000000; stroke-width: 1.0;" x1="61" x2="61" y1="6" y2="19.9688"/><line style="stroke: #000000; stroke-width: 1.0;" x1="61" x2="71" y1="19.9688" y2="19.9688"/><text fill="#000000" font-family="sans-serif" font-size="12" lengthAdjust="spacingAndGlyphs" textLength="42" x="73" y="17.1387">Orders</text><line style="stroke: #000000; stroke-width: 1.0;" x1="71" x2="71" y1="6" y2="19.9688"/><line style="stroke: #000000; stroke-width: 1.0;" x1="71" x2="118" y1="6" y2="6"/><line style="stroke: #000000; stroke-width: 1.0;" x1="118" x2="118" y1="6" y2="19.9688"/><line style="stroke: #000000; stroke-width: 1.0;" x1="118" x2="128" y1="19.9688" y2="19.9688"/><text fill="#000000" font-family="sans-serif" font-size="12" lengthAdjust="spacingAndGlyphs" textLength="58" x="130" y="17.1387">Historical</text><line style="stroke: #000000; stroke-width: 1.0;" x1="128" x2="128" y1="6" y2="19.9688"/><line style="stroke: #000000; stroke-width: 1.0;" x1="128" x2="191" y1="6" y2="6"/><line style="stroke: #000000; stroke-width: 1.0;" x1="191" x2="191" y1="6" y2="19.9688"/><line style="stroke: #000000; stroke-width: 1.0;" x1="191" x2="201" y1="19.9688" y2="19.9688"/><text fill="#000000" font-family="sans-serif" font-size="12" font-weight="bold" lengthAdjust="spacingAndGlyphs" textLength="64" x="203" y="17.1387">Analytics</text><line style="stroke: #000000; stroke-width: 1.0;" x1="201" x2="201" y1="6" y2="19.9688"/><line style="stroke: #000000; stroke-width: 1.0;" x1="201" x2="270" y1="6" y2="6"/><line style="stroke: #000000; stroke-width: 1.0;" x1="270" x2="270" y1="6" y2="19.9688"/><line style="stroke: #000000; stroke-width: 1.0;" x1="270" x2="280" y1="19.9688" y2="19.9688"/><text fill="#000000" font-family="sans-serif" font-size="12" lengthAdjust="spacingAndGlyphs" textLength="102" x="7" y="34.1074">Performance ($)</text><text fill="#000000" font-family="sans-serif" font-size="12" lengthAdjust="spacingAndGlyphs" textLength="52" x="114" y="34.1074">$10.000</text><text fill="#000000" font-family="sans-serif" font-size="12" lengthAdjust="spacingAndGlyphs" textLength="105" x="7" y="50.0762">Performance (%)</text><text fill="#000000" font-family="sans-serif" font-size="12" lengthAdjust="spacingAndGlyphs" textLength="47" x="114" y="50.0762">98.00%</text><text fill="#000000" font-family="sans-serif" font-size="12" lengthAdjust="spacingAndGlyphs" textLength="64" x="7" y="66.0449">Drawdown</text><text fill="#000000" font-family="sans-serif" font-size="12" lengthAdjust="spacingAndGlyphs" textLength="47" x="114" y="66.0449">10.34%</text><text fill="#000000" font-family="sans-serif" font-size="12" lengthAdjust="spacingAndGlyphs" textLength="86" x="7" y="82.0137">Ratio win/lose</text><text fill="#000000" font-family="sans-serif" font-size="12" lengthAdjust="spacingAndGlyphs" textLength="58" x="114" y="82.0137">20%/80%</text><line style="stroke: #000000; stroke-width: 1.0;" x1="6" x2="113" y1="21.9688" y2="21.9688"/><line style="stroke: #000000; stroke-width: 1.0;" x1="113" x2="173" y1="37.9375" y2="37.9375"/><line style="stroke: #000000; stroke-width: 1.0;" x1="113" x2="173" y1="21.9688" y2="21.9688"/><line style="stroke: #000000; stroke-width: 1.0;" x1="6" x2="113" y1="85.8438" y2="85.8438"/><line style="stroke: #000000; stroke-width: 1.0;" x1="113" x2="173" y1="85.8438" y2="85.8438"/><line style="stroke: #000000; stroke-width: 1.0;" x1="6" x2="113" y1="69.875" y2="69.875"/><line style="stroke: #000000; stroke-width: 1.0;" x1="6" x2="113" y1="53.9063" y2="53.9063"/><line style="stroke: #000000; stroke-width: 1.0;" x1="113" x2="173" y1="69.875" y2="69.875"/><line style="stroke: #000000; stroke-width: 1.0;" x1="6" x2="113" y1="37.9375" y2="37.9375"/><line style="stroke: #000000; stroke-width: 1.0;" x1="113" x2="173" y1="53.9063" y2="53.9063"/><line style="stroke: #000000; stroke-width: 1.0;" x1="6" x2="6" y1="21.9688" y2="37.9375"/><line style="stroke: #000000; stroke-width: 1.0;" x1="173" x2="173" y1="53.9063" y2="69.875"/><line style="stroke: #000000; stroke-width: 1.0;" x1="113" x2="113" y1="37.9375" y2="53.9063"/><line style="stroke: #000000; stroke-width: 1.0;" x1="173" x2="173" y1="37.9375" y2="53.9063"/><line style="stroke: #000000; stroke-width: 1.0;" x1="113" x2="113" y1="21.9688" y2="37.9375"/><line style="stroke: #000000; stroke-width: 1.0;" x1="173" x2="173" y1="21.9688" y2="37.9375"/><line style="stroke: #000000; stroke-width: 1.0;" x1="6" x2="6" y1="69.875" y2="85.8438"/><line style="stroke: #000000; stroke-width: 1.0;" x1="6" x2="6" y1="53.9063" y2="69.875"/><line style="stroke: #000000; stroke-width: 1.0;" x1="113" x2="113" y1="69.875" y2="85.8438"/><line style="stroke: #000000; stroke-width: 1.0;" x1="6" x2="6" y1="37.9375" y2="53.9063"/><line style="stroke: #000000; stroke-width: 1.0;" x1="173" x2="173" y1="69.875" y2="85.8438"/><line style="stroke: #000000; stroke-width: 1.0;" x1="113" x2="113" y1="53.9063" y2="69.875"/><text fill="#000000" font-family="sans-serif" font-size="12" lengthAdjust="spacingAndGlyphs" textLength="92" x="283" y="34.1074">Graphical zone</text><line style="stroke: #000000; stroke-width: 1.0;" x1="5" x2="281" y1="5" y2="5"/><line style="stroke: #000000; stroke-width: 1.0;" x1="281" x2="377" y1="5" y2="5"/><line style="stroke: #000000; stroke-width: 1.0;" x1="5" x2="281" y1="86.8438" y2="86.8438"/><line style="stroke: #000000; stroke-width: 1.0;" x1="281" x2="377" y1="86.8438" y2="86.8438"/><line style="stroke: #000000; stroke-width: 1.0;" x1="5" x2="5" y1="5" y2="20.9688"/><line style="stroke: #000000; stroke-width: 1.0;" x1="377" x2="377" y1="20.9688" y2="86.8438"/><line style="stroke: #000000; stroke-width: 1.0;" x1="377" x2="377" y1="5" y2="20.9688"/><line style="stroke: #000000; stroke-width: 1.0;" x1="5" x2="5" y1="20.9688" y2="86.8438"/></g></svg>