<?xml version="1.0" encoding="UTF-8" standalone="no"?><svg xmlns="http://www.w3.org/2000/svg" xmlns:xlink="http://www.w3.org/1999/xlink" contentScriptType="application/ecmascript" contentStyleType="text/css" height="61px" preserveAspectRatio="none" style="width:643px;height:61px;" version="1.1" viewBox="0 0 643 61" width="643px" zoomAndPan="magnify"><defs/><g><text fill="#000000" font-family="sans-serif" font-size="12" lengthAdjust="spacingAndGlyphs" textLength="50" x="8" y="17.1387">Position</text><line style="stroke: #000000; stroke-width: 1.0;" x1="6" x2="6" y1="6" y2="19.9688"/><line style="stroke: #000000; stroke-width: 1.0;" x1="6" x2="61" y1="6" y2="6"/><line style="stroke: #000000; stroke-width: 1.0;" x1="61" x2="61" y1="6" y2="19.9688"/><line style="stroke: #000000; stroke-width: 1.0;" x1="61" x2="71" y1="19.9688" y2="19.9688"/><text fill="#000000" font-family="sans-serif" font-size="12" lengthAdjust="spacingAndGlyphs" textLength="42" x="73" y="17.1387">Orders</text><line style="stroke: #000000; stroke-width: 1.0;" x1="71" x2="71" y1="6" y2="19.9688"/><line style="stroke: #000000; stroke-width: 1.0;" x1="71" x2="118" y1="6" y2="6"/><line style="stroke: #000000; stroke-width: 1.0;" x1="118" x2="118" y1="6" y2="19.9688"/><line style="stroke: #000000; stroke-width: 1.0;" x1="118" x2="128" y1="19.9688" y2="19.9688"/><text fill="#000000" font-family="sans-serif" font-size="12" font-weight="bold" lengthAdjust="spacingAndGlyphs" textLength="67" x="130" y="17.1387">Historical</text><line style="stroke: #000000; stroke-width: 1.0;" x1="128" x2="128" y1="6" y2="19.9688"/><line style="stroke: #000000; stroke-width: 1.0;" x1="128" x2="200" y1="6" y2="6"/><line style="stroke: #000000; stroke-width: 1.0;" x1="200" x2="200" y1="6" y2="19.9688"/><line style="stroke: #000000; stroke-width: 1.0;" x1="200" x2="210" y1="19.9688" y2="19.9688"/><text fill="#000000" font-family="sans-serif" font-size="12" lengthAdjust="spacingAndGlyphs" textLength="10" x="7" y="34.1074">#</text><text fill="#000000" font-family="sans-serif" font-size="12" lengthAdjust="spacingAndGlyphs" textLength="68" x="19" y="34.1074">instrument</text><text fill="#000000" font-family="sans-serif" font-size="12" lengthAdjust="spacingAndGlyphs" textLength="65" x="89" y="34.1074">open date</text><text fill="#000000" font-family="sans-serif" font-size="12" lengthAdjust="spacingAndGlyphs" textLength="66" x="203" y="34.1074">close date</text><text fill="#000000" font-family="sans-serif" font-size="12" lengthAdjust="spacingAndGlyphs" textLength="23" x="317" y="34.1074">lots</text><text fill="#000000" font-family="sans-serif" font-size="12" lengthAdjust="spacingAndGlyphs" textLength="67" x="342" y="34.1074">open price</text><text fill="#000000" font-family="sans-serif" font-size="12" lengthAdjust="spacingAndGlyphs" textLength="68" x="411" y="34.1074">close price</text><text fill="#000000" font-family="sans-serif" font-size="12" lengthAdjust="spacingAndGlyphs" textLength="10" x="481" y="34.1074">sl</text><text fill="#000000" font-family="sans-serif" font-size="12" lengthAdjust="spacingAndGlyphs" textLength="13" x="535" y="34.1074">tp</text><text fill="#000000" font-family="sans-serif" font-size="12" lengthAdjust="spacingAndGlyphs" textLength="19" x="557" y="34.1074">pip</text><text fill="#000000" font-family="sans-serif" font-size="12" lengthAdjust="spacingAndGlyphs" textLength="55" x="579" y="34.1074">profit ($)</text><text fill="#000000" font-family="sans-serif" font-size="12" lengthAdjust="spacingAndGlyphs" textLength="8" x="7" y="50.0762">1</text><text fill="#000000" font-family="sans-serif" font-size="12" lengthAdjust="spacingAndGlyphs" textLength="51" x="19" y="50.0762">EURUSD</text><text fill="#000000" font-family="sans-serif" font-size="12" lengthAdjust="spacingAndGlyphs" textLength="112" x="89" y="50.0762">07.07.1990 12:23</text><text fill="#000000" font-family="sans-serif" font-size="12" lengthAdjust="spacingAndGlyphs" textLength="112" x="203" y="50.0762">08.07.1990 14:26</text><text fill="#000000" font-family="sans-serif" font-size="12" lengthAdjust="spacingAndGlyphs" textLength="20" x="317" y="50.0762">1.2</text><text fill="#000000" font-family="sans-serif" font-size="12" lengthAdjust="spacingAndGlyphs" textLength="60" x="342" y="50.0762">1.123452</text><text fill="#000000" font-family="sans-serif" font-size="12" lengthAdjust="spacingAndGlyphs" textLength="60" x="411" y="50.0762">1.123652</text><text fill="#000000" font-family="sans-serif" font-size="12" lengthAdjust="spacingAndGlyphs" textLength="52" x="481" y="50.0762">1.23358</text><text fill="#000000" font-family="sans-serif" font-size="12" lengthAdjust="spacingAndGlyphs" textLength="20" x="535" y="50.0762">0.0</text><text fill="#000000" font-family="sans-serif" font-size="12" lengthAdjust="spacingAndGlyphs" textLength="20" x="557" y="50.0762">3.4</text><text fill="#000000" font-family="sans-serif" font-size="12" lengthAdjust="spacingAndGlyphs" textLength="36" x="579" y="50.0762">23.74</text><line style="stroke: #000000; stroke-width: 1.0;" x1="6" x2="18" y1="21.9688" y2="21.9688"/><line style="stroke: #000000; stroke-width: 1.0;" x1="18" x2="88" y1="21.9688" y2="21.9688"/><line style="stroke: #000000; stroke-width: 1.0;" x1="88" x2="202" y1="21.9688" y2="21.9688"/><line style="stroke: #000000; stroke-width: 1.0;" x1="202" x2="316" y1="21.9688" y2="21.9688"/><line style="stroke: #000000; stroke-width: 1.0;" x1="316" x2="341" y1="21.9688" y2="21.9688"/><line style="stroke: #000000; stroke-width: 1.0;" x1="341" x2="410" y1="21.9688" y2="21.9688"/><line style="stroke: #000000; stroke-width: 1.0;" x1="410" x2="480" y1="21.9688" y2="21.9688"/><line style="stroke: #000000; stroke-width: 1.0;" x1="480" x2="534" y1="21.9688" y2="21.9688"/><line style="stroke: #000000; stroke-width: 1.0;" x1="534" x2="556" y1="21.9688" y2="21.9688"/><line style="stroke: #000000; stroke-width: 1.0;" x1="556" x2="578" y1="21.9688" y2="21.9688"/><line style="stroke: #000000; stroke-width: 1.0;" x1="578" x2="635" y1="21.9688" y2="21.9688"/><line style="stroke: #000000; stroke-width: 1.0;" x1="6" x2="18" y1="53.9063" y2="53.9063"/><line style="stroke: #000000; stroke-width: 1.0;" x1="18" x2="88" y1="53.9063" y2="53.9063"/><line style="stroke: #000000; stroke-width: 1.0;" x1="88" x2="202" y1="53.9063" y2="53.9063"/><line style="stroke: #000000; stroke-width: 1.0;" x1="202" x2="316" y1="53.9063" y2="53.9063"/><line style="stroke: #000000; stroke-width: 1.0;" x1="316" x2="341" y1="53.9063" y2="53.9063"/><line style="stroke: #000000; stroke-width: 1.0;" x1="341" x2="410" y1="53.9063" y2="53.9063"/><line style="stroke: #000000; stroke-width: 1.0;" x1="410" x2="480" y1="53.9063" y2="53.9063"/><line style="stroke: #000000; stroke-width: 1.0;" x1="480" x2="534" y1="53.9063" y2="53.9063"/><line style="stroke: #000000; stroke-width: 1.0;" x1="534" x2="556" y1="53.9063" y2="53.9063"/><line style="stroke: #000000; stroke-width: 1.0;" x1="556" x2="578" y1="53.9063" y2="53.9063"/><line style="stroke: #000000; stroke-width: 1.0;" x1="578" x2="635" y1="53.9063" y2="53.9063"/><line style="stroke: #000000; stroke-width: 1.0;" x1="6" x2="18" y1="37.9375" y2="37.9375"/><line style="stroke: #000000; stroke-width: 1.0;" x1="18" x2="88" y1="37.9375" y2="37.9375"/><line style="stroke: #000000; stroke-width: 1.0;" x1="88" x2="202" y1="37.9375" y2="37.9375"/><line style="stroke: #000000; stroke-width: 1.0;" x1="202" x2="316" y1="37.9375" y2="37.9375"/><line style="stroke: #000000; stroke-width: 1.0;" x1="316" x2="341" y1="37.9375" y2="37.9375"/><line style="stroke: #000000; stroke-width: 1.0;" x1="341" x2="410" y1="37.9375" y2="37.9375"/><line style="stroke: #000000; stroke-width: 1.0;" x1="410" x2="480" y1="37.9375" y2="37.9375"/><line style="stroke: #000000; stroke-width: 1.0;" x1="480" x2="534" y1="37.9375" y2="37.9375"/><line style="stroke: #000000; stroke-width: 1.0;" x1="534" x2="556" y1="37.9375" y2="37.9375"/><line style="stroke: #000000; stroke-width: 1.0;" x1="556" x2="578" y1="37.9375" y2="37.9375"/><line style="stroke: #000000; stroke-width: 1.0;" x1="578" x2="635" y1="37.9375" y2="37.9375"/><line style="stroke: #000000; stroke-width: 1.0;" x1="6" x2="6" y1="21.9688" y2="37.9375"/><line style="stroke: #000000; stroke-width: 1.0;" x1="18" x2="18" y1="21.9688" y2="37.9375"/><line style="stroke: #000000; stroke-width: 1.0;" x1="88" x2="88" y1="21.9688" y2="37.9375"/><line style="stroke: #000000; stroke-width: 1.0;" x1="202" x2="202" y1="21.9688" y2="37.9375"/><line style="stroke: #000000; stroke-width: 1.0;" x1="316" x2="316" y1="21.9688" y2="37.9375"/><line style="stroke: #000000; stroke-width: 1.0;" x1="341" x2="341" y1="21.9688" y2="37.9375"/><line style="stroke: #000000; stroke-width: 1.0;" x1="410" x2="410" y1="21.9688" y2="37.9375"/><line style="stroke: #000000; stroke-width: 1.0;" x1="480" x2="480" y1="21.9688" y2="37.9375"/><line style="stroke: #000000; stroke-width: 1.0;" x1="534" x2="534" y1="21.9688" y2="37.9375"/><line style="stroke: #000000; stroke-width: 1.0;" x1="556" x2="556" y1="21.9688" y2="37.9375"/><line style="stroke: #000000; stroke-width: 1.0;" x1="578" x2="578" y1="21.9688" y2="37.9375"/><line style="stroke: #000000; stroke-width: 1.0;" x1="635" x2="635" y1="21.9688" y2="37.9375"/><line style="stroke: #000000; stroke-width: 1.0;" x1="6" x2="6" y1="37.9375" y2="53.9063"/><line style="stroke: #000000; stroke-width: 1.0;" x1="18" x2="18" y1="37.9375" y2="53.9063"/><line style="stroke: #000000; stroke-width: 1.0;" x1="88" x2="88" y1="37.9375" y2="53.9063"/><line style="stroke: #000000; stroke-width: 1.0;" x1="202" x2="202" y1="37.9375" y2="53.9063"/><line style="stroke: #000000; stroke-width: 1.0;" x1="316" x2="316" y1="37.9375" y2="53.9063"/><line style="stroke: #000000; stroke-width: 1.0;" x1="341" x2="341" y1="37.9375" y2="53.9063"/><line style="stroke: #000000; stroke-width: 1.0;" x1="410" x2="410" y1="37.9375" y2="53.9063"/><line style="stroke: #000000; stroke-width: 1.0;" x1="480" x2="480" y1="37.9375" y2="53.9063"/><line style="stroke: #000000; stroke-width: 1.0;" x1="534" x2="534" y1="37.9375" y2="53.9063"/><line style="stroke: #000000; stroke-width: 1.0;" x1="556" x2="556" y1="37.9375" y2="53.9063"/><line style="stroke: #000000; stroke-width: 1.0;" x1="578" x2="578" y1="37.9375" y2="53.9063"/><line style="stroke: #000000; stroke-width: 1.0;" x1="635" x2="635" y1="37.9375" y2="53.9063"/><line style="stroke: #000000; stroke-width: 1.0;" x1="5" x2="636" y1="5" y2="5"/><line style="stroke: #000000; stroke-width: 1.0;" x1="5" x2="636" y1="54.9063" y2="54.9063"/><line style="stroke: #000000; stroke-width: 1.0;" x1="5" x2="5" y1="5" y2="20.9688"/><line style="stroke: #000000; stroke-width: 1.0;" x1="636" x2="636" y1="20.9688" y2="54.9063"/><line style="stroke: #000000; stroke-width: 1.0;" x1="636" x2="636" y1="5" y2="20.9688"/><line style="stroke: #000000; stroke-width: 1.0;" x1="5" x2="5" y1="20.9688" y2="54.9063"/></g></svg>