<?xml version="1.0" encoding="UTF-8" standalone="no"?><svg xmlns="http://www.w3.org/2000/svg" xmlns:xlink="http://www.w3.org/1999/xlink" contentScriptType="application/ecmascript" contentStyleType="text/css" height="280px" preserveAspectRatio="none" style="width:557px;height:280px;" version="1.1" viewBox="0 0 557 280" width="557px" zoomAndPan="magnify"><defs><filter height="300%" id="fm1ir0plws2x4" width="300%" x="-1" y="-1"><feGaussianBlur result="blurOut" stdDeviation="2.0"/><feColorMatrix in="blurOut" result="blurOut2" type="matrix" values="0 0 0 0 0 0 0 0 0 0 0 0 0 0 0 0 0 0 .4 0"/><feOffset dx="4.0" dy="4.0" in="blurOut2" result="blurOut3"/><feBlend in="SourceGraphic" in2="blurOut3" mode="normal"/></filter></defs><g><!--cluster service--><polygon fill="#FFFFFF" filter="url(#fm1ir0plws2x4)" points="30,42.5,40,32.5,266,32.5,266,258,256,268,30,268,30,42.5" style="stroke: #000000; stroke-width: 1.5;"/><line style="stroke: #000000; stroke-width: 1.5;" x1="256" x2="265" y1="42.5" y2="33.5"/><line style="stroke: #000000; stroke-width: 1.5;" x1="30" x2="256" y1="42.5" y2="42.5"/><line style="stroke: #000000; stroke-width: 1.5;" x1="256" x2="256" y1="42.5" y2="268"/><text fill="#000000" font-family="sans-serif" font-size="14" font-weight="bold" lengthAdjust="spacingAndGlyphs" textLength="139" x="74.5" y="58.4951">Service container</text><!--cluster database--><polygon fill="#FFFFFF" filter="url(#fm1ir0plws2x4)" points="306,160.5,316,150.5,535,150.5,535,257.5,525,267.5,306,267.5,306,160.5" style="stroke: #000000; stroke-width: 1.5;"/><line style="stroke: #000000; stroke-width: 1.5;" x1="525" x2="534" y1="160.5" y2="151.5"/><line style="stroke: #000000; stroke-width: 1.5;" x1="306" x2="525" y1="160.5" y2="160.5"/><line style="stroke: #000000; stroke-width: 1.5;" x1="525" x2="525" y1="160.5" y2="267.5"/><text fill="#000000" font-family="sans-serif" font-size="14" font-weight="bold" lengthAdjust="spacingAndGlyphs" textLength="153" x="340" y="176.4951">Database container</text><!--entity Application--><polygon fill="#FEFECE" filter="url(#fm1ir0plws2x4)" points="107.5,90.5,117.5,80.5,222.5,80.5,222.5,116.7969,212.5,126.7969,107.5,126.7969,107.5,90.5" style="stroke: #000000; stroke-width: 1.5;"/><line style="stroke: #000000; stroke-width: 1.5;" x1="212.5" x2="221.5" y1="90.5" y2="81.5"/><line style="stroke: #000000; stroke-width: 1.5;" x1="107.5" x2="212.5" y1="90.5" y2="90.5"/><line style="stroke: #000000; stroke-width: 1.5;" x1="212.5" x2="212.5" y1="90.5" y2="126.7969"/><text fill="#000000" font-family="sans-serif" font-size="14" lengthAdjust="spacingAndGlyphs" textLength="75" x="122.5" y="113.4951">Application</text><!--entity Connector--><polygon fill="#FEFECE" filter="url(#fm1ir0plws2x4)" points="108.5,208,118.5,198,221.5,198,221.5,234.2969,211.5,244.2969,108.5,244.2969,108.5,208" style="stroke: #000000; stroke-width: 1.5;"/><line style="stroke: #000000; stroke-width: 1.5;" x1="211.5" x2="220.5" y1="208" y2="199"/><line style="stroke: #000000; stroke-width: 1.5;" x1="108.5" x2="211.5" y1="208" y2="208"/><line style="stroke: #000000; stroke-width: 1.5;" x1="211.5" x2="211.5" y1="208" y2="244.2969"/><text fill="#000000" font-family="sans-serif" font-size="14" lengthAdjust="spacingAndGlyphs" textLength="73" x="123.5" y="230.9951">Connector</text><!--entity 80--><ellipse cx="63" cy="103.5" fill="#FEFECE" filter="url(#fm1ir0plws2x4)" rx="8" ry="8" style="stroke: #A80036; stroke-width: 2.0;"/><text fill="#000000" font-family="sans-serif" font-size="14" lengthAdjust="spacingAndGlyphs" textLength="18" x="54" y="133.4951">80</text><!--entity Database--><path d="M413,208.5 C413,198.5 456,198.5 456,198.5 C456,198.5 499,198.5 499,208.5 L499,233.7969 C499,243.7969 456,243.7969 456,243.7969 C456,243.7969 413,243.7969 413,233.7969 L413,208.5 " fill="#FEFECE" filter="url(#fm1ir0plws2x4)" style="stroke: #000000; stroke-width: 1.5;"/><path d="M413,208.5 C413,218.5 456,218.5 456,218.5 C456,218.5 499,218.5 499,208.5 " fill="none" style="stroke: #000000; stroke-width: 1.5;"/><text fill="#000000" font-family="sans-serif" font-size="14" lengthAdjust="spacingAndGlyphs" textLength="66" x="423" y="235.4951">Database</text><!--entity 27017--><ellipse cx="369" cy="221" fill="#FEFECE" filter="url(#fm1ir0plws2x4)" rx="8" ry="8" style="stroke: #A80036; stroke-width: 2.0;"/><text fill="#000000" font-family="sans-serif" font-size="14" lengthAdjust="spacingAndGlyphs" textLength="45" x="346.5" y="250.9951">27017</text><!--link 80 to Application--><path d="M77.3855,103.5 C87.3704,103.5 97.3553,103.5 107.34,103.5 " fill="none" id="80-Application" style="stroke: #A80036; stroke-width: 1.0;"/><polygon fill="#A80036" points="72.1641,103.5,81.1641,107.5,77.1641,103.5,81.1641,99.5,72.1641,103.5" style="stroke: #A80036; stroke-width: 1.0;"/><!--link Application to Connector--><path d="M165,131.988 C165,150.374 165,174.464 165,192.7917 " fill="none" id="Application-Connector" style="stroke: #A80036; stroke-width: 1.0;"/><polygon fill="#A80036" points="165,197.7988,169,188.7988,165,192.7988,161,188.7988,165,197.7988" style="stroke: #A80036; stroke-width: 1.0;"/><polygon fill="#A80036" points="165,126.77,161,135.77,165,131.77,169,135.77,165,126.77" style="stroke: #A80036; stroke-width: 1.0;"/><!--link 27017 to Database--><path d="M383.32,221 C393.157,221 402.995,221 412.832,221 " fill="none" id="27017-Database" style="stroke: #A80036; stroke-width: 1.0;"/><polygon fill="#A80036" points="378.176,221,387.176,225,383.176,221,387.176,217,378.176,221" style="stroke: #A80036; stroke-width: 1.0;"/><!--link service to database--><path d="M266.0644,121.1326 C266.1415,121.2916 266.219,121.4515 266.2969,121.6122 C266.6086,122.2551 266.9269,122.9116 267.2514,123.5809 C272.4437,134.2901 279.2274,148.2816 286.0104,162.2714 C292.7933,176.2612 299.5755,190.2493 304.7646,200.9519 C305.089,201.6208 305.4071,202.2769 305.7186,202.9193 C305.7964,203.0799 305.8739,203.2397 305.9509,203.3986 " fill="none" id="service-database" style="stroke: #A80036; stroke-width: 1.0;"/><polygon fill="#A80036" points="305.9509,203.3986,305.6237,193.5551,303.7695,198.8995,298.4252,197.0454,305.9509,203.3986" style="stroke: #A80036; stroke-width: 1.0;"/><polygon fill="#A80036" points="266.0644,121.1326,266.3915,130.976,268.2457,125.6317,273.5901,127.4858,266.0644,121.1326" style="stroke: #A80036; stroke-width: 1.0;"/><!--
@startuml
node "Service container" as service {
    node Application
    node Connector

    Application -left-> 80
    Application <-down-> Connector
}

node "Database container" as database {
    database Database

    Database -left-> 27017
}

database <-up-> service
@enduml

PlantUML version 1.2018.10(Sat Aug 25 19:02:59 CEST 2018)
(APACHE source distribution)
Java Runtime: Java(TM) SE Runtime Environment
JVM: Java HotSpot(TM) 64-Bit Server VM
Java Version: 11.0.1+13-LTS
Operating System: Linux
OS Version: 4.9.0-8-amd64
Default Encoding: UTF-8
Language: fr
Country: FR
--></g></svg>