<?xml version="1.0" encoding="UTF-8" standalone="no"?><svg xmlns="http://www.w3.org/2000/svg" xmlns:xlink="http://www.w3.org/1999/xlink" contentScriptType="application/ecmascript" contentStyleType="text/css" height="251px" preserveAspectRatio="none" style="width:624px;height:251px;" version="1.1" viewBox="0 0 624 251" width="624px" zoomAndPan="magnify"><defs><filter height="300%" id="f19d7sxdc2vm43" width="300%" x="-1" y="-1"><feGaussianBlur result="blurOut" stdDeviation="2.0"/><feColorMatrix in="blurOut" result="blurOut2" type="matrix" values="0 0 0 0 0 0 0 0 0 0 0 0 0 0 0 0 0 0 .4 0"/><feOffset dx="4.0" dy="4.0" in="blurOut2" result="blurOut3"/><feBlend in="SourceGraphic" in2="blurOut3" mode="normal"/></filter></defs><g><!--entity User--><ellipse cx="22" cy="18" fill="#FEFECE" filter="url(#f19d7sxdc2vm43)" rx="8" ry="8" style="stroke: #A80036; stroke-width: 2.0;"/><path d="M22,26 L22,53 M9,34 L35,34 M22,53 L9,68 M22,53 L35,68 " fill="none" filter="url(#f19d7sxdc2vm43)" style="stroke: #A80036; stroke-width: 2.0;"/><text fill="#000000" font-family="sans-serif" font-size="14" lengthAdjust="spacingAndGlyphs" textLength="32" x="6" y="87.9951">User</text><!--entity Client--><polygon fill="#FEFECE" filter="url(#f19d7sxdc2vm43)" points="73.5,36.5,83.5,26.5,152.5,26.5,152.5,62.7969,142.5,72.7969,73.5,72.7969,73.5,36.5" style="stroke: #000000; stroke-width: 1.5;"/><line style="stroke: #000000; stroke-width: 1.5;" x1="142.5" x2="151.5" y1="36.5" y2="27.5"/><line style="stroke: #000000; stroke-width: 1.5;" x1="73.5" x2="142.5" y1="36.5" y2="36.5"/><line style="stroke: #000000; stroke-width: 1.5;" x1="142.5" x2="142.5" y1="36.5" y2="72.7969"/><text fill="#000000" font-family="sans-serif" font-size="14" lengthAdjust="spacingAndGlyphs" textLength="39" x="88.5" y="59.4951">Client</text><!--entity reverseproxy--><polygon fill="#FEFECE" filter="url(#f19d7sxdc2vm43)" points="188,36.5,198,26.5,326,26.5,326,62.7969,316,72.7969,188,72.7969,188,36.5" style="stroke: #000000; stroke-width: 1.5;"/><line style="stroke: #000000; stroke-width: 1.5;" x1="316" x2="325" y1="36.5" y2="27.5"/><line style="stroke: #000000; stroke-width: 1.5;" x1="188" x2="316" y1="36.5" y2="36.5"/><line style="stroke: #000000; stroke-width: 1.5;" x1="316" x2="316" y1="36.5" y2="72.7969"/><text fill="#000000" font-family="sans-serif" font-size="14" lengthAdjust="spacingAndGlyphs" textLength="98" x="203" y="59.4951">Reverse proxy</text><!--entity Dispatcher--><polygon fill="#FEFECE" filter="url(#f19d7sxdc2vm43)" points="361.5,36.5,371.5,26.5,476.5,26.5,476.5,62.7969,466.5,72.7969,361.5,72.7969,361.5,36.5" style="stroke: #000000; stroke-width: 1.5;"/><line style="stroke: #000000; stroke-width: 1.5;" x1="466.5" x2="475.5" y1="36.5" y2="27.5"/><line style="stroke: #000000; stroke-width: 1.5;" x1="361.5" x2="466.5" y1="36.5" y2="36.5"/><line style="stroke: #000000; stroke-width: 1.5;" x1="466.5" x2="466.5" y1="36.5" y2="72.7969"/><text fill="#000000" font-family="sans-serif" font-size="14" lengthAdjust="spacingAndGlyphs" textLength="75" x="376.5" y="59.4951">Dispatcher</text><!--entity Service--><polygon fill="#FEFECE" filter="url(#f19d7sxdc2vm43)" points="512,36.5,522,26.5,602,26.5,602,62.7969,592,72.7969,512,72.7969,512,36.5" style="stroke: #000000; stroke-width: 1.5;"/><line style="stroke: #000000; stroke-width: 1.5;" x1="592" x2="601" y1="36.5" y2="27.5"/><line style="stroke: #000000; stroke-width: 1.5;" x1="512" x2="592" y1="36.5" y2="36.5"/><line style="stroke: #000000; stroke-width: 1.5;" x1="592" x2="592" y1="36.5" y2="72.7969"/><text fill="#000000" font-family="sans-serif" font-size="14" lengthAdjust="spacingAndGlyphs" textLength="50" x="527" y="59.4951">Service</text><!--entity Database--><path d="M376,161 C376,151 419,151 419,151 C419,151 462,151 462,161 L462,186.2969 C462,196.2969 419,196.2969 419,196.2969 C419,196.2969 376,196.2969 376,186.2969 L376,161 " fill="#FEFECE" filter="url(#f19d7sxdc2vm43)" style="stroke: #000000; stroke-width: 1.5;"/><path d="M376,161 C376,171 419,171 419,171 C419,171 462,171 462,161 " fill="none" style="stroke: #000000; stroke-width: 1.5;"/><text fill="#000000" font-family="sans-serif" font-size="14" lengthAdjust="spacingAndGlyphs" textLength="66" x="386" y="187.9951">Database</text><!--link User to Client--><path d="M38.3516,67.851 C54.2549,81.79 70.1582,84.321 86.0616,75.445 " fill="none" id="User-Client" style="stroke: #A80036; stroke-width: 1.0;"/><polygon fill="#A80036" points="90.5471,72.639,80.7955,74.0198,86.3079,75.2902,85.0375,80.8026,90.5471,72.639" style="stroke: #A80036; stroke-width: 1.0;"/><text fill="#000000" font-family="sans-serif" font-size="13" lengthAdjust="spacingAndGlyphs" textLength="8" x="46.1106" y="69.0236">1</text><!--link User to Client--><path d="M42.4293,27.825 C58.4686,15.734 74.5079,15.246 90.5471,26.361 " fill="none" id="User-Client" style="stroke: #A80036; stroke-width: 1.0;"/><polygon fill="#A80036" points="38.3516,31.149,47.8549,28.5632,42.2272,27.9899,42.8005,22.3622,38.3516,31.149" style="stroke: #A80036; stroke-width: 1.0;"/><text fill="#000000" font-family="sans-serif" font-size="13" lengthAdjust="spacingAndGlyphs" textLength="16" x="46.1137" y="19.9497">10</text><!--link Client to reverseproxy--><path d="M152.656,63.269 C162.606,65.411 172.556,66.564 182.506,66.729 " fill="none" id="Client-reverseproxy" style="stroke: #A80036; stroke-width: 1.0;"/><polygon fill="#A80036" points="187.709,66.726,178.709,62.726,182.709,66.726,178.709,70.726,187.709,66.726" style="stroke: #A80036; stroke-width: 1.0;"/><text fill="#000000" font-family="sans-serif" font-size="13" lengthAdjust="spacingAndGlyphs" textLength="8" x="160.4322" y="61.4379">2</text><!--link Client to reverseproxy--><path d="M157.586,34.751 C167.627,32.919 177.668,32.093 187.709,32.274 " fill="none" id="Client-reverseproxy" style="stroke: #A80036; stroke-width: 1.0;"/><polygon fill="#A80036" points="152.656,35.731,162.2635,37.898,157.5599,34.7554,160.7025,30.0517,152.656,35.731" style="stroke: #A80036; stroke-width: 1.0;"/><text fill="#000000" font-family="sans-serif" font-size="13" lengthAdjust="spacingAndGlyphs" textLength="8" x="160.4322" y="28.9947">9</text><!--link reverseproxy to Dispatcher--><path d="M326.293,66.39 C336.264,67.003 346.235,66.833 356.206,65.879 " fill="none" id="reverseproxy-Dispatcher" style="stroke: #A80036; stroke-width: 1.0;"/><polygon fill="#A80036" points="361.42,65.308,352.039,62.3086,356.4495,65.8508,352.9074,70.2613,361.42,65.308" style="stroke: #A80036; stroke-width: 1.0;"/><text fill="#000000" font-family="sans-serif" font-size="13" lengthAdjust="spacingAndGlyphs" textLength="8" x="333.8513" y="64.4168">3</text><!--link reverseproxy to Dispatcher--><path d="M331.507,32.361 C341.478,32.02 351.449,32.464 361.42,33.692 " fill="none" id="reverseproxy-Dispatcher" style="stroke: #A80036; stroke-width: 1.0;"/><polygon fill="#A80036" points="326.293,32.61,335.4736,36.176,331.2873,32.3714,335.0919,28.1851,326.293,32.61" style="stroke: #A80036; stroke-width: 1.0;"/><text fill="#000000" font-family="sans-serif" font-size="13" lengthAdjust="spacingAndGlyphs" textLength="8" x="333.8513" y="27.1532">8</text><!--link Dispatcher to Service--><path d="M476.68,66.286 C486.746,67.111 496.812,66.836 506.878,65.459 " fill="none" id="Dispatcher-Service" style="stroke: #A80036; stroke-width: 1.0;"/><polygon fill="#A80036" points="511.82,64.694,502.3144,62.1167,506.8788,65.4583,503.5372,70.0227,511.82,64.694" style="stroke: #A80036; stroke-width: 1.0;"/><text fill="#000000" font-family="sans-serif" font-size="13" lengthAdjust="spacingAndGlyphs" textLength="8" x="484.5828" y="64.5322">4</text><!--link Dispatcher to Service--><path d="M481.896,32.385 C491.87,31.944 501.845,32.584 511.82,34.306 " fill="none" id="Dispatcher-Service" style="stroke: #A80036; stroke-width: 1.0;"/><polygon fill="#A80036" points="476.68,32.714,485.9146,36.1377,481.67,32.3983,485.4095,28.1537,476.68,32.714" style="stroke: #A80036; stroke-width: 1.0;"/><text fill="#000000" font-family="sans-serif" font-size="13" lengthAdjust="spacingAndGlyphs" textLength="8" x="495.9819" y="27.743">5</text><!--link Dispatcher to Database--><path d="M408.913,72.593 C405.597,93.19 405.378,123.9432 408.255,145.8835 " fill="none" id="Dispatcher-Database" style="stroke: #A80036; stroke-width: 1.0;"/><polygon fill="#A80036" points="409.007,150.9806,411.6511,141.4933,408.2775,146.0341,403.7367,142.6605,409.007,150.9806" style="stroke: #A80036; stroke-width: 1.0;"/><text fill="#000000" font-family="sans-serif" font-size="13" lengthAdjust="spacingAndGlyphs" textLength="8" x="397.1271" y="92.8597">6</text><!--link Database to Dispatcher--><path d="M429.581,150.9806 C433.153,130.5752 433.447,99.8361 430.461,77.733 " fill="none" id="Database-Dispatcher" style="stroke: #A80036; stroke-width: 1.0;"/><polygon fill="#A80036" points="429.68,72.593,427.0777,82.0918,430.4313,77.5362,434.9869,80.8898,429.68,72.593" style="stroke: #A80036; stroke-width: 1.0;"/><text fill="#000000" font-family="sans-serif" font-size="13" lengthAdjust="spacingAndGlyphs" textLength="8" x="423.3496" y="139.9577">7</text><rect fill="#DDDDDD" height="26.2969" rx="5" ry="5" style="stroke: #000000; stroke-width: 1.0;" width="381" x="119" y="214"/><text fill="#000000" font-family="sans-serif" font-size="14" lengthAdjust="spacingAndGlyphs" textLength="369" x="125" y="231.9951">Diagramme de communication - Création d'un service</text><!--
@startuml
legend
Diagramme de communication - Création d'un service
endlegend

actor User

node Client
node "Reverse proxy" as reverseproxy
node Dispatcher
node Service
database Database

User "1" -right-> Client
User "10" <-right- Client
Client "2" -right-> reverseproxy
Client "9" <-right- reverseproxy
reverseproxy "3" -right-> Dispatcher
reverseproxy "8" <-right- Dispatcher
Dispatcher "4" -right-> Service
Dispatcher <-right- "5" Service
Dispatcher "6" -down-> Database
Database "7" -down-> Dispatcher
@enduml

PlantUML version 1.2018.10(Sat Aug 25 19:02:59 CEST 2018)
(APACHE source distribution)
Java Runtime: Java(TM) SE Runtime Environment
JVM: Java HotSpot(TM) 64-Bit Server VM
Java Version: 11.0.1+13-LTS
Operating System: Linux
OS Version: 4.9.0-8-amd64
Default Encoding: UTF-8
Language: fr
Country: FR
--></g></svg>