<?xml version="1.0" encoding="UTF-8" standalone="no"?><svg xmlns="http://www.w3.org/2000/svg" xmlns:xlink="http://www.w3.org/1999/xlink" contentScriptType="application/ecmascript" contentStyleType="text/css" height="96px" preserveAspectRatio="none" style="width:218px;height:96px;" version="1.1" viewBox="0 0 218 96" width="218px" zoomAndPan="magnify"><defs/><g><text fill="#000000" font-family="sans-serif" font-size="12" lengthAdjust="spacingAndGlyphs" textLength="44" x="10" y="18.1387">Search</text><line style="stroke: #000000; stroke-width: 1.0;" x1="8" x2="187" y1="20.9688" y2="20.9688"/><line style="stroke: #000000; stroke-width: 1.0;" x1="8" x2="8" y1="17.9688" y2="19.9688"/><line style="stroke: #000000; stroke-width: 1.0;" x1="187" x2="187" y1="17.9688" y2="19.9688"/><path d="M194,8 L192,11 L194,14 L200,14 L200,8 L194,8 M195.5,8.781 L197,10.281 L198.5,8.781 L199.219,9.5 L197.719,11 L199.219,12.5 L198.5,13.219 L197,11.719 L195.5,13.219 L194.781,12.5 L196.281,11 L194.781,9.5 L195.5,8.781 " fill="#000000" style="stroke: ; stroke-width: 0.0; stroke-dasharray: ;"/><text fill="#000000" font-family="sans-serif" font-size="12" lengthAdjust="spacingAndGlyphs" textLength="36" x="7" y="38.1074">Name</text><text fill="#000000" font-family="sans-serif" font-size="12" lengthAdjust="spacingAndGlyphs" textLength="22" x="60" y="38.1074">Ask</text><text fill="#000000" font-family="sans-serif" font-size="12" lengthAdjust="spacingAndGlyphs" textLength="19" x="130" y="38.1074">Bid</text><path d="M208.031,26.9688 L205,29.9688 L204,28.9688 L201,31.9998 L202,32.9998 L204,30.9688 L205,31.9688 L209,27.9688 L208.031,26.9688 M201,33.9688 L201,34.9688 L209,34.9688 L209,33.9688 L201,33.9688 " fill="#000000" style="stroke: ; stroke-width: 0.0; stroke-dasharray: ;"/><text fill="#000000" font-family="sans-serif" font-size="12" lengthAdjust="spacingAndGlyphs" textLength="51" x="7" y="54.0762">EURUSD</text><text fill="#000000" font-family="sans-serif" font-size="12" lengthAdjust="spacingAndGlyphs" textLength="52" x="60" y="54.0762">1.12345</text><text fill="#000000" font-family="sans-serif" font-size="12" lengthAdjust="spacingAndGlyphs" textLength="52" x="130" y="54.0762">1.12345</text><path d="M204,42.9375 L204,45.9375 L201,45.9375 L201,47.9375 L204,47.9375 L204,50.9375 L206,50.9375 L206,47.9375 L209,47.9375 L209,45.9375 L206,45.9375 L206,42.9375 L204,42.9375 " fill="#000000" style="stroke: ; stroke-width: 0.0; stroke-dasharray: ;"/><text fill="#000000" font-family="sans-serif" font-size="12" lengthAdjust="spacingAndGlyphs" textLength="51" x="7" y="70.0449">GBPUSD</text><text fill="#000000" font-family="sans-serif" font-size="12" lengthAdjust="spacingAndGlyphs" textLength="52" x="60" y="70.0449">1.12345</text><text fill="#000000" font-family="sans-serif" font-size="12" lengthAdjust="spacingAndGlyphs" textLength="52" x="130" y="70.0449">1.12345</text><path d="M204,58.9063 L204,61.9063 L201,61.9063 L201,63.9063 L204,63.9063 L204,66.9063 L206,66.9063 L206,63.9063 L209,63.9063 L209,61.9063 L206,61.9063 L206,58.9063 L204,58.9063 " fill="#000000" style="stroke: ; stroke-width: 0.0; stroke-dasharray: ;"/><text fill="#000000" font-family="sans-serif" font-size="12" lengthAdjust="spacingAndGlyphs" textLength="44" x="7" y="86.0137">JPYUSD</text><text fill="#000000" font-family="sans-serif" font-size="12" lengthAdjust="spacingAndGlyphs" textLength="68" x="60" y="86.0137">123.12345</text><text fill="#000000" font-family="sans-serif" font-size="12" lengthAdjust="spacingAndGlyphs" textLength="68" x="130" y="86.0137">123.12345</text><path d="M204,74.875 L204,77.875 L201,77.875 L201,79.875 L204,79.875 L204,82.875 L206,82.875 L206,79.875 L209,79.875 L209,77.875 L206,77.875 L206,74.875 L204,74.875 " fill="#000000" style="stroke: ; stroke-width: 0.0; stroke-dasharray: ;"/><line style="stroke: #000000; stroke-width: 1.0;" x1="6" x2="59" y1="25.9688" y2="25.9688"/><line style="stroke: #000000; stroke-width: 1.0;" x1="129" x2="199" y1="57.9063" y2="57.9063"/><line style="stroke: #000000; stroke-width: 1.0;" x1="59" x2="129" y1="25.9688" y2="25.9688"/><line style="stroke: #000000; stroke-width: 1.0;" x1="199" x2="211" y1="57.9063" y2="57.9063"/><line style="stroke: #000000; stroke-width: 1.0;" x1="129" x2="199" y1="25.9688" y2="25.9688"/><line style="stroke: #000000; stroke-width: 1.0;" x1="199" x2="211" y1="25.9688" y2="25.9688"/><line style="stroke: #000000; stroke-width: 1.0;" x1="6" x2="59" y1="73.875" y2="73.875"/><line style="stroke: #000000; stroke-width: 1.0;" x1="59" x2="129" y1="73.875" y2="73.875"/><line style="stroke: #000000; stroke-width: 1.0;" x1="6" x2="59" y1="41.9375" y2="41.9375"/><line style="stroke: #000000; stroke-width: 1.0;" x1="129" x2="199" y1="73.875" y2="73.875"/><line style="stroke: #000000; stroke-width: 1.0;" x1="59" x2="129" y1="41.9375" y2="41.9375"/><line style="stroke: #000000; stroke-width: 1.0;" x1="199" x2="211" y1="73.875" y2="73.875"/><line style="stroke: #000000; stroke-width: 1.0;" x1="129" x2="199" y1="41.9375" y2="41.9375"/><line style="stroke: #000000; stroke-width: 1.0;" x1="199" x2="211" y1="41.9375" y2="41.9375"/><line style="stroke: #000000; stroke-width: 1.0;" x1="6" x2="59" y1="89.8438" y2="89.8438"/><line style="stroke: #000000; stroke-width: 1.0;" x1="59" x2="129" y1="89.8438" y2="89.8438"/><line style="stroke: #000000; stroke-width: 1.0;" x1="129" x2="199" y1="89.8438" y2="89.8438"/><line style="stroke: #000000; stroke-width: 1.0;" x1="6" x2="59" y1="57.9063" y2="57.9063"/><line style="stroke: #000000; stroke-width: 1.0;" x1="199" x2="211" y1="89.8438" y2="89.8438"/><line style="stroke: #000000; stroke-width: 1.0;" x1="59" x2="129" y1="57.9063" y2="57.9063"/><line style="stroke: #000000; stroke-width: 1.0;" x1="6" x2="6" y1="25.9688" y2="41.9375"/><line style="stroke: #000000; stroke-width: 1.0;" x1="129" x2="129" y1="57.9063" y2="73.875"/><line style="stroke: #000000; stroke-width: 1.0;" x1="59" x2="59" y1="25.9688" y2="41.9375"/><line style="stroke: #000000; stroke-width: 1.0;" x1="199" x2="199" y1="57.9063" y2="73.875"/><line style="stroke: #000000; stroke-width: 1.0;" x1="211" x2="211" y1="57.9063" y2="73.875"/><line style="stroke: #000000; stroke-width: 1.0;" x1="129" x2="129" y1="25.9688" y2="41.9375"/><line style="stroke: #000000; stroke-width: 1.0;" x1="199" x2="199" y1="25.9688" y2="41.9375"/><line style="stroke: #000000; stroke-width: 1.0;" x1="211" x2="211" y1="25.9688" y2="41.9375"/><line style="stroke: #000000; stroke-width: 1.0;" x1="6" x2="6" y1="73.875" y2="89.8438"/><line style="stroke: #000000; stroke-width: 1.0;" x1="59" x2="59" y1="73.875" y2="89.8438"/><line style="stroke: #000000; stroke-width: 1.0;" x1="6" x2="6" y1="41.9375" y2="57.9063"/><line style="stroke: #000000; stroke-width: 1.0;" x1="129" x2="129" y1="73.875" y2="89.8438"/><line style="stroke: #000000; stroke-width: 1.0;" x1="59" x2="59" y1="41.9375" y2="57.9063"/><line style="stroke: #000000; stroke-width: 1.0;" x1="199" x2="199" y1="73.875" y2="89.8438"/><line style="stroke: #000000; stroke-width: 1.0;" x1="211" x2="211" y1="73.875" y2="89.8438"/><line style="stroke: #000000; stroke-width: 1.0;" x1="129" x2="129" y1="41.9375" y2="57.9063"/><line style="stroke: #000000; stroke-width: 1.0;" x1="199" x2="199" y1="41.9375" y2="57.9063"/><line style="stroke: #000000; stroke-width: 1.0;" x1="211" x2="211" y1="41.9375" y2="57.9063"/><line style="stroke: #000000; stroke-width: 1.0;" x1="6" x2="6" y1="57.9063" y2="73.875"/><line style="stroke: #000000; stroke-width: 1.0;" x1="59" x2="59" y1="57.9063" y2="73.875"/></g></svg>