<?xml version="1.0" encoding="UTF-8" standalone="no"?><svg xmlns="http://www.w3.org/2000/svg" xmlns:xlink="http://www.w3.org/1999/xlink" contentScriptType="application/ecmascript" contentStyleType="text/css" height="146px" preserveAspectRatio="none" style="width:473px;height:146px;" version="1.1" viewBox="0 0 473 146" width="473px" zoomAndPan="magnify"><defs><filter height="300%" id="f10kuz0ygf60k1" width="300%" x="-1" y="-1"><feGaussianBlur result="blurOut" stdDeviation="2.0"/><feColorMatrix in="blurOut" result="blurOut2" type="matrix" values="0 0 0 0 0 0 0 0 0 0 0 0 0 0 0 0 0 0 .4 0"/><feOffset dx="4.0" dy="4.0" in="blurOut2" result="blurOut3"/><feBlend in="SourceGraphic" in2="blurOut3" mode="normal"/></filter></defs><g><!--entity User--><ellipse cx="22" cy="18" fill="#FEFECE" filter="url(#f10kuz0ygf60k1)" rx="8" ry="8" style="stroke: #A80036; stroke-width: 2.0;"/><path d="M22,26 L22,53 M9,34 L35,34 M22,53 L9,68 M22,53 L35,68 " fill="none" filter="url(#f10kuz0ygf60k1)" style="stroke: #A80036; stroke-width: 2.0;"/><text fill="#000000" font-family="sans-serif" font-size="14" lengthAdjust="spacingAndGlyphs" textLength="32" x="6" y="87.9951">User</text><!--entity Client--><polygon fill="#FEFECE" filter="url(#f10kuz0ygf60k1)" points="73.5,36.5,83.5,26.5,152.5,26.5,152.5,62.7969,142.5,72.7969,73.5,72.7969,73.5,36.5" style="stroke: #000000; stroke-width: 1.5;"/><line style="stroke: #000000; stroke-width: 1.5;" x1="142.5" x2="151.5" y1="36.5" y2="27.5"/><line style="stroke: #000000; stroke-width: 1.5;" x1="73.5" x2="142.5" y1="36.5" y2="36.5"/><line style="stroke: #000000; stroke-width: 1.5;" x1="142.5" x2="142.5" y1="36.5" y2="72.7969"/><text fill="#000000" font-family="sans-serif" font-size="14" lengthAdjust="spacingAndGlyphs" textLength="39" x="88.5" y="59.4951">Client</text><!--entity reverseproxy--><polygon fill="#FEFECE" filter="url(#f10kuz0ygf60k1)" points="188,36.5,198,26.5,326,26.5,326,62.7969,316,72.7969,188,72.7969,188,36.5" style="stroke: #000000; stroke-width: 1.5;"/><line style="stroke: #000000; stroke-width: 1.5;" x1="316" x2="325" y1="36.5" y2="27.5"/><line style="stroke: #000000; stroke-width: 1.5;" x1="188" x2="316" y1="36.5" y2="36.5"/><line style="stroke: #000000; stroke-width: 1.5;" x1="316" x2="316" y1="36.5" y2="72.7969"/><text fill="#000000" font-family="sans-serif" font-size="14" lengthAdjust="spacingAndGlyphs" textLength="98" x="203" y="59.4951">Reverse proxy</text><!--entity Service--><polygon fill="#FEFECE" filter="url(#f10kuz0ygf60k1)" points="361,36.5,371,26.5,451,26.5,451,62.7969,441,72.7969,361,72.7969,361,36.5" style="stroke: #000000; stroke-width: 1.5;"/><line style="stroke: #000000; stroke-width: 1.5;" x1="441" x2="450" y1="36.5" y2="27.5"/><line style="stroke: #000000; stroke-width: 1.5;" x1="361" x2="441" y1="36.5" y2="36.5"/><line style="stroke: #000000; stroke-width: 1.5;" x1="441" x2="441" y1="36.5" y2="72.7969"/><text fill="#000000" font-family="sans-serif" font-size="14" lengthAdjust="spacingAndGlyphs" textLength="50" x="376" y="59.4951">Service</text><!--link User to Client--><path d="M38.3516,67.8513 C54.2549,81.7899 70.1582,84.3212 86.0616,75.4452 " fill="none" id="User-Client" style="stroke: #A80036; stroke-width: 1.0;"/><polygon fill="#A80036" points="90.5471,72.6392,80.7957,74.0212,86.3082,75.2909,85.0385,80.8035,90.5471,72.6392" style="stroke: #A80036; stroke-width: 1.0;"/><text fill="#000000" font-family="sans-serif" font-size="13" lengthAdjust="spacingAndGlyphs" textLength="8" x="46.1106" y="69.024">1</text><!--link User to Client--><path d="M42.4293,27.8247 C58.4686,15.7336 74.5079,15.2456 90.5471,26.3608 " fill="none" id="User-Client" style="stroke: #A80036; stroke-width: 1.0;"/><polygon fill="#A80036" points="38.3516,31.1487,47.8549,28.5627,42.2272,27.9896,42.8003,22.3618,38.3516,31.1487" style="stroke: #A80036; stroke-width: 1.0;"/><text fill="#000000" font-family="sans-serif" font-size="13" lengthAdjust="spacingAndGlyphs" textLength="8" x="46.1106" y="18.3285">6</text><!--link Client to reverseproxy--><path d="M152.656,63.269 C162.606,65.4107 172.556,66.5642 182.506,66.7293 " fill="none" id="Client-reverseproxy" style="stroke: #A80036; stroke-width: 1.0;"/><polygon fill="#A80036" points="187.709,66.7256,178.709,62.7256,182.709,66.7256,178.709,70.7256,187.709,66.7256" style="stroke: #A80036; stroke-width: 1.0;"/><text fill="#000000" font-family="sans-serif" font-size="13" lengthAdjust="spacingAndGlyphs" textLength="8" x="160.4322" y="61.4379">2</text><!--link Client to reverseproxy--><path d="M157.586,34.7508 C167.627,32.9188 177.668,32.0934 187.709,32.2744 " fill="none" id="Client-reverseproxy" style="stroke: #A80036; stroke-width: 1.0;"/><polygon fill="#A80036" points="152.656,35.731,162.2635,37.8979,157.5599,34.7553,160.7024,30.0517,152.656,35.731" style="stroke: #A80036; stroke-width: 1.0;"/><text fill="#000000" font-family="sans-serif" font-size="13" lengthAdjust="spacingAndGlyphs" textLength="8" x="160.4322" y="28.9947">5</text><!--link reverseproxy to Service--><path d="M326.262,66.6647 C336.076,66.9843 345.89,66.4058 355.704,64.9293 " fill="none" id="reverseproxy-Service" style="stroke: #A80036; stroke-width: 1.0;"/><polygon fill="#A80036" points="360.836,64.0753,351.3011,61.6082,355.9039,64.8967,352.6154,69.4995,360.836,64.0753" style="stroke: #A80036; stroke-width: 1.0;"/><text fill="#000000" font-family="sans-serif" font-size="13" lengthAdjust="spacingAndGlyphs" textLength="8" x="333.8171" y="64.7198">3</text><!--link reverseproxy to Service--><path d="M331.394,32.25 C341.208,32.2436 351.022,33.1351 360.836,34.9247 " fill="none" id="reverseproxy-Service" style="stroke: #A80036; stroke-width: 1.0;"/><polygon fill="#A80036" points="326.262,32.3353,335.3271,36.1856,331.2613,32.2524,335.1945,28.1867,326.262,32.3353" style="stroke: #A80036; stroke-width: 1.0;"/><text fill="#000000" font-family="sans-serif" font-size="13" lengthAdjust="spacingAndGlyphs" textLength="8" x="333.8171" y="26.8502">4</text><rect fill="#DDDDDD" height="26.2969" rx="5" ry="5" style="stroke: #000000; stroke-width: 1.0;" width="428" x="20" y="109"/><text fill="#000000" font-family="sans-serif" font-size="14" lengthAdjust="spacingAndGlyphs" textLength="416" x="26" y="126.9951">Diagramme de communication - Consommation d'un service</text><!--
@startuml
legend
Diagramme de communication - Consommation d'un service
endlegend

actor User

node Client
node "Reverse proxy" as reverseproxy
node Service

User "1" -right-> Client
Client "2" -right-> reverseproxy
reverseproxy "3" -right-> Service
reverseproxy "4" <-right- Service
Client "5" <-right- reverseproxy
User "6" <-right- Client
@enduml

PlantUML version 1.2018.10(Sat Aug 25 19:02:59 CEST 2018)
(APACHE source distribution)
Java Runtime: Java(TM) SE Runtime Environment
JVM: Java HotSpot(TM) 64-Bit Server VM
Java Version: 11.0.1+13-LTS
Operating System: Linux
OS Version: 4.9.0-8-amd64
Default Encoding: UTF-8
Language: fr
Country: FR
--></g></svg>