<?xml version="1.0" encoding="UTF-8" standalone="no"?><svg xmlns="http://www.w3.org/2000/svg" xmlns:xlink="http://www.w3.org/1999/xlink" contentScriptType="application/ecmascript" contentStyleType="text/css" height="208px" preserveAspectRatio="none" style="width:697px;height:208px;" version="1.1" viewBox="0 0 697 208" width="697px" zoomAndPan="magnify"><defs><filter height="300%" id="ffsigwmgt3xm8" width="300%" x="-1" y="-1"><feGaussianBlur result="blurOut" stdDeviation="2.0"/><feColorMatrix in="blurOut" result="blurOut2" type="matrix" values="0 0 0 0 0 0 0 0 0 0 0 0 0 0 0 0 0 0 .4 0"/><feOffset dx="4.0" dy="4.0" in="blurOut2" result="blurOut3"/><feBlend in="SourceGraphic" in2="blurOut3" mode="normal"/></filter></defs><g><ellipse cx="16" cy="102.5" fill="#000000" filter="url(#ffsigwmgt3xm8)" rx="10" ry="10" style="stroke: none; stroke-width: 1.0;"/><rect fill="#FEFECE" filter="url(#ffsigwmgt3xm8)" height="91" rx="12.5" ry="12.5" style="stroke: #A80036; stroke-width: 1.5;" width="145" x="46.5" y="57"/><svg x="56.5" y="67"><defs/><g><text fill="#000000" font-family="sans-serif" font-size="12" font-weight="bold" lengthAdjust="spacingAndGlyphs" textLength="82" x="6" y="17.1387">Account list</text><line style="stroke: #AAAAAA; stroke-width: 1.0; stroke-dasharray: 1.0,2.0;" x1="6" x2="119" y1="25.4688" y2="25.4688"/><text fill="#000000" font-family="sans-serif" font-size="12" lengthAdjust="spacingAndGlyphs" textLength="112" x="6" y="41.1074">No account found</text><rect fill="#EEEEEE" height="17.9688" rx="5" ry="5" style="stroke: #000000; stroke-width: 2.5;" width="92" x="8.5" y="48.4375"/><text fill="#000000" font-family="sans-serif" font-size="12" lengthAdjust="spacingAndGlyphs" textLength="79" x="15" y="61.5762">add account</text></g></svg><rect fill="#FEFECE" filter="url(#ffsigwmgt3xm8)" height="189" rx="12.5" ry="12.5" style="stroke: #A80036; stroke-width: 1.5;" width="152" x="212" y="8"/><svg x="222" y="18"><defs/><g><line style="stroke: #AAAAAA; stroke-width: 1.0; stroke-dasharray: 1.0,2.0;" x1="6" x2="121" y1="26.9609" y2="26.9609"/><rect fill="#EEEEEE" height="16.9688" style="stroke: #000000; stroke-width: 1.0;" width="111" x="7" y="28.9688"/><text fill="#000000" font-family="sans-serif" font-size="12" lengthAdjust="spacingAndGlyphs" textLength="80" x="9" y="42.1074">broker name</text><line style="stroke: #000000; stroke-width: 1.0;" x1="107" x2="107" y1="28.9688" y2="45.9375"/><polygon fill="#000000" points="110,34.9688,116,34.9688,113,40.9375" style="stroke: #000000; stroke-width: 1.0;"/><line style="stroke: #AAAAAA; stroke-width: 1.0;" x1="6" x2="121" y1="52.4375" y2="52.4375"/><line style="stroke: #AAAAAA; stroke-width: 1.0;" x1="6" x2="121" y1="54.4375" y2="54.4375"/><rect fill="#EEEEEE" height="16.9688" style="stroke: #000000; stroke-width: 1.0;" width="111" x="7" y="58.9375"/><text fill="#000000" font-family="sans-serif" font-size="12" lengthAdjust="spacingAndGlyphs" textLength="82" x="9" y="72.0762">account type</text><line style="stroke: #000000; stroke-width: 1.0;" x1="107" x2="107" y1="58.9375" y2="75.9063"/><polygon fill="#000000" points="110,64.9375,116,64.9375,113,70.9063" style="stroke: #000000; stroke-width: 1.0;"/><line style="stroke: #AAAAAA; stroke-width: 1.0;" x1="6" x2="121" y1="82.4063" y2="82.4063"/><line style="stroke: #AAAAAA; stroke-width: 1.0;" x1="6" x2="121" y1="84.4063" y2="84.4063"/><text fill="#000000" font-family="sans-serif" font-size="12" lengthAdjust="spacingAndGlyphs" textLength="63" x="9" y="99.0449">username</text><line style="stroke: #000000; stroke-width: 1.0;" x1="7" x2="74" y1="101.875" y2="101.875"/><line style="stroke: #000000; stroke-width: 1.0;" x1="7" x2="7" y1="98.875" y2="100.875"/><line style="stroke: #000000; stroke-width: 1.0;" x1="74" x2="74" y1="98.875" y2="100.875"/><line style="stroke: #AAAAAA; stroke-width: 1.0;" x1="6" x2="121" y1="108.375" y2="108.375"/><line style="stroke: #AAAAAA; stroke-width: 1.0;" x1="6" x2="121" y1="110.375" y2="110.375"/><text fill="#000000" font-family="sans-serif" font-size="12" lengthAdjust="spacingAndGlyphs" textLength="60" x="9" y="125.0137">password</text><line style="stroke: #000000; stroke-width: 1.0;" x1="7" x2="74" y1="127.8438" y2="127.8438"/><line style="stroke: #000000; stroke-width: 1.0;" x1="7" x2="7" y1="124.8438" y2="126.8438"/><line style="stroke: #000000; stroke-width: 1.0;" x1="74" x2="74" y1="124.8438" y2="126.8438"/><line style="stroke: #AAAAAA; stroke-width: 1.0;" x1="6" x2="121" y1="134.3438" y2="134.3438"/><line style="stroke: #AAAAAA; stroke-width: 1.0;" x1="6" x2="121" y1="136.3438" y2="136.3438"/><rect fill="#EEEEEE" height="17.9688" rx="5" ry="5" style="stroke: #000000; stroke-width: 2.5;" width="84" x="8.5" y="142.3438"/><text fill="#000000" font-family="sans-serif" font-size="12" lengthAdjust="spacingAndGlyphs" textLength="70" x="15.5" y="155.4824">connection</text><line style="stroke: #000000; stroke-width: 1.0;" x1="5" x2="121" y1="11.9844" y2="11.9844"/><line style="stroke: #000000; stroke-width: 1.0;" x1="5" x2="121" y1="163.8125" y2="163.8125"/><line style="stroke: #000000; stroke-width: 1.0;" x1="5" x2="5" y1="11.9844" y2="26.9688"/><line style="stroke: #000000; stroke-width: 1.0;" x1="121" x2="121" y1="11.9844" y2="26.9688"/><line style="stroke: #000000; stroke-width: 1.0;" x1="5" x2="5" y1="138.8438" y2="163.8125"/><line style="stroke: #000000; stroke-width: 1.0;" x1="121" x2="121" y1="138.8438" y2="163.8125"/><line style="stroke: #000000; stroke-width: 1.0;" x1="5" x2="5" y1="112.875" y2="130.8438"/><line style="stroke: #000000; stroke-width: 1.0;" x1="121" x2="121" y1="112.875" y2="130.8438"/><line style="stroke: #000000; stroke-width: 1.0;" x1="5" x2="5" y1="86.9063" y2="104.875"/><line style="stroke: #000000; stroke-width: 1.0;" x1="121" x2="121" y1="86.9063" y2="104.875"/><line style="stroke: #000000; stroke-width: 1.0;" x1="5" x2="5" y1="56.9375" y2="78.9063"/><line style="stroke: #000000; stroke-width: 1.0;" x1="121" x2="121" y1="56.9375" y2="78.9063"/><line style="stroke: #000000; stroke-width: 1.0;" x1="5" x2="5" y1="26.9688" y2="48.9375"/><line style="stroke: #000000; stroke-width: 1.0;" x1="121" x2="121" y1="26.9688" y2="48.9375"/><line style="stroke: #000000; stroke-width: 1.0;" x1="5" x2="5" y1="130.8438" y2="138.8438"/><line style="stroke: #000000; stroke-width: 1.0;" x1="121" x2="121" y1="130.8438" y2="138.8438"/><line style="stroke: #000000; stroke-width: 1.0;" x1="5" x2="5" y1="104.875" y2="112.875"/><line style="stroke: #000000; stroke-width: 1.0;" x1="121" x2="121" y1="104.875" y2="112.875"/><line style="stroke: #000000; stroke-width: 1.0;" x1="5" x2="5" y1="78.9063" y2="86.9063"/><line style="stroke: #000000; stroke-width: 1.0;" x1="121" x2="121" y1="78.9063" y2="86.9063"/><line style="stroke: #000000; stroke-width: 1.0;" x1="5" x2="5" y1="48.9375" y2="56.9375"/><line style="stroke: #000000; stroke-width: 1.0;" x1="121" x2="121" y1="48.9375" y2="56.9375"/><rect fill="#FFFFFF" height="13.9688" style="stroke: #FFFFFF; stroke-width: 1.0;" width="92" x="11" y="5"/><text fill="#000000" font-family="sans-serif" font-size="12" font-weight="bold" lengthAdjust="spacingAndGlyphs" textLength="92" x="11" y="16.1387">Account form</text></g></svg><rect fill="#FEFECE" filter="url(#ffsigwmgt3xm8)" height="189" rx="12.5" ry="12.5" style="stroke: #A80036; stroke-width: 1.5;" width="152" x="384" y="8"/><svg x="394" y="18"><defs/><g><line style="stroke: #AAAAAA; stroke-width: 1.0; stroke-dasharray: 1.0,2.0;" x1="6" x2="121" y1="26.9609" y2="26.9609"/><rect fill="#EEEEEE" height="16.9688" style="stroke: #000000; stroke-width: 1.0;" width="111" x="7" y="28.9688"/><text fill="#000000" font-family="sans-serif" font-size="12" lengthAdjust="spacingAndGlyphs" textLength="80" x="9" y="42.1074">broker name</text><line style="stroke: #000000; stroke-width: 1.0;" x1="107" x2="107" y1="28.9688" y2="45.9375"/><polygon fill="#000000" points="110,34.9688,116,34.9688,113,40.9375" style="stroke: #000000; stroke-width: 1.0;"/><line style="stroke: #AAAAAA; stroke-width: 1.0;" x1="6" x2="121" y1="52.4375" y2="52.4375"/><line style="stroke: #AAAAAA; stroke-width: 1.0;" x1="6" x2="121" y1="54.4375" y2="54.4375"/><rect fill="#EEEEEE" height="16.9688" style="stroke: #000000; stroke-width: 1.0;" width="111" x="7" y="58.9375"/><text fill="#000000" font-family="sans-serif" font-size="12" lengthAdjust="spacingAndGlyphs" textLength="82" x="9" y="72.0762">account type</text><line style="stroke: #000000; stroke-width: 1.0;" x1="107" x2="107" y1="58.9375" y2="75.9063"/><polygon fill="#000000" points="110,64.9375,116,64.9375,113,70.9063" style="stroke: #000000; stroke-width: 1.0;"/><line style="stroke: #AAAAAA; stroke-width: 1.0;" x1="6" x2="121" y1="82.4063" y2="82.4063"/><line style="stroke: #AAAAAA; stroke-width: 1.0;" x1="6" x2="121" y1="84.4063" y2="84.4063"/><text fill="#000000" font-family="sans-serif" font-size="12" lengthAdjust="spacingAndGlyphs" textLength="63" x="9" y="99.0449">username</text><line style="stroke: #000000; stroke-width: 1.0;" x1="7" x2="74" y1="101.875" y2="101.875"/><line style="stroke: #000000; stroke-width: 1.0;" x1="7" x2="7" y1="98.875" y2="100.875"/><line style="stroke: #000000; stroke-width: 1.0;" x1="74" x2="74" y1="98.875" y2="100.875"/><line style="stroke: #AAAAAA; stroke-width: 1.0;" x1="6" x2="121" y1="108.375" y2="108.375"/><line style="stroke: #AAAAAA; stroke-width: 1.0;" x1="6" x2="121" y1="110.375" y2="110.375"/><text fill="#000000" font-family="sans-serif" font-size="12" lengthAdjust="spacingAndGlyphs" textLength="60" x="9" y="125.0137">password</text><line style="stroke: #000000; stroke-width: 1.0;" x1="7" x2="74" y1="127.8438" y2="127.8438"/><line style="stroke: #000000; stroke-width: 1.0;" x1="7" x2="7" y1="124.8438" y2="126.8438"/><line style="stroke: #000000; stroke-width: 1.0;" x1="74" x2="74" y1="124.8438" y2="126.8438"/><line style="stroke: #AAAAAA; stroke-width: 1.0;" x1="6" x2="121" y1="134.3438" y2="134.3438"/><line style="stroke: #AAAAAA; stroke-width: 1.0;" x1="6" x2="121" y1="136.3438" y2="136.3438"/><rect fill="#EEEEEE" height="17.9688" rx="5" ry="5" style="stroke: #000000; stroke-width: 2.5;" width="108" x="8.5" y="142.3438"/><text fill="#000000" font-family="sans-serif" font-size="12" lengthAdjust="spacingAndGlyphs" textLength="82" x="21.5" y="155.4824">connecting...</text><line style="stroke: #000000; stroke-width: 1.0;" x1="5" x2="121" y1="11.9844" y2="11.9844"/><line style="stroke: #000000; stroke-width: 1.0;" x1="5" x2="121" y1="163.8125" y2="163.8125"/><line style="stroke: #000000; stroke-width: 1.0;" x1="5" x2="5" y1="11.9844" y2="26.9688"/><line style="stroke: #000000; stroke-width: 1.0;" x1="121" x2="121" y1="11.9844" y2="26.9688"/><line style="stroke: #000000; stroke-width: 1.0;" x1="5" x2="5" y1="138.8438" y2="163.8125"/><line style="stroke: #000000; stroke-width: 1.0;" x1="121" x2="121" y1="138.8438" y2="163.8125"/><line style="stroke: #000000; stroke-width: 1.0;" x1="5" x2="5" y1="112.875" y2="130.8438"/><line style="stroke: #000000; stroke-width: 1.0;" x1="121" x2="121" y1="112.875" y2="130.8438"/><line style="stroke: #000000; stroke-width: 1.0;" x1="5" x2="5" y1="86.9063" y2="104.875"/><line style="stroke: #000000; stroke-width: 1.0;" x1="121" x2="121" y1="86.9063" y2="104.875"/><line style="stroke: #000000; stroke-width: 1.0;" x1="5" x2="5" y1="56.9375" y2="78.9063"/><line style="stroke: #000000; stroke-width: 1.0;" x1="121" x2="121" y1="56.9375" y2="78.9063"/><line style="stroke: #000000; stroke-width: 1.0;" x1="5" x2="5" y1="26.9688" y2="48.9375"/><line style="stroke: #000000; stroke-width: 1.0;" x1="121" x2="121" y1="26.9688" y2="48.9375"/><line style="stroke: #000000; stroke-width: 1.0;" x1="5" x2="5" y1="130.8438" y2="138.8438"/><line style="stroke: #000000; stroke-width: 1.0;" x1="121" x2="121" y1="130.8438" y2="138.8438"/><line style="stroke: #000000; stroke-width: 1.0;" x1="5" x2="5" y1="104.875" y2="112.875"/><line style="stroke: #000000; stroke-width: 1.0;" x1="121" x2="121" y1="104.875" y2="112.875"/><line style="stroke: #000000; stroke-width: 1.0;" x1="5" x2="5" y1="78.9063" y2="86.9063"/><line style="stroke: #000000; stroke-width: 1.0;" x1="121" x2="121" y1="78.9063" y2="86.9063"/><line style="stroke: #000000; stroke-width: 1.0;" x1="5" x2="5" y1="48.9375" y2="56.9375"/><line style="stroke: #000000; stroke-width: 1.0;" x1="121" x2="121" y1="48.9375" y2="56.9375"/><rect fill="#FFFFFF" height="13.9688" style="stroke: #FFFFFF; stroke-width: 1.0;" width="92" x="11" y="5"/><text fill="#000000" font-family="sans-serif" font-size="12" font-weight="bold" lengthAdjust="spacingAndGlyphs" textLength="92" x="11" y="16.1387">Account form</text></g></svg><rect fill="#FEFECE" filter="url(#ffsigwmgt3xm8)" height="91" rx="12.5" ry="12.5" style="stroke: #A80036; stroke-width: 1.5;" width="130" x="556" y="57"/><svg x="566" y="67"><defs/><g><text fill="#000000" font-family="sans-serif" font-size="12" font-weight="bold" lengthAdjust="spacingAndGlyphs" textLength="82" x="6" y="17.1387">Account list</text><line style="stroke: #AAAAAA; stroke-width: 1.0; stroke-dasharray: 1.0,2.0;" x1="6" x2="104" y1="25.4688" y2="25.4688"/><text fill="#000000" font-family="sans-serif" font-size="12" lengthAdjust="spacingAndGlyphs" textLength="63" x="6" y="41.1074">username</text><path d="M78,32.9375 C76.901,32.9375 76,33.8385 76,34.9375 L76,35.9375 L75,35.9375 L75,39.9375 L81,39.9375 L81,35.9375 L80,35.9375 L80,34.9375 C80,33.8385 79.099,32.9375 78,32.9375 M78,33.9375 C78.561,33.9375 79,34.3765 79,34.9375 L79,35.9375 L77,35.9375 L77,34.9375 C77,34.3765 77.439,33.9375 78,33.9375 " fill="#000000" style="stroke: ; stroke-width: 0.0; stroke-dasharray: ;"/><rect fill="#EEEEEE" height="17.9688" rx="5" ry="5" style="stroke: #000000; stroke-width: 2.5;" width="92" x="8.5" y="48.4375"/><text fill="#000000" font-family="sans-serif" font-size="12" lengthAdjust="spacingAndGlyphs" textLength="79" x="15" y="61.5762">add account</text></g></svg><!--link start to accountlist--><path d="M26.0586,102.5 C31.1413,102.5 36.2241,102.5 41.3068,102.5 " fill="none" id="start-accountlist" style="stroke: #A80036; stroke-width: 1.0;"/><polygon fill="#A80036" points="46.3895,102.5,37.3895,98.5,41.3895,102.5,37.3895,106.5,46.3895,102.5" style="stroke: #A80036; stroke-width: 1.0;"/><!--link accountlist to accountform--><path d="M191.617,102.5 C196.7,102.5 201.783,102.5 206.865,102.5 " fill="none" id="accountlist-accountform" style="stroke: #A80036; stroke-width: 1.0;"/><polygon fill="#A80036" points="211.948,102.5,202.948,98.5,206.948,102.5,202.948,106.5,211.948,102.5" style="stroke: #A80036; stroke-width: 1.0;"/><!--link accountform to accountformwaiting--><path d="M364.258,102.5 C369.018,102.5 373.779,102.5 378.54,102.5 " fill="none" id="accountform-accountformwaiting" style="stroke: #A80036; stroke-width: 1.0;"/><polygon fill="#A80036" points="383.705,102.5,374.705,98.5,378.705,102.5,374.705,106.5,383.705,102.5" style="stroke: #A80036; stroke-width: 1.0;"/><!--link accountformwaiting to {{\nsalt\n{\n<b>Account list\n..\nusername <&lock-locked>\n[add account]\n}\n}}--><path d="M536.098,102.5 C540.969,102.5 545.84,102.5 550.711,102.5 " fill="none" id="accountformwaiting-{{\nsalt\n{\n&lt;b&gt;Account list\n..\nusername &lt;&amp;lock-locked&gt;\n[add account]\n}\n}}" style="stroke: #A80036; stroke-width: 1.0;"/><polygon fill="#A80036" points="555.997,102.5,546.997,98.5,550.997,102.5,546.997,106.5,555.997,102.5" style="stroke: #A80036; stroke-width: 1.0;"/><!--
@startuml
(*) -right-> "
{{
salt
{
<b>Account list
..
No account found
[add account]
}
}}
" as accountlist

accountlist -right-> "
{{
salt
{^<b>Account form
..
{ ^broker name ^ }
==
{ ^account type^ }
==
"username"
==
"password"
==
[connection]
}
}}
" as accountform

accountform -right-> "
{{
salt
{^<b>Account form
..
{ ^broker name ^ }
==
{ ^account type^ }
==
"username"
==
"password"
==
[connecting...]
}
}}
" as accountformwaiting

accountformwaiting -right-> "
{{
salt
{
<b>Account list
..
username <&lock-locked>
[add account]
}
}}
"
@enduml

PlantUML version 1.2018.10(Sat Aug 25 19:02:59 CEST 2018)
(APACHE source distribution)
Java Runtime: Java(TM) SE Runtime Environment
JVM: Java HotSpot(TM) 64-Bit Server VM
Java Version: 11.0.1+13-LTS
Operating System: Linux
OS Version: 4.9.0-8-amd64
Default Encoding: UTF-8
Language: fr
Country: FR
--></g></svg>