<?xml version="1.0" encoding="UTF-8" standalone="no"?><svg xmlns="http://www.w3.org/2000/svg" xmlns:xlink="http://www.w3.org/1999/xlink" contentScriptType="application/ecmascript" contentStyleType="text/css" height="355px" preserveAspectRatio="none" style="width:403px;height:355px;" version="1.1" viewBox="0 0 403 355" width="403px" zoomAndPan="magnify"><defs><filter height="300%" id="foy0y6snrp4ll" width="300%" x="-1" y="-1"><feGaussianBlur result="blurOut" stdDeviation="2.0"/><feColorMatrix in="blurOut" result="blurOut2" type="matrix" values="0 0 0 0 0 0 0 0 0 0 0 0 0 0 0 0 0 0 .4 0"/><feOffset dx="4.0" dy="4.0" in="blurOut2" result="blurOut3"/><feBlend in="SourceGraphic" in2="blurOut3" mode="normal"/></filter></defs><g><line style="stroke: #A80036; stroke-width: 1.0; stroke-dasharray: 5.0,5.0;" x1="36" x2="36" y1="38.2969" y2="275.2266"/><line style="stroke: #A80036; stroke-width: 1.0; stroke-dasharray: 5.0,5.0;" x1="133" x2="133" y1="38.2969" y2="275.2266"/><line style="stroke: #A80036; stroke-width: 1.0; stroke-dasharray: 5.0,5.0;" x1="235" x2="235" y1="38.2969" y2="275.2266"/><line style="stroke: #A80036; stroke-width: 1.0; stroke-dasharray: 5.0,5.0;" x1="354" x2="354" y1="38.2969" y2="275.2266"/><rect fill="#FEFECE" filter="url(#foy0y6snrp4ll)" height="30.2969" style="stroke: #A80036; stroke-width: 1.5;" width="53" x="8" y="3"/><text fill="#000000" font-family="sans-serif" font-size="14" lengthAdjust="spacingAndGlyphs" textLength="39" x="15" y="22.9951">Client</text><rect fill="#FEFECE" filter="url(#foy0y6snrp4ll)" height="30.2969" style="stroke: #A80036; stroke-width: 1.5;" width="53" x="8" y="274.2266"/><text fill="#000000" font-family="sans-serif" font-size="14" lengthAdjust="spacingAndGlyphs" textLength="39" x="15" y="294.2217">Client</text><rect fill="#FEFECE" filter="url(#foy0y6snrp4ll)" height="30.2969" style="stroke: #A80036; stroke-width: 1.5;" width="112" x="75" y="3"/><text fill="#000000" font-family="sans-serif" font-size="14" lengthAdjust="spacingAndGlyphs" textLength="98" x="82" y="22.9951">Reverse Proxy</text><rect fill="#FEFECE" filter="url(#foy0y6snrp4ll)" height="30.2969" style="stroke: #A80036; stroke-width: 1.5;" width="112" x="75" y="274.2266"/><text fill="#000000" font-family="sans-serif" font-size="14" lengthAdjust="spacingAndGlyphs" textLength="98" x="82" y="294.2217">Reverse Proxy</text><rect fill="#FEFECE" filter="url(#foy0y6snrp4ll)" height="30.2969" style="stroke: #A80036; stroke-width: 1.5;" width="64" x="201" y="3"/><text fill="#000000" font-family="sans-serif" font-size="14" lengthAdjust="spacingAndGlyphs" textLength="50" x="208" y="22.9951">Service</text><rect fill="#FEFECE" filter="url(#foy0y6snrp4ll)" height="30.2969" style="stroke: #A80036; stroke-width: 1.5;" width="64" x="201" y="274.2266"/><text fill="#000000" font-family="sans-serif" font-size="14" lengthAdjust="spacingAndGlyphs" textLength="50" x="208" y="294.2217">Service</text><rect fill="#FEFECE" filter="url(#foy0y6snrp4ll)" height="30.2969" style="stroke: #A80036; stroke-width: 1.5;" width="80" x="312" y="3"/><text fill="#000000" font-family="sans-serif" font-size="14" lengthAdjust="spacingAndGlyphs" textLength="66" x="319" y="22.9951">Database</text><rect fill="#FEFECE" filter="url(#foy0y6snrp4ll)" height="30.2969" style="stroke: #A80036; stroke-width: 1.5;" width="80" x="312" y="274.2266"/><text fill="#000000" font-family="sans-serif" font-size="14" lengthAdjust="spacingAndGlyphs" textLength="66" x="319" y="294.2217">Database</text><polygon fill="#A80036" points="121,65.4297,131,69.4297,121,73.4297,125,69.4297" style="stroke: #A80036; stroke-width: 1.0;"/><line style="stroke: #A80036; stroke-width: 1.0;" x1="36.5" x2="127" y1="69.4297" y2="69.4297"/><text fill="#000000" font-family="sans-serif" font-size="13" lengthAdjust="spacingAndGlyphs" textLength="52" x="43.5" y="64.3638">Request</text><polygon fill="#A80036" points="223,94.5625,233,98.5625,223,102.5625,227,98.5625" style="stroke: #A80036; stroke-width: 1.0;"/><line style="stroke: #A80036; stroke-width: 1.0;" x1="133" x2="229" y1="98.5625" y2="98.5625"/><text fill="#000000" font-family="sans-serif" font-size="13" lengthAdjust="spacingAndGlyphs" textLength="52" x="140" y="93.4966">Request</text><line style="stroke: #A80036; stroke-width: 1.0;" x1="235" x2="277" y1="127.6953" y2="127.6953"/><line style="stroke: #A80036; stroke-width: 1.0;" x1="277" x2="277" y1="127.6953" y2="140.6953"/><line style="stroke: #A80036; stroke-width: 1.0;" x1="236" x2="277" y1="140.6953" y2="140.6953"/><polygon fill="#A80036" points="246,136.6953,236,140.6953,246,144.6953,242,140.6953" style="stroke: #A80036; stroke-width: 1.0;"/><text fill="#000000" font-family="sans-serif" font-size="13" lengthAdjust="spacingAndGlyphs" textLength="67" x="242" y="122.6294">Treatment</text><polygon fill="#A80036" points="342,165.8281,352,169.8281,342,173.8281,346,169.8281" style="stroke: #A80036; stroke-width: 1.0;"/><line style="stroke: #A80036; stroke-width: 1.0;" x1="235" x2="348" y1="169.8281" y2="169.8281"/><text fill="#000000" font-family="sans-serif" font-size="13" lengthAdjust="spacingAndGlyphs" textLength="76" x="242" y="164.7622">Save status</text><polygon fill="#A80036" points="246,194.9609,236,198.9609,246,202.9609,242,198.9609" style="stroke: #A80036; stroke-width: 1.0;"/><line style="stroke: #A80036; stroke-width: 1.0; stroke-dasharray: 2.0,2.0;" x1="240" x2="353" y1="198.9609" y2="198.9609"/><text fill="#000000" font-family="sans-serif" font-size="13" lengthAdjust="spacingAndGlyphs" textLength="95" x="252" y="193.895">Save response</text><polygon fill="#A80036" points="144,224.0938,134,228.0938,144,232.0938,140,228.0938" style="stroke: #A80036; stroke-width: 1.0;"/><line style="stroke: #A80036; stroke-width: 1.0;" x1="138" x2="234" y1="228.0938" y2="228.0938"/><text fill="#000000" font-family="sans-serif" font-size="13" lengthAdjust="spacingAndGlyphs" textLength="62" x="150" y="223.0278">Response</text><polygon fill="#A80036" points="47.5,253.2266,37.5,257.2266,47.5,261.2266,43.5,257.2266" style="stroke: #A80036; stroke-width: 1.0;"/><line style="stroke: #A80036; stroke-width: 1.0;" x1="41.5" x2="132" y1="257.2266" y2="257.2266"/><text fill="#000000" font-family="sans-serif" font-size="13" lengthAdjust="spacingAndGlyphs" textLength="62" x="53.5" y="252.1606">Response</text><rect fill="#DDDDDD" height="26.2969" rx="5" ry="5" style="stroke: #000000; stroke-width: 1.0;" width="374" x="14.5" y="318.5234"/><text fill="#000000" font-family="sans-serif" font-size="14" lengthAdjust="spacingAndGlyphs" textLength="362" x="20.5" y="336.5186">Diagramme de séquences - Demande de connexion</text><!--
@startuml

legend
Diagramme de séquences - Demande de connexion
endlegend

Client -> "Reverse Proxy": Request
"Reverse Proxy" -> Service: Request
Service <-> Service: Treatment
Service -> Database: Save status
Service <- - Database: Save response
"Reverse Proxy" <- Service: Response
Client <- "Reverse Proxy": Response
@enduml

PlantUML version 1.2018.10(Sat Aug 25 19:02:59 CEST 2018)
(APACHE source distribution)
Java Runtime: Java(TM) SE Runtime Environment
JVM: Java HotSpot(TM) 64-Bit Server VM
Java Version: 11.0.1+13-LTS
Operating System: Linux
OS Version: 4.9.0-8-amd64
Default Encoding: UTF-8
Language: fr
Country: FR
--></g></svg>