<?xml version="1.0" encoding="UTF-8" standalone="no"?><svg xmlns="http://www.w3.org/2000/svg" xmlns:xlink="http://www.w3.org/1999/xlink" contentScriptType="application/ecmascript" contentStyleType="text/css" height="391px" preserveAspectRatio="none" style="width:879px;height:391px;" version="1.1" viewBox="0 0 879 391" width="879px" zoomAndPan="magnify"><defs><filter height="300%" id="f4oc6gy3qbkix" width="300%" x="-1" y="-1"><feGaussianBlur result="blurOut" stdDeviation="2.0"/><feColorMatrix in="blurOut" result="blurOut2" type="matrix" values="0 0 0 0 0 0 0 0 0 0 0 0 0 0 0 0 0 0 .4 0"/><feOffset dx="4.0" dy="4.0" in="blurOut2" result="blurOut3"/><feBlend in="SourceGraphic" in2="blurOut3" mode="normal"/></filter></defs><g><!--class Service--><rect fill="#FEFECE" filter="url(#f4oc6gy3qbkix)" height="73.6094" id="Service" style="stroke: #A80036; stroke-width: 1.5;" width="186" x="315" y="14"/><ellipse cx="381.25" cy="30" fill="#ADD1B2" rx="11" ry="11" style="stroke: #A80036; stroke-width: 1.0;"/><path d="M384.2188,35.6406 Q383.6406,35.9375 383,36.0781 Q382.3594,36.2344 381.6563,36.2344 Q379.1563,36.2344 377.8281,34.5938 Q376.5156,32.9375 376.5156,29.8125 Q376.5156,26.6875 377.8281,25.0313 Q379.1563,23.375 381.6563,23.375 Q382.3594,23.375 383,23.5313 Q383.6563,23.6875 384.2188,23.9844 L384.2188,26.7031 Q383.5938,26.125 383,25.8594 Q382.4063,25.5781 381.7813,25.5781 Q380.4375,25.5781 379.75,26.6563 Q379.0625,27.7188 379.0625,29.8125 Q379.0625,31.9063 379.75,32.9844 Q380.4375,34.0469 381.7813,34.0469 Q382.4063,34.0469 383,33.7813 Q383.5938,33.5 384.2188,32.9219 L384.2188,35.6406 Z "/><text fill="#000000" font-family="sans-serif" font-size="12" lengthAdjust="spacingAndGlyphs" textLength="45" x="401.75" y="34.1543">Service</text><line style="stroke: #A80036; stroke-width: 1.5;" x1="316" x2="500" y1="46" y2="46"/><rect fill="none" height="6" style="stroke: #C82930; stroke-width: 1.0;" width="6" x="323" y="54.9023"/><text fill="#000000" font-family="sans-serif" font-size="11" lengthAdjust="spacingAndGlyphs" textLength="160" x="335" y="60.2104">controller: ServiceController</text><line style="stroke: #A80036; stroke-width: 1.5;" x1="316" x2="500" y1="66.8047" y2="66.8047"/><ellipse cx="326" cy="78.707" fill="#84BE84" rx="3" ry="3" style="stroke: #038048; stroke-width: 1.0;"/><text fill="#000000" font-family="sans-serif" font-size="11" lengthAdjust="spacingAndGlyphs" textLength="152" x="335" y="81.0151">main(args: Array&lt;String&gt;)</text><!--class ServiceController--><rect fill="#FEFECE" filter="url(#f4oc6gy3qbkix)" height="73.6094" id="ServiceController" style="stroke: #A80036; stroke-width: 1.5;" width="237" x="289.5" y="154"/><ellipse cx="350.75" cy="170" fill="#ADD1B2" rx="11" ry="11" style="stroke: #A80036; stroke-width: 1.0;"/><path d="M353.7188,175.6406 Q353.1406,175.9375 352.5,176.0781 Q351.8594,176.2344 351.1563,176.2344 Q348.6563,176.2344 347.3281,174.5938 Q346.0156,172.9375 346.0156,169.8125 Q346.0156,166.6875 347.3281,165.0313 Q348.6563,163.375 351.1563,163.375 Q351.8594,163.375 352.5,163.5313 Q353.1563,163.6875 353.7188,163.9844 L353.7188,166.7031 Q353.0938,166.125 352.5,165.8594 Q351.9063,165.5781 351.2813,165.5781 Q349.9375,165.5781 349.25,166.6563 Q348.5625,167.7188 348.5625,169.8125 Q348.5625,171.9063 349.25,172.9844 Q349.9375,174.0469 351.2813,174.0469 Q351.9063,174.0469 352.5,173.7813 Q353.0938,173.5 353.7188,172.9219 L353.7188,175.6406 Z "/><text fill="#000000" font-family="sans-serif" font-size="12" lengthAdjust="spacingAndGlyphs" textLength="106" x="371.25" y="174.1543">ServiceController</text><line style="stroke: #A80036; stroke-width: 1.5;" x1="290.5" x2="525.5" y1="186" y2="186"/><rect fill="none" height="6" style="stroke: #C82930; stroke-width: 1.0;" width="6" x="297.5" y="194.9023"/><text fill="#000000" font-family="sans-serif" font-size="11" lengthAdjust="spacingAndGlyphs" textLength="125" x="309.5" y="200.2104">connector: IConnector</text><line style="stroke: #A80036; stroke-width: 1.5;" x1="290.5" x2="525.5" y1="206.8047" y2="206.8047"/><rect fill="#F24D5C" height="6" style="stroke: #C82930; stroke-width: 1.0;" width="6" x="297.5" y="215.707"/><text fill="#000000" font-family="sans-serif" font-size="11" lengthAdjust="spacingAndGlyphs" textLength="211" x="309.5" y="221.0151">load(tradingAccount: TradingAccount)</text><!--class Connector--><rect fill="#FEFECE" filter="url(#f4oc6gy3qbkix)" height="48" id="Connector" style="stroke: #A80036; stroke-width: 1.5;" width="97" x="359.5" y="288"/><ellipse cx="374.5" cy="304" fill="#ADD1B2" rx="11" ry="11" style="stroke: #A80036; stroke-width: 1.0;"/><path d="M377.4688,309.6406 Q376.8906,309.9375 376.25,310.0781 Q375.6094,310.2344 374.9063,310.2344 Q372.4063,310.2344 371.0781,308.5938 Q369.7656,306.9375 369.7656,303.8125 Q369.7656,300.6875 371.0781,299.0313 Q372.4063,297.375 374.9063,297.375 Q375.6094,297.375 376.25,297.5313 Q376.9063,297.6875 377.4688,297.9844 L377.4688,300.7031 Q376.8438,300.125 376.25,299.8594 Q375.6563,299.5781 375.0313,299.5781 Q373.6875,299.5781 373,300.6563 Q372.3125,301.7188 372.3125,303.8125 Q372.3125,305.9063 373,306.9844 Q373.6875,308.0469 375.0313,308.0469 Q375.6563,308.0469 376.25,307.7813 Q376.8438,307.5 377.4688,306.9219 L377.4688,309.6406 Z "/><text fill="#000000" font-family="sans-serif" font-size="12" lengthAdjust="spacingAndGlyphs" textLength="65" x="388.5" y="308.1543">Connector</text><line style="stroke: #A80036; stroke-width: 1.5;" x1="360.5" x2="455.5" y1="320" y2="320"/><line style="stroke: #A80036; stroke-width: 1.5;" x1="360.5" x2="455.5" y1="328" y2="328"/><!--class IConnectorObserver--><rect fill="#FEFECE" filter="url(#f4oc6gy3qbkix)" height="73.6094" id="IConnectorObserver" style="stroke: #A80036; stroke-width: 1.5;" width="332" x="536" y="14"/><ellipse cx="636.25" cy="30" fill="#B4A7E5" rx="11" ry="11" style="stroke: #A80036; stroke-width: 1.0;"/><path d="M632.1719,25.7656 L632.1719,23.6094 L639.5625,23.6094 L639.5625,25.7656 L637.0938,25.7656 L637.0938,33.8438 L639.5625,33.8438 L639.5625,36 L632.1719,36 L632.1719,33.8438 L634.6406,33.8438 L634.6406,25.7656 L632.1719,25.7656 Z "/><text fill="#000000" font-family="sans-serif" font-size="12" font-style="italic" lengthAdjust="spacingAndGlyphs" textLength="123" x="656.75" y="34.1543">IConnectorObserver</text><line style="stroke: #A80036; stroke-width: 1.5;" x1="537" x2="867" y1="46" y2="46"/><rect fill="none" height="6" style="stroke: #C82930; stroke-width: 1.0;" width="6" x="544" y="54.9023"/><text fill="#000000" font-family="sans-serif" font-size="11" lengthAdjust="spacingAndGlyphs" textLength="178" x="556" y="60.2104">connector: IConnectorObserver</text><line style="stroke: #A80036; stroke-width: 1.5;" x1="537" x2="867" y1="66.8047" y2="66.8047"/><ellipse cx="547" cy="78.707" fill="#84BE84" rx="3" ry="3" style="stroke: #038048; stroke-width: 1.0;"/><text fill="#000000" font-family="sans-serif" font-size="11" lengthAdjust="spacingAndGlyphs" textLength="306" x="556" y="81.0151">update(message: ConnectorEventEnum, data: Object)</text><!--class IConnector--><rect fill="#FEFECE" filter="url(#f4oc6gy3qbkix)" height="86.4141" id="IConnector" style="stroke: #A80036; stroke-width: 1.5;" width="274" x="6" y="8"/><ellipse cx="104.25" cy="24" fill="#B4A7E5" rx="11" ry="11" style="stroke: #A80036; stroke-width: 1.0;"/><path d="M100.1719,19.7656 L100.1719,17.6094 L107.5625,17.6094 L107.5625,19.7656 L105.0938,19.7656 L105.0938,27.8438 L107.5625,27.8438 L107.5625,30 L100.1719,30 L100.1719,27.8438 L102.6406,27.8438 L102.6406,19.7656 L100.1719,19.7656 Z "/><text fill="#000000" font-family="sans-serif" font-size="12" font-style="italic" lengthAdjust="spacingAndGlyphs" textLength="69" x="124.75" y="28.1543">IConnector</text><line style="stroke: #A80036; stroke-width: 1.5;" x1="7" x2="279" y1="40" y2="40"/><line style="stroke: #A80036; stroke-width: 1.5;" x1="7" x2="279" y1="48" y2="48"/><ellipse cx="17" cy="59.9023" fill="#84BE84" rx="3" ry="3" style="stroke: #038048; stroke-width: 1.0;"/><text fill="#000000" font-family="sans-serif" font-size="11" lengthAdjust="spacingAndGlyphs" textLength="248" x="26" y="62.2104">connection(tradingAccount: TradingAccount)</text><ellipse cx="17" cy="72.707" fill="#84BE84" rx="3" ry="3" style="stroke: #038048; stroke-width: 1.0;"/><text fill="#000000" font-family="sans-serif" font-size="11" lengthAdjust="spacingAndGlyphs" textLength="35" x="26" y="75.0151">login()</text><ellipse cx="17" cy="85.5117" fill="#84BE84" rx="3" ry="3" style="stroke: #038048; stroke-width: 1.0;"/><text fill="#000000" font-family="sans-serif" font-size="11" lengthAdjust="spacingAndGlyphs" textLength="43" x="26" y="87.8198">logout()</text><!--link Service to ServiceController--><path d="M408,101.4 C408,118.763 408,137.931 408,153.984 " fill="none" id="Service-ServiceController" style="stroke: #A80036; stroke-width: 1.0;"/><polygon fill="#A80036" points="408,88.258,404,94.258,408,100.258,412,94.258,408,88.258" style="stroke: #A80036; stroke-width: 1.0;"/><!--link ServiceController to Connector--><path d="M408,241.2384 C408,257.3871 408,274.5757 408,287.8505 " fill="none" id="ServiceController-Connector" style="stroke: #A80036; stroke-width: 1.0;"/><polygon fill="#A80036" points="408,228.027,404,234.027,408,240.027,412,234.027,408,228.027" style="stroke: #A80036; stroke-width: 1.0;"/><!--link IConnectorObserver to Connector--><path d="M674.699,88.212 C645.142,125.924 595.309,185.342 544,228 C521.627,246.6011 494.678,263.9291 470.692,277.8898 " fill="none" id="IConnectorObserver-Connector" style="stroke: #A80036; stroke-width: 1.0;"/><polygon fill="none" points="473.905,284.1146,453.052,287.8745,467.009,271.9309,473.905,284.1146" style="stroke: #A80036; stroke-width: 1.0;"/><!--link IConnector to Connector--><path d="M167.203,94.017 C190.591,132.13 228.761,188.27 272,228 C293.019,247.3131 319.192,264.5428 342.947,278.2305 " fill="none" id="IConnector-Connector" style="stroke: #A80036; stroke-width: 1.0;"/><polygon fill="none" points="346.428,272.1562,360.517,287.983,339.633,284.3969,346.428,272.1562" style="stroke: #A80036; stroke-width: 1.0;"/><!--link IConnectorObserver to ServiceController--><path d="M625.139,88.078 C587.833,105.589 542.654,126.795 503.189,145.319 " fill="none" id="IConnectorObserver-ServiceController" style="stroke: #A80036; stroke-width: 1.0;"/><polygon fill="none" points="506.002,151.732,484.922,153.894,500.053,139.059,506.002,151.732" style="stroke: #A80036; stroke-width: 1.0;"/><!--link IConnector to ServiceController--><path d="M223.949,94.154 C254.613,110.123 289.642,128.364 320.853,144.618 " fill="none" id="IConnector-ServiceController" style="stroke: #A80036; stroke-width: 1.0;"/><polygon fill="none" points="324.22,138.479,338.726,153.925,317.754,150.896,324.22,138.479" style="stroke: #A80036; stroke-width: 1.0;"/><rect fill="#DDDDDD" height="26.2969" rx="5" ry="5" style="stroke: #000000; stroke-width: 1.0;" width="315" x="285" y="354"/><text fill="#000000" font-family="sans-serif" font-size="14" lengthAdjust="spacingAndGlyphs" textLength="303" x="291" y="371.9951">Diagramme de classe - Gestion d'un service</text><!--
@startuml
legend
Diagramme de classe - Gestion d'un service
endlegend

class Service {
    - controller: ServiceController
    + main(args: Array<String>)
}

class ServiceController {
    - connector: IConnector
    - load(tradingAccount: TradingAccount)
}

class Connector

interface IConnectorObserver {
    - connector: IConnectorObserver
    + update(message: ConnectorEventEnum, data: Object)
}

interface IConnector {
    + connection(tradingAccount: TradingAccount)
    + login()
    + logout()
}

Service *- - ServiceController
ServiceController *- - Connector
Connector <|-up- IConnectorObserver
Connector <|-up- IConnector
ServiceController <|-up- IConnectorObserver
ServiceController <|-up- IConnector
@enduml

PlantUML version 1.2018.10(Sat Aug 25 19:02:59 CEST 2018)
(APACHE source distribution)
Java Runtime: Java(TM) SE Runtime Environment
JVM: Java HotSpot(TM) 64-Bit Server VM
Java Version: 11.0.1+13-LTS
Operating System: Linux
OS Version: 4.9.0-8-amd64
Default Encoding: UTF-8
Language: fr
Country: FR
--></g></svg>