<?xml version="1.0" encoding="UTF-8" standalone="no"?><svg xmlns="http://www.w3.org/2000/svg" xmlns:xlink="http://www.w3.org/1999/xlink" contentScriptType="application/ecmascript" contentStyleType="text/css" height="172px" preserveAspectRatio="none" style="width:414px;height:172px;" version="1.1" viewBox="0 0 414 172" width="414px" zoomAndPan="magnify"><defs><filter height="300%" id="f11fffqz2ku854" width="300%" x="-1" y="-1"><feGaussianBlur result="blurOut" stdDeviation="2.0"/><feColorMatrix in="blurOut" result="blurOut2" type="matrix" values="0 0 0 0 0 0 0 0 0 0 0 0 0 0 0 0 0 0 .4 0"/><feOffset dx="4.0" dy="4.0" in="blurOut2" result="blurOut3"/><feBlend in="SourceGraphic" in2="blurOut3" mode="normal"/></filter></defs><g><!--entity Service--><polygon fill="#FEFECE" filter="url(#f11fffqz2ku854)" points="143,18,153,8,233,8,233,44.2969,223,54.2969,143,54.2969,143,18" style="stroke: #000000; stroke-width: 1.5;"/><line style="stroke: #000000; stroke-width: 1.5;" x1="223" x2="232" y1="18" y2="9"/><line style="stroke: #000000; stroke-width: 1.5;" x1="143" x2="223" y1="18" y2="18"/><line style="stroke: #000000; stroke-width: 1.5;" x1="223" x2="223" y1="18" y2="54.2969"/><text fill="#000000" font-family="sans-serif" font-size="14" lengthAdjust="spacingAndGlyphs" textLength="50" x="158" y="40.9951">Service</text><!--entity Database--><path d="M6,124.5 C6,114.5 49,114.5 49,114.5 C49,114.5 92,114.5 92,124.5 L92,149.7969 C92,159.7969 49,159.7969 49,159.7969 C49,159.7969 6,159.7969 6,149.7969 L6,124.5 " fill="#FEFECE" filter="url(#f11fffqz2ku854)" style="stroke: #000000; stroke-width: 1.5;"/><path d="M6,124.5 C6,134.5 49,134.5 49,134.5 C49,134.5 92,134.5 92,124.5 " fill="none" style="stroke: #000000; stroke-width: 1.5;"/><text fill="#000000" font-family="sans-serif" font-size="14" lengthAdjust="spacingAndGlyphs" textLength="66" x="16" y="151.4951">Database</text><!--entity Connecteur--><polygon fill="#FEFECE" filter="url(#f11fffqz2ku854)" points="127,124,137,114,249,114,249,150.2969,239,160.2969,127,160.2969,127,124" style="stroke: #000000; stroke-width: 1.5;"/><line style="stroke: #000000; stroke-width: 1.5;" x1="239" x2="248" y1="124" y2="115"/><line style="stroke: #000000; stroke-width: 1.5;" x1="127" x2="239" y1="124" y2="124"/><line style="stroke: #000000; stroke-width: 1.5;" x1="239" x2="239" y1="124" y2="160.2969"/><text fill="#000000" font-family="sans-serif" font-size="14" lengthAdjust="spacingAndGlyphs" textLength="82" x="142" y="146.9951">Connecteur</text><!--entity Indicateur--><polygon fill="#FEFECE" filter="url(#f11fffqz2ku854)" points="284,124,294,114,392,114,392,150.2969,382,160.2969,284,160.2969,284,124" style="stroke: #000000; stroke-width: 1.5;"/><line style="stroke: #000000; stroke-width: 1.5;" x1="382" x2="391" y1="124" y2="115"/><line style="stroke: #000000; stroke-width: 1.5;" x1="284" x2="382" y1="124" y2="124"/><line style="stroke: #000000; stroke-width: 1.5;" x1="382" x2="382" y1="124" y2="160.2969"/><text fill="#000000" font-family="sans-serif" font-size="14" lengthAdjust="spacingAndGlyphs" textLength="68" x="299" y="146.9951">Indicateur</text><!--link Service to Database--><path d="M147.876,54.056 C122.962,70.7136 92.2391,93.5906 71.406,110.94 " fill="none" id="Service-Database" style="stroke: #A80036; stroke-width: 1.0;"/><polygon fill="#A80036" points="67.3759,114.3327,76.837,111.5964,71.2009,111.1126,71.6848,105.4764,67.3759,114.3327" style="stroke: #A80036; stroke-width: 1.0;"/><!--link Service to Database--><path d="M165.76,57.467 C144.91,74.9016 114.145,97.7725 89.1651,114.3327 " fill="none" id="Service-Database" style="stroke: #A80036; stroke-width: 1.0;"/><polygon fill="#A80036" points="169.794,54.056,160.3387,56.8123,165.9758,57.2842,165.5039,62.9214,169.794,54.056" style="stroke: #A80036; stroke-width: 1.0;"/><!--link Service to Connecteur--><path d="M176.639,59.192 C174.572,76.2616 174.812,97.9891 177.359,113.9761 " fill="none" id="Service-Connecteur" style="stroke: #A80036; stroke-width: 1.0;"/><polygon fill="#A80036" points="177.354,54.056,172.1504,62.418,176.6641,59.0082,180.0739,63.5218,177.354,54.056" style="stroke: #A80036; stroke-width: 1.0;"/><!--link Service to Connecteur--><path d="M200.03,59.192 C201.996,74.528 201.99,93.6238 200.013,108.9383 " fill="none" id="Service-Connecteur" style="stroke: #A80036; stroke-width: 1.0;"/><polygon fill="#A80036" points="199.267,113.9761,204.5428,105.6595,199.9998,109.0301,196.6292,104.4871,199.267,113.9761" style="stroke: #A80036; stroke-width: 1.0;"/><polygon fill="#A80036" points="199.272,54.056,196.6287,63.5435,200.0019,59.0024,204.543,62.3757,199.272,54.056" style="stroke: #A80036; stroke-width: 1.0;"/><!--link Service to Indicateur--><path d="M224.074,57.012 C249.122,74.3779 282.183,97.3 306.235,113.9761 " fill="none" id="Service-Indicateur" style="stroke: #A80036; stroke-width: 1.0;"/><polygon fill="#A80036" points="219.811,54.056,224.9281,62.4712,223.92,56.9049,229.4863,55.8968,219.811,54.056" style="stroke: #A80036; stroke-width: 1.0;"/><!--
@startuml
node Service
database Database
node Connecteur
node Indicateur

Service -down-> Database
Service <-down- Database
Service <-down- Connecteur
Service <-down-> Connecteur
Service <-down- Indicateur
@enduml

PlantUML version 1.2018.10(Sat Aug 25 19:02:59 CEST 2018)
(APACHE source distribution)
Java Runtime: Java(TM) SE Runtime Environment
JVM: Java HotSpot(TM) 64-Bit Server VM
Java Version: 11.0.1+13-LTS
Operating System: Linux
OS Version: 4.9.0-8-amd64
Default Encoding: UTF-8
Language: fr
Country: FR
--></g></svg>