<?xml version="1.0" encoding="UTF-8" standalone="no"?><svg xmlns="http://www.w3.org/2000/svg" xmlns:xlink="http://www.w3.org/1999/xlink" contentScriptType="application/ecmascript" contentStyleType="text/css" height="85px" preserveAspectRatio="none" style="width:247px;height:85px;" version="1.1" viewBox="0 0 247 85" width="247px" zoomAndPan="magnify"><defs/><g><text fill="#000000" font-family="sans-serif" font-size="12" lengthAdjust="spacingAndGlyphs" textLength="36" x="7" y="18.1387">Name</text><text fill="#000000" font-family="sans-serif" font-size="12" lengthAdjust="spacingAndGlyphs" textLength="22" x="60" y="18.1387">Ask</text><text fill="#000000" font-family="sans-serif" font-size="12" lengthAdjust="spacingAndGlyphs" textLength="19" x="130" y="18.1387">Bid</text><text fill="#000000" font-family="sans-serif" font-size="12" lengthAdjust="spacingAndGlyphs" textLength="39" x="200" y="18.1387">action</text><text fill="#000000" font-family="sans-serif" font-size="12" lengthAdjust="spacingAndGlyphs" textLength="51" x="7" y="34.1074">EURUSD</text><text fill="#000000" font-family="sans-serif" font-size="12" lengthAdjust="spacingAndGlyphs" textLength="52" x="60" y="34.1074">1.12345</text><text fill="#000000" font-family="sans-serif" font-size="12" lengthAdjust="spacingAndGlyphs" textLength="52" x="130" y="34.1074">1.12345</text><rect fill="#EEEEEE" height="12" rx="5" ry="5" style="stroke: #000000; stroke-width: 2.5;" width="20" x="202.5" y="25.4688"/><path d="M215.531,27.4688 L212.5,30.4688 L211.5,29.4688 L208.5,32.4998 L209.5,33.4998 L211.5,31.4688 L212.5,32.4688 L216.5,28.4688 L215.531,27.4688 M208.5,34.4688 L208.5,35.4688 L216.5,35.4688 L216.5,34.4688 L208.5,34.4688 " fill="#000000" style="stroke: ; stroke-width: 0.0; stroke-dasharray: ;"/><text fill="#000000" font-family="sans-serif" font-size="12" lengthAdjust="spacingAndGlyphs" textLength="51" x="7" y="53.1074">GBPUSD</text><text fill="#000000" font-family="sans-serif" font-size="12" lengthAdjust="spacingAndGlyphs" textLength="52" x="60" y="53.1074">1.12345</text><text fill="#000000" font-family="sans-serif" font-size="12" lengthAdjust="spacingAndGlyphs" textLength="52" x="130" y="53.1074">1.12345</text><rect fill="#EEEEEE" height="12" rx="5" ry="5" style="stroke: #000000; stroke-width: 2.5;" width="20" x="202.5" y="44.4688"/><path d="M215.531,46.4688 L212.5,49.4688 L211.5,48.4688 L208.5,51.4998 L209.5,52.4998 L211.5,50.4688 L212.5,51.4688 L216.5,47.4688 L215.531,46.4688 M208.5,53.4688 L208.5,54.4688 L216.5,54.4688 L216.5,53.4688 L208.5,53.4688 " fill="#000000" style="stroke: ; stroke-width: 0.0; stroke-dasharray: ;"/><text fill="#000000" font-family="sans-serif" font-size="12" lengthAdjust="spacingAndGlyphs" textLength="44" x="7" y="72.1074">JPYUSD</text><text fill="#000000" font-family="sans-serif" font-size="12" lengthAdjust="spacingAndGlyphs" textLength="68" x="60" y="72.1074">123.12345</text><text fill="#000000" font-family="sans-serif" font-size="12" lengthAdjust="spacingAndGlyphs" textLength="68" x="130" y="72.1074">123.12345</text><rect fill="#EEEEEE" height="12" rx="5" ry="5" style="stroke: #000000; stroke-width: 2.5;" width="20" x="202.5" y="63.4688"/><path d="M215.531,65.4688 L212.5,68.4688 L211.5,67.4688 L208.5,70.4998 L209.5,71.4998 L211.5,69.4688 L212.5,70.4688 L216.5,66.4688 L215.531,65.4688 M208.5,72.4688 L208.5,73.4688 L216.5,73.4688 L216.5,72.4688 L208.5,72.4688 " fill="#000000" style="stroke: ; stroke-width: 0.0; stroke-dasharray: ;"/><line style="stroke: #000000; stroke-width: 1.0;" x1="6" x2="59" y1="6" y2="6"/><line style="stroke: #000000; stroke-width: 1.0;" x1="129" x2="199" y1="40.9688" y2="40.9688"/><line style="stroke: #000000; stroke-width: 1.0;" x1="59" x2="129" y1="6" y2="6"/><line style="stroke: #000000; stroke-width: 1.0;" x1="199" x2="240" y1="40.9688" y2="40.9688"/><line style="stroke: #000000; stroke-width: 1.0;" x1="129" x2="199" y1="6" y2="6"/><line style="stroke: #000000; stroke-width: 1.0;" x1="199" x2="240" y1="6" y2="6"/><line style="stroke: #000000; stroke-width: 1.0;" x1="6" x2="59" y1="59.9688" y2="59.9688"/><line style="stroke: #000000; stroke-width: 1.0;" x1="59" x2="129" y1="59.9688" y2="59.9688"/><line style="stroke: #000000; stroke-width: 1.0;" x1="6" x2="59" y1="21.9688" y2="21.9688"/><line style="stroke: #000000; stroke-width: 1.0;" x1="129" x2="199" y1="59.9688" y2="59.9688"/><line style="stroke: #000000; stroke-width: 1.0;" x1="59" x2="129" y1="21.9688" y2="21.9688"/><line style="stroke: #000000; stroke-width: 1.0;" x1="199" x2="240" y1="59.9688" y2="59.9688"/><line style="stroke: #000000; stroke-width: 1.0;" x1="129" x2="199" y1="21.9688" y2="21.9688"/><line style="stroke: #000000; stroke-width: 1.0;" x1="199" x2="240" y1="21.9688" y2="21.9688"/><line style="stroke: #000000; stroke-width: 1.0;" x1="6" x2="59" y1="78.9688" y2="78.9688"/><line style="stroke: #000000; stroke-width: 1.0;" x1="59" x2="129" y1="78.9688" y2="78.9688"/><line style="stroke: #000000; stroke-width: 1.0;" x1="129" x2="199" y1="78.9688" y2="78.9688"/><line style="stroke: #000000; stroke-width: 1.0;" x1="6" x2="59" y1="40.9688" y2="40.9688"/><line style="stroke: #000000; stroke-width: 1.0;" x1="199" x2="240" y1="78.9688" y2="78.9688"/><line style="stroke: #000000; stroke-width: 1.0;" x1="59" x2="129" y1="40.9688" y2="40.9688"/><line style="stroke: #000000; stroke-width: 1.0;" x1="6" x2="6" y1="6" y2="21.9688"/><line style="stroke: #000000; stroke-width: 1.0;" x1="129" x2="129" y1="40.9688" y2="59.9688"/><line style="stroke: #000000; stroke-width: 1.0;" x1="59" x2="59" y1="6" y2="21.9688"/><line style="stroke: #000000; stroke-width: 1.0;" x1="199" x2="199" y1="40.9688" y2="59.9688"/><line style="stroke: #000000; stroke-width: 1.0;" x1="240" x2="240" y1="40.9688" y2="59.9688"/><line style="stroke: #000000; stroke-width: 1.0;" x1="129" x2="129" y1="6" y2="21.9688"/><line style="stroke: #000000; stroke-width: 1.0;" x1="199" x2="199" y1="6" y2="21.9688"/><line style="stroke: #000000; stroke-width: 1.0;" x1="240" x2="240" y1="6" y2="21.9688"/><line style="stroke: #000000; stroke-width: 1.0;" x1="6" x2="6" y1="59.9688" y2="78.9688"/><line style="stroke: #000000; stroke-width: 1.0;" x1="59" x2="59" y1="59.9688" y2="78.9688"/><line style="stroke: #000000; stroke-width: 1.0;" x1="6" x2="6" y1="21.9688" y2="40.9688"/><line style="stroke: #000000; stroke-width: 1.0;" x1="129" x2="129" y1="59.9688" y2="78.9688"/><line style="stroke: #000000; stroke-width: 1.0;" x1="59" x2="59" y1="21.9688" y2="40.9688"/><line style="stroke: #000000; stroke-width: 1.0;" x1="199" x2="199" y1="59.9688" y2="78.9688"/><line style="stroke: #000000; stroke-width: 1.0;" x1="240" x2="240" y1="59.9688" y2="78.9688"/><line style="stroke: #000000; stroke-width: 1.0;" x1="129" x2="129" y1="21.9688" y2="40.9688"/><line style="stroke: #000000; stroke-width: 1.0;" x1="199" x2="199" y1="21.9688" y2="40.9688"/><line style="stroke: #000000; stroke-width: 1.0;" x1="240" x2="240" y1="21.9688" y2="40.9688"/><line style="stroke: #000000; stroke-width: 1.0;" x1="6" x2="6" y1="40.9688" y2="59.9688"/><line style="stroke: #000000; stroke-width: 1.0;" x1="59" x2="59" y1="40.9688" y2="59.9688"/></g></svg>