<?xml version="1.0" encoding="UTF-8" standalone="no"?><svg xmlns="http://www.w3.org/2000/svg" xmlns:xlink="http://www.w3.org/1999/xlink" contentScriptType="application/ecmascript" contentStyleType="text/css" height="141px" preserveAspectRatio="none" style="width:108px;height:141px;" version="1.1" viewBox="0 0 108 141" width="108px" zoomAndPan="magnify"><defs/><g><text fill="#000000" font-family="sans-serif" font-size="12" lengthAdjust="spacingAndGlyphs" textLength="51" x="6" y="17.1387">EURUSD</text><line style="stroke: #AAAAAA; stroke-width: 1.0;" x1="6" x2="101" y1="24.4688" y2="24.4688"/><line style="stroke: #AAAAAA; stroke-width: 1.0;" x1="6" x2="101" y1="26.4688" y2="26.4688"/><text fill="#000000" font-family="sans-serif" font-size="12" lengthAdjust="spacingAndGlyphs" textLength="67" x="9" y="41.1074">Take profit</text><line style="stroke: #000000; stroke-width: 1.0;" x1="7" x2="98" y1="43.9375" y2="43.9375"/><line style="stroke: #000000; stroke-width: 1.0;" x1="7" x2="7" y1="40.9375" y2="42.9375"/><line style="stroke: #000000; stroke-width: 1.0;" x1="98" x2="98" y1="40.9375" y2="42.9375"/><text fill="#000000" font-family="sans-serif" font-size="12" lengthAdjust="spacingAndGlyphs" textLength="57" x="9" y="59.0762">Ask price</text><line style="stroke: #000000; stroke-width: 1.0;" x1="7" x2="82" y1="61.9063" y2="61.9063"/><line style="stroke: #000000; stroke-width: 1.0;" x1="7" x2="7" y1="58.9063" y2="60.9063"/><line style="stroke: #000000; stroke-width: 1.0;" x1="82" x2="82" y1="58.9063" y2="60.9063"/><text fill="#000000" font-family="sans-serif" font-size="12" lengthAdjust="spacingAndGlyphs" textLength="82" x="6" y="77.0449">Spread value</text><text fill="#000000" font-family="sans-serif" font-size="12" lengthAdjust="spacingAndGlyphs" textLength="26" x="9" y="93.0137">Lots</text><line style="stroke: #000000; stroke-width: 1.0;" x1="7" x2="42" y1="95.8438" y2="95.8438"/><line style="stroke: #000000; stroke-width: 1.0;" x1="7" x2="7" y1="92.8438" y2="94.8438"/><line style="stroke: #000000; stroke-width: 1.0;" x1="42" x2="42" y1="92.8438" y2="94.8438"/><text fill="#000000" font-family="sans-serif" font-size="12" lengthAdjust="spacingAndGlyphs" textLength="54" x="9" y="110.9824">Bid price</text><line style="stroke: #000000; stroke-width: 1.0;" x1="7" x2="82" y1="113.8125" y2="113.8125"/><line style="stroke: #000000; stroke-width: 1.0;" x1="7" x2="7" y1="110.8125" y2="112.8125"/><line style="stroke: #000000; stroke-width: 1.0;" x1="82" x2="82" y1="110.8125" y2="112.8125"/><text fill="#000000" font-family="sans-serif" font-size="12" lengthAdjust="spacingAndGlyphs" textLength="58" x="9" y="128.9512">Stop loss</text><line style="stroke: #000000; stroke-width: 1.0;" x1="7" x2="82" y1="131.7813" y2="131.7813"/><line style="stroke: #000000; stroke-width: 1.0;" x1="7" x2="7" y1="128.7813" y2="130.7813"/><line style="stroke: #000000; stroke-width: 1.0;" x1="82" x2="82" y1="128.7813" y2="130.7813"/><line style="stroke: #000000; stroke-width: 1.0;" x1="5" x2="101" y1="5" y2="5"/><line style="stroke: #000000; stroke-width: 1.0;" x1="5" x2="101" y1="134.7813" y2="134.7813"/><line style="stroke: #000000; stroke-width: 1.0;" x1="5" x2="5" y1="5" y2="20.9688"/><line style="stroke: #000000; stroke-width: 1.0;" x1="101" x2="101" y1="5" y2="20.9688"/><line style="stroke: #000000; stroke-width: 1.0;" x1="5" x2="5" y1="116.8125" y2="134.7813"/><line style="stroke: #000000; stroke-width: 1.0;" x1="101" x2="101" y1="116.8125" y2="134.7813"/><line style="stroke: #000000; stroke-width: 1.0;" x1="5" x2="5" y1="80.875" y2="98.8438"/><line style="stroke: #000000; stroke-width: 1.0;" x1="101" x2="101" y1="80.875" y2="98.8438"/><line style="stroke: #000000; stroke-width: 1.0;" x1="5" x2="5" y1="46.9375" y2="64.9063"/><line style="stroke: #000000; stroke-width: 1.0;" x1="101" x2="101" y1="46.9375" y2="64.9063"/><line style="stroke: #000000; stroke-width: 1.0;" x1="5" x2="5" y1="20.9688" y2="28.9688"/><line style="stroke: #000000; stroke-width: 1.0;" x1="101" x2="101" y1="20.9688" y2="28.9688"/><line style="stroke: #000000; stroke-width: 1.0;" x1="5" x2="5" y1="98.8438" y2="116.8125"/><line style="stroke: #000000; stroke-width: 1.0;" x1="101" x2="101" y1="98.8438" y2="116.8125"/><line style="stroke: #000000; stroke-width: 1.0;" x1="5" x2="5" y1="64.9063" y2="80.875"/><line style="stroke: #000000; stroke-width: 1.0;" x1="101" x2="101" y1="64.9063" y2="80.875"/><line style="stroke: #000000; stroke-width: 1.0;" x1="5" x2="5" y1="28.9688" y2="46.9375"/><line style="stroke: #000000; stroke-width: 1.0;" x1="101" x2="101" y1="28.9688" y2="46.9375"/></g></svg>