<?xml version="1.0" encoding="UTF-8" standalone="no"?><svg xmlns="http://www.w3.org/2000/svg" xmlns:xlink="http://www.w3.org/1999/xlink" contentScriptType="application/ecmascript" contentStyleType="text/css" height="110px" preserveAspectRatio="none" style="width:337px;height:110px;" version="1.1" viewBox="0 0 337 110" width="337px" zoomAndPan="magnify"><defs><filter height="300%" id="f12g5n27l18odi" width="300%" x="-1" y="-1"><feGaussianBlur result="blurOut" stdDeviation="2.0"/><feColorMatrix in="blurOut" result="blurOut2" type="matrix" values="0 0 0 0 0 0 0 0 0 0 0 0 0 0 0 0 0 0 .4 0"/><feOffset dx="4.0" dy="4.0" in="blurOut2" result="blurOut3"/><feBlend in="SourceGraphic" in2="blurOut3" mode="normal"/></filter></defs><g><ellipse cx="16" cy="53.5" fill="#000000" filter="url(#f12g5n27l18odi)" rx="10" ry="10" style="stroke: none; stroke-width: 1.0;"/><rect fill="#FEFECE" filter="url(#f12g5n27l18odi)" height="91" rx="12.5" ry="12.5" style="stroke: #A80036; stroke-width: 1.5;" width="130" x="46" y="8"/><svg x="56" y="18"><defs/><g><text fill="#000000" font-family="sans-serif" font-size="12" font-weight="bold" lengthAdjust="spacingAndGlyphs" textLength="82" x="6" y="17.1387">Account list</text><line style="stroke: #AAAAAA; stroke-width: 1.0; stroke-dasharray: 1.0,2.0;" x1="6" x2="104" y1="25.4688" y2="25.4688"/><text fill="#000000" font-family="sans-serif" font-size="12" lengthAdjust="spacingAndGlyphs" textLength="63" x="6" y="41.1074">username</text><rect fill="#EEEEEE" height="17.9688" rx="5" ry="5" style="stroke: #000000; stroke-width: 2.5;" width="92" x="8.5" y="48.4375"/><text fill="#000000" font-family="sans-serif" font-size="12" lengthAdjust="spacingAndGlyphs" textLength="79" x="15" y="61.5762">add account</text></g></svg><rect fill="#FEFECE" filter="url(#f12g5n27l18odi)" height="91" rx="12.5" ry="12.5" style="stroke: #A80036; stroke-width: 1.5;" width="130" x="196" y="8"/><svg x="206" y="18"><defs/><g><text fill="#000000" font-family="sans-serif" font-size="12" font-weight="bold" lengthAdjust="spacingAndGlyphs" textLength="82" x="6" y="17.1387">Account list</text><line style="stroke: #AAAAAA; stroke-width: 1.0; stroke-dasharray: 1.0,2.0;" x1="6" x2="104" y1="25.4688" y2="25.4688"/><text fill="#000000" font-family="sans-serif" font-size="12" lengthAdjust="spacingAndGlyphs" textLength="63" x="6" y="41.1074">username</text><path d="M78,32.9375 C76.901,32.9375 76,33.8385 76,34.9375 L76,35.9375 L75,35.9375 L75,39.9375 L81,39.9375 L81,35.9375 L80,35.9375 L80,34.9375 C80,33.8385 79.099,32.9375 78,32.9375 M78,33.9375 C78.561,33.9375 79,34.3765 79,34.9375 L79,35.9375 L77,35.9375 L77,34.9375 C77,34.3765 77.439,33.9375 78,33.9375 " fill="#000000" style="stroke: ; stroke-width: 0.0; stroke-dasharray: ;"/><rect fill="#EEEEEE" height="17.9688" rx="5" ry="5" style="stroke: #000000; stroke-width: 2.5;" width="92" x="8.5" y="48.4375"/><text fill="#000000" font-family="sans-serif" font-size="12" lengthAdjust="spacingAndGlyphs" textLength="79" x="15" y="61.5762">add account</text></g></svg><!--link start to accountlist--><path d="M26.0195,53.5 C30.8951,53.5 35.7707,53.5 40.6463,53.5 " fill="none" id="start-accountlist" style="stroke: #A80036; stroke-width: 1.0;"/><polygon fill="#A80036" points="45.9368,53.5,36.9368,49.5,40.9368,53.5,36.9368,57.5,45.9368,53.5" style="stroke: #A80036; stroke-width: 1.0;"/><!--link accountlist to {{\nsalt\n{\n<b>Account list\n..\nusername <&lock-locked>\n[add account]\n}\n}}--><path d="M176.039,53.5 C180.914,53.5 185.788,53.5 190.662,53.5 " fill="none" id="accountlist-{{\nsalt\n{\n&lt;b&gt;Account list\n..\nusername &lt;&amp;lock-locked&gt;\n[add account]\n}\n}}" style="stroke: #A80036; stroke-width: 1.0;"/><polygon fill="#A80036" points="195.952,53.5,186.952,49.5,190.952,53.5,186.952,57.5,195.952,53.5" style="stroke: #A80036; stroke-width: 1.0;"/><!--
@startuml
(*) -right-> "
{{
salt
{
<b>Account list
..
username
[add account]
}
}}
" as accountlist

accountlist -right-> "
{{
salt
{
<b>Account list
..
username <&lock-locked>
[add account]
}
}}
"
@enduml

PlantUML version 1.2018.10(Sat Aug 25 19:02:59 CEST 2018)
(APACHE source distribution)
Java Runtime: Java(TM) SE Runtime Environment
JVM: Java HotSpot(TM) 64-Bit Server VM
Java Version: 11.0.1+13-LTS
Operating System: Linux
OS Version: 4.9.0-8-amd64
Default Encoding: UTF-8
Language: fr
Country: FR
--></g></svg>