<?xml version="1.0" encoding="UTF-8" standalone="no"?><svg xmlns="http://www.w3.org/2000/svg" xmlns:xlink="http://www.w3.org/1999/xlink" contentScriptType="application/ecmascript" contentStyleType="text/css" height="66px" preserveAspectRatio="none" style="width:368px;height:66px;" version="1.1" viewBox="0 0 368 66" width="368px" zoomAndPan="magnify"><defs><filter height="300%" id="fu7ek96ftzcut" width="300%" x="-1" y="-1"><feGaussianBlur result="blurOut" stdDeviation="2.0"/><feColorMatrix in="blurOut" result="blurOut2" type="matrix" values="0 0 0 0 0 0 0 0 0 0 0 0 0 0 0 0 0 0 .4 0"/><feOffset dx="4.0" dy="4.0" in="blurOut2" result="blurOut3"/><feBlend in="SourceGraphic" in2="blurOut3" mode="normal"/></filter></defs><g><!--entity Service--><polygon fill="#FEFECE" filter="url(#fu7ek96ftzcut)" points="6,18,16,8,96,8,96,44.2969,86,54.2969,6,54.2969,6,18" style="stroke: #000000; stroke-width: 1.5;"/><line style="stroke: #000000; stroke-width: 1.5;" x1="86" x2="95" y1="18" y2="9"/><line style="stroke: #000000; stroke-width: 1.5;" x1="6" x2="86" y1="18" y2="18"/><line style="stroke: #000000; stroke-width: 1.5;" x1="86" x2="86" y1="18" y2="54.2969"/><text fill="#000000" font-family="sans-serif" font-size="14" lengthAdjust="spacingAndGlyphs" textLength="50" x="21" y="40.9951">Service</text><!--entity Connecteur--><polygon fill="#FEFECE" filter="url(#fu7ek96ftzcut)" points="131,18,141,8,253,8,253,44.2969,243,54.2969,131,54.2969,131,18" style="stroke: #000000; stroke-width: 1.5;"/><line style="stroke: #000000; stroke-width: 1.5;" x1="243" x2="252" y1="18" y2="9"/><line style="stroke: #000000; stroke-width: 1.5;" x1="131" x2="243" y1="18" y2="18"/><line style="stroke: #000000; stroke-width: 1.5;" x1="243" x2="243" y1="18" y2="54.2969"/><text fill="#000000" font-family="sans-serif" font-size="14" lengthAdjust="spacingAndGlyphs" textLength="82" x="146" y="40.9951">Connecteur</text><!--entity Broker--><path d="M291,20 C291,17 293,15 296,15 C299,15 301,17 301,20 C301,17 303,15 306,15 C309,15 311,17 311,20 C311,17 313,15 316,15 C319,15 321,17 321,20 C321,17 323,15 326,15 C329,15 331,17 331,20 C331,17 333,15 336,15 C339,15 341,17 341,20 C341,17 343,15 346,15 C349,15 351,17 351,20 C354,20 356,22 356,25 C356,28 354,30 351,30 C354,30 356,32 356,35 C356,38 354,40 351,40 C351,43 348,45 346,45 C343,45 341,43 341,40 C341,43 338,45 336,45 C333,45 331,43 331,40 C331,43 328,45 326,45 C323,45 321,43 321,40 C321,43 318,45 316,45 C313,45 311,43 311,40 C311,43 308,45 306,45 C303,45 301,43 301,40 C301,43 298,45 296,45 C293,45 291,43 291,40 C288,40 286,38 286,35 C286,32 288,30 291,30 C288,30 286,28 286,25 C286,22 288,20 291,20 " fill="#FEFECE" filter="url(#fu7ek96ftzcut)" style="stroke: #000000; stroke-width: 1.5;"/><text fill="#000000" font-family="sans-serif" font-size="14" lengthAdjust="spacingAndGlyphs" textLength="46" x="298" y="35.9951">Broker</text><!--link Service to Connecteur--><path d="M96.1641,46.0222 C106.047,47.7601 115.929,48.4812 125.812,48.1855 " fill="none" id="Service-Connecteur" style="stroke: #A80036; stroke-width: 1.0;"/><polygon fill="#A80036" points="130.979,47.9381,121.7974,44.3747,125.9848,48.1781,122.1814,52.3655,130.979,47.9381" style="stroke: #A80036; stroke-width: 1.0;"/><!--link Service to Connecteur--><path d="M101.332,15.1617 C111.214,13.7782 121.097,13.4116 130.979,14.0619 " fill="none" id="Service-Connecteur" style="stroke: #A80036; stroke-width: 1.0;"/><polygon fill="#A80036" points="96.1641,15.9778,105.678,18.5246,101.1029,15.1977,104.4298,10.6226,96.1641,15.9778" style="stroke: #A80036; stroke-width: 1.0;"/><!--link Connecteur to Broker--><path d="M253.225,48.2055 C263.16,48.4754 273.094,47.5174 283.029,45.3317 " fill="none" id="Connecteur-Broker" style="stroke: #A80036; stroke-width: 1.0;"/><polygon fill="#A80036" points="287.907,44.1601,278.2214,42.3742,283.0455,45.3287,280.0911,50.1527,287.907,44.1601" style="stroke: #A80036; stroke-width: 1.0;"/><!--link Connecteur to Broker--><path d="M258.373,13.7645 C268.217,13.9174 278.062,15.2759 287.907,17.8399 " fill="none" id="Connecteur-Broker" style="stroke: #A80036; stroke-width: 1.0;"/><polygon fill="#A80036" points="253.225,13.7945,262.2488,17.7404,258.2249,13.7645,262.2008,9.7406,253.225,13.7945" style="stroke: #A80036; stroke-width: 1.0;"/><!--
@startuml
node Service
node Connecteur
cloud Broker

Service -right-> Connecteur
Service <-right- Connecteur
Connecteur -right-> Broker
Connecteur <-right- Broker
@enduml

PlantUML version 1.2018.10(Sat Aug 25 19:02:59 CEST 2018)
(APACHE source distribution)
Java Runtime: Java(TM) SE Runtime Environment
JVM: Java HotSpot(TM) 64-Bit Server VM
Java Version: 11.0.1+13-LTS
Operating System: Linux
OS Version: 4.9.0-8-amd64
Default Encoding: UTF-8
Language: fr
Country: FR
--></g></svg>