<?xml version="1.0" encoding="UTF-8" standalone="no"?><svg xmlns="http://www.w3.org/2000/svg" xmlns:xlink="http://www.w3.org/1999/xlink" contentScriptType="application/ecmascript" contentStyleType="text/css" height="335px" preserveAspectRatio="none" style="width:1211px;height:335px;" version="1.1" viewBox="0 0 1211 335" width="1211px" zoomAndPan="magnify"><defs><filter height="300%" id="f1ok9nfulymjg6" width="300%" x="-1" y="-1"><feGaussianBlur result="blurOut" stdDeviation="2.0"/><feColorMatrix in="blurOut" result="blurOut2" type="matrix" values="0 0 0 0 0 0 0 0 0 0 0 0 0 0 0 0 0 0 .4 0"/><feOffset dx="4.0" dy="4.0" in="blurOut2" result="blurOut3"/><feBlend in="SourceGraphic" in2="blurOut3" mode="normal"/></filter></defs><g><!--cluster net.traderbook.api.connector--><polygon fill="#FFFFFF" filter="url(#f1ok9nfulymjg6)" points="22,24,261,24,268,46.2969,695,46.2969,695,174,22,174,22,24" style="stroke: #000000; stroke-width: 1.5;"/><line style="stroke: #000000; stroke-width: 1.5;" x1="22" x2="268" y1="46.2969" y2="46.2969"/><text fill="#000000" font-family="sans-serif" font-size="14" font-weight="bold" lengthAdjust="spacingAndGlyphs" textLength="233" x="26" y="38.9951">net.traderbook.api.connector</text><!--cluster net.traderbook.connector--><polygon fill="#FFFFFF" filter="url(#f1ok9nfulymjg6)" points="515,198,726,198,733,220.2969,815,220.2969,815,323,515,323,515,198" style="stroke: #000000; stroke-width: 1.5;"/><line style="stroke: #000000; stroke-width: 1.5;" x1="515" x2="733" y1="220.2969" y2="220.2969"/><text fill="#000000" font-family="sans-serif" font-size="14" font-weight="bold" lengthAdjust="spacingAndGlyphs" textLength="205" x="519" y="212.9951">net.traderbook.connector</text><!--cluster net.traderbook.api.enums--><polygon fill="#FFFFFF" filter="url(#f1ok9nfulymjg6)" points="719,24,930,24,937,46.2969,940,46.2969,940,174,719,174,719,24" style="stroke: #000000; stroke-width: 1.5;"/><line style="stroke: #000000; stroke-width: 1.5;" x1="719" x2="937" y1="46.2969" y2="46.2969"/><text fill="#000000" font-family="sans-serif" font-size="14" font-weight="bold" lengthAdjust="spacingAndGlyphs" textLength="205" x="723" y="38.9951">net.traderbook.api.enums</text><!--cluster net.traderbook.api.models--><polygon fill="#FFFFFF" filter="url(#f1ok9nfulymjg6)" points="964,24,1179,24,1186,46.2969,1189,46.2969,1189,174,964,174,964,24" style="stroke: #000000; stroke-width: 1.5;"/><line style="stroke: #000000; stroke-width: 1.5;" x1="964" x2="1186" y1="46.2969" y2="46.2969"/><text fill="#000000" font-family="sans-serif" font-size="14" font-weight="bold" lengthAdjust="spacingAndGlyphs" textLength="209" x="968" y="38.9951">net.traderbook.api.models</text><!--class IConnectorObserver--><rect fill="#FEFECE" filter="url(#f1ok9nfulymjg6)" height="73.6094" id="IConnectorObserver" style="stroke: #A80036; stroke-width: 1.5;" width="332" x="347" y="71.5"/><ellipse cx="447.25" cy="87.5" fill="#B4A7E5" rx="11" ry="11" style="stroke: #A80036; stroke-width: 1.0;"/><path d="M443.1719,83.2656 L443.1719,81.1094 L450.5625,81.1094 L450.5625,83.2656 L448.0938,83.2656 L448.0938,91.3438 L450.5625,91.3438 L450.5625,93.5 L443.1719,93.5 L443.1719,91.3438 L445.6406,91.3438 L445.6406,83.2656 L443.1719,83.2656 Z "/><text fill="#000000" font-family="sans-serif" font-size="12" font-style="italic" lengthAdjust="spacingAndGlyphs" textLength="123" x="467.75" y="91.6543">IConnectorObserver</text><line style="stroke: #A80036; stroke-width: 1.5;" x1="348" x2="678" y1="103.5" y2="103.5"/><rect fill="none" height="6" style="stroke: #C82930; stroke-width: 1.0;" width="6" x="355" y="112.4023"/><text fill="#000000" font-family="sans-serif" font-size="11" lengthAdjust="spacingAndGlyphs" textLength="178" x="367" y="117.7104">connector: IConnectorObserver</text><line style="stroke: #A80036; stroke-width: 1.5;" x1="348" x2="678" y1="124.3047" y2="124.3047"/><ellipse cx="358" cy="136.207" fill="#84BE84" rx="3" ry="3" style="stroke: #038048; stroke-width: 1.0;"/><text fill="#000000" font-family="sans-serif" font-size="11" lengthAdjust="spacingAndGlyphs" textLength="306" x="367" y="138.5151">update(message: ConnectorEventEnum, data: Object)</text><!--class IConnector--><rect fill="#FEFECE" filter="url(#f1ok9nfulymjg6)" height="99.2188" id="IConnector" style="stroke: #A80036; stroke-width: 1.5;" width="274" x="38" y="59"/><ellipse cx="136.25" cy="75" fill="#B4A7E5" rx="11" ry="11" style="stroke: #A80036; stroke-width: 1.0;"/><path d="M132.1719,70.7656 L132.1719,68.6094 L139.5625,68.6094 L139.5625,70.7656 L137.0938,70.7656 L137.0938,78.8438 L139.5625,78.8438 L139.5625,81 L132.1719,81 L132.1719,78.8438 L134.6406,78.8438 L134.6406,70.7656 L132.1719,70.7656 Z "/><text fill="#000000" font-family="sans-serif" font-size="12" font-style="italic" lengthAdjust="spacingAndGlyphs" textLength="69" x="156.75" y="79.1543">IConnector</text><line style="stroke: #A80036; stroke-width: 1.5;" x1="39" x2="311" y1="91" y2="91"/><line style="stroke: #A80036; stroke-width: 1.5;" x1="39" x2="311" y1="99" y2="99"/><ellipse cx="49" cy="110.9023" fill="#84BE84" rx="3" ry="3" style="stroke: #038048; stroke-width: 1.0;"/><text fill="#000000" font-family="sans-serif" font-size="11" lengthAdjust="spacingAndGlyphs" textLength="248" x="58" y="113.2104">connection(tradingAccount: TradingAccount)</text><ellipse cx="49" cy="123.707" fill="#84BE84" rx="3" ry="3" style="stroke: #038048; stroke-width: 1.0;"/><text fill="#000000" font-family="sans-serif" font-size="11" lengthAdjust="spacingAndGlyphs" textLength="237" x="58" y="126.0151">placeTransaction(trasaction: Transaction)</text><ellipse cx="49" cy="136.5117" fill="#84BE84" rx="3" ry="3" style="stroke: #038048; stroke-width: 1.0;"/><text fill="#000000" font-family="sans-serif" font-size="11" lengthAdjust="spacingAndGlyphs" textLength="35" x="58" y="138.8198">login()</text><ellipse cx="49" cy="149.3164" fill="#84BE84" rx="3" ry="3" style="stroke: #038048; stroke-width: 1.0;"/><text fill="#000000" font-family="sans-serif" font-size="11" lengthAdjust="spacingAndGlyphs" textLength="43" x="58" y="151.6245">logout()</text><!--class Connector--><rect fill="#FEFECE" filter="url(#f1ok9nfulymjg6)" height="73.6094" id="Connector" style="stroke: #A80036; stroke-width: 1.5;" width="268" x="531" y="233"/><ellipse cx="628.25" cy="249" fill="#ADD1B2" rx="11" ry="11" style="stroke: #A80036; stroke-width: 1.0;"/><path d="M631.2188,254.6406 Q630.6406,254.9375 630,255.0781 Q629.3594,255.2344 628.6563,255.2344 Q626.1563,255.2344 624.8281,253.5938 Q623.5156,251.9375 623.5156,248.8125 Q623.5156,245.6875 624.8281,244.0313 Q626.1563,242.375 628.6563,242.375 Q629.3594,242.375 630,242.5313 Q630.6563,242.6875 631.2188,242.9844 L631.2188,245.7031 Q630.5938,245.125 630,244.8594 Q629.4063,244.5781 628.7813,244.5781 Q627.4375,244.5781 626.75,245.6563 Q626.0625,246.7188 626.0625,248.8125 Q626.0625,250.9063 626.75,251.9844 Q627.4375,253.0469 628.7813,253.0469 Q629.4063,253.0469 630,252.7813 Q630.5938,252.5 631.2188,251.9219 L631.2188,254.6406 Z "/><text fill="#000000" font-family="sans-serif" font-size="12" lengthAdjust="spacingAndGlyphs" textLength="65" x="648.75" y="253.1543">Connector</text><line style="stroke: #A80036; stroke-width: 1.5;" x1="532" x2="798" y1="265" y2="265"/><rect fill="none" height="6" style="stroke: #C82930; stroke-width: 1.0;" width="6" x="539" y="273.9023"/><text fill="#000000" font-family="sans-serif" font-size="11" lengthAdjust="spacingAndGlyphs" textLength="176" x="551" y="279.2104">controller: IConnectorObserver</text><line style="stroke: #A80036; stroke-width: 1.5;" x1="532" x2="798" y1="285.8047" y2="285.8047"/><ellipse cx="542" cy="297.707" fill="#84BE84" rx="3" ry="3" style="stroke: #038048; stroke-width: 1.0;"/><text fill="#000000" font-family="sans-serif" font-size="11" lengthAdjust="spacingAndGlyphs" textLength="242" x="551" y="300.0151">Connector(controller: IConnectorObserver)</text><!--class ConnectorEventEnum--><rect fill="#FEFECE" filter="url(#f1ok9nfulymjg6)" height="99.2188" id="ConnectorEventEnum" style="stroke: #A80036; stroke-width: 1.5;" width="167" x="734.5" y="59"/><ellipse cx="749.5" cy="75" fill="#EB937F" rx="11" ry="11" style="stroke: #A80036; stroke-width: 1.0;"/><path d="M753.6094,81 L745.8906,81 L745.8906,68.6094 L753.6094,68.6094 L753.6094,70.7656 L748.3438,70.7656 L748.3438,73.4375 L753.1094,73.4375 L753.1094,75.5938 L748.3438,75.5938 L748.3438,78.8438 L753.6094,78.8438 L753.6094,81 Z "/><text fill="#000000" font-family="sans-serif" font-size="12" lengthAdjust="spacingAndGlyphs" textLength="135" x="763.5" y="79.1543">ConnectorEventEnum</text><line style="stroke: #A80036; stroke-width: 1.5;" x1="735.5" x2="900.5" y1="91" y2="91"/><text fill="#000000" font-family="sans-serif" font-size="11" lengthAdjust="spacingAndGlyphs" textLength="87" x="740.5" y="105.2104">ONCONNECTED</text><text fill="#000000" font-family="sans-serif" font-size="11" lengthAdjust="spacingAndGlyphs" textLength="106" x="740.5" y="118.0151">ONDISCONNECTED</text><text fill="#000000" font-family="sans-serif" font-size="11" lengthAdjust="spacingAndGlyphs" textLength="42" x="740.5" y="130.8198">ONTICK</text><text fill="#000000" font-family="sans-serif" font-size="11" lengthAdjust="spacingAndGlyphs" textLength="96" x="740.5" y="143.6245">ONTRANSACTION</text><line style="stroke: #A80036; stroke-width: 1.5;" x1="735.5" x2="900.5" y1="150.2188" y2="150.2188"/><!--class TradingAccount--><rect fill="#FEFECE" filter="url(#f1ok9nfulymjg6)" height="99.2188" id="TradingAccount" style="stroke: #A80036; stroke-width: 1.5;" width="130" x="980" y="59"/><ellipse cx="995" cy="75" fill="#ADD1B2" rx="11" ry="11" style="stroke: #A80036; stroke-width: 1.0;"/><path d="M997.9688,80.6406 Q997.3906,80.9375 996.75,81.0781 Q996.1094,81.2344 995.4063,81.2344 Q992.9063,81.2344 991.5781,79.5938 Q990.2656,77.9375 990.2656,74.8125 Q990.2656,71.6875 991.5781,70.0313 Q992.9063,68.375 995.4063,68.375 Q996.1094,68.375 996.75,68.5313 Q997.4063,68.6875 997.9688,68.9844 L997.9688,71.7031 Q997.3438,71.125 996.75,70.8594 Q996.1563,70.5781 995.5313,70.5781 Q994.1875,70.5781 993.5,71.6563 Q992.8125,72.7188 992.8125,74.8125 Q992.8125,76.9063 993.5,77.9844 Q994.1875,79.0469 995.5313,79.0469 Q996.1563,79.0469 996.75,78.7813 Q997.3438,78.5 997.9688,77.9219 L997.9688,80.6406 Z "/><text fill="#000000" font-family="sans-serif" font-size="12" lengthAdjust="spacingAndGlyphs" textLength="98" x="1009" y="79.1543">TradingAccount</text><line style="stroke: #A80036; stroke-width: 1.5;" x1="981" x2="1109" y1="91" y2="91"/><rect fill="none" height="6" style="stroke: #C82930; stroke-width: 1.0;" width="6" x="988" y="99.9023"/><text fill="#000000" font-family="sans-serif" font-size="11" lengthAdjust="spacingAndGlyphs" textLength="65" x="1000" y="105.2104">usernmane</text><rect fill="none" height="6" style="stroke: #C82930; stroke-width: 1.0;" width="6" x="988" y="112.707"/><text fill="#000000" font-family="sans-serif" font-size="11" lengthAdjust="spacingAndGlyphs" textLength="56" x="1000" y="118.0151">password</text><rect fill="none" height="6" style="stroke: #C82930; stroke-width: 1.0;" width="6" x="988" y="125.5117"/><text fill="#000000" font-family="sans-serif" font-size="11" lengthAdjust="spacingAndGlyphs" textLength="37" x="1000" y="130.8198">broker</text><rect fill="none" height="6" style="stroke: #C82930; stroke-width: 1.0;" width="6" x="988" y="138.3164"/><text fill="#000000" font-family="sans-serif" font-size="11" lengthAdjust="spacingAndGlyphs" textLength="71" x="1000" y="143.6245">accountType</text><line style="stroke: #A80036; stroke-width: 1.5;" x1="981" x2="1109" y1="150.2188" y2="150.2188"/><!--link IConnector to Connector--><path d="M290.354,166.264 C303.581,171.931 316.987,177.312 330,182 C394.871,205.371 468.894,225.271 530.831,240.1149 " fill="none" id="IConnector-Connector" style="stroke: #A80036; stroke-width: 1.0;"/><polygon fill="none" points="287.315,172.574,271.835,158.105,292.96,159.763,287.315,172.574" style="stroke: #A80036; stroke-width: 1.0;"/><!--link IConnectorObserver to Connector--><path d="M561.309,160.193 C583.856,183.852 610.168,211.463 630.645,232.95 " fill="none" id="IConnectorObserver-Connector" style="stroke: #A80036; stroke-width: 1.0;"/><polygon fill="none" points="556.221,165.001,547.491,145.693,566.356,155.342,556.221,165.001" style="stroke: #A80036; stroke-width: 1.0;"/><!--link TradingAccount to Connector--><path d="M968.425,155.873 C951.764,165.11 934.023,174.319 917,182 C874.496,201.18 826.416,218.738 783.733,232.98 " fill="none" id="TradingAccount-Connector" style="stroke: #A80036; stroke-width: 1.0;"/><polygon fill="#A80036" points="979.765,149.493,972.5744,148.9495,969.3071,155.378,976.4977,155.9214,979.765,149.493" style="stroke: #A80036; stroke-width: 1.0;"/><!--link ConnectorEventEnum to Connector--><path d="M762.134,167.739 C741.189,189.575 718.013,213.735 699.554,232.978 " fill="none" id="ConnectorEventEnum-Connector" style="stroke: #A80036; stroke-width: 1.0;"/><polygon fill="#A80036" points="771.264,158.222,764.2239,159.7832,762.9573,166.8822,769.9974,165.321,771.264,158.222" style="stroke: #A80036; stroke-width: 1.0;"/><!--
@startuml
package net.traderbook.api.connector {
  interface IConnectorObserver {
      - connector: IConnectorObserver
      + update(message: ConnectorEventEnum, data: Object)
  }

  interface IConnector {
      + connection(tradingAccount: TradingAccount)
      + placeTransaction(trasaction: Transaction)
      + login()
      + logout()
  }
}

package net.traderbook.connector {
  class Connector {
    - controller: IConnectorObserver
    + Connector(controller: IConnectorObserver)
  }
}

package net.traderbook.api.enums {
    enum ConnectorEventEnum {
      ONCONNECTED
      ONDISCONNECTED
      ONTICK
      ONTRANSACTION
    }
}

package net.traderbook.api.models {
    class TradingAccount {
        - usernmane
        - password
        - broker
        - accountType
    }
}

IConnector <|- - Connector
IConnectorObserver <|- - Connector
TradingAccount *- - Connector
ConnectorEventEnum *- - Connector
@enduml

PlantUML version 1.2018.10(Sat Aug 25 19:02:59 CEST 2018)
(APACHE source distribution)
Java Runtime: Java(TM) SE Runtime Environment
JVM: Java HotSpot(TM) 64-Bit Server VM
Java Version: 11.0.1+13-LTS
Operating System: Linux
OS Version: 4.9.0-8-amd64
Default Encoding: UTF-8
Language: fr
Country: FR
--></g></svg>