<?xml version="1.0" encoding="UTF-8" standalone="no"?><svg xmlns="http://www.w3.org/2000/svg" xmlns:xlink="http://www.w3.org/1999/xlink" contentScriptType="application/ecmascript" contentStyleType="text/css" height="258px" preserveAspectRatio="none" style="width:304px;height:258px;" version="1.1" viewBox="0 0 304 258" width="304px" zoomAndPan="magnify"><defs><filter height="300%" id="fwgsch4u9v9d6" width="300%" x="-1" y="-1"><feGaussianBlur result="blurOut" stdDeviation="2.0"/><feColorMatrix in="blurOut" result="blurOut2" type="matrix" values="0 0 0 0 0 0 0 0 0 0 0 0 0 0 0 0 0 0 .4 0"/><feOffset dx="4.0" dy="4.0" in="blurOut2" result="blurOut3"/><feBlend in="SourceGraphic" in2="blurOut3" mode="normal"/></filter></defs><g><!--class ServiceResponse--><rect fill="#FEFECE" filter="url(#fwgsch4u9v9d6)" height="73.6094" id="ServiceResponse" style="stroke: #A80036; stroke-width: 1.5;" width="208" x="6" y="129"/><ellipse cx="47.1" cy="145" fill="#ADD1B2" rx="11" ry="11" style="stroke: #A80036; stroke-width: 1.0;"/><path d="M50.0688,150.6406 Q49.4906,150.9375 48.85,151.0781 Q48.2094,151.2344 47.5063,151.2344 Q45.0063,151.2344 43.6781,149.5938 Q42.3656,147.9375 42.3656,144.8125 Q42.3656,141.6875 43.6781,140.0313 Q45.0063,138.375 47.5063,138.375 Q48.2094,138.375 48.85,138.5313 Q49.5063,138.6875 50.0688,138.9844 L50.0688,141.7031 Q49.4438,141.125 48.85,140.8594 Q48.2563,140.5781 47.6313,140.5781 Q46.2875,140.5781 45.6,141.6563 Q44.9125,142.7188 44.9125,144.8125 Q44.9125,146.9063 45.6,147.9844 Q46.2875,149.0469 47.6313,149.0469 Q48.2563,149.0469 48.85,148.7813 Q49.4438,148.5 50.0688,147.9219 L50.0688,150.6406 Z "/><text fill="#000000" font-family="sans-serif" font-size="12" lengthAdjust="spacingAndGlyphs" textLength="107" x="66.9" y="149.1543">ServiceResponse</text><rect fill="#FFFFFF" height="15.9688" style="stroke: #000000; stroke-width: 1.0; stroke-dasharray: 2.0,2.0;" width="9" x="208" y="126"/><text fill="#000000" font-family="sans-serif" font-size="12" font-style="italic" lengthAdjust="spacingAndGlyphs" textLength="7" x="209" y="138.1387">T</text><line style="stroke: #A80036; stroke-width: 1.5;" x1="7" x2="213" y1="161" y2="161"/><rect fill="none" height="6" style="stroke: #C82930; stroke-width: 1.0;" width="6" x="14" y="169.9023"/><text fill="#000000" font-family="sans-serif" font-size="11" lengthAdjust="spacingAndGlyphs" textLength="182" x="26" y="175.2104">message: ConnectorEventEnum</text><rect fill="none" height="6" style="stroke: #C82930; stroke-width: 1.0;" width="6" x="14" y="182.707"/><text fill="#000000" font-family="sans-serif" font-size="11" lengthAdjust="spacingAndGlyphs" textLength="40" x="26" y="188.0151">data: T</text><line style="stroke: #A80036; stroke-width: 1.5;" x1="7" x2="213" y1="194.6094" y2="194.6094"/><!--class TickCollection--><rect fill="#FEFECE" filter="url(#fwgsch4u9v9d6)" height="60.8047" id="TickCollection" style="stroke: #A80036; stroke-width: 1.5;" width="185" x="17.5" y="8"/><ellipse cx="63.25" cy="24" fill="#ADD1B2" rx="11" ry="11" style="stroke: #A80036; stroke-width: 1.0;"/><path d="M66.2188,29.6406 Q65.6406,29.9375 65,30.0781 Q64.3594,30.2344 63.6563,30.2344 Q61.1563,30.2344 59.8281,28.5938 Q58.5156,26.9375 58.5156,23.8125 Q58.5156,20.6875 59.8281,19.0313 Q61.1563,17.375 63.6563,17.375 Q64.3594,17.375 65,17.5313 Q65.6563,17.6875 66.2188,17.9844 L66.2188,20.7031 Q65.5938,20.125 65,19.8594 Q64.4063,19.5781 63.7813,19.5781 Q62.4375,19.5781 61.75,20.6563 Q61.0625,21.7188 61.0625,23.8125 Q61.0625,25.9063 61.75,26.9844 Q62.4375,28.0469 63.7813,28.0469 Q64.4063,28.0469 65,27.7813 Q65.5938,27.5 66.2188,26.9219 L66.2188,29.6406 Z "/><text fill="#000000" font-family="sans-serif" font-size="12" lengthAdjust="spacingAndGlyphs" textLength="85" x="83.75" y="28.1543">TickCollection</text><line style="stroke: #A80036; stroke-width: 1.5;" x1="18.5" x2="201.5" y1="40" y2="40"/><rect fill="none" height="6" style="stroke: #C82930; stroke-width: 1.0;" width="6" x="25.5" y="48.9023"/><text fill="#000000" font-family="sans-serif" font-size="11" lengthAdjust="spacingAndGlyphs" textLength="159" x="37.5" y="54.2104">ticks: Map&lt;TickEnum, Tick&gt;</text><line style="stroke: #A80036; stroke-width: 1.5;" x1="18.5" x2="201.5" y1="60.8047" y2="60.8047"/><!--class Tick--><rect fill="#FEFECE" filter="url(#fwgsch4u9v9d6)" height="48" id="Tick" style="stroke: #A80036; stroke-width: 1.5;" width="56" x="237" y="14.5"/><ellipse cx="252" cy="30.5" fill="#ADD1B2" rx="11" ry="11" style="stroke: #A80036; stroke-width: 1.0;"/><path d="M254.9688,36.1406 Q254.3906,36.4375 253.75,36.5781 Q253.1094,36.7344 252.4063,36.7344 Q249.9063,36.7344 248.5781,35.0938 Q247.2656,33.4375 247.2656,30.3125 Q247.2656,27.1875 248.5781,25.5313 Q249.9063,23.875 252.4063,23.875 Q253.1094,23.875 253.75,24.0313 Q254.4063,24.1875 254.9688,24.4844 L254.9688,27.2031 Q254.3438,26.625 253.75,26.3594 Q253.1563,26.0781 252.5313,26.0781 Q251.1875,26.0781 250.5,27.1563 Q249.8125,28.2188 249.8125,30.3125 Q249.8125,32.4063 250.5,33.4844 Q251.1875,34.5469 252.5313,34.5469 Q253.1563,34.5469 253.75,34.2813 Q254.3438,34 254.9688,33.4219 L254.9688,36.1406 Z "/><text fill="#000000" font-family="sans-serif" font-size="12" lengthAdjust="spacingAndGlyphs" textLength="24" x="266" y="34.6543">Tick</text><line style="stroke: #A80036; stroke-width: 1.5;" x1="238" x2="292" y1="46.5" y2="46.5"/><line style="stroke: #A80036; stroke-width: 1.5;" x1="238" x2="292" y1="54.5" y2="54.5"/><!--link TickCollection to ServiceResponse--><path d="M110,69.242 C110,83.033 110,99.798 110,115.4223 " fill="none" id="TickCollection-ServiceResponse" style="stroke: #A80036; stroke-width: 1.0;"/><polygon fill="#A80036" points="110,128.7555,114,122.7555,110,116.7555,106,122.7555,110,128.7555" style="stroke: #A80036; stroke-width: 1.0;"/><!--link TickCollection to Tick--><path d="M215.693,38.5 C222.709,38.5 229.725,38.5 236.742,38.5 " fill="none" id="TickCollection-Tick" style="stroke: #A80036; stroke-width: 1.0;"/><polygon fill="#A80036" points="202.637,38.5,208.637,42.5,214.637,38.5,208.637,34.5,202.637,38.5" style="stroke: #A80036; stroke-width: 1.0;"/><rect fill="#DDDDDD" height="26.2969" rx="5" ry="5" style="stroke: #000000; stroke-width: 1.0;" width="273" x="18.5" y="221"/><text fill="#000000" font-family="sans-serif" font-size="14" lengthAdjust="spacingAndGlyphs" textLength="261" x="24.5" y="238.9951">Diagramme de classe - Objet réponse</text><!--
@startuml
legend
Diagramme de classe - Objet réponse
endlegend

class ServiceResponse<T> {
    - message: ConnectorEventEnum
    - data: T
}

class TickCollection {
    - ticks: Map<TickEnum, Tick>
}

class Tick

TickCollection - -* ServiceResponse
Tick -right-* TickCollection
@enduml

PlantUML version 1.2018.10(Sat Aug 25 19:02:59 CEST 2018)
(APACHE source distribution)
Java Runtime: Java(TM) SE Runtime Environment
JVM: Java HotSpot(TM) 64-Bit Server VM
Java Version: 11.0.1+13-LTS
Operating System: Linux
OS Version: 4.9.0-8-amd64
Default Encoding: UTF-8
Language: fr
Country: FR
--></g></svg>