<?xml version="1.0" encoding="UTF-8" standalone="no"?><svg xmlns="http://www.w3.org/2000/svg" xmlns:xlink="http://www.w3.org/1999/xlink" contentScriptType="application/ecmascript" contentStyleType="text/css" height="244px" preserveAspectRatio="none" style="width:321px;height:244px;" version="1.1" viewBox="0 0 321 244" width="321px" zoomAndPan="magnify"><defs><filter height="300%" id="f133s70dvo7pu6" width="300%" x="-1" y="-1"><feGaussianBlur result="blurOut" stdDeviation="2.0"/><feColorMatrix in="blurOut" result="blurOut2" type="matrix" values="0 0 0 0 0 0 0 0 0 0 0 0 0 0 0 0 0 0 .4 0"/><feOffset dx="4.0" dy="4.0" in="blurOut2" result="blurOut3"/><feBlend in="SourceGraphic" in2="blurOut3" mode="normal"/></filter></defs><g><!--cluster Service--><polygon fill="#FFFFFF" filter="url(#f133s70dvo7pu6)" points="22,34,32,24,223,24,223,222,213,232,22,232,22,34" style="stroke: #000000; stroke-width: 1.5;"/><line style="stroke: #000000; stroke-width: 1.5;" x1="213" x2="222" y1="34" y2="25"/><line style="stroke: #000000; stroke-width: 1.5;" x1="22" x2="213" y1="34" y2="34"/><line style="stroke: #000000; stroke-width: 1.5;" x1="213" x2="213" y1="34" y2="232"/><text fill="#000000" font-family="sans-serif" font-size="14" font-weight="bold" lengthAdjust="spacingAndGlyphs" textLength="59" x="89" y="49.9951">Service</text><!--entity Application--><polygon fill="#FEFECE" filter="url(#f133s70dvo7pu6)" points="91.5,74,101.5,64,206.5,64,206.5,100.2969,196.5,110.2969,91.5,110.2969,91.5,74" style="stroke: #000000; stroke-width: 1.5;"/><line style="stroke: #000000; stroke-width: 1.5;" x1="196.5" x2="205.5" y1="74" y2="65"/><line style="stroke: #000000; stroke-width: 1.5;" x1="91.5" x2="196.5" y1="74" y2="74"/><line style="stroke: #000000; stroke-width: 1.5;" x1="196.5" x2="196.5" y1="74" y2="110.2969"/><text fill="#000000" font-family="sans-serif" font-size="14" lengthAdjust="spacingAndGlyphs" textLength="75" x="106.5" y="96.9951">Application</text><!--entity Connector--><polygon fill="#FEFECE" filter="url(#f133s70dvo7pu6)" points="92.5,180,102.5,170,205.5,170,205.5,206.2969,195.5,216.2969,92.5,216.2969,92.5,180" style="stroke: #000000; stroke-width: 1.5;"/><line style="stroke: #000000; stroke-width: 1.5;" x1="195.5" x2="204.5" y1="180" y2="171"/><line style="stroke: #000000; stroke-width: 1.5;" x1="92.5" x2="195.5" y1="180" y2="180"/><line style="stroke: #000000; stroke-width: 1.5;" x1="195.5" x2="195.5" y1="180" y2="216.2969"/><text fill="#000000" font-family="sans-serif" font-size="14" lengthAdjust="spacingAndGlyphs" textLength="73" x="107.5" y="202.9951">Connector</text><!--entity 80--><ellipse cx="47" cy="87" fill="#FEFECE" filter="url(#f133s70dvo7pu6)" rx="8" ry="8" style="stroke: #A80036; stroke-width: 2.0;"/><text fill="#000000" font-family="sans-serif" font-size="14" lengthAdjust="spacingAndGlyphs" textLength="18" x="38" y="116.9951">80</text><!--entity Broker--><path d="M244,182 C244,179 246,177 249,177 C252,177 254,179 254,182 C254,179 256,177 259,177 C262,177 264,179 264,182 C264,179 266,177 269,177 C272,177 274,179 274,182 C274,179 276,177 279,177 C282,177 284,179 284,182 C284,179 286,177 289,177 C292,177 294,179 294,182 C294,179 296,177 299,177 C302,177 304,179 304,182 C307,182 309,184 309,187 C309,190 307,192 304,192 C307,192 309,194 309,197 C309,200 307,202 304,202 C304,205 301,207 299,207 C296,207 294,205 294,202 C294,205 291,207 289,207 C286,207 284,205 284,202 C284,205 281,207 279,207 C276,207 274,205 274,202 C274,205 271,207 269,207 C266,207 264,205 264,202 C264,205 261,207 259,207 C256,207 254,205 254,202 C254,205 251,207 249,207 C246,207 244,205 244,202 C241,202 239,200 239,197 C239,194 241,192 244,192 C241,192 239,190 239,187 C239,184 241,182 244,182 " fill="#FEFECE" filter="url(#f133s70dvo7pu6)" style="stroke: #000000; stroke-width: 1.5;"/><text fill="#000000" font-family="sans-serif" font-size="14" lengthAdjust="spacingAndGlyphs" textLength="46" x="251" y="197.9951">Broker</text><!--link 80 to Application--><path d="M61.3855,87 C71.3704,87 81.3553,87 91.3402,87 " fill="none" id="80-Application" style="stroke: #A80036; stroke-width: 1.0;"/><polygon fill="#A80036" points="56.1641,87,65.1641,91,61.1641,87,65.1641,83,56.1641,87" style="stroke: #A80036; stroke-width: 1.0;"/><!--link Application to Connector--><path d="M149,115.192 C149,130.528 149,149.6238 149,164.9383 " fill="none" id="Application-Connector" style="stroke: #A80036; stroke-width: 1.0;"/><polygon fill="#A80036" points="149,169.9761,153,160.9761,149,164.9761,145,160.9761,149,169.9761" style="stroke: #A80036; stroke-width: 1.0;"/><polygon fill="#A80036" points="149,110.056,145,119.056,149,115.056,153,119.056,149,110.056" style="stroke: #A80036; stroke-width: 1.0;"/><!--link Connector to Broker--><path d="M205.641,210.0984 C215.738,210.6209 225.835,209.7928 235.932,207.6141 " fill="none" id="Connector-Broker" style="stroke: #A80036; stroke-width: 1.0;"/><polygon fill="#A80036" points="240.888,206.436,231.2066,204.6273,236.0237,207.5931,233.058,212.4102,240.888,206.436" style="stroke: #A80036; stroke-width: 1.0;"/><!--link Connector to Broker--><path d="M210.873,175.7517 C220.878,175.6963 230.883,176.9671 240.888,179.564 " fill="none" id="Connector-Broker" style="stroke: #A80036; stroke-width: 1.0;"/><polygon fill="#A80036" points="205.641,175.9016,214.7527,179.6402,210.6389,175.7573,214.5218,171.6435,205.641,175.9016" style="stroke: #A80036; stroke-width: 1.0;"/><!--
@startuml
node Service {
    node Application
    node Connector

    Application -left-> 80
    Application <-down-> Connector
}

cloud Broker

Connector -right-> Broker
Connector <-right- Broker
@enduml

PlantUML version 1.2018.10(Sat Aug 25 19:02:59 CEST 2018)
(APACHE source distribution)
Java Runtime: Java(TM) SE Runtime Environment
JVM: Java HotSpot(TM) 64-Bit Server VM
Java Version: 11.0.1+13-LTS
Operating System: Linux
OS Version: 4.9.0-8-amd64
Default Encoding: UTF-8
Language: fr
Country: FR
--></g></svg>