<?xml version="1.0" encoding="UTF-8" standalone="no"?><svg xmlns="http://www.w3.org/2000/svg" xmlns:xlink="http://www.w3.org/1999/xlink" contentScriptType="application/ecmascript" contentStyleType="text/css" height="304px" preserveAspectRatio="none" style="width:294px;height:304px;" version="1.1" viewBox="0 0 294 304" width="294px" zoomAndPan="magnify"><defs><filter height="300%" id="f1oxssduyj0xyi" width="300%" x="-1" y="-1"><feGaussianBlur result="blurOut" stdDeviation="2.0"/><feColorMatrix in="blurOut" result="blurOut2" type="matrix" values="0 0 0 0 0 0 0 0 0 0 0 0 0 0 0 0 0 0 .4 0"/><feOffset dx="4.0" dy="4.0" in="blurOut2" result="blurOut3"/><feBlend in="SourceGraphic" in2="blurOut3" mode="normal"/></filter></defs><g><!--entity User--><ellipse cx="22" cy="123" fill="#FEFECE" filter="url(#f1oxssduyj0xyi)" rx="8" ry="8" style="stroke: #A80036; stroke-width: 2.0;"/><path d="M22,131 L22,158 M9,139 L35,139 M22,158 L9,173 M22,158 L35,173 " fill="none" filter="url(#f1oxssduyj0xyi)" style="stroke: #A80036; stroke-width: 2.0;"/><text fill="#000000" font-family="sans-serif" font-size="14" lengthAdjust="spacingAndGlyphs" textLength="32" x="6" y="192.9951">User</text><!--entity Client--><polygon fill="#FEFECE" filter="url(#f1oxssduyj0xyi)" points="73.5,141.5,83.5,131.5,152.5,131.5,152.5,167.7969,142.5,177.7969,73.5,177.7969,73.5,141.5" style="stroke: #000000; stroke-width: 1.5;"/><line style="stroke: #000000; stroke-width: 1.5;" x1="142.5" x2="151.5" y1="141.5" y2="132.5"/><line style="stroke: #000000; stroke-width: 1.5;" x1="73.5" x2="142.5" y1="141.5" y2="141.5"/><line style="stroke: #000000; stroke-width: 1.5;" x1="142.5" x2="142.5" y1="141.5" y2="177.7969"/><text fill="#000000" font-family="sans-serif" font-size="14" lengthAdjust="spacingAndGlyphs" textLength="39" x="88.5" y="164.4951">Client</text><!--entity Server--><polygon fill="#FEFECE" filter="url(#f1oxssduyj0xyi)" points="188,141.5,198,131.5,272,131.5,272,167.7969,262,177.7969,188,177.7969,188,141.5" style="stroke: #000000; stroke-width: 1.5;"/><line style="stroke: #000000; stroke-width: 1.5;" x1="262" x2="271" y1="141.5" y2="132.5"/><line style="stroke: #000000; stroke-width: 1.5;" x1="188" x2="262" y1="141.5" y2="141.5"/><line style="stroke: #000000; stroke-width: 1.5;" x1="262" x2="262" y1="141.5" y2="177.7969"/><text fill="#000000" font-family="sans-serif" font-size="14" lengthAdjust="spacingAndGlyphs" textLength="44" x="203" y="164.4951">Server</text><!--entity Database--><path d="M70,18 C70,8 113,8 113,8 C113,8 156,8 156,18 L156,43.2969 C156,53.2969 113,53.2969 113,53.2969 C113,53.2969 70,53.2969 70,43.2969 L70,18 " fill="#FEFECE" filter="url(#f1oxssduyj0xyi)" style="stroke: #000000; stroke-width: 1.5;"/><path d="M70,18 C70,28 113,28 113,28 C113,28 156,28 156,18 " fill="none" style="stroke: #000000; stroke-width: 1.5;"/><text fill="#000000" font-family="sans-serif" font-size="14" lengthAdjust="spacingAndGlyphs" textLength="66" x="80" y="44.9951">Database</text><!--entity Configuration--><polygon fill="#FEFECE" filter="url(#f1oxssduyj0xyi)" points="57,256,57,292.2969,169,292.2969,169,266,159,256,57,256" style="stroke: #000000; stroke-width: 1.5;"/><path d="M159,256 L159,266 L169,266 " fill="#FEFECE" style="stroke: #000000; stroke-width: 1.5;"/><text fill="#000000" font-family="sans-serif" font-size="14" lengthAdjust="spacingAndGlyphs" textLength="92" x="67" y="278.9951">Configuration</text><!--link User to Client--><path d="M38.3516,154.5 C48.284,154.5 58.2165,154.5 68.149,154.5 " fill="none" id="User-Client" style="stroke: #A80036; stroke-width: 1.0;"/><polygon fill="#A80036" points="73.343,154.5,64.343,150.5,68.343,154.5,64.343,158.5,73.343,154.5" style="stroke: #A80036; stroke-width: 1.0;"/><!--link Client to Server--><path d="M152.762,154.5 C162.696,154.5 172.631,154.5 182.565,154.5 " fill="none" id="Client-Server" style="stroke: #A80036; stroke-width: 1.0;"/><polygon fill="#A80036" points="187.76,154.5,178.76,150.5,182.76,154.5,178.76,158.5,187.76,154.5" style="stroke: #A80036; stroke-width: 1.0;"/><!--link Database to Client--><path d="M113,58.124 C113,80.048 113,110.767 113,131.361 " fill="none" id="Database-Client" style="stroke: #A80036; stroke-width: 1.0;"/><polygon fill="#A80036" points="113,53.03,109,62.03,113,58.03,117,62.03,113,53.03" style="stroke: #A80036; stroke-width: 1.0;"/><!--link Client to Configuration--><path d="M113,177.601 C113,198.5602 113,229.8811 113,250.855 " fill="none" id="Client-Configuration" style="stroke: #A80036; stroke-width: 1.0;"/><polygon fill="#A80036" points="113,255.9518,117,246.9518,113,250.9518,109,246.9518,113,255.9518" style="stroke: #A80036; stroke-width: 1.0;"/><!--
@startuml
actor User
node Client
node Server
database Database
file Configuration

User -right-> Client
Client -right-> Server
Client -up-> Database
Client -down-> Configuration
@enduml

PlantUML version 1.2018.10(Sat Aug 25 19:02:59 CEST 2018)
(APACHE source distribution)
Java Runtime: Java(TM) SE Runtime Environment
JVM: Java HotSpot(TM) 64-Bit Server VM
Java Version: 11.0.1+13-LTS
Operating System: Linux
OS Version: 4.9.0-8-amd64
Default Encoding: UTF-8
Language: fr
Country: FR
--></g></svg>