<?xml version="1.0" encoding="UTF-8" standalone="no"?><svg xmlns="http://www.w3.org/2000/svg" xmlns:xlink="http://www.w3.org/1999/xlink" contentScriptType="application/ecmascript" contentStyleType="text/css" height="218px" preserveAspectRatio="none" style="width:473px;height:218px;" version="1.1" viewBox="0 0 473 218" width="473px" zoomAndPan="magnify"><defs><filter height="300%" id="f16vo2geigim44" width="300%" x="-1" y="-1"><feGaussianBlur result="blurOut" stdDeviation="2.0"/><feColorMatrix in="blurOut" result="blurOut2" type="matrix" values="0 0 0 0 0 0 0 0 0 0 0 0 0 0 0 0 0 0 .4 0"/><feOffset dx="4.0" dy="4.0" in="blurOut2" result="blurOut3"/><feBlend in="SourceGraphic" in2="blurOut3" mode="normal"/></filter></defs><g><ellipse cx="16" cy="107.5" fill="#000000" filter="url(#f16vo2geigim44)" rx="10" ry="10" style="stroke: none; stroke-width: 1.0;"/><rect fill="#FEFECE" filter="url(#f16vo2geigim44)" height="199" rx="12.5" ry="12.5" style="stroke: #A80036; stroke-width: 1.5;" width="146" x="46" y="8"/><svg x="56" y="18"><defs/><g><text fill="#000000" font-family="sans-serif" font-size="12" lengthAdjust="spacingAndGlyphs" textLength="51" x="6" y="17.1387">EURUSD</text><line style="stroke: #AAAAAA; stroke-width: 1.0;" x1="6" x2="120" y1="24.4688" y2="24.4688"/><line style="stroke: #AAAAAA; stroke-width: 1.0;" x1="6" x2="120" y1="26.4688" y2="26.4688"/><text fill="#000000" font-family="sans-serif" font-size="12" lengthAdjust="spacingAndGlyphs" textLength="67" x="9" y="41.1074">Take profit</text><line style="stroke: #000000; stroke-width: 1.0;" x1="7" x2="98" y1="43.9375" y2="43.9375"/><line style="stroke: #000000; stroke-width: 1.0;" x1="7" x2="7" y1="40.9375" y2="42.9375"/><line style="stroke: #000000; stroke-width: 1.0;" x1="98" x2="98" y1="40.9375" y2="42.9375"/><rect fill="#EEEEEE" height="17.9688" rx="5" ry="5" style="stroke: #000000; stroke-width: 2.5;" width="76" x="8.5" y="50.4375"/><text fill="#000000" font-family="sans-serif" font-size="12" lengthAdjust="spacingAndGlyphs" textLength="57" x="18" y="63.5762">Ask price</text><text fill="#000000" font-family="sans-serif" font-size="12" lengthAdjust="spacingAndGlyphs" textLength="82" x="6" y="84.0449">Spread value</text><text fill="#000000" font-family="sans-serif" font-size="12" lengthAdjust="spacingAndGlyphs" textLength="26" x="9" y="100.0137">Lots</text><line style="stroke: #000000; stroke-width: 1.0;" x1="7" x2="42" y1="102.8438" y2="102.8438"/><line style="stroke: #000000; stroke-width: 1.0;" x1="7" x2="7" y1="99.8438" y2="101.8438"/><line style="stroke: #000000; stroke-width: 1.0;" x1="42" x2="42" y1="99.8438" y2="101.8438"/><rect fill="#EEEEEE" height="17.9688" rx="5" ry="5" style="stroke: #000000; stroke-width: 2.5;" width="76" x="8.5" y="109.3438"/><text fill="#000000" font-family="sans-serif" font-size="12" lengthAdjust="spacingAndGlyphs" textLength="54" x="19.5" y="122.4824">Bid price</text><text fill="#000000" font-family="sans-serif" font-size="12" lengthAdjust="spacingAndGlyphs" textLength="58" x="9" y="142.9512">Stop loss</text><line style="stroke: #000000; stroke-width: 1.0;" x1="7" x2="82" y1="145.7813" y2="145.7813"/><line style="stroke: #000000; stroke-width: 1.0;" x1="7" x2="7" y1="142.7813" y2="144.7813"/><line style="stroke: #000000; stroke-width: 1.0;" x1="82" x2="82" y1="142.7813" y2="144.7813"/><rect fill="#EEEEEE" height="17.9688" rx="5" ry="5" style="stroke: #000000; stroke-width: 2.5;" width="108" x="8.5" y="152.2813"/><text fill="#000000" font-family="sans-serif" font-size="12" lengthAdjust="spacingAndGlyphs" textLength="100" x="12.5" y="165.4199">Advanced mode</text><line style="stroke: #000000; stroke-width: 1.0;" x1="5" x2="120" y1="5" y2="5"/><line style="stroke: #000000; stroke-width: 1.0;" x1="5" x2="120" y1="173.75" y2="173.75"/><line style="stroke: #000000; stroke-width: 1.0;" x1="5" x2="5" y1="5" y2="20.9688"/><line style="stroke: #000000; stroke-width: 1.0;" x1="120" x2="120" y1="5" y2="20.9688"/><line style="stroke: #000000; stroke-width: 1.0;" x1="5" x2="5" y1="130.8125" y2="148.7813"/><line style="stroke: #000000; stroke-width: 1.0;" x1="120" x2="120" y1="130.8125" y2="148.7813"/><line style="stroke: #000000; stroke-width: 1.0;" x1="5" x2="5" y1="87.875" y2="105.8438"/><line style="stroke: #000000; stroke-width: 1.0;" x1="120" x2="120" y1="87.875" y2="105.8438"/><line style="stroke: #000000; stroke-width: 1.0;" x1="5" x2="5" y1="46.9375" y2="71.9063"/><line style="stroke: #000000; stroke-width: 1.0;" x1="120" x2="120" y1="46.9375" y2="71.9063"/><line style="stroke: #000000; stroke-width: 1.0;" x1="5" x2="5" y1="20.9688" y2="28.9688"/><line style="stroke: #000000; stroke-width: 1.0;" x1="120" x2="120" y1="20.9688" y2="28.9688"/><line style="stroke: #000000; stroke-width: 1.0;" x1="5" x2="5" y1="148.7813" y2="173.75"/><line style="stroke: #000000; stroke-width: 1.0;" x1="120" x2="120" y1="148.7813" y2="173.75"/><line style="stroke: #000000; stroke-width: 1.0;" x1="5" x2="5" y1="105.8438" y2="130.8125"/><line style="stroke: #000000; stroke-width: 1.0;" x1="120" x2="120" y1="105.8438" y2="130.8125"/><line style="stroke: #000000; stroke-width: 1.0;" x1="5" x2="5" y1="71.9063" y2="87.875"/><line style="stroke: #000000; stroke-width: 1.0;" x1="120" x2="120" y1="71.9063" y2="87.875"/><line style="stroke: #000000; stroke-width: 1.0;" x1="5" x2="5" y1="28.9688" y2="46.9375"/><line style="stroke: #000000; stroke-width: 1.0;" x1="120" x2="120" y1="28.9688" y2="46.9375"/></g></svg><rect fill="#FEFECE" filter="url(#f16vo2geigim44)" height="192" rx="12.5" ry="12.5" style="stroke: #A80036; stroke-width: 1.5;" width="250" x="212" y="11.5"/><svg x="222" y="21.5"><defs/><g><text fill="#000000" font-family="sans-serif" font-size="12" lengthAdjust="spacingAndGlyphs" textLength="51" x="6" y="17.1387">EURUSD</text><line style="stroke: #AAAAAA; stroke-width: 1.0;" x1="6" x2="224" y1="24.4688" y2="24.4688"/><line style="stroke: #AAAAAA; stroke-width: 1.0;" x1="6" x2="224" y1="26.4688" y2="26.4688"/><text fill="#000000" font-family="sans-serif" font-size="12" lengthAdjust="spacingAndGlyphs" textLength="217" x="6" y="41.1074">Ask price - Spread value - Bid price</text><text fill="#000000" font-family="sans-serif" font-size="12" lengthAdjust="spacingAndGlyphs" textLength="67" x="9" y="57.0762">Take profit</text><line style="stroke: #000000; stroke-width: 1.0;" x1="7" x2="98" y1="59.9063" y2="59.9063"/><line style="stroke: #000000; stroke-width: 1.0;" x1="7" x2="7" y1="56.9063" y2="58.9063"/><line style="stroke: #000000; stroke-width: 1.0;" x1="98" x2="98" y1="56.9063" y2="58.9063"/><text fill="#000000" font-family="sans-serif" font-size="12" lengthAdjust="spacingAndGlyphs" textLength="68" x="9" y="75.0449">Open price</text><line style="stroke: #000000; stroke-width: 1.0;" x1="7" x2="90" y1="77.875" y2="77.875"/><line style="stroke: #000000; stroke-width: 1.0;" x1="7" x2="7" y1="74.875" y2="76.875"/><line style="stroke: #000000; stroke-width: 1.0;" x1="90" x2="90" y1="74.875" y2="76.875"/><text fill="#000000" font-family="sans-serif" font-size="12" lengthAdjust="spacingAndGlyphs" textLength="26" x="9" y="93.0137">Lots</text><line style="stroke: #000000; stroke-width: 1.0;" x1="7" x2="42" y1="95.8438" y2="95.8438"/><line style="stroke: #000000; stroke-width: 1.0;" x1="7" x2="7" y1="92.8438" y2="94.8438"/><line style="stroke: #000000; stroke-width: 1.0;" x1="42" x2="42" y1="92.8438" y2="94.8438"/><text fill="#000000" font-family="sans-serif" font-size="12" lengthAdjust="spacingAndGlyphs" textLength="58" x="9" y="110.9824">Stop loss</text><line style="stroke: #000000; stroke-width: 1.0;" x1="7" x2="82" y1="113.8125" y2="113.8125"/><line style="stroke: #000000; stroke-width: 1.0;" x1="7" x2="7" y1="110.8125" y2="112.8125"/><line style="stroke: #000000; stroke-width: 1.0;" x1="82" x2="82" y1="110.8125" y2="112.8125"/><rect fill="#EEEEEE" height="17.9688" rx="5" ry="5" style="stroke: #000000; stroke-width: 2.5;" width="92" x="8.5" y="120.3125"/><text fill="#000000" font-family="sans-serif" font-size="12" lengthAdjust="spacingAndGlyphs" textLength="72" x="18.5" y="133.4512">Place order</text><rect fill="#EEEEEE" height="17.9688" rx="5" ry="5" style="stroke: #000000; stroke-width: 2.5;" width="92" x="8.5" y="145.2813"/><text fill="#000000" font-family="sans-serif" font-size="12" lengthAdjust="spacingAndGlyphs" textLength="80" x="14.5" y="158.4199">Simple mode</text><line style="stroke: #000000; stroke-width: 1.0;" x1="5" x2="224" y1="5" y2="5"/><line style="stroke: #000000; stroke-width: 1.0;" x1="5" x2="224" y1="166.75" y2="166.75"/><line style="stroke: #000000; stroke-width: 1.0;" x1="5" x2="5" y1="5" y2="20.9688"/><line style="stroke: #000000; stroke-width: 1.0;" x1="224" x2="224" y1="5" y2="20.9688"/><line style="stroke: #000000; stroke-width: 1.0;" x1="5" x2="5" y1="116.8125" y2="141.7813"/><line style="stroke: #000000; stroke-width: 1.0;" x1="224" x2="224" y1="116.8125" y2="141.7813"/><line style="stroke: #000000; stroke-width: 1.0;" x1="5" x2="5" y1="80.875" y2="98.8438"/><line style="stroke: #000000; stroke-width: 1.0;" x1="224" x2="224" y1="80.875" y2="98.8438"/><line style="stroke: #000000; stroke-width: 1.0;" x1="5" x2="5" y1="44.9375" y2="62.9063"/><line style="stroke: #000000; stroke-width: 1.0;" x1="224" x2="224" y1="44.9375" y2="62.9063"/><line style="stroke: #000000; stroke-width: 1.0;" x1="5" x2="5" y1="20.9688" y2="28.9688"/><line style="stroke: #000000; stroke-width: 1.0;" x1="224" x2="224" y1="20.9688" y2="28.9688"/><line style="stroke: #000000; stroke-width: 1.0;" x1="5" x2="5" y1="141.7813" y2="166.75"/><line style="stroke: #000000; stroke-width: 1.0;" x1="224" x2="224" y1="141.7813" y2="166.75"/><line style="stroke: #000000; stroke-width: 1.0;" x1="5" x2="5" y1="98.8438" y2="116.8125"/><line style="stroke: #000000; stroke-width: 1.0;" x1="224" x2="224" y1="98.8438" y2="116.8125"/><line style="stroke: #000000; stroke-width: 1.0;" x1="5" x2="5" y1="62.9063" y2="80.875"/><line style="stroke: #000000; stroke-width: 1.0;" x1="224" x2="224" y1="62.9063" y2="80.875"/><line style="stroke: #000000; stroke-width: 1.0;" x1="5" x2="5" y1="28.9688" y2="44.9375"/><line style="stroke: #000000; stroke-width: 1.0;" x1="224" x2="224" y1="28.9688" y2="44.9375"/></g></svg><!--link start to simplemode--><path d="M26.0586,107.5 C30.8577,107.5 35.6568,107.5 40.4559,107.5 " fill="none" id="start-simplemode" style="stroke: #A80036; stroke-width: 1.0;"/><polygon fill="#A80036" points="45.6634,107.5,36.6634,103.5,40.6634,107.5,36.6634,111.5,45.6634,107.5" style="stroke: #A80036; stroke-width: 1.0;"/><!--link simplemode to {{\nsalt\n{+\nEURUSD\n==\nAsk price - Spread value - Bid price\n"Take profit"\n"Open price"\n"Lots"\n"Stop loss"\n[Place order]\n[Simple mode]\n}\n}}--><path d="M192.234,107.5 C197.01,107.5 201.786,107.5 206.562,107.5 " fill="none" id="simplemode-{{\nsalt\n{+\nEURUSD\n==\nAsk price - Spread value - Bid price\n&quot;Take profit&quot;\n&quot;Open price&quot;\n&quot;Lots&quot;\n&quot;Stop loss&quot;\n[Place order]\n[Simple mode]\n}\n}}" style="stroke: #A80036; stroke-width: 1.0;"/><polygon fill="#A80036" points="211.744,107.5,202.744,103.5,206.744,107.5,202.744,111.5,211.744,107.5" style="stroke: #A80036; stroke-width: 1.0;"/><!--
@startuml
(*) -right-> "
{{
salt
{+
EURUSD
==
"Take profit"
[Ask price]
Spread value
"Lots"
[Bid price]
"Stop loss"
[Advanced mode]
}
}}
" as simplemode

simplemode -right-> "
{{
salt
{+
EURUSD
==
Ask price - Spread value - Bid price
"Take profit"
"Open price"
"Lots"
"Stop loss"
[Place order]
[Simple mode]
}
}}
"
@enduml

PlantUML version 1.2018.10(Sat Aug 25 19:02:59 CEST 2018)
(APACHE source distribution)
Java Runtime: Java(TM) SE Runtime Environment
JVM: Java HotSpot(TM) 64-Bit Server VM
Java Version: 11.0.1+13-LTS
Operating System: Linux
OS Version: 4.9.0-8-amd64
Default Encoding: UTF-8
Language: fr
Country: FR
--></g></svg>