<?xml version="1.0" encoding="UTF-8" standalone="no"?><svg xmlns="http://www.w3.org/2000/svg" xmlns:xlink="http://www.w3.org/1999/xlink" contentScriptType="application/ecmascript" contentStyleType="text/css" height="621px" preserveAspectRatio="none" style="width:280px;height:621px;" version="1.1" viewBox="0 0 280 621" width="280px" zoomAndPan="magnify"><defs><filter height="300%" id="f1j73xms5kvkub" width="300%" x="-1" y="-1"><feGaussianBlur result="blurOut" stdDeviation="2.0"/><feColorMatrix in="blurOut" result="blurOut2" type="matrix" values="0 0 0 0 0 0 0 0 0 0 0 0 0 0 0 0 0 0 .4 0"/><feOffset dx="4.0" dy="4.0" in="blurOut2" result="blurOut3"/><feBlend in="SourceGraphic" in2="blurOut3" mode="normal"/></filter></defs><g><!--entity Market--><path d="M60.5,15 C60.5,12 62.5,10 65.5,10 C68.5,10 70.5,12 70.5,15 C70.5,12 72.5,10 75.5,10 C78.5,10 80.5,12 80.5,15 C80.5,12 82.5,10 85.5,10 C88.5,10 90.5,12 90.5,15 C90.5,12 92.5,10 95.5,10 C98.5,10 100.5,12 100.5,15 C100.5,12 102.5,10 105.5,10 C108.5,10 110.5,12 110.5,15 C110.5,12 112.5,10 115.5,10 C118.5,10 120.5,12 120.5,15 C120.5,12 122.5,10 125.5,10 C128.5,10 130.5,12 130.5,15 C130.5,12 132.5,10 135.5,10 C138.5,10 140.5,12 140.5,15 C140.5,12 142.5,10 145.5,10 C148.5,10 150.5,12 150.5,15 C150.5,12 152.5,10 155.5,10 C158.5,10 160.5,12 160.5,15 C160.5,12 162.5,10 165.5,10 C168.5,10 170.5,12 170.5,15 C170.5,12 172.5,10 175.5,10 C178.5,10 180.5,12 180.5,15 C180.5,12 182.5,10 185.5,10 C188.5,10 190.5,12 190.5,15 C190.5,12 192.5,10 195.5,10 C198.5,10 200.5,12 200.5,15 C203.5,15 205.5,17 205.5,20 C205.5,23 203.5,25 200.5,25 C203.5,25 205.5,27 205.5,30 C205.5,33 203.5,35 200.5,35 C200.5,38 197.5,40 195.5,40 C192.5,40 190.5,38 190.5,35 C190.5,38 187.5,40 185.5,40 C182.5,40 180.5,38 180.5,35 C180.5,38 177.5,40 175.5,40 C172.5,40 170.5,38 170.5,35 C170.5,38 167.5,40 165.5,40 C162.5,40 160.5,38 160.5,35 C160.5,38 157.5,40 155.5,40 C152.5,40 150.5,38 150.5,35 C150.5,38 147.5,40 145.5,40 C142.5,40 140.5,38 140.5,35 C140.5,38 137.5,40 135.5,40 C132.5,40 130.5,38 130.5,35 C130.5,38 127.5,40 125.5,40 C122.5,40 120.5,38 120.5,35 C120.5,38 117.5,40 115.5,40 C112.5,40 110.5,38 110.5,35 C110.5,38 107.5,40 105.5,40 C102.5,40 100.5,38 100.5,35 C100.5,38 97.5,40 95.5,40 C92.5,40 90.5,38 90.5,35 C90.5,38 87.5,40 85.5,40 C82.5,40 80.5,38 80.5,35 C80.5,38 77.5,40 75.5,40 C72.5,40 70.5,38 70.5,35 C70.5,38 67.5,40 65.5,40 C62.5,40 60.5,38 60.5,35 C57.5,35 55.5,33 55.5,30 C55.5,27 57.5,25 60.5,25 C57.5,25 55.5,23 55.5,20 C55.5,17 57.5,15 60.5,15 " fill="#FEFECE" filter="url(#f1j73xms5kvkub)" style="stroke: #000000; stroke-width: 1.5;"/><text fill="#000000" font-family="sans-serif" font-size="14" lengthAdjust="spacingAndGlyphs" textLength="129" x="67.5" y="30.9951">Marchés financiers</text><!--entity Banques--><polygon fill="#FEFECE" filter="url(#f1j73xms5kvkub)" points="81,114,91,104,183,104,183,140.2969,173,150.2969,81,150.2969,81,114" style="stroke: #000000; stroke-width: 1.5;"/><line style="stroke: #000000; stroke-width: 1.5;" x1="173" x2="182" y1="114" y2="105"/><line style="stroke: #000000; stroke-width: 1.5;" x1="81" x2="173" y1="114" y2="114"/><line style="stroke: #000000; stroke-width: 1.5;" x1="173" x2="173" y1="114" y2="150.2969"/><text fill="#000000" font-family="sans-serif" font-size="14" lengthAdjust="spacingAndGlyphs" textLength="62" x="96" y="136.9951">Banques</text><!--entity Brokers--><polygon fill="#FEFECE" filter="url(#f1j73xms5kvkub)" points="85,220,95,210,179,210,179,246.2969,169,256.2969,85,256.2969,85,220" style="stroke: #000000; stroke-width: 1.5;"/><line style="stroke: #000000; stroke-width: 1.5;" x1="169" x2="178" y1="220" y2="211"/><line style="stroke: #000000; stroke-width: 1.5;" x1="85" x2="169" y1="220" y2="220"/><line style="stroke: #000000; stroke-width: 1.5;" x1="169" x2="169" y1="220" y2="256.2969"/><text fill="#000000" font-family="sans-serif" font-size="14" lengthAdjust="spacingAndGlyphs" textLength="54" x="100" y="242.9951">Brokers</text><!--entity Service--><polygon fill="#FEFECE" filter="url(#f1j73xms5kvkub)" points="15.5,326,25.5,316,248.5,316,248.5,352.2969,238.5,362.2969,15.5,362.2969,15.5,326" style="stroke: #000000; stroke-width: 1.5;"/><line style="stroke: #000000; stroke-width: 1.5;" x1="238.5" x2="247.5" y1="326" y2="317"/><line style="stroke: #000000; stroke-width: 1.5;" x1="15.5" x2="238.5" y1="326" y2="326"/><line style="stroke: #000000; stroke-width: 1.5;" x1="238.5" x2="238.5" y1="326" y2="362.2969"/><text fill="#000000" font-family="sans-serif" font-size="14" lengthAdjust="spacingAndGlyphs" textLength="193" x="30.5" y="348.9951">Service TraderBook (Server)</text><!--entity Platform--><polygon fill="#FEFECE" filter="url(#f1j73xms5kvkub)" points="6,432,16,422,258,422,258,458.2969,248,468.2969,6,468.2969,6,432" style="stroke: #000000; stroke-width: 1.5;"/><line style="stroke: #000000; stroke-width: 1.5;" x1="248" x2="257" y1="432" y2="423"/><line style="stroke: #000000; stroke-width: 1.5;" x1="6" x2="248" y1="432" y2="432"/><line style="stroke: #000000; stroke-width: 1.5;" x1="248" x2="248" y1="432" y2="468.2969"/><text fill="#000000" font-family="sans-serif" font-size="14" lengthAdjust="spacingAndGlyphs" textLength="212" x="21" y="454.9951">Plateforme TraderBook (Client)</text><!--entity User--><ellipse cx="132" cy="538" fill="#FEFECE" filter="url(#f1j73xms5kvkub)" rx="8" ry="8" style="stroke: #A80036; stroke-width: 2.0;"/><path d="M132,546 L132,573 M119,554 L145,554 M132,573 L119,588 M132,573 L145,588 " fill="none" filter="url(#f1j73xms5kvkub)" style="stroke: #A80036; stroke-width: 2.0;"/><text fill="#000000" font-family="sans-serif" font-size="14" lengthAdjust="spacingAndGlyphs" textLength="32" x="116" y="607.9951">User</text><!--link Market to Banques--><path d="M132,49.521 C132,65.757 132,87.569 132,103.744 " fill="none" id="Market-Banques" style="stroke: #A80036; stroke-width: 1.0;"/><polygon fill="#A80036" points="132,44.244,128,53.244,132,49.244,136,53.244,132,44.244" style="stroke: #A80036; stroke-width: 1.0;"/><!--link Banques to Brokers--><path d="M132,155.192 C132,172.262 132,193.989 132,209.976 " fill="none" id="Banques-Brokers" style="stroke: #A80036; stroke-width: 1.0;"/><polygon fill="#A80036" points="132,150.056,128,159.056,132,155.056,136,159.056,132,150.056" style="stroke: #A80036; stroke-width: 1.0;"/><!--link Brokers to Service--><path d="M132,261.192 C132,278.262 132,299.989 132,315.976 " fill="none" id="Brokers-Service" style="stroke: #A80036; stroke-width: 1.0;"/><polygon fill="#A80036" points="132,256.056,128,265.056,132,261.056,136,265.056,132,256.056" style="stroke: #A80036; stroke-width: 1.0;"/><!--link Service to Platform--><path d="M132,367.192 C132,384.262 132,405.989 132,421.976 " fill="none" id="Service-Platform" style="stroke: #A80036; stroke-width: 1.0;"/><polygon fill="#A80036" points="132,362.056,128,371.056,132,367.056,136,371.056,132,362.056" style="stroke: #A80036; stroke-width: 1.0;"/><!--link Platform to User--><path d="M132,473.417 C132,489.385 132,509.823 132,527.6561 " fill="none" id="Platform-User" style="stroke: #A80036; stroke-width: 1.0;"/><polygon fill="#A80036" points="132,468.184,128,477.184,132,473.184,136,477.184,132,468.184" style="stroke: #A80036; stroke-width: 1.0;"/><!--
@startuml
cloud "Marchés financiers" as Market
node Banques
node Brokers
node "Service TraderBook (Server)" as Service
node "Plateforme TraderBook (Client)" as Platform
actor User

Banques -up-> Market
Brokers -up-> Banques
Service -up-> Brokers
Platform -up-> Service
User -up-> Platform
@enduml

PlantUML version 1.2018.10(Sat Aug 25 19:02:59 CEST 2018)
(APACHE source distribution)
Java Runtime: Java(TM) SE Runtime Environment
JVM: Java HotSpot(TM) 64-Bit Server VM
Java Version: 11.0.1+13-LTS
Operating System: Linux
OS Version: 4.9.0-8-amd64
Default Encoding: UTF-8
Language: fr
Country: FR
--></g></svg>