<?xml version="1.0" encoding="UTF-8" standalone="no"?><svg xmlns="http://www.w3.org/2000/svg" xmlns:xlink="http://www.w3.org/1999/xlink" contentScriptType="application/ecmascript" contentStyleType="text/css" height="309px" preserveAspectRatio="none" style="width:1211px;height:309px;" version="1.1" viewBox="0 0 1211 309" width="1211px" zoomAndPan="magnify"><defs><filter height="300%" id="fh99ap0q8clx5" width="300%" x="-1" y="-1"><feGaussianBlur result="blurOut" stdDeviation="2.0"/><feColorMatrix in="blurOut" result="blurOut2" type="matrix" values="0 0 0 0 0 0 0 0 0 0 0 0 0 0 0 0 0 0 .4 0"/><feOffset dx="4.0" dy="4.0" in="blurOut2" result="blurOut3"/><feBlend in="SourceGraphic" in2="blurOut3" mode="normal"/></filter></defs><g><!--cluster net.traderbook.api.connector--><polygon fill="#FFFFFF" filter="url(#fh99ap0q8clx5)" points="22,30.5,261,30.5,268,52.7969,695,52.7969,695,167.5,22,167.5,22,30.5" style="stroke: #000000; stroke-width: 1.5;"/><line style="stroke: #000000; stroke-width: 1.5;" x1="22" x2="268" y1="52.7969" y2="52.7969"/><text fill="#000000" font-family="sans-serif" font-size="14" font-weight="bold" lengthAdjust="spacingAndGlyphs" textLength="233" x="26" y="45.4951">net.traderbook.api.connector</text><!--cluster net.traderbook.connector--><polygon fill="#FFFFFF" filter="url(#fh99ap0q8clx5)" points="555,198,766,198,773,220.2969,776,220.2969,776,297,555,297,555,198" style="stroke: #000000; stroke-width: 1.5;"/><line style="stroke: #000000; stroke-width: 1.5;" x1="555" x2="773" y1="220.2969" y2="220.2969"/><text fill="#000000" font-family="sans-serif" font-size="14" font-weight="bold" lengthAdjust="spacingAndGlyphs" textLength="205" x="559" y="212.9951">net.traderbook.connector</text><!--cluster net.traderbook.api.enums--><polygon fill="#FFFFFF" filter="url(#fh99ap0q8clx5)" points="719,24,930,24,937,46.2969,940,46.2969,940,174,719,174,719,24" style="stroke: #000000; stroke-width: 1.5;"/><line style="stroke: #000000; stroke-width: 1.5;" x1="719" x2="937" y1="46.2969" y2="46.2969"/><text fill="#000000" font-family="sans-serif" font-size="14" font-weight="bold" lengthAdjust="spacingAndGlyphs" textLength="205" x="723" y="38.9951">net.traderbook.api.enums</text><!--cluster net.traderbook.api.models--><polygon fill="#FFFFFF" filter="url(#fh99ap0q8clx5)" points="964,24,1179,24,1186,46.2969,1189,46.2969,1189,174,964,174,964,24" style="stroke: #000000; stroke-width: 1.5;"/><line style="stroke: #000000; stroke-width: 1.5;" x1="964" x2="1186" y1="46.2969" y2="46.2969"/><text fill="#000000" font-family="sans-serif" font-size="14" font-weight="bold" lengthAdjust="spacingAndGlyphs" textLength="209" x="968" y="38.9951">net.traderbook.api.models</text><!--class IConnectorObserver--><rect fill="#FEFECE" filter="url(#fh99ap0q8clx5)" height="73.6094" id="IConnectorObserver" style="stroke: #A80036; stroke-width: 1.5;" width="332" x="347" y="71.5"/><ellipse cx="447.25" cy="87.5" fill="#B4A7E5" rx="11" ry="11" style="stroke: #A80036; stroke-width: 1.0;"/><path d="M443.1719,83.2656 L443.1719,81.1094 L450.5625,81.1094 L450.5625,83.2656 L448.0938,83.2656 L448.0938,91.3438 L450.5625,91.3438 L450.5625,93.5 L443.1719,93.5 L443.1719,91.3438 L445.6406,91.3438 L445.6406,83.2656 L443.1719,83.2656 Z "/><text fill="#000000" font-family="sans-serif" font-size="12" font-style="italic" lengthAdjust="spacingAndGlyphs" textLength="123" x="467.75" y="91.6543">IConnectorObserver</text><line style="stroke: #A80036; stroke-width: 1.5;" x1="348" x2="678" y1="103.5" y2="103.5"/><rect fill="none" height="6" style="stroke: #C82930; stroke-width: 1.0;" width="6" x="355" y="112.4023"/><text fill="#000000" font-family="sans-serif" font-size="11" lengthAdjust="spacingAndGlyphs" textLength="178" x="367" y="117.7104">connector: IConnectorObserver</text><line style="stroke: #A80036; stroke-width: 1.5;" x1="348" x2="678" y1="124.3047" y2="124.3047"/><ellipse cx="358" cy="136.207" fill="#84BE84" rx="3" ry="3" style="stroke: #038048; stroke-width: 1.0;"/><text fill="#000000" font-family="sans-serif" font-size="11" lengthAdjust="spacingAndGlyphs" textLength="306" x="367" y="138.5151">update(message: ConnectorEventEnum, data: Object)</text><!--class IConnector--><rect fill="#FEFECE" filter="url(#fh99ap0q8clx5)" height="86.4141" id="IConnector" style="stroke: #A80036; stroke-width: 1.5;" width="274" x="38" y="65.5"/><ellipse cx="136.25" cy="81.5" fill="#B4A7E5" rx="11" ry="11" style="stroke: #A80036; stroke-width: 1.0;"/><path d="M132.1719,77.2656 L132.1719,75.1094 L139.5625,75.1094 L139.5625,77.2656 L137.0938,77.2656 L137.0938,85.3438 L139.5625,85.3438 L139.5625,87.5 L132.1719,87.5 L132.1719,85.3438 L134.6406,85.3438 L134.6406,77.2656 L132.1719,77.2656 Z "/><text fill="#000000" font-family="sans-serif" font-size="12" font-style="italic" lengthAdjust="spacingAndGlyphs" textLength="69" x="156.75" y="85.6543">IConnector</text><line style="stroke: #A80036; stroke-width: 1.5;" x1="39" x2="311" y1="97.5" y2="97.5"/><line style="stroke: #A80036; stroke-width: 1.5;" x1="39" x2="311" y1="105.5" y2="105.5"/><ellipse cx="49" cy="117.4023" fill="#84BE84" rx="3" ry="3" style="stroke: #038048; stroke-width: 1.0;"/><text fill="#000000" font-family="sans-serif" font-size="11" lengthAdjust="spacingAndGlyphs" textLength="248" x="58" y="119.7104">connection(tradingAccount: TradingAccount)</text><ellipse cx="49" cy="130.207" fill="#84BE84" rx="3" ry="3" style="stroke: #038048; stroke-width: 1.0;"/><text fill="#000000" font-family="sans-serif" font-size="11" lengthAdjust="spacingAndGlyphs" textLength="35" x="58" y="132.5151">login()</text><ellipse cx="49" cy="143.0117" fill="#84BE84" rx="3" ry="3" style="stroke: #038048; stroke-width: 1.0;"/><text fill="#000000" font-family="sans-serif" font-size="11" lengthAdjust="spacingAndGlyphs" textLength="43" x="58" y="145.3198">logout()</text><!--class Connector--><rect fill="#FEFECE" filter="url(#fh99ap0q8clx5)" height="48" id="Connector" style="stroke: #A80036; stroke-width: 1.5;" width="97" x="616.5" y="233"/><ellipse cx="631.5" cy="249" fill="#ADD1B2" rx="11" ry="11" style="stroke: #A80036; stroke-width: 1.0;"/><path d="M634.4688,254.6406 Q633.8906,254.9375 633.25,255.0781 Q632.6094,255.2344 631.9063,255.2344 Q629.4063,255.2344 628.0781,253.5938 Q626.7656,251.9375 626.7656,248.8125 Q626.7656,245.6875 628.0781,244.0313 Q629.4063,242.375 631.9063,242.375 Q632.6094,242.375 633.25,242.5313 Q633.9063,242.6875 634.4688,242.9844 L634.4688,245.7031 Q633.8438,245.125 633.25,244.8594 Q632.6563,244.5781 632.0313,244.5781 Q630.6875,244.5781 630,245.6563 Q629.3125,246.7188 629.3125,248.8125 Q629.3125,250.9063 630,251.9844 Q630.6875,253.0469 632.0313,253.0469 Q632.6563,253.0469 633.25,252.7813 Q633.8438,252.5 634.4688,251.9219 L634.4688,254.6406 Z "/><text fill="#000000" font-family="sans-serif" font-size="12" lengthAdjust="spacingAndGlyphs" textLength="65" x="645.5" y="253.1543">Connector</text><line style="stroke: #A80036; stroke-width: 1.5;" x1="617.5" x2="712.5" y1="265" y2="265"/><line style="stroke: #A80036; stroke-width: 1.5;" x1="617.5" x2="712.5" y1="273" y2="273"/><!--class ConnectorEventEnum--><rect fill="#FEFECE" filter="url(#fh99ap0q8clx5)" height="99.2188" id="ConnectorEventEnum" style="stroke: #A80036; stroke-width: 1.5;" width="167" x="734.5" y="59"/><ellipse cx="749.5" cy="75" fill="#EB937F" rx="11" ry="11" style="stroke: #A80036; stroke-width: 1.0;"/><path d="M753.6094,81 L745.8906,81 L745.8906,68.6094 L753.6094,68.6094 L753.6094,70.7656 L748.3438,70.7656 L748.3438,73.4375 L753.1094,73.4375 L753.1094,75.5938 L748.3438,75.5938 L748.3438,78.8438 L753.6094,78.8438 L753.6094,81 Z "/><text fill="#000000" font-family="sans-serif" font-size="12" lengthAdjust="spacingAndGlyphs" textLength="135" x="763.5" y="79.1543">ConnectorEventEnum</text><line style="stroke: #A80036; stroke-width: 1.5;" x1="735.5" x2="900.5" y1="91" y2="91"/><text fill="#000000" font-family="sans-serif" font-size="11" lengthAdjust="spacingAndGlyphs" textLength="87" x="740.5" y="105.2104">ONCONNECTED</text><text fill="#000000" font-family="sans-serif" font-size="11" lengthAdjust="spacingAndGlyphs" textLength="106" x="740.5" y="118.0151">ONDISCONNECTED</text><text fill="#000000" font-family="sans-serif" font-size="11" lengthAdjust="spacingAndGlyphs" textLength="42" x="740.5" y="130.8198">ONTICK</text><text fill="#000000" font-family="sans-serif" font-size="11" lengthAdjust="spacingAndGlyphs" textLength="96" x="740.5" y="143.6245">ONTRANSACTION</text><line style="stroke: #A80036; stroke-width: 1.5;" x1="735.5" x2="900.5" y1="150.2188" y2="150.2188"/><!--class TradingAccount--><rect fill="#FEFECE" filter="url(#fh99ap0q8clx5)" height="99.2188" id="TradingAccount" style="stroke: #A80036; stroke-width: 1.5;" width="130" x="980" y="59"/><ellipse cx="995" cy="75" fill="#ADD1B2" rx="11" ry="11" style="stroke: #A80036; stroke-width: 1.0;"/><path d="M997.9688,80.6406 Q997.3906,80.9375 996.75,81.0781 Q996.1094,81.2344 995.4063,81.2344 Q992.9063,81.2344 991.5781,79.5938 Q990.2656,77.9375 990.2656,74.8125 Q990.2656,71.6875 991.5781,70.0313 Q992.9063,68.375 995.4063,68.375 Q996.1094,68.375 996.75,68.5313 Q997.4063,68.6875 997.9688,68.9844 L997.9688,71.7031 Q997.3438,71.125 996.75,70.8594 Q996.1563,70.5781 995.5313,70.5781 Q994.1875,70.5781 993.5,71.6563 Q992.8125,72.7188 992.8125,74.8125 Q992.8125,76.9063 993.5,77.9844 Q994.1875,79.0469 995.5313,79.0469 Q996.1563,79.0469 996.75,78.7813 Q997.3438,78.5 997.9688,77.9219 L997.9688,80.6406 Z "/><text fill="#000000" font-family="sans-serif" font-size="12" lengthAdjust="spacingAndGlyphs" textLength="98" x="1009" y="79.1543">TradingAccount</text><line style="stroke: #A80036; stroke-width: 1.5;" x1="981" x2="1109" y1="91" y2="91"/><rect fill="none" height="6" style="stroke: #C82930; stroke-width: 1.0;" width="6" x="988" y="99.9023"/><text fill="#000000" font-family="sans-serif" font-size="11" lengthAdjust="spacingAndGlyphs" textLength="65" x="1000" y="105.2104">usernmane</text><rect fill="none" height="6" style="stroke: #C82930; stroke-width: 1.0;" width="6" x="988" y="112.707"/><text fill="#000000" font-family="sans-serif" font-size="11" lengthAdjust="spacingAndGlyphs" textLength="56" x="1000" y="118.0151">password</text><rect fill="none" height="6" style="stroke: #C82930; stroke-width: 1.0;" width="6" x="988" y="125.5117"/><text fill="#000000" font-family="sans-serif" font-size="11" lengthAdjust="spacingAndGlyphs" textLength="37" x="1000" y="130.8198">broker</text><rect fill="none" height="6" style="stroke: #C82930; stroke-width: 1.0;" width="6" x="988" y="138.3164"/><text fill="#000000" font-family="sans-serif" font-size="11" lengthAdjust="spacingAndGlyphs" textLength="71" x="1000" y="143.6245">accountType</text><line style="stroke: #A80036; stroke-width: 1.5;" x1="981" x2="1109" y1="150.2188" y2="150.2188"/><!--link IConnector to Connector--><path d="M274.325,159.874 C292.559,167.991 311.636,175.762 330,182 C429.258,215.7167 550.376,238.0495 616.382,248.7149 " fill="none" id="IConnector-Connector" style="stroke: #A80036; stroke-width: 1.0;"/><polygon fill="none" points="271.336,166.204,256.065,151.514,277.164,153.475,271.336,166.204" style="stroke: #A80036; stroke-width: 1.0;"/><!--link IConnectorObserver to Connector--><path d="M565.182,159.794 C590.968,184.647 620.824,213.4226 641.117,232.981 " fill="none" id="IConnectorObserver-Connector" style="stroke: #A80036; stroke-width: 1.0;"/><polygon fill="none" points="560.116,164.633,550.573,145.713,569.831,154.553,560.116,164.633" style="stroke: #A80036; stroke-width: 1.0;"/><!--link TradingAccount to Connector--><path d="M967.936,156.903 C951.476,165.955 933.938,174.829 917,182 C848.558,210.976 765.109,233.0535 713.511,245.2698 " fill="none" id="TradingAccount-Connector" style="stroke: #A80036; stroke-width: 1.0;"/><polygon fill="#A80036" points="979.707,150.303,972.5172,149.7485,969.2401,156.172,976.4299,156.7264,979.707,150.303" style="stroke: #A80036; stroke-width: 1.0;"/><!--link ConnectorEventEnum to Connector--><path d="M757.66,167.276 C733.721,190.198 707.57,215.2388 689.172,232.8549 " fill="none" id="ConnectorEventEnum-Connector" style="stroke: #A80036; stroke-width: 1.0;"/><polygon fill="#A80036" points="767.053,158.282,759.9528,159.542,758.3851,166.5807,765.4853,165.3206,767.053,158.282" style="stroke: #A80036; stroke-width: 1.0;"/><!--
@startuml
package net.traderbook.api.connector {
  interface IConnectorObserver {
      - connector: IConnectorObserver
      + update(message: ConnectorEventEnum, data: Object)
  }

  interface IConnector {
      + connection(tradingAccount: TradingAccount)
      + login()
      + logout()
  }
}

package net.traderbook.connector {
  class Connector
}

package net.traderbook.api.enums {
    enum ConnectorEventEnum {
      ONCONNECTED
      ONDISCONNECTED
      ONTICK
      ONTRANSACTION
    }
}

package net.traderbook.api.models {
    class TradingAccount {
        - usernmane
        - password
        - broker
        - accountType
    }
}

IConnector <|- - Connector
IConnectorObserver <|- - Connector
TradingAccount *- - Connector
ConnectorEventEnum *- - Connector
@enduml

PlantUML version 1.2018.10(Sat Aug 25 19:02:59 CEST 2018)
(APACHE source distribution)
Java Runtime: Java(TM) SE Runtime Environment
JVM: Java HotSpot(TM) 64-Bit Server VM
Java Version: 11.0.1+13-LTS
Operating System: Linux
OS Version: 4.9.0-8-amd64
Default Encoding: UTF-8
Language: fr
Country: FR
--></g></svg>