<?xml version="1.0" encoding="UTF-8" standalone="no"?><svg xmlns="http://www.w3.org/2000/svg" xmlns:xlink="http://www.w3.org/1999/xlink" contentScriptType="application/ecmascript" contentStyleType="text/css" height="264px" preserveAspectRatio="none" style="width:404px;height:264px;" version="1.1" viewBox="0 0 404 264" width="404px" zoomAndPan="magnify"><defs><filter height="300%" id="f1a6dfc41gmbjo" width="300%" x="-1" y="-1"><feGaussianBlur result="blurOut" stdDeviation="2.0"/><feColorMatrix in="blurOut" result="blurOut2" type="matrix" values="0 0 0 0 0 0 0 0 0 0 0 0 0 0 0 0 0 0 .4 0"/><feOffset dx="4.0" dy="4.0" in="blurOut2" result="blurOut3"/><feBlend in="SourceGraphic" in2="blurOut3" mode="normal"/></filter></defs><g><!--class Transaction--><rect fill="#FEFECE" filter="url(#f1a6dfc41gmbjo)" height="99.2188" id="Transaction" style="stroke: #A80036; stroke-width: 1.5;" width="176" x="6" y="154"/><ellipse cx="52.75" cy="170" fill="#ADD1B2" rx="11" ry="11" style="stroke: #A80036; stroke-width: 1.0;"/><path d="M55.7188,175.6406 Q55.1406,175.9375 54.5,176.0781 Q53.8594,176.2344 53.1563,176.2344 Q50.6563,176.2344 49.3281,174.5938 Q48.0156,172.9375 48.0156,169.8125 Q48.0156,166.6875 49.3281,165.0313 Q50.6563,163.375 53.1563,163.375 Q53.8594,163.375 54.5,163.5313 Q55.1563,163.6875 55.7188,163.9844 L55.7188,166.7031 Q55.0938,166.125 54.5,165.8594 Q53.9063,165.5781 53.2813,165.5781 Q51.9375,165.5781 51.25,166.6563 Q50.5625,167.7188 50.5625,169.8125 Q50.5625,171.9063 51.25,172.9844 Q51.9375,174.0469 53.2813,174.0469 Q53.9063,174.0469 54.5,173.7813 Q55.0938,173.5 55.7188,172.9219 L55.7188,175.6406 Z "/><text fill="#000000" font-family="sans-serif" font-size="12" lengthAdjust="spacingAndGlyphs" textLength="74" x="73.25" y="174.1543">Transaction</text><line style="stroke: #A80036; stroke-width: 1.5;" x1="7" x2="181" y1="186" y2="186"/><text fill="#000000" font-family="sans-serif" font-size="11" lengthAdjust="spacingAndGlyphs" textLength="67" x="12" y="200.2104">ask: Double</text><text fill="#000000" font-family="sans-serif" font-size="11" lengthAdjust="spacingAndGlyphs" textLength="64" x="12" y="213.0151">bid: Double</text><text fill="#000000" font-family="sans-serif" font-size="11" lengthAdjust="spacingAndGlyphs" textLength="97" x="12" y="225.8198">time: Timestamp</text><text fill="#000000" font-family="sans-serif" font-size="11" lengthAdjust="spacingAndGlyphs" textLength="164" x="12" y="238.6245">instrument: InstrumentEnum</text><line style="stroke: #A80036; stroke-width: 1.5;" x1="7" x2="181" y1="245.2188" y2="245.2188"/><!--class Tick--><rect fill="#FEFECE" filter="url(#f1a6dfc41gmbjo)" height="99.2188" id="Tick" style="stroke: #A80036; stroke-width: 1.5;" width="176" x="217" y="154"/><ellipse cx="288.75" cy="170" fill="#ADD1B2" rx="11" ry="11" style="stroke: #A80036; stroke-width: 1.0;"/><path d="M291.7188,175.6406 Q291.1406,175.9375 290.5,176.0781 Q289.8594,176.2344 289.1563,176.2344 Q286.6563,176.2344 285.3281,174.5938 Q284.0156,172.9375 284.0156,169.8125 Q284.0156,166.6875 285.3281,165.0313 Q286.6563,163.375 289.1563,163.375 Q289.8594,163.375 290.5,163.5313 Q291.1563,163.6875 291.7188,163.9844 L291.7188,166.7031 Q291.0938,166.125 290.5,165.8594 Q289.9063,165.5781 289.2813,165.5781 Q287.9375,165.5781 287.25,166.6563 Q286.5625,167.7188 286.5625,169.8125 Q286.5625,171.9063 287.25,172.9844 Q287.9375,174.0469 289.2813,174.0469 Q289.9063,174.0469 290.5,173.7813 Q291.0938,173.5 291.7188,172.9219 L291.7188,175.6406 Z "/><text fill="#000000" font-family="sans-serif" font-size="12" lengthAdjust="spacingAndGlyphs" textLength="24" x="309.25" y="174.1543">Tick</text><line style="stroke: #A80036; stroke-width: 1.5;" x1="218" x2="392" y1="186" y2="186"/><text fill="#000000" font-family="sans-serif" font-size="11" lengthAdjust="spacingAndGlyphs" textLength="67" x="223" y="200.2104">ask: Double</text><text fill="#000000" font-family="sans-serif" font-size="11" lengthAdjust="spacingAndGlyphs" textLength="64" x="223" y="213.0151">bid: Double</text><text fill="#000000" font-family="sans-serif" font-size="11" lengthAdjust="spacingAndGlyphs" textLength="97" x="223" y="225.8198">time: Timestamp</text><text fill="#000000" font-family="sans-serif" font-size="11" lengthAdjust="spacingAndGlyphs" textLength="164" x="223" y="238.6245">instrument: InstrumentEnum</text><line style="stroke: #A80036; stroke-width: 1.5;" x1="218" x2="392" y1="245.2188" y2="245.2188"/><!--class Algorithm--><rect fill="#FEFECE" filter="url(#f1a6dfc41gmbjo)" height="86.4141" id="Algorithm" style="stroke: #A80036; stroke-width: 1.5;" width="272" x="63" y="8"/><ellipse cx="165.25" cy="24" fill="#ADD1B2" rx="11" ry="11" style="stroke: #A80036; stroke-width: 1.0;"/><path d="M168.2188,29.6406 Q167.6406,29.9375 167,30.0781 Q166.3594,30.2344 165.6563,30.2344 Q163.1563,30.2344 161.8281,28.5938 Q160.5156,26.9375 160.5156,23.8125 Q160.5156,20.6875 161.8281,19.0313 Q163.1563,17.375 165.6563,17.375 Q166.3594,17.375 167,17.5313 Q167.6563,17.6875 168.2188,17.9844 L168.2188,20.7031 Q167.5938,20.125 167,19.8594 Q166.4063,19.5781 165.7813,19.5781 Q164.4375,19.5781 163.75,20.6563 Q163.0625,21.7188 163.0625,23.8125 Q163.0625,25.9063 163.75,26.9844 Q164.4375,28.0469 165.7813,28.0469 Q166.4063,28.0469 167,27.7813 Q167.5938,27.5 168.2188,26.9219 L168.2188,29.6406 Z "/><text fill="#000000" font-family="sans-serif" font-size="12" lengthAdjust="spacingAndGlyphs" textLength="59" x="185.75" y="28.1543">Algorithm</text><line style="stroke: #A80036; stroke-width: 1.5;" x1="64" x2="334" y1="40" y2="40"/><line style="stroke: #A80036; stroke-width: 1.5;" x1="64" x2="334" y1="48" y2="48"/><text fill="#000000" font-family="sans-serif" font-size="11" lengthAdjust="spacingAndGlyphs" textLength="71" x="69" y="62.2104">OnInit(): Unit</text><text fill="#000000" font-family="sans-serif" font-size="11" lengthAdjust="spacingAndGlyphs" textLength="125" x="69" y="75.0151">OnTick(tick: Tick): Unit</text><text fill="#000000" font-family="sans-serif" font-size="11" lengthAdjust="spacingAndGlyphs" textLength="260" x="69" y="87.8198">OnTransaction(transaction: Transaction): Unit</text><!--link Algorithm to Tick--><path d="M228.809,94.323 C240.833,111.395 254.841,131.283 267.542,149.317 " fill="none" id="Algorithm-Tick" style="stroke: #A80036; stroke-width: 1.0; stroke-dasharray: 7.0,7.0;"/><polygon fill="#A80036" points="270.741,153.8586,268.8305,144.1968,267.8626,149.7702,262.2892,148.8023,270.741,153.8586" style="stroke: #A80036; stroke-width: 1.0;"/><!--link Algorithm to Transaction--><path d="M169.472,94.323 C157.562,111.395 143.686,131.283 131.105,149.317 " fill="none" id="Algorithm-Transaction" style="stroke: #A80036; stroke-width: 1.0; stroke-dasharray: 7.0,7.0;"/><polygon fill="#A80036" points="127.936,153.8586,136.3658,148.7655,130.7966,149.7577,129.8044,144.1886,127.936,153.8586" style="stroke: #A80036; stroke-width: 1.0;"/><!--
@startuml
class Transaction {
    ask: Double
    bid: Double
    time: Timestamp
    instrument: InstrumentEnum
}

class Tick {
    ask: Double
    bid: Double
    time: Timestamp
    instrument: InstrumentEnum
}

class Algorithm {
    OnInit(): Unit
    OnTick(tick: Tick): Unit
    OnTransaction(transaction: Transaction): Unit
}

Algorithm ..> Tick
Algorithm ..> Transaction
@enduml

PlantUML version 1.2018.10(Sat Aug 25 19:02:59 CEST 2018)
(APACHE source distribution)
Java Runtime: Java(TM) SE Runtime Environment
JVM: Java HotSpot(TM) 64-Bit Server VM
Java Version: 11.0.1+13-LTS
Operating System: Linux
OS Version: 4.9.0-8-amd64
Default Encoding: UTF-8
Language: fr
Country: FR
--></g></svg>