<?xml version="1.0" encoding="UTF-8" standalone="no"?><svg xmlns="http://www.w3.org/2000/svg" xmlns:xlink="http://www.w3.org/1999/xlink" contentScriptType="application/ecmascript" contentStyleType="text/css" height="76px" preserveAspectRatio="none" style="width:247px;height:76px;" version="1.1" viewBox="0 0 247 76" width="247px" zoomAndPan="magnify"><defs/><g><text fill="#000000" font-family="sans-serif" font-size="12" lengthAdjust="spacingAndGlyphs" textLength="36" x="7" y="18.1387">Name</text><text fill="#000000" font-family="sans-serif" font-size="12" lengthAdjust="spacingAndGlyphs" textLength="22" x="60" y="18.1387">Ask</text><text fill="#000000" font-family="sans-serif" font-size="12" lengthAdjust="spacingAndGlyphs" textLength="19" x="130" y="18.1387">Bid</text><text fill="#000000" font-family="sans-serif" font-size="12" lengthAdjust="spacingAndGlyphs" textLength="39" x="200" y="18.1387">action</text><text fill="#000000" font-family="sans-serif" font-size="12" lengthAdjust="spacingAndGlyphs" textLength="51" x="7" y="34.1074">EURUSD</text><text fill="#000000" font-family="sans-serif" font-size="12" lengthAdjust="spacingAndGlyphs" textLength="52" x="60" y="34.1074">1.12345</text><text fill="#000000" font-family="sans-serif" font-size="12" lengthAdjust="spacingAndGlyphs" textLength="52" x="130" y="34.1074">1.12345</text><path d="M208.031,22.9688 L205,25.9688 L204,24.9688 L201,27.9998 L202,28.9998 L204,26.9688 L205,27.9688 L209,23.9688 L208.031,22.9688 M201,29.9688 L201,30.9688 L209,30.9688 L209,29.9688 L201,29.9688 " fill="#000000" style="stroke: ; stroke-width: 0.0; stroke-dasharray: ;"/><text fill="#000000" font-family="sans-serif" font-size="12" lengthAdjust="spacingAndGlyphs" textLength="51" x="7" y="50.0762">GBPUSD</text><text fill="#000000" font-family="sans-serif" font-size="12" lengthAdjust="spacingAndGlyphs" textLength="52" x="60" y="50.0762">1.12345</text><text fill="#000000" font-family="sans-serif" font-size="12" lengthAdjust="spacingAndGlyphs" textLength="52" x="130" y="50.0762">1.12345</text><path d="M208.031,38.9375 L205,41.9375 L204,40.9375 L201,43.9685 L202,44.9685 L204,42.9375 L205,43.9375 L209,39.9375 L208.031,38.9375 M201,45.9375 L201,46.9375 L209,46.9375 L209,45.9375 L201,45.9375 " fill="#000000" style="stroke: ; stroke-width: 0.0; stroke-dasharray: ;"/><text fill="#000000" font-family="sans-serif" font-size="12" lengthAdjust="spacingAndGlyphs" textLength="44" x="7" y="66.0449">JPYUSD</text><text fill="#000000" font-family="sans-serif" font-size="12" lengthAdjust="spacingAndGlyphs" textLength="68" x="60" y="66.0449">123.12345</text><text fill="#000000" font-family="sans-serif" font-size="12" lengthAdjust="spacingAndGlyphs" textLength="68" x="130" y="66.0449">123.12345</text><path d="M208.031,54.9063 L205,57.9063 L204,56.9063 L201,59.9373 L202,60.9373 L204,58.9063 L205,59.9063 L209,55.9063 L208.031,54.9063 M201,61.9063 L201,62.9063 L209,62.9063 L209,61.9063 L201,61.9063 " fill="#000000" style="stroke: ; stroke-width: 0.0; stroke-dasharray: ;"/><line style="stroke: #000000; stroke-width: 1.0;" x1="6" x2="59" y1="6" y2="6"/><line style="stroke: #000000; stroke-width: 1.0;" x1="129" x2="199" y1="37.9375" y2="37.9375"/><line style="stroke: #000000; stroke-width: 1.0;" x1="59" x2="129" y1="6" y2="6"/><line style="stroke: #000000; stroke-width: 1.0;" x1="199" x2="240" y1="37.9375" y2="37.9375"/><line style="stroke: #000000; stroke-width: 1.0;" x1="129" x2="199" y1="6" y2="6"/><line style="stroke: #000000; stroke-width: 1.0;" x1="199" x2="240" y1="6" y2="6"/><line style="stroke: #000000; stroke-width: 1.0;" x1="6" x2="59" y1="53.9063" y2="53.9063"/><line style="stroke: #000000; stroke-width: 1.0;" x1="59" x2="129" y1="53.9063" y2="53.9063"/><line style="stroke: #000000; stroke-width: 1.0;" x1="6" x2="59" y1="21.9688" y2="21.9688"/><line style="stroke: #000000; stroke-width: 1.0;" x1="129" x2="199" y1="53.9063" y2="53.9063"/><line style="stroke: #000000; stroke-width: 1.0;" x1="59" x2="129" y1="21.9688" y2="21.9688"/><line style="stroke: #000000; stroke-width: 1.0;" x1="199" x2="240" y1="53.9063" y2="53.9063"/><line style="stroke: #000000; stroke-width: 1.0;" x1="129" x2="199" y1="21.9688" y2="21.9688"/><line style="stroke: #000000; stroke-width: 1.0;" x1="199" x2="240" y1="21.9688" y2="21.9688"/><line style="stroke: #000000; stroke-width: 1.0;" x1="6" x2="59" y1="69.875" y2="69.875"/><line style="stroke: #000000; stroke-width: 1.0;" x1="59" x2="129" y1="69.875" y2="69.875"/><line style="stroke: #000000; stroke-width: 1.0;" x1="129" x2="199" y1="69.875" y2="69.875"/><line style="stroke: #000000; stroke-width: 1.0;" x1="6" x2="59" y1="37.9375" y2="37.9375"/><line style="stroke: #000000; stroke-width: 1.0;" x1="199" x2="240" y1="69.875" y2="69.875"/><line style="stroke: #000000; stroke-width: 1.0;" x1="59" x2="129" y1="37.9375" y2="37.9375"/><line style="stroke: #000000; stroke-width: 1.0;" x1="6" x2="6" y1="6" y2="21.9688"/><line style="stroke: #000000; stroke-width: 1.0;" x1="129" x2="129" y1="37.9375" y2="53.9063"/><line style="stroke: #000000; stroke-width: 1.0;" x1="59" x2="59" y1="6" y2="21.9688"/><line style="stroke: #000000; stroke-width: 1.0;" x1="199" x2="199" y1="37.9375" y2="53.9063"/><line style="stroke: #000000; stroke-width: 1.0;" x1="240" x2="240" y1="37.9375" y2="53.9063"/><line style="stroke: #000000; stroke-width: 1.0;" x1="129" x2="129" y1="6" y2="21.9688"/><line style="stroke: #000000; stroke-width: 1.0;" x1="199" x2="199" y1="6" y2="21.9688"/><line style="stroke: #000000; stroke-width: 1.0;" x1="240" x2="240" y1="6" y2="21.9688"/><line style="stroke: #000000; stroke-width: 1.0;" x1="6" x2="6" y1="53.9063" y2="69.875"/><line style="stroke: #000000; stroke-width: 1.0;" x1="59" x2="59" y1="53.9063" y2="69.875"/><line style="stroke: #000000; stroke-width: 1.0;" x1="6" x2="6" y1="21.9688" y2="37.9375"/><line style="stroke: #000000; stroke-width: 1.0;" x1="129" x2="129" y1="53.9063" y2="69.875"/><line style="stroke: #000000; stroke-width: 1.0;" x1="59" x2="59" y1="21.9688" y2="37.9375"/><line style="stroke: #000000; stroke-width: 1.0;" x1="199" x2="199" y1="53.9063" y2="69.875"/><line style="stroke: #000000; stroke-width: 1.0;" x1="240" x2="240" y1="53.9063" y2="69.875"/><line style="stroke: #000000; stroke-width: 1.0;" x1="129" x2="129" y1="21.9688" y2="37.9375"/><line style="stroke: #000000; stroke-width: 1.0;" x1="199" x2="199" y1="21.9688" y2="37.9375"/><line style="stroke: #000000; stroke-width: 1.0;" x1="240" x2="240" y1="21.9688" y2="37.9375"/><line style="stroke: #000000; stroke-width: 1.0;" x1="6" x2="6" y1="37.9375" y2="53.9063"/><line style="stroke: #000000; stroke-width: 1.0;" x1="59" x2="59" y1="37.9375" y2="53.9063"/></g></svg>