<?xml version="1.0" encoding="UTF-8" standalone="no"?><svg xmlns="http://www.w3.org/2000/svg" xmlns:xlink="http://www.w3.org/1999/xlink" contentScriptType="application/ecmascript" contentStyleType="text/css" height="368px" preserveAspectRatio="none" style="width:1011px;height:368px;" version="1.1" viewBox="0 0 1011 368" width="1011px" zoomAndPan="magnify"><defs><filter height="300%" id="fv6hptqsz7sxq" width="300%" x="-1" y="-1"><feGaussianBlur result="blurOut" stdDeviation="2.0"/><feColorMatrix in="blurOut" result="blurOut2" type="matrix" values="0 0 0 0 0 0 0 0 0 0 0 0 0 0 0 0 0 0 .4 0"/><feOffset dx="4.0" dy="4.0" in="blurOut2" result="blurOut3"/><feBlend in="SourceGraphic" in2="blurOut3" mode="normal"/></filter></defs><g><!--cluster net.traderbook.service--><polygon fill="#FFFFFF" filter="url(#fv6hptqsz7sxq)" points="22,30,210,30,217,52.2969,292,52.2969,292,297,22,297,22,30" style="stroke: #000000; stroke-width: 1.5;"/><line style="stroke: #000000; stroke-width: 1.5;" x1="22" x2="217" y1="52.2969" y2="52.2969"/><text fill="#000000" font-family="sans-serif" font-size="14" font-weight="bold" lengthAdjust="spacingAndGlyphs" textLength="182" x="26" y="44.9951">net.traderbook.service</text><!--cluster net.traderbook.api.connector--><polygon fill="#FFFFFF" filter="url(#fv6hptqsz7sxq)" points="316,24,555,24,562,46.2969,989,46.2969,989,161,316,161,316,24" style="stroke: #000000; stroke-width: 1.5;"/><line style="stroke: #000000; stroke-width: 1.5;" x1="316" x2="562" y1="46.2969" y2="46.2969"/><text fill="#000000" font-family="sans-serif" font-size="14" font-weight="bold" lengthAdjust="spacingAndGlyphs" textLength="233" x="320" y="38.9951">net.traderbook.api.connector</text><!--cluster net.traderbook.connector--><polygon fill="#FFFFFF" filter="url(#fv6hptqsz7sxq)" points="388,185,599,185,606,207.2969,609,207.2969,609,284,388,284,388,185" style="stroke: #000000; stroke-width: 1.5;"/><line style="stroke: #000000; stroke-width: 1.5;" x1="388" x2="606" y1="207.2969" y2="207.2969"/><text fill="#000000" font-family="sans-serif" font-size="14" font-weight="bold" lengthAdjust="spacingAndGlyphs" textLength="205" x="392" y="199.9951">net.traderbook.connector</text><!--class Service--><rect fill="#FEFECE" filter="url(#fv6hptqsz7sxq)" height="73.6094" id="Service" style="stroke: #A80036; stroke-width: 1.5;" width="186" x="64" y="65"/><ellipse cx="130.25" cy="81" fill="#ADD1B2" rx="11" ry="11" style="stroke: #A80036; stroke-width: 1.0;"/><path d="M133.2188,86.6406 Q132.6406,86.9375 132,87.0781 Q131.3594,87.2344 130.6563,87.2344 Q128.1563,87.2344 126.8281,85.5938 Q125.5156,83.9375 125.5156,80.8125 Q125.5156,77.6875 126.8281,76.0313 Q128.1563,74.375 130.6563,74.375 Q131.3594,74.375 132,74.5313 Q132.6563,74.6875 133.2188,74.9844 L133.2188,77.7031 Q132.5938,77.125 132,76.8594 Q131.4063,76.5781 130.7813,76.5781 Q129.4375,76.5781 128.75,77.6563 Q128.0625,78.7188 128.0625,80.8125 Q128.0625,82.9063 128.75,83.9844 Q129.4375,85.0469 130.7813,85.0469 Q131.4063,85.0469 132,84.7813 Q132.5938,84.5 133.2188,83.9219 L133.2188,86.6406 Z "/><text fill="#000000" font-family="sans-serif" font-size="12" lengthAdjust="spacingAndGlyphs" textLength="45" x="150.75" y="85.1543">Service</text><line style="stroke: #A80036; stroke-width: 1.5;" x1="65" x2="249" y1="97" y2="97"/><rect fill="none" height="6" style="stroke: #C82930; stroke-width: 1.0;" width="6" x="72" y="105.9023"/><text fill="#000000" font-family="sans-serif" font-size="11" lengthAdjust="spacingAndGlyphs" textLength="160" x="84" y="111.2104">controller: ServiceController</text><line style="stroke: #A80036; stroke-width: 1.5;" x1="65" x2="249" y1="117.8047" y2="117.8047"/><ellipse cx="75" cy="129.707" fill="#84BE84" rx="3" ry="3" style="stroke: #038048; stroke-width: 1.0;"/><text fill="#000000" font-family="sans-serif" font-size="11" lengthAdjust="spacingAndGlyphs" textLength="152" x="84" y="132.0151">main(args: Array&lt;String&gt;)</text><!--class ServiceController--><rect fill="#FEFECE" filter="url(#fv6hptqsz7sxq)" height="73.6094" id="ServiceController" style="stroke: #A80036; stroke-width: 1.5;" width="237" x="38.5" y="207"/><ellipse cx="99.75" cy="223" fill="#ADD1B2" rx="11" ry="11" style="stroke: #A80036; stroke-width: 1.0;"/><path d="M102.7188,228.6406 Q102.1406,228.9375 101.5,229.0781 Q100.8594,229.2344 100.1563,229.2344 Q97.6563,229.2344 96.3281,227.5938 Q95.0156,225.9375 95.0156,222.8125 Q95.0156,219.6875 96.3281,218.0313 Q97.6563,216.375 100.1563,216.375 Q100.8594,216.375 101.5,216.5313 Q102.1563,216.6875 102.7188,216.9844 L102.7188,219.7031 Q102.0938,219.125 101.5,218.8594 Q100.9063,218.5781 100.2813,218.5781 Q98.9375,218.5781 98.25,219.6563 Q97.5625,220.7188 97.5625,222.8125 Q97.5625,224.9063 98.25,225.9844 Q98.9375,227.0469 100.2813,227.0469 Q100.9063,227.0469 101.5,226.7813 Q102.0938,226.5 102.7188,225.9219 L102.7188,228.6406 Z "/><text fill="#000000" font-family="sans-serif" font-size="12" lengthAdjust="spacingAndGlyphs" textLength="106" x="120.25" y="227.1543">ServiceController</text><line style="stroke: #A80036; stroke-width: 1.5;" x1="39.5" x2="274.5" y1="239" y2="239"/><rect fill="none" height="6" style="stroke: #C82930; stroke-width: 1.0;" width="6" x="46.5" y="247.9023"/><text fill="#000000" font-family="sans-serif" font-size="11" lengthAdjust="spacingAndGlyphs" textLength="125" x="58.5" y="253.2104">connector: IConnector</text><line style="stroke: #A80036; stroke-width: 1.5;" x1="39.5" x2="274.5" y1="259.8047" y2="259.8047"/><rect fill="#F24D5C" height="6" style="stroke: #C82930; stroke-width: 1.0;" width="6" x="46.5" y="268.707"/><text fill="#000000" font-family="sans-serif" font-size="11" lengthAdjust="spacingAndGlyphs" textLength="211" x="58.5" y="274.0151">load(tradingAccount: TradingAccount)</text><!--class IConnectorObserver--><rect fill="#FEFECE" filter="url(#fv6hptqsz7sxq)" height="73.6094" id="IConnectorObserver" style="stroke: #A80036; stroke-width: 1.5;" width="332" x="332" y="65"/><ellipse cx="432.25" cy="81" fill="#B4A7E5" rx="11" ry="11" style="stroke: #A80036; stroke-width: 1.0;"/><path d="M428.1719,76.7656 L428.1719,74.6094 L435.5625,74.6094 L435.5625,76.7656 L433.0938,76.7656 L433.0938,84.8438 L435.5625,84.8438 L435.5625,87 L428.1719,87 L428.1719,84.8438 L430.6406,84.8438 L430.6406,76.7656 L428.1719,76.7656 Z "/><text fill="#000000" font-family="sans-serif" font-size="12" font-style="italic" lengthAdjust="spacingAndGlyphs" textLength="123" x="452.75" y="85.1543">IConnectorObserver</text><line style="stroke: #A80036; stroke-width: 1.5;" x1="333" x2="663" y1="97" y2="97"/><rect fill="none" height="6" style="stroke: #C82930; stroke-width: 1.0;" width="6" x="340" y="105.9023"/><text fill="#000000" font-family="sans-serif" font-size="11" lengthAdjust="spacingAndGlyphs" textLength="178" x="352" y="111.2104">connector: IConnectorObserver</text><line style="stroke: #A80036; stroke-width: 1.5;" x1="333" x2="663" y1="117.8047" y2="117.8047"/><ellipse cx="343" cy="129.707" fill="#84BE84" rx="3" ry="3" style="stroke: #038048; stroke-width: 1.0;"/><text fill="#000000" font-family="sans-serif" font-size="11" lengthAdjust="spacingAndGlyphs" textLength="306" x="352" y="132.0151">update(message: ConnectorEventEnum, data: Object)</text><!--class IConnector--><rect fill="#FEFECE" filter="url(#fv6hptqsz7sxq)" height="86.4141" id="IConnector" style="stroke: #A80036; stroke-width: 1.5;" width="274" x="699" y="59"/><ellipse cx="797.25" cy="75" fill="#B4A7E5" rx="11" ry="11" style="stroke: #A80036; stroke-width: 1.0;"/><path d="M793.1719,70.7656 L793.1719,68.6094 L800.5625,68.6094 L800.5625,70.7656 L798.0938,70.7656 L798.0938,78.8438 L800.5625,78.8438 L800.5625,81 L793.1719,81 L793.1719,78.8438 L795.6406,78.8438 L795.6406,70.7656 L793.1719,70.7656 Z "/><text fill="#000000" font-family="sans-serif" font-size="12" font-style="italic" lengthAdjust="spacingAndGlyphs" textLength="69" x="817.75" y="79.1543">IConnector</text><line style="stroke: #A80036; stroke-width: 1.5;" x1="700" x2="972" y1="91" y2="91"/><line style="stroke: #A80036; stroke-width: 1.5;" x1="700" x2="972" y1="99" y2="99"/><ellipse cx="710" cy="110.9023" fill="#84BE84" rx="3" ry="3" style="stroke: #038048; stroke-width: 1.0;"/><text fill="#000000" font-family="sans-serif" font-size="11" lengthAdjust="spacingAndGlyphs" textLength="248" x="719" y="113.2104">connection(tradingAccount: TradingAccount)</text><ellipse cx="710" cy="123.707" fill="#84BE84" rx="3" ry="3" style="stroke: #038048; stroke-width: 1.0;"/><text fill="#000000" font-family="sans-serif" font-size="11" lengthAdjust="spacingAndGlyphs" textLength="35" x="719" y="126.0151">login()</text><ellipse cx="710" cy="136.5117" fill="#84BE84" rx="3" ry="3" style="stroke: #038048; stroke-width: 1.0;"/><text fill="#000000" font-family="sans-serif" font-size="11" lengthAdjust="spacingAndGlyphs" textLength="43" x="719" y="138.8198">logout()</text><!--class Connector--><rect fill="#FEFECE" filter="url(#fv6hptqsz7sxq)" height="48" id="Connector" style="stroke: #A80036; stroke-width: 1.5;" width="97" x="449.5" y="220"/><ellipse cx="464.5" cy="236" fill="#ADD1B2" rx="11" ry="11" style="stroke: #A80036; stroke-width: 1.0;"/><path d="M467.4688,241.6406 Q466.8906,241.9375 466.25,242.0781 Q465.6094,242.2344 464.9063,242.2344 Q462.4063,242.2344 461.0781,240.5938 Q459.7656,238.9375 459.7656,235.8125 Q459.7656,232.6875 461.0781,231.0313 Q462.4063,229.375 464.9063,229.375 Q465.6094,229.375 466.25,229.5313 Q466.9063,229.6875 467.4688,229.9844 L467.4688,232.7031 Q466.8438,232.125 466.25,231.8594 Q465.6563,231.5781 465.0313,231.5781 Q463.6875,231.5781 463,232.6563 Q462.3125,233.7188 462.3125,235.8125 Q462.3125,237.9063 463,238.9844 Q463.6875,240.0469 465.0313,240.0469 Q465.6563,240.0469 466.25,239.7813 Q466.8438,239.5 467.4688,238.9219 L467.4688,241.6406 Z "/><text fill="#000000" font-family="sans-serif" font-size="12" lengthAdjust="spacingAndGlyphs" textLength="65" x="478.5" y="240.1543">Connector</text><line style="stroke: #A80036; stroke-width: 1.5;" x1="450.5" x2="545.5" y1="252" y2="252"/><line style="stroke: #A80036; stroke-width: 1.5;" x1="450.5" x2="545.5" y1="260" y2="260"/><!--link IConnectorObserver to Connector--><path d="M498,139.053 C498,157.537 498,180.187 498,199.62 " fill="none" id="IConnectorObserver-Connector" style="stroke: #A80036; stroke-width: 1.0;"/><polygon fill="none" points="505,199.801,498,219.8009,491,199.801,505,199.801" style="stroke: #A80036; stroke-width: 1.0;"/><!--link Connector to IConnector--><path d="M565.494,216.2774 C600.359,202.367 643.545,184.971 682,169 C700.401,161.358 719.981,153.08 738.791,145.053 " fill="none" id="Connector-IConnector" style="stroke: #A80036; stroke-width: 1.0;"/><polygon fill="none" points="567.718,222.9265,546.547,223.8211,562.539,209.919,567.718,222.9265" style="stroke: #A80036; stroke-width: 1.0;"/><!--link ServiceController to Connector--><path d="M275.551,244 C329.068,244 382.585,244 436.101,244 " fill="none" id="ServiceController-Connector" style="stroke: #A80036; stroke-width: 1.0;"/><polygon fill="#A80036" points="449.339,244,443.339,240,437.339,244,443.339,248,449.339,244" style="stroke: #A80036; stroke-width: 1.0;"/><!--link Service to ServiceController--><path d="M157,139.053 C157,155.581 157,175.44 157,193.352 " fill="none" id="Service-ServiceController" style="stroke: #A80036; stroke-width: 1.0;"/><polygon fill="#A80036" points="157,206.582,161,200.582,157,194.582,153,200.582,157,206.582" style="stroke: #A80036; stroke-width: 1.0;"/><!--link IConnectorObserver to ServiceController--><path d="M410.184,139.053 C365.424,157.43 310.633,179.925 263.483,199.283 " fill="none" id="IConnectorObserver-ServiceController" style="stroke: #A80036; stroke-width: 1.0;"/><polygon fill="none" points="265.974,205.827,244.814,206.947,260.657,192.876,265.974,205.827" style="stroke: #A80036; stroke-width: 1.0;"/><!--link IConnector to ServiceController--><path d="M753.163,145.17 C730.633,154.775 705.853,163.702 682,169 C628.172,180.956 488.652,169.684 434,177 C388.325,183.114 339.187,193.527 295.163,204.296 " fill="none" id="IConnector-ServiceController" style="stroke: #A80036; stroke-width: 1.0;"/><polygon fill="none" points="296.755,211.113,275.655,209.171,293.361,197.531,296.755,211.113" style="stroke: #A80036; stroke-width: 1.0;"/><rect fill="#DDDDDD" height="26.2969" rx="5" ry="5" style="stroke: #000000; stroke-width: 1.0;" width="315" x="353.5" y="331"/><text fill="#000000" font-family="sans-serif" font-size="14" lengthAdjust="spacingAndGlyphs" textLength="303" x="359.5" y="348.9951">Diagramme de classe - Gestion d'un service</text><!--
@startuml
legend
Diagramme de classe - Gestion d'un service
endlegend

package net.traderbook.service {
    class Service {
        - controller: ServiceController
        + main(args: Array<String>)
    }

    class ServiceController {
        - connector: IConnector
        - load(tradingAccount: TradingAccount)
    }
}

package net.traderbook.api.connector {
  interface IConnectorObserver {
      - connector: IConnectorObserver
      + update(message: ConnectorEventEnum, data: Object)
  }

  interface IConnector {
      + connection(tradingAccount: TradingAccount)
      + login()
      + logout()
  }
}

package net.traderbook.connector {
  class Connector

  Connector <|-up- IConnectorObserver
  Connector <|-down- IConnector
}

ServiceController -left-* Connector
Service -up-* ServiceController
ServiceController <|-up- IConnectorObserver
ServiceController <|-up- IConnector
@enduml

PlantUML version 1.2018.10(Sat Aug 25 19:02:59 CEST 2018)
(APACHE source distribution)
Java Runtime: Java(TM) SE Runtime Environment
JVM: Java HotSpot(TM) 64-Bit Server VM
Java Version: 11.0.1+13-LTS
Operating System: Linux
OS Version: 4.9.0-8-amd64
Default Encoding: UTF-8
Language: fr
Country: FR
--></g></svg>