<?xml version="1.0" encoding="UTF-8" standalone="no"?><svg xmlns="http://www.w3.org/2000/svg" xmlns:xlink="http://www.w3.org/1999/xlink" contentScriptType="application/ecmascript" contentStyleType="text/css" height="252px" preserveAspectRatio="none" style="width:654px;height:252px;" version="1.1" viewBox="0 0 654 252" width="654px" zoomAndPan="magnify"><defs><filter height="300%" id="f1tat2hbw9uw7l" width="300%" x="-1" y="-1"><feGaussianBlur result="blurOut" stdDeviation="2.0"/><feColorMatrix in="blurOut" result="blurOut2" type="matrix" values="0 0 0 0 0 0 0 0 0 0 0 0 0 0 0 0 0 0 .4 0"/><feOffset dx="4.0" dy="4.0" in="blurOut2" result="blurOut3"/><feBlend in="SourceGraphic" in2="blurOut3" mode="normal"/></filter></defs><g><!--entity User--><ellipse cx="22" cy="61" fill="#FEFECE" filter="url(#f1tat2hbw9uw7l)" rx="8" ry="8" style="stroke: #A80036; stroke-width: 2.0;"/><path d="M22,69 L22,96 M9,77 L35,77 M22,96 L9,111 M22,96 L35,111 " fill="none" filter="url(#f1tat2hbw9uw7l)" style="stroke: #A80036; stroke-width: 2.0;"/><text fill="#000000" font-family="sans-serif" font-size="14" lengthAdjust="spacingAndGlyphs" textLength="32" x="6" y="130.9951">User</text><!--entity Client--><polygon fill="#FEFECE" filter="url(#f1tat2hbw9uw7l)" points="73.5,79.5,83.5,69.5,152.5,69.5,152.5,105.7969,142.5,115.7969,73.5,115.7969,73.5,79.5" style="stroke: #000000; stroke-width: 1.5;"/><line style="stroke: #000000; stroke-width: 1.5;" x1="142.5" x2="151.5" y1="79.5" y2="70.5"/><line style="stroke: #000000; stroke-width: 1.5;" x1="73.5" x2="142.5" y1="79.5" y2="79.5"/><line style="stroke: #000000; stroke-width: 1.5;" x1="142.5" x2="142.5" y1="79.5" y2="115.7969"/><text fill="#000000" font-family="sans-serif" font-size="14" lengthAdjust="spacingAndGlyphs" textLength="39" x="88.5" y="102.4951">Client</text><!--entity reverseproxy--><polygon fill="#FEFECE" filter="url(#f1tat2hbw9uw7l)" points="188,79.5,198,69.5,326,69.5,326,105.7969,316,115.7969,188,115.7969,188,79.5" style="stroke: #000000; stroke-width: 1.5;"/><line style="stroke: #000000; stroke-width: 1.5;" x1="316" x2="325" y1="79.5" y2="70.5"/><line style="stroke: #000000; stroke-width: 1.5;" x1="188" x2="316" y1="79.5" y2="79.5"/><line style="stroke: #000000; stroke-width: 1.5;" x1="316" x2="316" y1="79.5" y2="115.7969"/><text fill="#000000" font-family="sans-serif" font-size="14" lengthAdjust="spacingAndGlyphs" textLength="98" x="203" y="102.4951">Reverse proxy</text><!--entity Dispatcher--><polygon fill="#FEFECE" filter="url(#f1tat2hbw9uw7l)" points="361.5,79.5,371.5,69.5,476.5,69.5,476.5,105.7969,466.5,115.7969,361.5,115.7969,361.5,79.5" style="stroke: #000000; stroke-width: 1.5;"/><line style="stroke: #000000; stroke-width: 1.5;" x1="466.5" x2="475.5" y1="79.5" y2="70.5"/><line style="stroke: #000000; stroke-width: 1.5;" x1="361.5" x2="466.5" y1="79.5" y2="79.5"/><line style="stroke: #000000; stroke-width: 1.5;" x1="466.5" x2="466.5" y1="79.5" y2="115.7969"/><text fill="#000000" font-family="sans-serif" font-size="14" lengthAdjust="spacingAndGlyphs" textLength="75" x="376.5" y="102.4951">Dispatcher</text><!--entity Service--><polygon fill="#FEFECE" filter="url(#f1tat2hbw9uw7l)" points="512,79.5,522,69.5,602,69.5,602,105.7969,592,115.7969,512,115.7969,512,79.5" style="stroke: #000000; stroke-width: 1.5;"/><line style="stroke: #000000; stroke-width: 1.5;" x1="592" x2="601" y1="79.5" y2="70.5"/><line style="stroke: #000000; stroke-width: 1.5;" x1="512" x2="592" y1="79.5" y2="79.5"/><line style="stroke: #000000; stroke-width: 1.5;" x1="592" x2="592" y1="79.5" y2="115.7969"/><text fill="#000000" font-family="sans-serif" font-size="14" lengthAdjust="spacingAndGlyphs" textLength="50" x="527" y="102.4951">Service</text><!--entity Connector--><polygon fill="#FEFECE" filter="url(#f1tat2hbw9uw7l)" points="441.5,204,451.5,194,554.5,194,554.5,230.2969,544.5,240.2969,441.5,240.2969,441.5,204" style="stroke: #000000; stroke-width: 1.5;"/><line style="stroke: #000000; stroke-width: 1.5;" x1="544.5" x2="553.5" y1="204" y2="195"/><line style="stroke: #000000; stroke-width: 1.5;" x1="441.5" x2="544.5" y1="204" y2="204"/><line style="stroke: #000000; stroke-width: 1.5;" x1="544.5" x2="544.5" y1="204" y2="240.2969"/><text fill="#000000" font-family="sans-serif" font-size="14" lengthAdjust="spacingAndGlyphs" textLength="73" x="456.5" y="226.9951">Connector</text><!--entity Data--><path d="M590,204.5 C590,194.5 616,194.5 616,194.5 C616,194.5 642,194.5 642,204.5 L642,229.7969 C642,239.7969 616,239.7969 616,239.7969 C616,239.7969 590,239.7969 590,229.7969 L590,204.5 " fill="#FEFECE" filter="url(#f1tat2hbw9uw7l)" style="stroke: #000000; stroke-width: 1.5;"/><path d="M590,204.5 C590,214.5 616,214.5 616,214.5 C616,214.5 642,214.5 642,204.5 " fill="none" style="stroke: #000000; stroke-width: 1.5;"/><text fill="#000000" font-family="sans-serif" font-size="14" lengthAdjust="spacingAndGlyphs" textLength="32" x="600" y="231.4951">Data</text><!--link User to Client--><path d="M43.5456,92.5 C51.7709,92.5 59.9963,92.5 68.2216,92.5 " fill="none" id="User-Client" style="stroke: #A80036; stroke-width: 1.0;"/><polygon fill="#A80036" points="73.343,92.5,64.343,88.5,68.343,92.5,64.343,96.5,73.343,92.5" style="stroke: #A80036; stroke-width: 1.0;"/><polygon fill="#A80036" points="38.3516,92.5,47.3516,96.5,43.3516,92.5,47.3516,88.5,38.3516,92.5" style="stroke: #A80036; stroke-width: 1.0;"/><!--link Client to reverseproxy--><path d="M157.859,92.5 C166.099,92.5 174.339,92.5 182.579,92.5 " fill="none" id="Client-reverseproxy" style="stroke: #A80036; stroke-width: 1.0;"/><polygon fill="#A80036" points="187.709,92.5,178.709,88.5,182.709,92.5,178.709,96.5,187.709,92.5" style="stroke: #A80036; stroke-width: 1.0;"/><polygon fill="#A80036" points="152.656,92.5,161.656,96.5,157.656,92.5,161.656,88.5,152.656,92.5" style="stroke: #A80036; stroke-width: 1.0;"/><!--link reverseproxy to Dispatcher--><path d="M331.507,92.5 C339.764,92.5 348.022,92.5 356.279,92.5 " fill="none" id="reverseproxy-Dispatcher" style="stroke: #A80036; stroke-width: 1.0;"/><polygon fill="#A80036" points="361.42,92.5,352.42,88.5,356.42,92.5,352.42,96.5,361.42,92.5" style="stroke: #A80036; stroke-width: 1.0;"/><polygon fill="#A80036" points="326.293,92.5,335.293,96.5,331.293,92.5,335.293,88.5,326.293,92.5" style="stroke: #A80036; stroke-width: 1.0;"/><!--link Dispatcher to Service--><path d="M481.896,92.5 C490.156,92.5 498.416,92.5 506.677,92.5 " fill="none" id="Dispatcher-Service" style="stroke: #A80036; stroke-width: 1.0;"/><polygon fill="#A80036" points="511.82,92.5,502.82,88.5,506.82,92.5,502.82,96.5,511.82,92.5" style="stroke: #A80036; stroke-width: 1.0;"/><polygon fill="#A80036" points="476.68,92.5,485.68,96.5,481.68,92.5,485.68,88.5,476.68,92.5" style="stroke: #A80036; stroke-width: 1.0;"/><!--link reverseproxy to Service--><path d="M285.152,66.239 C304.875,49.716 332.755,29.893 361.5,21 C410.328,5.894 428.722,2.845 476.5,21 C499.857,29.875 520.77,48.976 535.423,65.204 " fill="none" id="reverseproxy-Service" style="stroke: #A80036; stroke-width: 1.0;"/><polygon fill="#A80036" points="539.012,69.26,536.044,59.869,535.6988,65.5153,530.0525,65.1701,539.012,69.26" style="stroke: #A80036; stroke-width: 1.0;"/><polygon fill="#A80036" points="281.318,69.495,290.7671,66.7176,285.129,66.2583,285.5883,60.6201,281.318,69.495" style="stroke: #A80036; stroke-width: 1.0;"/><!--link Service to Data--><path d="M569.9,120.285 C579.855,140.9535 593.549,169.3854 603.422,189.8843 " fill="none" id="Service-Data" style="stroke: #A80036; stroke-width: 1.0;"/><polygon fill="#A80036" points="605.593,194.3924,605.2909,184.5482,603.4231,189.8878,598.0835,188.02,605.593,194.3924" style="stroke: #A80036; stroke-width: 1.0;"/><polygon fill="#A80036" points="567.684,115.684,567.9854,125.5282,569.8536,120.1888,575.193,122.057,567.684,115.684" style="stroke: #A80036; stroke-width: 1.0;"/><!--link Service to Connector--><path d="M544.114,120.255 C534.224,140.7893 520.638,168.9982 510.775,189.4746 " fill="none" id="Service-Connector" style="stroke: #A80036; stroke-width: 1.0;"/><polygon fill="#A80036" points="508.605,193.9812,516.1143,187.6086,510.7748,189.4765,508.9068,184.137,508.605,193.9812" style="stroke: #A80036; stroke-width: 1.0;"/><polygon fill="#A80036" points="546.316,115.684,538.807,122.057,544.1464,120.1888,546.0146,125.5282,546.316,115.684" style="stroke: #A80036; stroke-width: 1.0;"/><!--
@startuml
actor User

node Client
node "Reverse proxy" as reverseproxy
node Dispatcher
node Service
node Connector
database Data

User <-right-> Client
Client <-right-> reverseproxy
reverseproxy <-right-> Dispatcher
Dispatcher <-right-> Service
reverseproxy <-right-> Service
Service <-down-> Data
Service <-down-> Connector
@enduml

PlantUML version 1.2018.10(Sat Aug 25 19:02:59 CEST 2018)
(APACHE source distribution)
Java Runtime: Java(TM) SE Runtime Environment
JVM: Java HotSpot(TM) 64-Bit Server VM
Java Version: 11.0.1+13-LTS
Operating System: Linux
OS Version: 4.9.0-8-amd64
Default Encoding: UTF-8
Language: fr
Country: FR
--></g></svg>