<?xml version="1.0" encoding="UTF-8" standalone="no"?><svg xmlns="http://www.w3.org/2000/svg" xmlns:xlink="http://www.w3.org/1999/xlink" contentScriptType="application/ecmascript" contentStyleType="text/css" height="226px" preserveAspectRatio="none" style="width:674px;height:226px;" version="1.1" viewBox="0 0 674 226" width="674px" zoomAndPan="magnify"><defs><filter height="300%" id="f10rueiqejxod2" width="300%" x="-1" y="-1"><feGaussianBlur result="blurOut" stdDeviation="2.0"/><feColorMatrix in="blurOut" result="blurOut2" type="matrix" values="0 0 0 0 0 0 0 0 0 0 0 0 0 0 0 0 0 0 .4 0"/><feOffset dx="4.0" dy="4.0" in="blurOut2" result="blurOut3"/><feBlend in="SourceGraphic" in2="blurOut3" mode="normal"/></filter></defs><g><!--class ConnectorEventEnum--><rect fill="#FEFECE" filter="url(#f10rueiqejxod2)" height="86.4141" id="ConnectorEventEnum" style="stroke: #A80036; stroke-width: 1.5;" width="167" x="6" y="14.5"/><ellipse cx="21" cy="30.5" fill="#EB937F" rx="11" ry="11" style="stroke: #A80036; stroke-width: 1.0;"/><path d="M25.1094,36.5 L17.3906,36.5 L17.3906,24.1094 L25.1094,24.1094 L25.1094,26.2656 L19.8438,26.2656 L19.8438,28.9375 L24.6094,28.9375 L24.6094,31.0938 L19.8438,31.0938 L19.8438,34.3438 L25.1094,34.3438 L25.1094,36.5 Z "/><text fill="#000000" font-family="sans-serif" font-size="12" lengthAdjust="spacingAndGlyphs" textLength="135" x="35" y="34.6543">ConnectorEventEnum</text><line style="stroke: #A80036; stroke-width: 1.5;" x1="7" x2="172" y1="46.5" y2="46.5"/><text fill="#000000" font-family="sans-serif" font-size="11" lengthAdjust="spacingAndGlyphs" textLength="87" x="12" y="60.7104">ONCONNECTED</text><text fill="#000000" font-family="sans-serif" font-size="11" lengthAdjust="spacingAndGlyphs" textLength="42" x="12" y="73.5151">ONTICK</text><text fill="#000000" font-family="sans-serif" font-size="11" lengthAdjust="spacingAndGlyphs" textLength="96" x="12" y="86.3198">ONTRANSACTION</text><line style="stroke: #A80036; stroke-width: 1.5;" x1="7" x2="172" y1="92.9141" y2="92.9141"/><!--class TradingAccount--><rect fill="#FEFECE" filter="url(#f10rueiqejxod2)" height="99.2188" id="TradingAccount" style="stroke: #A80036; stroke-width: 1.5;" width="130" x="208.5" y="8"/><ellipse cx="223.5" cy="24" fill="#ADD1B2" rx="11" ry="11" style="stroke: #A80036; stroke-width: 1.0;"/><path d="M226.4688,29.6406 Q225.8906,29.9375 225.25,30.0781 Q224.6094,30.2344 223.9063,30.2344 Q221.4063,30.2344 220.0781,28.5938 Q218.7656,26.9375 218.7656,23.8125 Q218.7656,20.6875 220.0781,19.0313 Q221.4063,17.375 223.9063,17.375 Q224.6094,17.375 225.25,17.5313 Q225.9063,17.6875 226.4688,17.9844 L226.4688,20.7031 Q225.8438,20.125 225.25,19.8594 Q224.6563,19.5781 224.0313,19.5781 Q222.6875,19.5781 222,20.6563 Q221.3125,21.7188 221.3125,23.8125 Q221.3125,25.9063 222,26.9844 Q222.6875,28.0469 224.0313,28.0469 Q224.6563,28.0469 225.25,27.7813 Q225.8438,27.5 226.4688,26.9219 L226.4688,29.6406 Z "/><text fill="#000000" font-family="sans-serif" font-size="12" lengthAdjust="spacingAndGlyphs" textLength="98" x="237.5" y="28.1543">TradingAccount</text><line style="stroke: #A80036; stroke-width: 1.5;" x1="209.5" x2="337.5" y1="40" y2="40"/><rect fill="none" height="6" style="stroke: #C82930; stroke-width: 1.0;" width="6" x="216.5" y="48.9023"/><text fill="#000000" font-family="sans-serif" font-size="11" lengthAdjust="spacingAndGlyphs" textLength="65" x="228.5" y="54.2104">usernmane</text><rect fill="none" height="6" style="stroke: #C82930; stroke-width: 1.0;" width="6" x="216.5" y="61.707"/><text fill="#000000" font-family="sans-serif" font-size="11" lengthAdjust="spacingAndGlyphs" textLength="56" x="228.5" y="67.0151">password</text><rect fill="none" height="6" style="stroke: #C82930; stroke-width: 1.0;" width="6" x="216.5" y="74.5117"/><text fill="#000000" font-family="sans-serif" font-size="11" lengthAdjust="spacingAndGlyphs" textLength="37" x="228.5" y="79.8198">broker</text><rect fill="none" height="6" style="stroke: #C82930; stroke-width: 1.0;" width="6" x="216.5" y="87.3164"/><text fill="#000000" font-family="sans-serif" font-size="11" lengthAdjust="spacingAndGlyphs" textLength="71" x="228.5" y="92.6245">accountType</text><line style="stroke: #A80036; stroke-width: 1.5;" x1="209.5" x2="337.5" y1="99.2188" y2="99.2188"/><!--class IConnector--><rect fill="#FEFECE" filter="url(#f10rueiqejxod2)" height="86.4141" id="IConnector" style="stroke: #A80036; stroke-width: 1.5;" width="290" x="373.5" y="14.5"/><ellipse cx="479.75" cy="30.5" fill="#B4A7E5" rx="11" ry="11" style="stroke: #A80036; stroke-width: 1.0;"/><path d="M475.6719,26.2656 L475.6719,24.1094 L483.0625,24.1094 L483.0625,26.2656 L480.5938,26.2656 L480.5938,34.3438 L483.0625,34.3438 L483.0625,36.5 L475.6719,36.5 L475.6719,34.3438 L478.1406,34.3438 L478.1406,26.2656 L475.6719,26.2656 Z "/><text fill="#000000" font-family="sans-serif" font-size="12" font-style="italic" lengthAdjust="spacingAndGlyphs" textLength="69" x="500.25" y="34.6543">IConnector</text><line style="stroke: #A80036; stroke-width: 1.5;" x1="374.5" x2="662.5" y1="46.5" y2="46.5"/><line style="stroke: #A80036; stroke-width: 1.5;" x1="374.5" x2="662.5" y1="54.5" y2="54.5"/><text fill="#000000" font-family="sans-serif" font-size="11" lengthAdjust="spacingAndGlyphs" textLength="278" x="379.5" y="68.7104">connection(tradingAccount: TradingAccount): Unit</text><text fill="#000000" font-family="sans-serif" font-size="11" lengthAdjust="spacingAndGlyphs" textLength="65" x="379.5" y="81.5151">login(): Unit</text><text fill="#000000" font-family="sans-serif" font-size="11" lengthAdjust="spacingAndGlyphs" textLength="73" x="379.5" y="94.3198">logout(): Unit</text><!--class Connector--><rect fill="#FEFECE" filter="url(#f10rueiqejxod2)" height="48" id="Connector" style="stroke: #A80036; stroke-width: 1.5;" width="97" x="347" y="167"/><ellipse cx="362" cy="183" fill="#ADD1B2" rx="11" ry="11" style="stroke: #A80036; stroke-width: 1.0;"/><path d="M364.9688,188.6406 Q364.3906,188.9375 363.75,189.0781 Q363.1094,189.2344 362.4063,189.2344 Q359.9063,189.2344 358.5781,187.5938 Q357.2656,185.9375 357.2656,182.8125 Q357.2656,179.6875 358.5781,178.0313 Q359.9063,176.375 362.4063,176.375 Q363.1094,176.375 363.75,176.5313 Q364.4063,176.6875 364.9688,176.9844 L364.9688,179.7031 Q364.3438,179.125 363.75,178.8594 Q363.1563,178.5781 362.5313,178.5781 Q361.1875,178.5781 360.5,179.6563 Q359.8125,180.7188 359.8125,182.8125 Q359.8125,184.9063 360.5,185.9844 Q361.1875,187.0469 362.5313,187.0469 Q363.1563,187.0469 363.75,186.7813 Q364.3438,186.5 364.9688,185.9219 L364.9688,188.6406 Z "/><text fill="#000000" font-family="sans-serif" font-size="12" lengthAdjust="spacingAndGlyphs" textLength="65" x="376" y="187.1543">Connector</text><line style="stroke: #A80036; stroke-width: 1.5;" x1="348" x2="443" y1="199" y2="199"/><line style="stroke: #A80036; stroke-width: 1.5;" x1="348" x2="443" y1="207" y2="207"/><!--link IConnector to Connector--><path d="M465.025,115.67 C448.136,133.7268 430.425,152.6618 417.105,166.9016 " fill="none" id="IConnector-Connector" style="stroke: #A80036; stroke-width: 1.0;"/><polygon fill="none" points="460.131,110.656,478.905,100.831,470.355,120.2194,460.131,110.656" style="stroke: #A80036; stroke-width: 1.0;"/><!--link TradingAccount to Connector--><path d="M327.622,116.8364 C344.075,134.5711 361.205,153.0346 374.14,166.9769 " fill="none" id="TradingAccount-Connector" style="stroke: #A80036; stroke-width: 1.0;"/><polygon fill="#A80036" points="318.582,107.092,319.7304,114.2111,326.7435,115.8891,325.5951,108.7701,318.582,107.092" style="stroke: #A80036; stroke-width: 1.0;"/><!--
@startuml
enum ConnectorEventEnum {
  ONCONNECTED
  ONTICK
  ONTRANSACTION
}

class TradingAccount {
    - usernmane
    - password
    - broker
    - accountType
}

interface IConnector {
  connection(tradingAccount: TradingAccount): Unit
  login(): Unit
  logout(): Unit
}

class Connector

IConnector <|- - Connector
TradingAccount *- - Connector
@enduml

PlantUML version 1.2018.10(Sat Aug 25 19:02:59 CEST 2018)
(APACHE source distribution)
Java Runtime: Java(TM) SE Runtime Environment
JVM: Java HotSpot(TM) 64-Bit Server VM
Java Version: 11.0.1+13-LTS
Operating System: Linux
OS Version: 4.9.0-8-amd64
Default Encoding: UTF-8
Language: fr
Country: FR
--></g></svg>