<?xml version="1.0" encoding="UTF-8" standalone="no"?><svg xmlns="http://www.w3.org/2000/svg" xmlns:xlink="http://www.w3.org/1999/xlink" contentScriptType="application/ecmascript" contentStyleType="text/css" height="394px" preserveAspectRatio="none" style="width:1011px;height:394px;" version="1.1" viewBox="0 0 1011 394" width="1011px" zoomAndPan="magnify"><defs><filter height="300%" id="f22yk43p709o" width="300%" x="-1" y="-1"><feGaussianBlur result="blurOut" stdDeviation="2.0"/><feColorMatrix in="blurOut" result="blurOut2" type="matrix" values="0 0 0 0 0 0 0 0 0 0 0 0 0 0 0 0 0 0 .4 0"/><feOffset dx="4.0" dy="4.0" in="blurOut2" result="blurOut3"/><feBlend in="SourceGraphic" in2="blurOut3" mode="normal"/></filter></defs><g><!--cluster net.traderbook.service--><polygon fill="#FFFFFF" filter="url(#f22yk43p709o)" points="22,36.5,210,36.5,217,58.7969,292,58.7969,292,323,22,323,22,36.5" style="stroke: #000000; stroke-width: 1.5;"/><line style="stroke: #000000; stroke-width: 1.5;" x1="22" x2="217" y1="58.7969" y2="58.7969"/><text fill="#000000" font-family="sans-serif" font-size="14" font-weight="bold" lengthAdjust="spacingAndGlyphs" textLength="182" x="26" y="51.4951">net.traderbook.service</text><!--cluster net.traderbook.api.connector--><polygon fill="#FFFFFF" filter="url(#f22yk43p709o)" points="316,24,555,24,562,46.2969,989,46.2969,989,174,316,174,316,24" style="stroke: #000000; stroke-width: 1.5;"/><line style="stroke: #000000; stroke-width: 1.5;" x1="316" x2="562" y1="46.2969" y2="46.2969"/><text fill="#000000" font-family="sans-serif" font-size="14" font-weight="bold" lengthAdjust="spacingAndGlyphs" textLength="233" x="320" y="38.9951">net.traderbook.api.connector</text><!--cluster net.traderbook.connector--><polygon fill="#FFFFFF" filter="url(#f22yk43p709o)" points="348,198,559,198,566,220.2969,648,220.2969,648,323,348,323,348,198" style="stroke: #000000; stroke-width: 1.5;"/><line style="stroke: #000000; stroke-width: 1.5;" x1="348" x2="566" y1="220.2969" y2="220.2969"/><text fill="#000000" font-family="sans-serif" font-size="14" font-weight="bold" lengthAdjust="spacingAndGlyphs" textLength="205" x="352" y="212.9951">net.traderbook.connector</text><!--class Service--><rect fill="#FEFECE" filter="url(#f22yk43p709o)" height="73.6094" id="Service" style="stroke: #A80036; stroke-width: 1.5;" width="186" x="64" y="71.5"/><ellipse cx="130.25" cy="87.5" fill="#ADD1B2" rx="11" ry="11" style="stroke: #A80036; stroke-width: 1.0;"/><path d="M133.2188,93.1406 Q132.6406,93.4375 132,93.5781 Q131.3594,93.7344 130.6563,93.7344 Q128.1563,93.7344 126.8281,92.0938 Q125.5156,90.4375 125.5156,87.3125 Q125.5156,84.1875 126.8281,82.5313 Q128.1563,80.875 130.6563,80.875 Q131.3594,80.875 132,81.0313 Q132.6563,81.1875 133.2188,81.4844 L133.2188,84.2031 Q132.5938,83.625 132,83.3594 Q131.4063,83.0781 130.7813,83.0781 Q129.4375,83.0781 128.75,84.1563 Q128.0625,85.2188 128.0625,87.3125 Q128.0625,89.4063 128.75,90.4844 Q129.4375,91.5469 130.7813,91.5469 Q131.4063,91.5469 132,91.2813 Q132.5938,91 133.2188,90.4219 L133.2188,93.1406 Z "/><text fill="#000000" font-family="sans-serif" font-size="12" lengthAdjust="spacingAndGlyphs" textLength="45" x="150.75" y="91.6543">Service</text><line style="stroke: #A80036; stroke-width: 1.5;" x1="65" x2="249" y1="103.5" y2="103.5"/><rect fill="none" height="6" style="stroke: #C82930; stroke-width: 1.0;" width="6" x="72" y="112.4023"/><text fill="#000000" font-family="sans-serif" font-size="11" lengthAdjust="spacingAndGlyphs" textLength="160" x="84" y="117.7104">controller: ServiceController</text><line style="stroke: #A80036; stroke-width: 1.5;" x1="65" x2="249" y1="124.3047" y2="124.3047"/><ellipse cx="75" cy="136.207" fill="#84BE84" rx="3" ry="3" style="stroke: #038048; stroke-width: 1.0;"/><text fill="#000000" font-family="sans-serif" font-size="11" lengthAdjust="spacingAndGlyphs" textLength="152" x="84" y="138.5151">main(args: Array&lt;String&gt;)</text><!--class ServiceController--><rect fill="#FEFECE" filter="url(#f22yk43p709o)" height="73.6094" id="ServiceController" style="stroke: #A80036; stroke-width: 1.5;" width="237" x="38.5" y="233"/><ellipse cx="99.75" cy="249" fill="#ADD1B2" rx="11" ry="11" style="stroke: #A80036; stroke-width: 1.0;"/><path d="M102.7188,254.6406 Q102.1406,254.9375 101.5,255.0781 Q100.8594,255.2344 100.1563,255.2344 Q97.6563,255.2344 96.3281,253.5938 Q95.0156,251.9375 95.0156,248.8125 Q95.0156,245.6875 96.3281,244.0313 Q97.6563,242.375 100.1563,242.375 Q100.8594,242.375 101.5,242.5313 Q102.1563,242.6875 102.7188,242.9844 L102.7188,245.7031 Q102.0938,245.125 101.5,244.8594 Q100.9063,244.5781 100.2813,244.5781 Q98.9375,244.5781 98.25,245.6563 Q97.5625,246.7188 97.5625,248.8125 Q97.5625,250.9063 98.25,251.9844 Q98.9375,253.0469 100.2813,253.0469 Q100.9063,253.0469 101.5,252.7813 Q102.0938,252.5 102.7188,251.9219 L102.7188,254.6406 Z "/><text fill="#000000" font-family="sans-serif" font-size="12" lengthAdjust="spacingAndGlyphs" textLength="106" x="120.25" y="253.1543">ServiceController</text><line style="stroke: #A80036; stroke-width: 1.5;" x1="39.5" x2="274.5" y1="265" y2="265"/><rect fill="none" height="6" style="stroke: #C82930; stroke-width: 1.0;" width="6" x="46.5" y="273.9023"/><text fill="#000000" font-family="sans-serif" font-size="11" lengthAdjust="spacingAndGlyphs" textLength="125" x="58.5" y="279.2104">connector: IConnector</text><line style="stroke: #A80036; stroke-width: 1.5;" x1="39.5" x2="274.5" y1="285.8047" y2="285.8047"/><rect fill="#F24D5C" height="6" style="stroke: #C82930; stroke-width: 1.0;" width="6" x="46.5" y="294.707"/><text fill="#000000" font-family="sans-serif" font-size="11" lengthAdjust="spacingAndGlyphs" textLength="211" x="58.5" y="300.0151">load(tradingAccount: TradingAccount)</text><!--class IConnectorObserver--><rect fill="#FEFECE" filter="url(#f22yk43p709o)" height="73.6094" id="IConnectorObserver" style="stroke: #A80036; stroke-width: 1.5;" width="332" x="332" y="71.5"/><ellipse cx="432.25" cy="87.5" fill="#B4A7E5" rx="11" ry="11" style="stroke: #A80036; stroke-width: 1.0;"/><path d="M428.1719,83.2656 L428.1719,81.1094 L435.5625,81.1094 L435.5625,83.2656 L433.0938,83.2656 L433.0938,91.3438 L435.5625,91.3438 L435.5625,93.5 L428.1719,93.5 L428.1719,91.3438 L430.6406,91.3438 L430.6406,83.2656 L428.1719,83.2656 Z "/><text fill="#000000" font-family="sans-serif" font-size="12" font-style="italic" lengthAdjust="spacingAndGlyphs" textLength="123" x="452.75" y="91.6543">IConnectorObserver</text><line style="stroke: #A80036; stroke-width: 1.5;" x1="333" x2="663" y1="103.5" y2="103.5"/><rect fill="none" height="6" style="stroke: #C82930; stroke-width: 1.0;" width="6" x="340" y="112.4023"/><text fill="#000000" font-family="sans-serif" font-size="11" lengthAdjust="spacingAndGlyphs" textLength="178" x="352" y="117.7104">connector: IConnectorObserver</text><line style="stroke: #A80036; stroke-width: 1.5;" x1="333" x2="663" y1="124.3047" y2="124.3047"/><ellipse cx="343" cy="136.207" fill="#84BE84" rx="3" ry="3" style="stroke: #038048; stroke-width: 1.0;"/><text fill="#000000" font-family="sans-serif" font-size="11" lengthAdjust="spacingAndGlyphs" textLength="306" x="352" y="138.5151">update(message: ConnectorEventEnum, data: Object)</text><!--class IConnector--><rect fill="#FEFECE" filter="url(#f22yk43p709o)" height="99.2188" id="IConnector" style="stroke: #A80036; stroke-width: 1.5;" width="274" x="699" y="59"/><ellipse cx="797.25" cy="75" fill="#B4A7E5" rx="11" ry="11" style="stroke: #A80036; stroke-width: 1.0;"/><path d="M793.1719,70.7656 L793.1719,68.6094 L800.5625,68.6094 L800.5625,70.7656 L798.0938,70.7656 L798.0938,78.8438 L800.5625,78.8438 L800.5625,81 L793.1719,81 L793.1719,78.8438 L795.6406,78.8438 L795.6406,70.7656 L793.1719,70.7656 Z "/><text fill="#000000" font-family="sans-serif" font-size="12" font-style="italic" lengthAdjust="spacingAndGlyphs" textLength="69" x="817.75" y="79.1543">IConnector</text><line style="stroke: #A80036; stroke-width: 1.5;" x1="700" x2="972" y1="91" y2="91"/><line style="stroke: #A80036; stroke-width: 1.5;" x1="700" x2="972" y1="99" y2="99"/><ellipse cx="710" cy="110.9023" fill="#84BE84" rx="3" ry="3" style="stroke: #038048; stroke-width: 1.0;"/><text fill="#000000" font-family="sans-serif" font-size="11" lengthAdjust="spacingAndGlyphs" textLength="248" x="719" y="113.2104">connection(tradingAccount: TradingAccount)</text><ellipse cx="710" cy="123.707" fill="#84BE84" rx="3" ry="3" style="stroke: #038048; stroke-width: 1.0;"/><text fill="#000000" font-family="sans-serif" font-size="11" lengthAdjust="spacingAndGlyphs" textLength="237" x="719" y="126.0151">placeTransaction(trasaction: Transaction)</text><ellipse cx="710" cy="136.5117" fill="#84BE84" rx="3" ry="3" style="stroke: #038048; stroke-width: 1.0;"/><text fill="#000000" font-family="sans-serif" font-size="11" lengthAdjust="spacingAndGlyphs" textLength="35" x="719" y="138.8198">login()</text><ellipse cx="710" cy="149.3164" fill="#84BE84" rx="3" ry="3" style="stroke: #038048; stroke-width: 1.0;"/><text fill="#000000" font-family="sans-serif" font-size="11" lengthAdjust="spacingAndGlyphs" textLength="43" x="719" y="151.6245">logout()</text><!--class Connector--><rect fill="#FEFECE" filter="url(#f22yk43p709o)" height="73.6094" id="Connector" style="stroke: #A80036; stroke-width: 1.5;" width="268" x="364" y="233"/><ellipse cx="461.25" cy="249" fill="#ADD1B2" rx="11" ry="11" style="stroke: #A80036; stroke-width: 1.0;"/><path d="M464.2188,254.6406 Q463.6406,254.9375 463,255.0781 Q462.3594,255.2344 461.6563,255.2344 Q459.1563,255.2344 457.8281,253.5938 Q456.5156,251.9375 456.5156,248.8125 Q456.5156,245.6875 457.8281,244.0313 Q459.1563,242.375 461.6563,242.375 Q462.3594,242.375 463,242.5313 Q463.6563,242.6875 464.2188,242.9844 L464.2188,245.7031 Q463.5938,245.125 463,244.8594 Q462.4063,244.5781 461.7813,244.5781 Q460.4375,244.5781 459.75,245.6563 Q459.0625,246.7188 459.0625,248.8125 Q459.0625,250.9063 459.75,251.9844 Q460.4375,253.0469 461.7813,253.0469 Q462.4063,253.0469 463,252.7813 Q463.5938,252.5 464.2188,251.9219 L464.2188,254.6406 Z "/><text fill="#000000" font-family="sans-serif" font-size="12" lengthAdjust="spacingAndGlyphs" textLength="65" x="481.75" y="253.1543">Connector</text><line style="stroke: #A80036; stroke-width: 1.5;" x1="365" x2="631" y1="265" y2="265"/><rect fill="none" height="6" style="stroke: #C82930; stroke-width: 1.0;" width="6" x="372" y="273.9023"/><text fill="#000000" font-family="sans-serif" font-size="11" lengthAdjust="spacingAndGlyphs" textLength="176" x="384" y="279.2104">controller: IConnectorObserver</text><line style="stroke: #A80036; stroke-width: 1.5;" x1="365" x2="631" y1="285.8047" y2="285.8047"/><ellipse cx="375" cy="297.707" fill="#84BE84" rx="3" ry="3" style="stroke: #038048; stroke-width: 1.0;"/><text fill="#000000" font-family="sans-serif" font-size="11" lengthAdjust="spacingAndGlyphs" textLength="242" x="384" y="300.0151">Connector(controller: IConnectorObserver)</text><!--link IConnectorObserver to Connector--><path d="M498,165.983 C498,188.261 498,213.194 498,232.95 " fill="none" id="IConnectorObserver-Connector" style="stroke: #A80036; stroke-width: 1.0;"/><polygon fill="none" points="491,165.693,498,145.693,505,165.693,491,165.693" style="stroke: #A80036; stroke-width: 1.0;"/><!--link Connector to IConnector--><path d="M574.54,232.881 C615.967,213.332 668.102,188.73 714.897,166.648 " fill="none" id="Connector-IConnector" style="stroke: #A80036; stroke-width: 1.0;"/><polygon fill="none" points="712.138,160.21,733.212,158.005,718.112,172.871,712.138,160.21" style="stroke: #A80036; stroke-width: 1.0;"/><!--link ServiceController to Connector--><path d="M288.643,270 C313.678,270 338.713,270 363.748,270 " fill="none" id="ServiceController-Connector" style="stroke: #A80036; stroke-width: 1.0;"/><polygon fill="#A80036" points="275.551,270,281.551,274,287.551,270,281.551,266,275.551,270" style="stroke: #A80036; stroke-width: 1.0;"/><!--link Service to ServiceController--><path d="M157,145.693 C157,167.616 157,195.873 157,219.805 " fill="none" id="Service-ServiceController" style="stroke: #A80036; stroke-width: 1.0;"/><polygon fill="#A80036" points="157,232.95,161,226.95,157,220.95,153,226.95,157,232.95" style="stroke: #A80036; stroke-width: 1.0;"/><!--link IConnectorObserver to ServiceController--><path d="M402.369,154.231 C349.208,179.096 283.93,209.63 234.072,232.95 " fill="none" id="IConnectorObserver-ServiceController" style="stroke: #A80036; stroke-width: 1.0;"/><polygon fill="none" points="399.54,147.826,420.622,145.693,405.471,160.507,399.54,147.826" style="stroke: #A80036; stroke-width: 1.0;"/><!--link IConnector to ServiceController--><path d="M730.731,165.998 C714.781,172.502 698.226,178.167 682,182 C609.745,199.068 420.642,174.664 348,190 C306.219,198.821 262.01,216.511 226.658,232.92 " fill="none" id="IConnector-ServiceController" style="stroke: #A80036; stroke-width: 1.0;"/><polygon fill="none" points="727.986,159.559,749.121,158.038,733.547,172.407,727.986,159.559" style="stroke: #A80036; stroke-width: 1.0;"/><rect fill="#DDDDDD" height="26.2969" rx="5" ry="5" style="stroke: #000000; stroke-width: 1.0;" width="315" x="353.5" y="357"/><text fill="#000000" font-family="sans-serif" font-size="14" lengthAdjust="spacingAndGlyphs" textLength="303" x="359.5" y="374.9951">Diagramme de classe - Gestion d'un service</text><!--
@startuml
legend
Diagramme de classe - Gestion d'un service
endlegend

package net.traderbook.service {
    class Service {
        - controller: ServiceController
        + main(args: Array<String>)
    }

    class ServiceController {
        - connector: IConnector
        - load(tradingAccount: TradingAccount)
    }
}

package net.traderbook.api.connector {
  interface IConnectorObserver {
      - connector: IConnectorObserver
      + update(message: ConnectorEventEnum, data: Object)
  }

  interface IConnector {
      + connection(tradingAccount: TradingAccount)
      + placeTransaction(trasaction: Transaction)
      + login()
      + logout()
  }
}

package net.traderbook.connector {
  class Connector {
    - controller: IConnectorObserver
    + Connector(controller: IConnectorObserver)
  }

  Connector -up-|> IConnectorObserver
  Connector -down-|> IConnector
}

ServiceController *-right- Connector
Service -up-* ServiceController
ServiceController -up-|> IConnectorObserver
ServiceController -up-|> IConnector
@enduml

PlantUML version 1.2018.10(Sat Aug 25 19:02:59 CEST 2018)
(APACHE source distribution)
Java Runtime: Java(TM) SE Runtime Environment
JVM: Java HotSpot(TM) 64-Bit Server VM
Java Version: 11.0.1+13-LTS
Operating System: Linux
OS Version: 4.9.0-8-amd64
Default Encoding: UTF-8
Language: fr
Country: FR
--></g></svg>