<?xml version="1.0" encoding="UTF-8" standalone="no"?><svg xmlns="http://www.w3.org/2000/svg" xmlns:xlink="http://www.w3.org/1999/xlink" contentScriptType="application/ecmascript" contentStyleType="text/css" height="438px" preserveAspectRatio="none" style="width:290px;height:438px;" version="1.1" viewBox="0 0 290 438" width="290px" zoomAndPan="magnify"><defs><filter height="300%" id="fir6ryn7uyk82" width="300%" x="-1" y="-1"><feGaussianBlur result="blurOut" stdDeviation="2.0"/><feColorMatrix in="blurOut" result="blurOut2" type="matrix" values="0 0 0 0 0 0 0 0 0 0 0 0 0 0 0 0 0 0 .4 0"/><feOffset dx="4.0" dy="4.0" in="blurOut2" result="blurOut3"/><feBlend in="SourceGraphic" in2="blurOut3" mode="normal"/></filter></defs><g><!--cluster Serveur--><polygon fill="#FFFFFF" filter="url(#fir6ryn7uyk82)" points="22,34,32,24,268,24,268,416,258,426,22,426,22,34" style="stroke: #000000; stroke-width: 1.5;"/><line style="stroke: #000000; stroke-width: 1.5;" x1="258" x2="267" y1="34" y2="25"/><line style="stroke: #000000; stroke-width: 1.5;" x1="22" x2="258" y1="34" y2="34"/><line style="stroke: #000000; stroke-width: 1.5;" x1="258" x2="258" y1="34" y2="426"/><text fill="#000000" font-family="sans-serif" font-size="14" font-weight="bold" lengthAdjust="spacingAndGlyphs" textLength="63" x="109.5" y="49.9951">Serveur</text><!--entity reverseproxy--><rect fill="#FEFECE" filter="url(#fir6ryn7uyk82)" height="36.2969" style="stroke: #A80036; stroke-width: 1.5;" width="118" x="86" y="182"/><rect fill="#FEFECE" height="5" style="stroke: #A80036; stroke-width: 1.5;" width="10" x="81" y="187"/><rect fill="#FEFECE" height="5" style="stroke: #A80036; stroke-width: 1.5;" width="10" x="81" y="208.2969"/><text fill="#000000" font-family="sans-serif" font-size="14" lengthAdjust="spacingAndGlyphs" textLength="98" x="96" y="204.9951">Reverse Proxy</text><!--entity dispatcher--><rect fill="#FEFECE" filter="url(#fir6ryn7uyk82)" height="36.2969" style="stroke: #A80036; stroke-width: 1.5;" width="95" x="38.5" y="278"/><rect fill="#FEFECE" height="5" style="stroke: #A80036; stroke-width: 1.5;" width="10" x="33.5" y="283"/><rect fill="#FEFECE" height="5" style="stroke: #A80036; stroke-width: 1.5;" width="10" x="33.5" y="304.2969"/><text fill="#000000" font-family="sans-serif" font-size="14" lengthAdjust="spacingAndGlyphs" textLength="75" x="48.5" y="300.9951">Dispatcher</text><!--entity servicex--><rect fill="#FEFECE" filter="url(#fir6ryn7uyk82)" height="36.2969" style="stroke: #A80036; stroke-width: 1.5;" width="83" x="168.5" y="278"/><rect fill="#FEFECE" height="5" style="stroke: #A80036; stroke-width: 1.5;" width="10" x="163.5" y="283"/><rect fill="#FEFECE" height="5" style="stroke: #A80036; stroke-width: 1.5;" width="10" x="163.5" y="304.2969"/><text fill="#000000" font-family="sans-serif" font-size="14" lengthAdjust="spacingAndGlyphs" textLength="63" x="178.5" y="300.9951">Service X</text><!--entity database--><rect fill="#FEFECE" filter="url(#fir6ryn7uyk82)" height="36.2969" style="stroke: #A80036; stroke-width: 1.5;" width="86" x="104" y="374"/><rect fill="#FEFECE" height="5" style="stroke: #A80036; stroke-width: 1.5;" width="10" x="99" y="379"/><rect fill="#FEFECE" height="5" style="stroke: #A80036; stroke-width: 1.5;" width="10" x="99" y="400.2969"/><text fill="#000000" font-family="sans-serif" font-size="14" lengthAdjust="spacingAndGlyphs" textLength="66" x="114" y="396.9951">Database</text><!--entity HTTPS--><ellipse cx="145" cy="93" fill="#FEFECE" filter="url(#fir6ryn7uyk82)" rx="8" ry="8" style="stroke: #A80036; stroke-width: 2.0;"/><text fill="#000000" font-family="sans-serif" font-size="14" lengthAdjust="spacingAndGlyphs" textLength="46" x="122" y="122.9951">HTTPS</text><!--link HTTPS to reverseproxy--><path d="M145,107.616 C145,126.65 145,161.202 145,181.933 " fill="none" id="HTTPS-reverseproxy" style="stroke: #A80036; stroke-width: 1.0;"/><polygon fill="#A80036" points="145,102.239,141,111.239,145,107.239,149,111.239,145,102.239" style="stroke: #A80036; stroke-width: 1.0;"/><!--link reverseproxy to dispatcher--><path d="M131.319,222.797 C121.783,237.99 109.116,258.171 99.5986,273.334 " fill="none" id="reverseproxy-dispatcher" style="stroke: #A80036; stroke-width: 1.0;"/><polygon fill="#A80036" points="96.7529,277.868,104.9258,272.3722,99.4113,273.6333,98.1502,268.1188,96.7529,277.868" style="stroke: #A80036; stroke-width: 1.0;"/><polygon fill="#A80036" points="134.178,218.241,126.0068,223.7394,131.5209,222.4766,132.7838,227.9907,134.178,218.241" style="stroke: #A80036; stroke-width: 1.0;"/><!--link dispatcher to servicex--><path d="M139.068,296 C147.168,296 155.268,296 163.368,296 " fill="none" id="dispatcher-servicex" style="stroke: #A80036; stroke-width: 1.0;"/><polygon fill="#A80036" points="168.412,296,159.412,292,163.412,296,159.412,300,168.412,296" style="stroke: #A80036; stroke-width: 1.0;"/><polygon fill="#A80036" points="133.953,296,142.953,300,138.953,296,142.953,292,133.953,296" style="stroke: #A80036; stroke-width: 1.0;"/><!--link reverseproxy to servicex--><path d="M159.776,222.369 C170.396,237.726 184.653,258.344 195.264,273.689 " fill="none" id="reverseproxy-servicex" style="stroke: #A80036; stroke-width: 1.0;"/><polygon fill="#A80036" points="198.154,277.868,196.3248,268.1905,195.31,273.7556,189.7449,272.7409,198.154,277.868" style="stroke: #A80036; stroke-width: 1.0;"/><polygon fill="#A80036" points="156.922,218.241,158.7512,227.9185,159.766,222.3534,165.3311,223.3681,156.922,218.241" style="stroke: #A80036; stroke-width: 1.0;"/><!--link dispatcher to database--><path d="M100.1449,318.797 C110.004,333.99 123.1,354.1709 132.94,369.3345 " fill="none" id="dispatcher-database" style="stroke: #A80036; stroke-width: 1.0;"/><polygon fill="#A80036" points="135.883,373.8683,134.3391,364.1412,133.1612,369.6741,127.6283,368.4961,135.883,373.8683" style="stroke: #A80036; stroke-width: 1.0;"/><polygon fill="#A80036" points="97.1883,314.241,98.7315,323.9682,99.9098,318.4354,105.4426,319.6138,97.1883,314.241" style="stroke: #A80036; stroke-width: 1.0;"/><!--link servicex to database--><path d="M195.391,318.797 C185.209,333.99 171.683,354.1709 161.52,369.3345 " fill="none" id="servicex-database" style="stroke: #A80036; stroke-width: 1.0;"/><polygon fill="#A80036" points="158.482,373.8683,166.8158,368.6196,161.266,369.7151,160.1706,364.1653,158.482,373.8683" style="stroke: #A80036; stroke-width: 1.0;"/><polygon fill="#A80036" points="198.445,314.241,190.1116,319.4902,195.6613,318.3944,196.7571,323.9441,198.445,314.241" style="stroke: #A80036; stroke-width: 1.0;"/><!--
@startuml
node Serveur {
    component "Reverse Proxy" as reverseproxy
    component "Dispatcher" as dispatcher
    component "Service X" as servicex
    component "Database" as database

    reverseproxy -up-> HTTPS
    reverseproxy <- -> dispatcher
    dispatcher <-right-> servicex
    reverseproxy <- -> servicex

    database <-up-> dispatcher
    database <-up-> servicex
}
@enduml

PlantUML version 1.2018.10(Sat Aug 25 19:02:59 CEST 2018)
(APACHE source distribution)
Java Runtime: Java(TM) SE Runtime Environment
JVM: Java HotSpot(TM) 64-Bit Server VM
Java Version: 11.0.1+13-LTS
Operating System: Linux
OS Version: 4.9.0-8-amd64
Default Encoding: UTF-8
Language: fr
Country: FR
--></g></svg>