<?xml version="1.0" encoding="UTF-8" standalone="no"?><svg xmlns="http://www.w3.org/2000/svg" xmlns:xlink="http://www.w3.org/1999/xlink" contentScriptType="application/ecmascript" contentStyleType="text/css" height="268px" preserveAspectRatio="none" style="width:377px;height:268px;" version="1.1" viewBox="0 0 377 268" width="377px" zoomAndPan="magnify"><defs><filter height="300%" id="fbkxug8xgsa04" width="300%" x="-1" y="-1"><feGaussianBlur result="blurOut" stdDeviation="2.0"/><feColorMatrix in="blurOut" result="blurOut2" type="matrix" values="0 0 0 0 0 0 0 0 0 0 0 0 0 0 0 0 0 0 .4 0"/><feOffset dx="4.0" dy="4.0" in="blurOut2" result="blurOut3"/><feBlend in="SourceGraphic" in2="blurOut3" mode="normal"/></filter></defs><g><!--cluster Service--><polygon fill="#FFFFFF" filter="url(#fbkxug8xgsa04)" points="119,42,129,32,355,32,355,246,345,256,119,256,119,42" style="stroke: #000000; stroke-width: 1.5;"/><line style="stroke: #000000; stroke-width: 1.5;" x1="345" x2="354" y1="42" y2="33"/><line style="stroke: #000000; stroke-width: 1.5;" x1="119" x2="345" y1="42" y2="42"/><line style="stroke: #000000; stroke-width: 1.5;" x1="345" x2="345" y1="42" y2="256"/><text fill="#000000" font-family="sans-serif" font-size="14" font-weight="bold" lengthAdjust="spacingAndGlyphs" textLength="59" x="203.5" y="57.9951">Service</text><!--entity Application--><polygon fill="#FEFECE" filter="url(#fbkxug8xgsa04)" points="215.5,90,225.5,80,330.5,80,330.5,116.2969,320.5,126.2969,215.5,126.2969,215.5,90" style="stroke: #000000; stroke-width: 1.5;"/><line style="stroke: #000000; stroke-width: 1.5;" x1="320.5" x2="329.5" y1="90" y2="81"/><line style="stroke: #000000; stroke-width: 1.5;" x1="215.5" x2="320.5" y1="90" y2="90"/><line style="stroke: #000000; stroke-width: 1.5;" x1="320.5" x2="320.5" y1="90" y2="126.2969"/><text fill="#000000" font-family="sans-serif" font-size="14" lengthAdjust="spacingAndGlyphs" textLength="75" x="230.5" y="112.9951">Application</text><!--entity Connector--><polygon fill="#FEFECE" filter="url(#fbkxug8xgsa04)" points="216.5,196,226.5,186,329.5,186,329.5,222.2969,319.5,232.2969,216.5,232.2969,216.5,196" style="stroke: #000000; stroke-width: 1.5;"/><line style="stroke: #000000; stroke-width: 1.5;" x1="319.5" x2="328.5" y1="196" y2="187"/><line style="stroke: #000000; stroke-width: 1.5;" x1="216.5" x2="319.5" y1="196" y2="196"/><line style="stroke: #000000; stroke-width: 1.5;" x1="319.5" x2="319.5" y1="196" y2="232.2969"/><text fill="#000000" font-family="sans-serif" font-size="14" lengthAdjust="spacingAndGlyphs" textLength="73" x="231.5" y="218.9951">Connector</text><!--entity 80--><ellipse cx="171" cy="103" fill="#FEFECE" filter="url(#fbkxug8xgsa04)" rx="8" ry="8" style="stroke: #A80036; stroke-width: 2.0;"/><text fill="#000000" font-family="sans-serif" font-size="14" lengthAdjust="spacingAndGlyphs" textLength="18" x="162" y="132.9951">80</text><!--entity Database--><path d="M6,90.5 C6,80.5 49,80.5 49,80.5 C49,80.5 92,80.5 92,90.5 L92,115.7969 C92,125.7969 49,125.7969 49,125.7969 C49,125.7969 6,125.7969 6,115.7969 L6,90.5 " fill="#FEFECE" filter="url(#fbkxug8xgsa04)" style="stroke: #000000; stroke-width: 1.5;"/><path d="M6,90.5 C6,100.5 49,100.5 49,100.5 C49,100.5 92,100.5 92,90.5 " fill="none" style="stroke: #000000; stroke-width: 1.5;"/><text fill="#000000" font-family="sans-serif" font-size="14" lengthAdjust="spacingAndGlyphs" textLength="66" x="16" y="117.4951">Database</text><!--link 80 to Application--><path d="M185.386,103 C195.37,103 205.355,103 215.34,103 " fill="none" id="80-Application" style="stroke: #A80036; stroke-width: 1.0;"/><polygon fill="#A80036" points="180.164,103,189.164,107,185.164,103,189.164,99,180.164,103" style="stroke: #A80036; stroke-width: 1.0;"/><!--link Application to Connector--><path d="M273,131.192 C273,146.528 273,165.624 273,180.9383 " fill="none" id="Application-Connector" style="stroke: #A80036; stroke-width: 1.0;"/><polygon fill="#A80036" points="273,185.9761,277,176.9761,273,180.9761,269,176.9761,273,185.9761" style="stroke: #A80036; stroke-width: 1.0;"/><polygon fill="#A80036" points="273,126.056,269,135.056,273,131.056,277,135.056,273,126.056" style="stroke: #A80036; stroke-width: 1.0;"/><!--link Database to Service--><path d="M97.3409,103 C102.1935,103 107.0462,103 111.899,103 C113.1122,103 114.3254,103 115.5386,103 C116.1451,103 116.7517,103 117.3583,103 C117.6616,103 117.9649,103 118.2682,103 C118.4199,103 118.5715,103 118.7232,103 C118.799,103 118.8748,103 118.9506,103 " fill="none" id="Database-Service" style="stroke: #A80036; stroke-width: 1.0;"/><polygon fill="#A80036" points="118.9506,103,109.9506,99,113.9506,103,109.9506,107,118.9506,103" style="stroke: #A80036; stroke-width: 1.0;"/><polygon fill="#A80036" points="92.2656,103,101.2656,107,97.2656,103,101.2656,99,92.2656,103" style="stroke: #A80036; stroke-width: 1.0;"/><!--
@startuml
node Service {
    node Application
    node Connector

    Application -left-> 80
    Application <-down-> Connector
}

database Database

Service <-left-> Database
@enduml

PlantUML version 1.2018.10(Sat Aug 25 19:02:59 CEST 2018)
(APACHE source distribution)
Java Runtime: Java(TM) SE Runtime Environment
JVM: Java HotSpot(TM) 64-Bit Server VM
Java Version: 11.0.1+13-LTS
Operating System: Linux
OS Version: 4.9.0-8-amd64
Default Encoding: UTF-8
Language: fr
Country: FR
--></g></svg>