<?xml version="1.0" encoding="UTF-8" standalone="no"?><svg xmlns="http://www.w3.org/2000/svg" xmlns:xlink="http://www.w3.org/1999/xlink" contentScriptType="application/ecmascript" contentStyleType="text/css" height="157px" preserveAspectRatio="none" style="width:244px;height:157px;" version="1.1" viewBox="0 0 244 157" width="244px" zoomAndPan="magnify"><defs/><g><text fill="#000000" font-family="sans-serif" font-size="12" lengthAdjust="spacingAndGlyphs" textLength="132" x="8" y="19.1387">Backtest parameters</text><line style="stroke: #AAAAAA; stroke-width: 1.0;" x1="8" x2="141" y1="26.4688" y2="26.4688"/><line style="stroke: #AAAAAA; stroke-width: 1.0;" x1="8" x2="141" y1="28.4688" y2="28.4688"/><text fill="#000000" font-family="sans-serif" font-size="12" lengthAdjust="spacingAndGlyphs" textLength="43" x="8" y="43.1074">Capital</text><text fill="#000000" font-family="sans-serif" font-size="12" lengthAdjust="spacingAndGlyphs" textLength="40" x="145" y="43.1074">10000</text><line style="stroke: #000000; stroke-width: 1.0;" x1="143" x2="226" y1="45.9375" y2="45.9375"/><line style="stroke: #000000; stroke-width: 1.0;" x1="143" x2="143" y1="42.9375" y2="44.9375"/><line style="stroke: #000000; stroke-width: 1.0;" x1="226" x2="226" y1="42.9375" y2="44.9375"/><text fill="#000000" font-family="sans-serif" font-size="12" lengthAdjust="spacingAndGlyphs" textLength="44" x="8" y="61.0762">Symbol</text><rect fill="#EEEEEE" height="16.9688" style="stroke: #000000; stroke-width: 1.0;" width="87" x="142" y="49.9375"/><text fill="#000000" font-family="sans-serif" font-size="12" lengthAdjust="spacingAndGlyphs" textLength="51" x="144" y="63.0762">EURUSD</text><line style="stroke: #000000; stroke-width: 1.0;" x1="218" x2="218" y1="49.9375" y2="66.9063"/><polygon fill="#000000" points="221,55.9375,227,55.9375,224,61.9063" style="stroke: #000000; stroke-width: 1.0;"/><text fill="#000000" font-family="sans-serif" font-size="12" lengthAdjust="spacingAndGlyphs" textLength="56" x="8" y="81.0449">Unit time</text><rect fill="#EEEEEE" height="16.9688" style="stroke: #000000; stroke-width: 1.0;" width="87" x="142" y="69.9063"/><text fill="#000000" font-family="sans-serif" font-size="12" lengthAdjust="spacingAndGlyphs" textLength="18" x="144" y="83.0449">M1</text><line style="stroke: #000000; stroke-width: 1.0;" x1="218" x2="218" y1="69.9063" y2="86.875"/><polygon fill="#000000" points="221,75.9063,227,75.9063,224,81.875" style="stroke: #000000; stroke-width: 1.0;"/><text fill="#000000" font-family="sans-serif" font-size="12" lengthAdjust="spacingAndGlyphs" textLength="31" x="8" y="101.0137">Start</text><text fill="#000000" font-family="sans-serif" font-size="12" lengthAdjust="spacingAndGlyphs" textLength="72" x="145" y="101.0137">10.10.2001</text><line style="stroke: #000000; stroke-width: 1.0;" x1="143" x2="226" y1="103.8438" y2="103.8438"/><line style="stroke: #000000; stroke-width: 1.0;" x1="143" x2="143" y1="100.8438" y2="102.8438"/><line style="stroke: #000000; stroke-width: 1.0;" x1="226" x2="226" y1="100.8438" y2="102.8438"/><text fill="#000000" font-family="sans-serif" font-size="12" lengthAdjust="spacingAndGlyphs" textLength="24" x="8" y="118.9824">End</text><text fill="#000000" font-family="sans-serif" font-size="12" lengthAdjust="spacingAndGlyphs" textLength="72" x="145" y="118.9824">10.10.2019</text><line style="stroke: #000000; stroke-width: 1.0;" x1="143" x2="226" y1="121.8125" y2="121.8125"/><line style="stroke: #000000; stroke-width: 1.0;" x1="143" x2="143" y1="118.8125" y2="120.8125"/><line style="stroke: #000000; stroke-width: 1.0;" x1="226" x2="226" y1="118.8125" y2="120.8125"/><rect fill="#EEEEEE" height="17.9688" rx="5" ry="5" style="stroke: #000000; stroke-width: 2.5;" width="44" x="10.5" y="128.3125"/><text fill="#000000" font-family="sans-serif" font-size="12" lengthAdjust="spacingAndGlyphs" textLength="31" x="17" y="141.4512">Start</text><line style="stroke: #000000; stroke-width: 1.0;" x1="6" x2="232" y1="6" y2="6"/><line style="stroke: #000000; stroke-width: 1.0;" x1="6" x2="232" y1="150.7813" y2="150.7813"/><line style="stroke: #000000; stroke-width: 1.0;" x1="6" x2="6" y1="6" y2="150.7813"/><line style="stroke: #000000; stroke-width: 1.0;" x1="232" x2="232" y1="6" y2="150.7813"/></g></svg>