<?xml version="1.0" encoding="UTF-8" standalone="no"?><svg xmlns="http://www.w3.org/2000/svg" xmlns:xlink="http://www.w3.org/1999/xlink" contentScriptType="application/ecmascript" contentStyleType="text/css" height="134px" preserveAspectRatio="none" style="width:706px;height:134px;" version="1.1" viewBox="0 0 706 134" width="706px" zoomAndPan="magnify"><defs><filter height="300%" id="f2hj37whx5pic" width="300%" x="-1" y="-1"><feGaussianBlur result="blurOut" stdDeviation="2.0"/><feColorMatrix in="blurOut" result="blurOut2" type="matrix" values="0 0 0 0 0 0 0 0 0 0 0 0 0 0 0 0 0 0 .4 0"/><feOffset dx="4.0" dy="4.0" in="blurOut2" result="blurOut3"/><feBlend in="SourceGraphic" in2="blurOut3" mode="normal"/></filter></defs><g><ellipse cx="16" cy="65.5" fill="#000000" filter="url(#f2hj37whx5pic)" rx="10" ry="10" style="stroke: none; stroke-width: 1.0;"/><rect fill="#FEFECE" filter="url(#f2hj37whx5pic)" height="115" rx="12.5" ry="12.5" style="stroke: #A80036; stroke-width: 1.5;" width="237" x="46.5" y="8"/><svg x="56.5" y="18"><defs/><g><text fill="#000000" font-family="sans-serif" font-size="12" lengthAdjust="spacingAndGlyphs" textLength="44" x="10" y="18.1387">Search</text><line style="stroke: #000000; stroke-width: 1.0;" x1="8" x2="187" y1="20.9688" y2="20.9688"/><line style="stroke: #000000; stroke-width: 1.0;" x1="8" x2="8" y1="17.9688" y2="19.9688"/><line style="stroke: #000000; stroke-width: 1.0;" x1="187" x2="187" y1="17.9688" y2="19.9688"/><path d="M194,8 L192,11 L194,14 L200,14 L200,8 L194,8 M195.5,8.781 L197,10.281 L198.5,8.781 L199.219,9.5 L197.719,11 L199.219,12.5 L198.5,13.219 L197,11.719 L195.5,13.219 L194.781,12.5 L196.281,11 L194.781,9.5 L195.5,8.781 " fill="#000000" style="stroke: ; stroke-width: 0.0; stroke-dasharray: ;"/><text fill="#000000" font-family="sans-serif" font-size="12" lengthAdjust="spacingAndGlyphs" textLength="36" x="7" y="38.1074">Name</text><text fill="#000000" font-family="sans-serif" font-size="12" lengthAdjust="spacingAndGlyphs" textLength="22" x="60" y="38.1074">Ask</text><text fill="#000000" font-family="sans-serif" font-size="12" lengthAdjust="spacingAndGlyphs" textLength="19" x="130" y="38.1074">Bid</text><path d="M208.031,26.9688 L205,29.9688 L204,28.9688 L201,31.9998 L202,32.9998 L204,30.9688 L205,31.9688 L209,27.9688 L208.031,26.9688 M201,33.9688 L201,34.9688 L209,34.9688 L209,33.9688 L201,33.9688 " fill="#000000" style="stroke: ; stroke-width: 0.0; stroke-dasharray: ;"/><text fill="#000000" font-family="sans-serif" font-size="12" lengthAdjust="spacingAndGlyphs" textLength="51" x="7" y="54.0762">EURUSD</text><text fill="#000000" font-family="sans-serif" font-size="12" lengthAdjust="spacingAndGlyphs" textLength="52" x="60" y="54.0762">1.12345</text><text fill="#000000" font-family="sans-serif" font-size="12" lengthAdjust="spacingAndGlyphs" textLength="52" x="130" y="54.0762">1.12345</text><path d="M204,42.9375 L204,45.9375 L201,45.9375 L201,47.9375 L204,47.9375 L204,50.9375 L206,50.9375 L206,47.9375 L209,47.9375 L209,45.9375 L206,45.9375 L206,42.9375 L204,42.9375 " fill="#000000" style="stroke: ; stroke-width: 0.0; stroke-dasharray: ;"/><text fill="#000000" font-family="sans-serif" font-size="12" lengthAdjust="spacingAndGlyphs" textLength="51" x="7" y="70.0449">GBPUSD</text><text fill="#000000" font-family="sans-serif" font-size="12" lengthAdjust="spacingAndGlyphs" textLength="52" x="60" y="70.0449">1.12345</text><text fill="#000000" font-family="sans-serif" font-size="12" lengthAdjust="spacingAndGlyphs" textLength="52" x="130" y="70.0449">1.12345</text><path d="M204,58.9063 L204,61.9063 L201,61.9063 L201,63.9063 L204,63.9063 L204,66.9063 L206,66.9063 L206,63.9063 L209,63.9063 L209,61.9063 L206,61.9063 L206,58.9063 L204,58.9063 " fill="#000000" style="stroke: ; stroke-width: 0.0; stroke-dasharray: ;"/><text fill="#000000" font-family="sans-serif" font-size="12" lengthAdjust="spacingAndGlyphs" textLength="44" x="7" y="86.0137">JPYUSD</text><text fill="#000000" font-family="sans-serif" font-size="12" lengthAdjust="spacingAndGlyphs" textLength="68" x="60" y="86.0137">123.12345</text><text fill="#000000" font-family="sans-serif" font-size="12" lengthAdjust="spacingAndGlyphs" textLength="68" x="130" y="86.0137">123.12345</text><path d="M204,74.875 L204,77.875 L201,77.875 L201,79.875 L204,79.875 L204,82.875 L206,82.875 L206,79.875 L209,79.875 L209,77.875 L206,77.875 L206,74.875 L204,74.875 " fill="#000000" style="stroke: ; stroke-width: 0.0; stroke-dasharray: ;"/><line style="stroke: #000000; stroke-width: 1.0;" x1="6" x2="59" y1="25.9688" y2="25.9688"/><line style="stroke: #000000; stroke-width: 1.0;" x1="129" x2="199" y1="57.9063" y2="57.9063"/><line style="stroke: #000000; stroke-width: 1.0;" x1="59" x2="129" y1="25.9688" y2="25.9688"/><line style="stroke: #000000; stroke-width: 1.0;" x1="199" x2="211" y1="57.9063" y2="57.9063"/><line style="stroke: #000000; stroke-width: 1.0;" x1="129" x2="199" y1="25.9688" y2="25.9688"/><line style="stroke: #000000; stroke-width: 1.0;" x1="199" x2="211" y1="25.9688" y2="25.9688"/><line style="stroke: #000000; stroke-width: 1.0;" x1="6" x2="59" y1="73.875" y2="73.875"/><line style="stroke: #000000; stroke-width: 1.0;" x1="59" x2="129" y1="73.875" y2="73.875"/><line style="stroke: #000000; stroke-width: 1.0;" x1="6" x2="59" y1="41.9375" y2="41.9375"/><line style="stroke: #000000; stroke-width: 1.0;" x1="129" x2="199" y1="73.875" y2="73.875"/><line style="stroke: #000000; stroke-width: 1.0;" x1="59" x2="129" y1="41.9375" y2="41.9375"/><line style="stroke: #000000; stroke-width: 1.0;" x1="199" x2="211" y1="73.875" y2="73.875"/><line style="stroke: #000000; stroke-width: 1.0;" x1="129" x2="199" y1="41.9375" y2="41.9375"/><line style="stroke: #000000; stroke-width: 1.0;" x1="199" x2="211" y1="41.9375" y2="41.9375"/><line style="stroke: #000000; stroke-width: 1.0;" x1="6" x2="59" y1="89.8438" y2="89.8438"/><line style="stroke: #000000; stroke-width: 1.0;" x1="59" x2="129" y1="89.8438" y2="89.8438"/><line style="stroke: #000000; stroke-width: 1.0;" x1="129" x2="199" y1="89.8438" y2="89.8438"/><line style="stroke: #000000; stroke-width: 1.0;" x1="6" x2="59" y1="57.9063" y2="57.9063"/><line style="stroke: #000000; stroke-width: 1.0;" x1="199" x2="211" y1="89.8438" y2="89.8438"/><line style="stroke: #000000; stroke-width: 1.0;" x1="59" x2="129" y1="57.9063" y2="57.9063"/><line style="stroke: #000000; stroke-width: 1.0;" x1="6" x2="6" y1="25.9688" y2="41.9375"/><line style="stroke: #000000; stroke-width: 1.0;" x1="129" x2="129" y1="57.9063" y2="73.875"/><line style="stroke: #000000; stroke-width: 1.0;" x1="59" x2="59" y1="25.9688" y2="41.9375"/><line style="stroke: #000000; stroke-width: 1.0;" x1="199" x2="199" y1="57.9063" y2="73.875"/><line style="stroke: #000000; stroke-width: 1.0;" x1="211" x2="211" y1="57.9063" y2="73.875"/><line style="stroke: #000000; stroke-width: 1.0;" x1="129" x2="129" y1="25.9688" y2="41.9375"/><line style="stroke: #000000; stroke-width: 1.0;" x1="199" x2="199" y1="25.9688" y2="41.9375"/><line style="stroke: #000000; stroke-width: 1.0;" x1="211" x2="211" y1="25.9688" y2="41.9375"/><line style="stroke: #000000; stroke-width: 1.0;" x1="6" x2="6" y1="73.875" y2="89.8438"/><line style="stroke: #000000; stroke-width: 1.0;" x1="59" x2="59" y1="73.875" y2="89.8438"/><line style="stroke: #000000; stroke-width: 1.0;" x1="6" x2="6" y1="41.9375" y2="57.9063"/><line style="stroke: #000000; stroke-width: 1.0;" x1="129" x2="129" y1="73.875" y2="89.8438"/><line style="stroke: #000000; stroke-width: 1.0;" x1="59" x2="59" y1="41.9375" y2="57.9063"/><line style="stroke: #000000; stroke-width: 1.0;" x1="199" x2="199" y1="73.875" y2="89.8438"/><line style="stroke: #000000; stroke-width: 1.0;" x1="211" x2="211" y1="73.875" y2="89.8438"/><line style="stroke: #000000; stroke-width: 1.0;" x1="129" x2="129" y1="41.9375" y2="57.9063"/><line style="stroke: #000000; stroke-width: 1.0;" x1="199" x2="199" y1="41.9375" y2="57.9063"/><line style="stroke: #000000; stroke-width: 1.0;" x1="211" x2="211" y1="41.9375" y2="57.9063"/><line style="stroke: #000000; stroke-width: 1.0;" x1="6" x2="6" y1="57.9063" y2="73.875"/><line style="stroke: #000000; stroke-width: 1.0;" x1="59" x2="59" y1="57.9063" y2="73.875"/></g></svg><rect fill="#FEFECE" filter="url(#f2hj37whx5pic)" height="83" rx="12.5" ry="12.5" style="stroke: #A80036; stroke-width: 1.5;" width="205" x="303.5" y="24"/><svg x="313.5" y="34"><defs/><g><text fill="#000000" font-family="sans-serif" font-size="12" lengthAdjust="spacingAndGlyphs" textLength="25" x="10" y="18.1387">EUR</text><line style="stroke: #000000; stroke-width: 1.0;" x1="8" x2="163" y1="20.9688" y2="20.9688"/><line style="stroke: #000000; stroke-width: 1.0;" x1="8" x2="8" y1="17.9688" y2="19.9688"/><line style="stroke: #000000; stroke-width: 1.0;" x1="163" x2="163" y1="17.9688" y2="19.9688"/><path d="M170,8 L168,11 L170,14 L176,14 L176,8 L170,8 M171.5,8.781 L173,10.281 L174.5,8.781 L175.219,9.5 L173.719,11 L175.219,12.5 L174.5,13.219 L173,11.719 L171.5,13.219 L170.781,12.5 L172.281,11 L170.781,9.5 L171.5,8.781 " fill="#000000" style="stroke: ; stroke-width: 0.0; stroke-dasharray: ;"/><text fill="#000000" font-family="sans-serif" font-size="12" lengthAdjust="spacingAndGlyphs" textLength="36" x="7" y="38.1074">Name</text><text fill="#000000" font-family="sans-serif" font-size="12" lengthAdjust="spacingAndGlyphs" textLength="22" x="60" y="38.1074">Ask</text><text fill="#000000" font-family="sans-serif" font-size="12" lengthAdjust="spacingAndGlyphs" textLength="19" x="114" y="38.1074">Bid</text><path d="M176.031,26.9688 L173,29.9688 L172,28.9688 L169,31.9998 L170,32.9998 L172,30.9688 L173,31.9688 L177,27.9688 L176.031,26.9688 M169,33.9688 L169,34.9688 L177,34.9688 L177,33.9688 L169,33.9688 " fill="#000000" style="stroke: ; stroke-width: 0.0; stroke-dasharray: ;"/><text fill="#000000" font-family="sans-serif" font-size="12" lengthAdjust="spacingAndGlyphs" textLength="51" x="7" y="54.0762">EURUSD</text><text fill="#000000" font-family="sans-serif" font-size="12" lengthAdjust="spacingAndGlyphs" textLength="52" x="60" y="54.0762">1.12345</text><text fill="#000000" font-family="sans-serif" font-size="12" lengthAdjust="spacingAndGlyphs" textLength="52" x="114" y="54.0762">1.12345</text><path d="M172,42.9375 L172,45.9375 L169,45.9375 L169,47.9375 L172,47.9375 L172,50.9375 L174,50.9375 L174,47.9375 L177,47.9375 L177,45.9375 L174,45.9375 L174,42.9375 L172,42.9375 " fill="#000000" style="stroke: ; stroke-width: 0.0; stroke-dasharray: ;"/><line style="stroke: #000000; stroke-width: 1.0;" x1="6" x2="59" y1="25.9688" y2="25.9688"/><line style="stroke: #000000; stroke-width: 1.0;" x1="113" x2="167" y1="57.9063" y2="57.9063"/><line style="stroke: #000000; stroke-width: 1.0;" x1="59" x2="113" y1="41.9375" y2="41.9375"/><line style="stroke: #000000; stroke-width: 1.0;" x1="59" x2="113" y1="25.9688" y2="25.9688"/><line style="stroke: #000000; stroke-width: 1.0;" x1="167" x2="179" y1="57.9063" y2="57.9063"/><line style="stroke: #000000; stroke-width: 1.0;" x1="113" x2="167" y1="41.9375" y2="41.9375"/><line style="stroke: #000000; stroke-width: 1.0;" x1="113" x2="167" y1="25.9688" y2="25.9688"/><line style="stroke: #000000; stroke-width: 1.0;" x1="167" x2="179" y1="41.9375" y2="41.9375"/><line style="stroke: #000000; stroke-width: 1.0;" x1="167" x2="179" y1="25.9688" y2="25.9688"/><line style="stroke: #000000; stroke-width: 1.0;" x1="6" x2="59" y1="57.9063" y2="57.9063"/><line style="stroke: #000000; stroke-width: 1.0;" x1="59" x2="113" y1="57.9063" y2="57.9063"/><line style="stroke: #000000; stroke-width: 1.0;" x1="6" x2="59" y1="41.9375" y2="41.9375"/><line style="stroke: #000000; stroke-width: 1.0;" x1="6" x2="6" y1="25.9688" y2="41.9375"/><line style="stroke: #000000; stroke-width: 1.0;" x1="59" x2="59" y1="41.9375" y2="57.9063"/><line style="stroke: #000000; stroke-width: 1.0;" x1="59" x2="59" y1="25.9688" y2="41.9375"/><line style="stroke: #000000; stroke-width: 1.0;" x1="113" x2="113" y1="41.9375" y2="57.9063"/><line style="stroke: #000000; stroke-width: 1.0;" x1="113" x2="113" y1="25.9688" y2="41.9375"/><line style="stroke: #000000; stroke-width: 1.0;" x1="167" x2="167" y1="41.9375" y2="57.9063"/><line style="stroke: #000000; stroke-width: 1.0;" x1="179" x2="179" y1="41.9375" y2="57.9063"/><line style="stroke: #000000; stroke-width: 1.0;" x1="167" x2="167" y1="25.9688" y2="41.9375"/><line style="stroke: #000000; stroke-width: 1.0;" x1="179" x2="179" y1="25.9688" y2="41.9375"/><line style="stroke: #000000; stroke-width: 1.0;" x1="6" x2="6" y1="41.9375" y2="57.9063"/></g></svg><rect fill="#FEFECE" filter="url(#f2hj37whx5pic)" height="83" rx="12.5" ry="12.5" style="stroke: #A80036; stroke-width: 1.5;" width="167" x="528.5" y="24"/><svg x="538.5" y="34"><defs/><g><text fill="#000000" font-family="sans-serif" font-size="12" lengthAdjust="spacingAndGlyphs" textLength="41" x="10" y="18.1387">ERROR</text><line style="stroke: #000000; stroke-width: 1.0;" x1="8" x2="115" y1="20.9688" y2="20.9688"/><line style="stroke: #000000; stroke-width: 1.0;" x1="8" x2="8" y1="17.9688" y2="19.9688"/><line style="stroke: #000000; stroke-width: 1.0;" x1="115" x2="115" y1="17.9688" y2="19.9688"/><path d="M122,8 L120,11 L122,14 L128,14 L128,8 L122,8 M123.5,8.781 L125,10.281 L126.5,8.781 L127.219,9.5 L125.719,11 L127.219,12.5 L126.5,13.219 L125,11.719 L123.5,13.219 L122.781,12.5 L124.281,11 L122.781,9.5 L123.5,8.781 " fill="#000000" style="stroke: ; stroke-width: 0.0; stroke-dasharray: ;"/><text fill="#000000" font-family="sans-serif" font-size="12" lengthAdjust="spacingAndGlyphs" textLength="36" x="7" y="38.1074">Name</text><text fill="#000000" font-family="sans-serif" font-size="12" lengthAdjust="spacingAndGlyphs" textLength="22" x="45" y="38.1074">Ask</text><text fill="#000000" font-family="sans-serif" font-size="12" lengthAdjust="spacingAndGlyphs" textLength="19" x="69" y="38.1074">Bid</text><path d="M98.031,26.9688 L95,29.9688 L94,28.9688 L91,31.9998 L92,32.9998 L94,30.9688 L95,31.9688 L99,27.9688 L98.031,26.9688 M91,33.9688 L91,34.9688 L99,34.9688 L99,33.9688 L91,33.9688 " fill="#000000" style="stroke: ; stroke-width: 0.0; stroke-dasharray: ;"/><text fill="#000000" font-family="sans-serif" font-size="12" lengthAdjust="spacingAndGlyphs" textLength="133" x="7" y="54.0762">Instrument not found</text><line style="stroke: #000000; stroke-width: 1.0;" x1="6" x2="44" y1="25.9688" y2="25.9688"/><line style="stroke: #000000; stroke-width: 1.0;" x1="68" x2="89" y1="57.9063" y2="57.9063"/><line style="stroke: #000000; stroke-width: 1.0;" x1="44" x2="68" y1="41.9375" y2="41.9375"/><line style="stroke: #000000; stroke-width: 1.0;" x1="44" x2="68" y1="25.9688" y2="25.9688"/><line style="stroke: #000000; stroke-width: 1.0;" x1="89" x2="141" y1="57.9063" y2="57.9063"/><line style="stroke: #000000; stroke-width: 1.0;" x1="68" x2="89" y1="41.9375" y2="41.9375"/><line style="stroke: #000000; stroke-width: 1.0;" x1="68" x2="89" y1="25.9688" y2="25.9688"/><line style="stroke: #000000; stroke-width: 1.0;" x1="89" x2="141" y1="41.9375" y2="41.9375"/><line style="stroke: #000000; stroke-width: 1.0;" x1="89" x2="141" y1="25.9688" y2="25.9688"/><line style="stroke: #000000; stroke-width: 1.0;" x1="6" x2="44" y1="57.9063" y2="57.9063"/><line style="stroke: #000000; stroke-width: 1.0;" x1="44" x2="68" y1="57.9063" y2="57.9063"/><line style="stroke: #000000; stroke-width: 1.0;" x1="6" x2="44" y1="41.9375" y2="41.9375"/><line style="stroke: #000000; stroke-width: 1.0;" x1="6" x2="6" y1="25.9688" y2="41.9375"/><line style="stroke: #000000; stroke-width: 1.0;" x1="44" x2="44" y1="25.9688" y2="41.9375"/><line style="stroke: #000000; stroke-width: 1.0;" x1="68" x2="68" y1="25.9688" y2="41.9375"/><line style="stroke: #000000; stroke-width: 1.0;" x1="141" x2="141" y1="41.9375" y2="57.9063"/><line style="stroke: #000000; stroke-width: 1.0;" x1="89" x2="89" y1="25.9688" y2="41.9375"/><line style="stroke: #000000; stroke-width: 1.0;" x1="141" x2="141" y1="25.9688" y2="41.9375"/><line style="stroke: #000000; stroke-width: 1.0;" x1="6" x2="6" y1="41.9375" y2="57.9063"/></g></svg><!--link start to emptysearch--><path d="M26.1855,65.5 C31.2013,65.5 36.2171,65.5 41.2328,65.5 " fill="none" id="start-emptysearch" style="stroke: #A80036; stroke-width: 1.0;"/><polygon fill="#A80036" points="46.2486,65.5,37.2486,61.5,41.2486,65.5,37.2486,69.5,46.2486,65.5" style="stroke: #A80036; stroke-width: 1.0;"/><!--link emptysearch to eursearch--><path d="M283.617,65.5 C288.415,65.5 293.213,65.5 298.011,65.5 " fill="none" id="emptysearch-eursearch" style="stroke: #A80036; stroke-width: 1.0;"/><polygon fill="#A80036" points="303.218,65.5,294.218,61.5,298.218,65.5,294.218,69.5,303.218,65.5" style="stroke: #A80036; stroke-width: 1.0;"/><!--link eursearch to {{\nsalt\n{\n{\n"ERROR        " | <&delete>\n}\n{#\nName | Ask | Bid | <&graph>\nInstrument not found | * | * | *\n}\n}\n}}--><path d="M508.598,65.5 C513.443,65.5 518.287,65.5 523.132,65.5 " fill="none" id="eursearch-{{\nsalt\n{\n{\n&quot;ERROR        &quot; | &lt;&amp;delete&gt;\n}\n{#\nName | Ask | Bid | &lt;&amp;graph&gt;\nInstrument not found | * | * | *\n}\n}\n}}" style="stroke: #A80036; stroke-width: 1.0;"/><polygon fill="#A80036" points="528.39,65.5,519.39,61.5,523.39,65.5,519.39,69.5,528.39,65.5" style="stroke: #A80036; stroke-width: 1.0;"/><!--
@startuml
(*) -right-> "
{{
salt
{
{
"Search                " | <&delete>
}
{#
Name | Ask | Bid | <&graph>
EURUSD | 1.12345 | 1.12345 | <&plus>
GBPUSD | 1.12345 | 1.12345 | <&plus>
JPYUSD | 123.12345 | 123.12345 | <&plus>
}
}
}}
" as emptysearch

emptysearch -right-> "
{{
salt
{
{
"EUR                " | <&delete>
}
{#
Name | Ask | Bid | <&graph>
EURUSD | 1.12345 | 1.12345 | <&plus>
}
}
}}
" as eursearch

eursearch -right-> "
{{
salt
{
{
"ERROR        " | <&delete>
}
{#
Name | Ask | Bid | <&graph>
Instrument not found | * | * | *
}
}
}}
"
@enduml

PlantUML version 1.2018.10(Sat Aug 25 19:02:59 CEST 2018)
(APACHE source distribution)
Java Runtime: Java(TM) SE Runtime Environment
JVM: Java HotSpot(TM) 64-Bit Server VM
Java Version: 11.0.1+13-LTS
Operating System: Linux
OS Version: 4.9.0-8-amd64
Default Encoding: UTF-8
Language: fr
Country: FR
--></g></svg>