<?xml version="1.0" encoding="UTF-8" standalone="no"?><svg xmlns="http://www.w3.org/2000/svg" xmlns:xlink="http://www.w3.org/1999/xlink" contentScriptType="application/ecmascript" contentStyleType="text/css" height="44px" preserveAspectRatio="none" style="width:174px;height:44px;" version="1.1" viewBox="0 0 174 44" width="174px" zoomAndPan="magnify"><defs/><g><text fill="#000000" font-family="sans-serif" font-size="12" lengthAdjust="spacingAndGlyphs" textLength="36" x="7" y="18.1387">Name</text><text fill="#000000" font-family="sans-serif" font-size="12" lengthAdjust="spacingAndGlyphs" textLength="22" x="60" y="18.1387">Ask</text><text fill="#000000" font-family="sans-serif" font-size="12" lengthAdjust="spacingAndGlyphs" textLength="19" x="114" y="18.1387">Bid</text><text fill="#000000" font-family="sans-serif" font-size="12" lengthAdjust="spacingAndGlyphs" textLength="51" x="7" y="34.1074">EURUSD</text><text fill="#000000" font-family="sans-serif" font-size="12" lengthAdjust="spacingAndGlyphs" textLength="52" x="60" y="34.1074">1.12345</text><text fill="#000000" font-family="sans-serif" font-size="12" lengthAdjust="spacingAndGlyphs" textLength="52" x="114" y="34.1074">1.12345</text><line style="stroke: #000000; stroke-width: 1.0;" x1="6" x2="59" y1="6" y2="6"/><line style="stroke: #000000; stroke-width: 1.0;" x1="113" x2="167" y1="37.9375" y2="37.9375"/><line style="stroke: #000000; stroke-width: 1.0;" x1="59" x2="113" y1="21.9688" y2="21.9688"/><line style="stroke: #000000; stroke-width: 1.0;" x1="59" x2="113" y1="6" y2="6"/><line style="stroke: #000000; stroke-width: 1.0;" x1="113" x2="167" y1="21.9688" y2="21.9688"/><line style="stroke: #000000; stroke-width: 1.0;" x1="113" x2="167" y1="6" y2="6"/><line style="stroke: #000000; stroke-width: 1.0;" x1="6" x2="59" y1="37.9375" y2="37.9375"/><line style="stroke: #000000; stroke-width: 1.0;" x1="59" x2="113" y1="37.9375" y2="37.9375"/><line style="stroke: #000000; stroke-width: 1.0;" x1="6" x2="59" y1="21.9688" y2="21.9688"/><line style="stroke: #000000; stroke-width: 1.0;" x1="6" x2="6" y1="6" y2="21.9688"/><line style="stroke: #000000; stroke-width: 1.0;" x1="59" x2="59" y1="21.9688" y2="37.9375"/><line style="stroke: #000000; stroke-width: 1.0;" x1="59" x2="59" y1="6" y2="21.9688"/><line style="stroke: #000000; stroke-width: 1.0;" x1="113" x2="113" y1="21.9688" y2="37.9375"/><line style="stroke: #000000; stroke-width: 1.0;" x1="167" x2="167" y1="21.9688" y2="37.9375"/><line style="stroke: #000000; stroke-width: 1.0;" x1="113" x2="113" y1="6" y2="21.9688"/><line style="stroke: #000000; stroke-width: 1.0;" x1="167" x2="167" y1="6" y2="21.9688"/><line style="stroke: #000000; stroke-width: 1.0;" x1="6" x2="6" y1="21.9688" y2="37.9375"/></g></svg>