<?xml version="1.0" encoding="UTF-8" standalone="no"?><svg xmlns="http://www.w3.org/2000/svg" xmlns:xlink="http://www.w3.org/1999/xlink" contentScriptType="application/ecmascript" contentStyleType="text/css" height="229px" preserveAspectRatio="none" style="width:423px;height:229px;" version="1.1" viewBox="0 0 423 229" width="423px" zoomAndPan="magnify"><defs><filter height="300%" id="fafne7w0mh2z9" width="300%" x="-1" y="-1"><feGaussianBlur result="blurOut" stdDeviation="2.0"/><feColorMatrix in="blurOut" result="blurOut2" type="matrix" values="0 0 0 0 0 0 0 0 0 0 0 0 0 0 0 0 0 0 .4 0"/><feOffset dx="4.0" dy="4.0" in="blurOut2" result="blurOut3"/><feBlend in="SourceGraphic" in2="blurOut3" mode="normal"/></filter></defs><g><!--cluster Server--><polygon fill="#FFFFFF" filter="url(#fafne7w0mh2z9)" points="22,34,32,24,303,24,303,207,293,217,22,217,22,34" style="stroke: #000000; stroke-width: 1.5;"/><line style="stroke: #000000; stroke-width: 1.5;" x1="293" x2="302" y1="34" y2="25"/><line style="stroke: #000000; stroke-width: 1.5;" x1="22" x2="293" y1="34" y2="34"/><line style="stroke: #000000; stroke-width: 1.5;" x1="293" x2="293" y1="34" y2="217"/><text fill="#000000" font-family="sans-serif" font-size="14" font-weight="bold" lengthAdjust="spacingAndGlyphs" textLength="53" x="132" y="49.9951">Server</text><!--entity ReverseProxy--><rect fill="#FEFECE" filter="url(#fafne7w0mh2z9)" height="36.2969" style="stroke: #A80036; stroke-width: 1.5;" width="118" x="169" y="64"/><rect fill="#FEFECE" height="5" style="stroke: #A80036; stroke-width: 1.5;" width="10" x="164" y="69"/><rect fill="#FEFECE" height="5" style="stroke: #A80036; stroke-width: 1.5;" width="10" x="164" y="90.2969"/><text fill="#000000" font-family="sans-serif" font-size="14" lengthAdjust="spacingAndGlyphs" textLength="98" x="179" y="86.9951">Reverse Proxy</text><!--entity Dispatcher--><rect fill="#FEFECE" filter="url(#fafne7w0mh2z9)" height="36.2969" style="stroke: #A80036; stroke-width: 1.5;" width="95" x="38.5" y="64"/><rect fill="#FEFECE" height="5" style="stroke: #A80036; stroke-width: 1.5;" width="10" x="33.5" y="69"/><rect fill="#FEFECE" height="5" style="stroke: #A80036; stroke-width: 1.5;" width="10" x="33.5" y="90.2969"/><text fill="#000000" font-family="sans-serif" font-size="14" lengthAdjust="spacingAndGlyphs" textLength="75" x="48.5" y="86.9951">Dispatcher</text><!--entity Service1--><rect fill="#FEFECE" filter="url(#fafne7w0mh2z9)" height="36.2969" style="stroke: #A80036; stroke-width: 1.5;" width="79" x="53.5" y="165"/><rect fill="#FEFECE" height="5" style="stroke: #A80036; stroke-width: 1.5;" width="10" x="48.5" y="170"/><rect fill="#FEFECE" height="5" style="stroke: #A80036; stroke-width: 1.5;" width="10" x="48.5" y="191.2969"/><text fill="#000000" font-family="sans-serif" font-size="14" lengthAdjust="spacingAndGlyphs" textLength="59" x="63.5" y="187.9951">Service1</text><!--entity ServiceX--><rect fill="#FEFECE" filter="url(#fafne7w0mh2z9)" height="36.2969" style="stroke: #A80036; stroke-width: 1.5;" width="79" x="181.5" y="165"/><rect fill="#FEFECE" height="5" style="stroke: #A80036; stroke-width: 1.5;" width="10" x="176.5" y="170"/><rect fill="#FEFECE" height="5" style="stroke: #A80036; stroke-width: 1.5;" width="10" x="176.5" y="191.2969"/><text fill="#000000" font-family="sans-serif" font-size="14" lengthAdjust="spacingAndGlyphs" textLength="59" x="191.5" y="187.9951">ServiceX</text><!--entity Client--><polygon fill="#FEFECE" filter="url(#fafne7w0mh2z9)" points="322.5,69,332.5,59,401.5,59,401.5,95.2969,391.5,105.2969,322.5,105.2969,322.5,69" style="stroke: #000000; stroke-width: 1.5;"/><line style="stroke: #000000; stroke-width: 1.5;" x1="391.5" x2="400.5" y1="69" y2="60"/><line style="stroke: #000000; stroke-width: 1.5;" x1="322.5" x2="391.5" y1="69" y2="69"/><line style="stroke: #000000; stroke-width: 1.5;" x1="391.5" x2="391.5" y1="69" y2="105.2969"/><text fill="#000000" font-family="sans-serif" font-size="14" lengthAdjust="spacingAndGlyphs" textLength="39" x="337.5" y="91.9951">Client</text><!--link Dispatcher to ReverseProxy--><path d="M133.703,82 C145.367,82 157.032,82 168.696,82 " fill="none" id="Dispatcher-ReverseProxy" style="stroke: #A80036; stroke-width: 1.0;"/><!--link Dispatcher to Service1--><path d="M87.2193,100.244 C88.5041,118.415 90.5152,146.8572 91.7947,164.9531 " fill="none" id="Dispatcher-Service1" style="stroke: #A80036; stroke-width: 1.0;"/><!--link Dispatcher to ServiceX--><path d="M109.207,100.019 C133.934,118.152 172.86,146.6971 197.644,164.8721 " fill="none" id="Dispatcher-ServiceX" style="stroke: #A80036; stroke-width: 1.0;"/><!--link ReverseProxy to Service1--><path d="M204.793,100.019 C180.066,118.152 141.14,146.6971 116.356,164.8721 " fill="none" id="ReverseProxy-Service1" style="stroke: #A80036; stroke-width: 1.0;"/><!--link ReverseProxy to ServiceX--><path d="M226.781,100.244 C225.496,118.415 223.485,146.8572 222.205,164.9531 " fill="none" id="ReverseProxy-ServiceX" style="stroke: #A80036; stroke-width: 1.0;"/><!--link Client to ReverseProxy--><path d="M322.235,82 C310.54,82 298.844,82 287.148,82 " fill="none" id="Client-ReverseProxy" style="stroke: #A80036; stroke-width: 1.0;"/><!--
@startuml
node Client

node Server {
    component "Reverse Proxy" as ReverseProxy
    component Dispatcher
    component Service1
    component ServiceX

    ReverseProxy -left- Dispatcher
    Dispatcher -down- Service1
    Dispatcher -down- ServiceX
    ReverseProxy -down- Service1
    ReverseProxy -down- ServiceX
}

Client -right- ReverseProxy
@enduml

PlantUML version 1.2018.10(Sat Aug 25 19:02:59 CEST 2018)
(APACHE source distribution)
Java Runtime: Java(TM) SE Runtime Environment
JVM: Java HotSpot(TM) 64-Bit Server VM
Java Version: 11.0.1+13-LTS
Operating System: Linux
OS Version: 4.9.0-8-amd64
Default Encoding: UTF-8
Language: fr
Country: FR
--></g></svg>