<?xml version="1.0" encoding="UTF-8" standalone="no"?><svg xmlns="http://www.w3.org/2000/svg" xmlns:xlink="http://www.w3.org/1999/xlink" contentScriptType="application/ecmascript" contentStyleType="text/css" height="264px" preserveAspectRatio="none" style="width:150px;height:264px;" version="1.1" viewBox="0 0 150 264" width="150px" zoomAndPan="magnify"><defs><filter height="300%" id="f16707iayqjg1j" width="300%" x="-1" y="-1"><feGaussianBlur result="blurOut" stdDeviation="2.0"/><feColorMatrix in="blurOut" result="blurOut2" type="matrix" values="0 0 0 0 0 0 0 0 0 0 0 0 0 0 0 0 0 0 .4 0"/><feOffset dx="4.0" dy="4.0" in="blurOut2" result="blurOut3"/><feBlend in="SourceGraphic" in2="blurOut3" mode="normal"/></filter></defs><g><!--entity Service--><polygon fill="#FEFECE" filter="url(#f16707iayqjg1j)" points="22,18,32,8,112,8,112,44.2969,102,54.2969,22,54.2969,22,18" style="stroke: #000000; stroke-width: 1.5;"/><line style="stroke: #000000; stroke-width: 1.5;" x1="102" x2="111" y1="18" y2="9"/><line style="stroke: #000000; stroke-width: 1.5;" x1="22" x2="102" y1="18" y2="18"/><line style="stroke: #000000; stroke-width: 1.5;" x1="102" x2="102" y1="18" y2="54.2969"/><text fill="#000000" font-family="sans-serif" font-size="14" lengthAdjust="spacingAndGlyphs" textLength="50" x="37" y="40.9951">Service</text><!--entity Connecteur--><polygon fill="#FEFECE" filter="url(#f16707iayqjg1j)" points="6,124,16,114,128,114,128,150.2969,118,160.2969,6,160.2969,6,124" style="stroke: #000000; stroke-width: 1.5;"/><line style="stroke: #000000; stroke-width: 1.5;" x1="118" x2="127" y1="124" y2="115"/><line style="stroke: #000000; stroke-width: 1.5;" x1="6" x2="118" y1="124" y2="124"/><line style="stroke: #000000; stroke-width: 1.5;" x1="118" x2="118" y1="124" y2="160.2969"/><text fill="#000000" font-family="sans-serif" font-size="14" lengthAdjust="spacingAndGlyphs" textLength="82" x="21" y="146.9951">Connecteur</text><!--entity Broker--><path d="M37,227 C37,224 39,222 42,222 C45,222 47,224 47,227 C47,224 49,222 52,222 C55,222 57,224 57,227 C57,224 59,222 62,222 C65,222 67,224 67,227 C67,224 69,222 72,222 C75,222 77,224 77,227 C77,224 79,222 82,222 C85,222 87,224 87,227 C87,224 89,222 92,222 C95,222 97,224 97,227 C100,227 102,229 102,232 C102,235 100,237 97,237 C100,237 102,239 102,242 C102,245 100,247 97,247 C97,250 94,252 92,252 C89,252 87,250 87,247 C87,250 84,252 82,252 C79,252 77,250 77,247 C77,250 74,252 72,252 C69,252 67,250 67,247 C67,250 64,252 62,252 C59,252 57,250 57,247 C57,250 54,252 52,252 C49,252 47,250 47,247 C47,250 44,252 42,252 C39,252 37,250 37,247 C34,247 32,245 32,242 C32,239 34,237 37,237 C34,237 32,235 32,232 C32,229 34,227 37,227 " fill="#FEFECE" filter="url(#f16707iayqjg1j)" style="stroke: #000000; stroke-width: 1.5;"/><text fill="#000000" font-family="sans-serif" font-size="14" lengthAdjust="spacingAndGlyphs" textLength="46" x="44" y="242.9951">Broker</text><!--link Service to Connecteur--><path d="M56.3542,54.056 C53.8101,70.05 53.573,91.778 55.6429,108.842 " fill="none" id="Service-Connecteur" style="stroke: #A80036; stroke-width: 1.0;"/><polygon fill="#A80036" points="56.3593,113.976,59.0763,104.5093,55.6679,109.024,51.1532,105.6156,56.3593,113.976" style="stroke: #A80036; stroke-width: 1.0;"/><!--link Service to Connecteur--><path d="M79.0296,59.192 C81.218,76.262 80.9637,97.989 78.2666,113.976 " fill="none" id="Service-Connecteur" style="stroke: #A80036; stroke-width: 1.0;"/><polygon fill="#A80036" points="78.272,54.056,75.6289,63.5436,79.002,59.0024,83.5431,62.3756,78.272,54.056" style="stroke: #A80036; stroke-width: 1.0;"/><!--link Connecteur to Broker--><path d="M56.1185,160.4646 C53.6234,176.6612 53.6272,198.4284 56.1297,214.6082 " fill="none" id="Connecteur-Broker" style="stroke: #A80036; stroke-width: 1.0;"/><polygon fill="#A80036" points="57.0742,219.865,59.4194,210.2994,56.1899,214.9438,51.5455,211.7143,57.0742,219.865" style="stroke: #A80036; stroke-width: 1.0;"/><!--link Connecteur to Broker--><path d="M79.2622,165.7042 C81.37,183.0917 80.7858,204.9625 77.5097,219.865 " fill="none" id="Connecteur-Broker" style="stroke: #A80036; stroke-width: 1.0;"/><polygon fill="#A80036" points="78.5216,160.4646,75.8207,169.9359,79.2214,165.4154,83.7419,168.8161,78.5216,160.4646" style="stroke: #A80036; stroke-width: 1.0;"/><!--
@startuml
node Service
node Connecteur
cloud Broker

Service -down-> Connecteur
Service <-down- Connecteur
Connecteur -down-> Broker
Connecteur <-down- Broker
@enduml

PlantUML version 1.2018.10(Sat Aug 25 19:02:59 CEST 2018)
(APACHE source distribution)
Java Runtime: Java(TM) SE Runtime Environment
JVM: Java HotSpot(TM) 64-Bit Server VM
Java Version: 11.0.1+13-LTS
Operating System: Linux
OS Version: 4.9.0-8-amd64
Default Encoding: UTF-8
Language: fr
Country: FR
--></g></svg>