<?xml version="1.0" encoding="UTF-8" standalone="no"?><svg xmlns="http://www.w3.org/2000/svg" xmlns:xlink="http://www.w3.org/1999/xlink" contentScriptType="application/ecmascript" contentStyleType="text/css" height="156px" preserveAspectRatio="none" style="width:389px;height:156px;" version="1.1" viewBox="0 0 389 156" width="389px" zoomAndPan="magnify"><defs><filter height="300%" id="flmi4rpzzs0hq" width="300%" x="-1" y="-1"><feGaussianBlur result="blurOut" stdDeviation="2.0"/><feColorMatrix in="blurOut" result="blurOut2" type="matrix" values="0 0 0 0 0 0 0 0 0 0 0 0 0 0 0 0 0 0 .4 0"/><feOffset dx="4.0" dy="4.0" in="blurOut2" result="blurOut3"/><feBlend in="SourceGraphic" in2="blurOut3" mode="normal"/></filter></defs><g><ellipse cx="16" cy="76.5" fill="#000000" filter="url(#flmi4rpzzs0hq)" rx="10" ry="10" style="stroke: none; stroke-width: 1.0;"/><rect fill="#FEFECE" filter="url(#flmi4rpzzs0hq)" height="137" rx="12.5" ry="12.5" style="stroke: #A80036; stroke-width: 1.5;" width="122" x="46" y="8"/><svg x="56" y="18"><defs/><g><text fill="#000000" font-family="sans-serif" font-size="12" lengthAdjust="spacingAndGlyphs" textLength="63" x="9" y="31.1074">username</text><line style="stroke: #000000; stroke-width: 1.0;" x1="7" x2="74" y1="33.9375" y2="33.9375"/><line style="stroke: #000000; stroke-width: 1.0;" x1="7" x2="7" y1="30.9375" y2="32.9375"/><line style="stroke: #000000; stroke-width: 1.0;" x1="74" x2="74" y1="30.9375" y2="32.9375"/><line style="stroke: #AAAAAA; stroke-width: 1.0;" x1="6" x2="96" y1="40.4375" y2="40.4375"/><line style="stroke: #AAAAAA; stroke-width: 1.0;" x1="6" x2="96" y1="42.4375" y2="42.4375"/><text fill="#000000" font-family="sans-serif" font-size="12" lengthAdjust="spacingAndGlyphs" textLength="60" x="9" y="57.0762">password</text><line style="stroke: #000000; stroke-width: 1.0;" x1="7" x2="74" y1="59.9063" y2="59.9063"/><line style="stroke: #000000; stroke-width: 1.0;" x1="7" x2="7" y1="56.9063" y2="58.9063"/><line style="stroke: #000000; stroke-width: 1.0;" x1="74" x2="74" y1="56.9063" y2="58.9063"/><line style="stroke: #AAAAAA; stroke-width: 1.0;" x1="6" x2="96" y1="66.4063" y2="66.4063"/><line style="stroke: #AAAAAA; stroke-width: 1.0;" x1="6" x2="96" y1="68.4063" y2="68.4063"/><rect fill="#EEEEEE" height="17.9688" rx="5" ry="5" style="stroke: #000000; stroke-width: 2.5;" width="84" x="8.5" y="74.4063"/><text fill="#000000" font-family="sans-serif" font-size="12" lengthAdjust="spacingAndGlyphs" textLength="70" x="15.5" y="87.5449">connection</text><text fill="#000000" font-family="sans-serif" font-size="12" lengthAdjust="spacingAndGlyphs" textLength="76" x="6" y="108.0137">create profil</text><line style="stroke: #000000; stroke-width: 1.0;" x1="5" x2="96" y1="11.9844" y2="11.9844"/><line style="stroke: #000000; stroke-width: 1.0;" x1="5" x2="96" y1="111.8438" y2="111.8438"/><line style="stroke: #000000; stroke-width: 1.0;" x1="5" x2="5" y1="11.9844" y2="36.9375"/><line style="stroke: #000000; stroke-width: 1.0;" x1="96" x2="96" y1="36.9375" y2="44.9375"/><line style="stroke: #000000; stroke-width: 1.0;" x1="96" x2="96" y1="11.9844" y2="36.9375"/><line style="stroke: #000000; stroke-width: 1.0;" x1="5" x2="5" y1="95.875" y2="111.8438"/><line style="stroke: #000000; stroke-width: 1.0;" x1="5" x2="5" y1="70.9063" y2="95.875"/><line style="stroke: #000000; stroke-width: 1.0;" x1="96" x2="96" y1="95.875" y2="111.8438"/><line style="stroke: #000000; stroke-width: 1.0;" x1="5" x2="5" y1="62.9063" y2="70.9063"/><line style="stroke: #000000; stroke-width: 1.0;" x1="96" x2="96" y1="70.9063" y2="95.875"/><line style="stroke: #000000; stroke-width: 1.0;" x1="5" x2="5" y1="44.9375" y2="62.9063"/><line style="stroke: #000000; stroke-width: 1.0;" x1="96" x2="96" y1="62.9063" y2="70.9063"/><line style="stroke: #000000; stroke-width: 1.0;" x1="5" x2="5" y1="36.9375" y2="44.9375"/><line style="stroke: #000000; stroke-width: 1.0;" x1="96" x2="96" y1="44.9375" y2="62.9063"/><rect fill="#FFFFFF" height="13.9688" style="stroke: #FFFFFF; stroke-width: 1.0;" width="39" x="11" y="5"/><text fill="#000000" font-family="sans-serif" font-size="12" font-weight="bold" lengthAdjust="spacingAndGlyphs" textLength="39" x="11" y="16.1387">Login</text></g></svg><rect fill="#FEFECE" filter="url(#flmi4rpzzs0hq)" height="44" rx="12.5" ry="12.5" style="stroke: #A80036; stroke-width: 1.5;" width="190" x="188" y="54.5"/><svg x="198" y="64.5"><defs/><g><text fill="#000000" font-family="sans-serif" font-size="12" lengthAdjust="spacingAndGlyphs" textLength="158" x="6" y="17.1387">Trading platform inteface</text></g></svg><!--link start to profilform--><path d="M26.3086,76.5 C31.0924,76.5 35.8763,76.5 40.6601,76.5 " fill="none" id="start-profilform" style="stroke: #A80036; stroke-width: 1.0;"/><polygon fill="#A80036" points="45.851,76.5,36.851,72.5,40.851,76.5,36.851,80.5,45.851,76.5" style="stroke: #A80036; stroke-width: 1.0;"/><!--link profilform to {{\nsalt\n{\nTrading platform inteface\n}\n}}--><path d="M168.188,76.5 C173.018,76.5 177.849,76.5 182.679,76.5 " fill="none" id="profilform-{{\nsalt\n{\nTrading platform inteface\n}\n}}" style="stroke: #A80036; stroke-width: 1.0;"/><polygon fill="#A80036" points="187.921,76.5,178.921,72.5,182.921,76.5,178.921,80.5,187.921,76.5" style="stroke: #A80036; stroke-width: 1.0;"/><!--
@startuml
(*) -right-> "
{{
salt
{^<b>Login
"username"
==
"password"
==
[connection]
create profil
}
}}
" as profilform

profilform -right-> "
{{
salt
{
Trading platform inteface
}
}}
"
@enduml

PlantUML version 1.2018.10(Sat Aug 25 19:02:59 CEST 2018)
(APACHE source distribution)
Java Runtime: Java(TM) SE Runtime Environment
JVM: Java HotSpot(TM) 64-Bit Server VM
Java Version: 11.0.1+13-LTS
Operating System: Linux
OS Version: 4.9.0-8-amd64
Default Encoding: UTF-8
Language: fr
Country: FR
--></g></svg>