<?xml version="1.0" encoding="UTF-8" standalone="no"?><svg xmlns="http://www.w3.org/2000/svg" xmlns:xlink="http://www.w3.org/1999/xlink" contentScriptType="application/ecmascript" contentStyleType="text/css" height="245px" preserveAspectRatio="none" style="width:292px;height:245px;" version="1.1" viewBox="0 0 292 245" width="292px" zoomAndPan="magnify"><defs><filter height="300%" id="f1k609wbf9p3ju" width="300%" x="-1" y="-1"><feGaussianBlur result="blurOut" stdDeviation="2.0"/><feColorMatrix in="blurOut" result="blurOut2" type="matrix" values="0 0 0 0 0 0 0 0 0 0 0 0 0 0 0 0 0 0 .4 0"/><feOffset dx="4.0" dy="4.0" in="blurOut2" result="blurOut3"/><feBlend in="SourceGraphic" in2="blurOut3" mode="normal"/></filter></defs><g><!--class ServiceResponse--><rect fill="#FEFECE" filter="url(#f1k609wbf9p3ju)" height="73.6094" id="ServiceResponse" style="stroke: #A80036; stroke-width: 1.5;" width="208" x="35" y="116"/><ellipse cx="76.1" cy="132" fill="#ADD1B2" rx="11" ry="11" style="stroke: #A80036; stroke-width: 1.0;"/><path d="M79.0688,137.6406 Q78.4906,137.9375 77.85,138.0781 Q77.2094,138.2344 76.5063,138.2344 Q74.0063,138.2344 72.6781,136.5938 Q71.3656,134.9375 71.3656,131.8125 Q71.3656,128.6875 72.6781,127.0313 Q74.0063,125.375 76.5063,125.375 Q77.2094,125.375 77.85,125.5313 Q78.5063,125.6875 79.0688,125.9844 L79.0688,128.7031 Q78.4438,128.125 77.85,127.8594 Q77.2563,127.5781 76.6313,127.5781 Q75.2875,127.5781 74.6,128.6563 Q73.9125,129.7188 73.9125,131.8125 Q73.9125,133.9063 74.6,134.9844 Q75.2875,136.0469 76.6313,136.0469 Q77.2563,136.0469 77.85,135.7813 Q78.4438,135.5 79.0688,134.9219 L79.0688,137.6406 Z "/><text fill="#000000" font-family="sans-serif" font-size="12" lengthAdjust="spacingAndGlyphs" textLength="107" x="95.9" y="136.1543">ServiceResponse</text><rect fill="#FFFFFF" height="15.9688" style="stroke: #000000; stroke-width: 1.0; stroke-dasharray: 2.0,2.0;" width="9" x="237" y="113"/><text fill="#000000" font-family="sans-serif" font-size="12" font-style="italic" lengthAdjust="spacingAndGlyphs" textLength="7" x="238" y="125.1387">T</text><line style="stroke: #A80036; stroke-width: 1.5;" x1="36" x2="242" y1="148" y2="148"/><rect fill="none" height="6" style="stroke: #C82930; stroke-width: 1.0;" width="6" x="43" y="156.9023"/><text fill="#000000" font-family="sans-serif" font-size="11" lengthAdjust="spacingAndGlyphs" textLength="182" x="55" y="162.2104">message: ConnectorEventEnum</text><rect fill="none" height="6" style="stroke: #C82930; stroke-width: 1.0;" width="6" x="43" y="169.707"/><text fill="#000000" font-family="sans-serif" font-size="11" lengthAdjust="spacingAndGlyphs" textLength="40" x="55" y="175.0151">data: T</text><line style="stroke: #A80036; stroke-width: 1.5;" x1="36" x2="242" y1="181.6094" y2="181.6094"/><!--class TradingAccount--><rect fill="#FEFECE" filter="url(#f1k609wbf9p3ju)" height="48" id="TradingAccount" style="stroke: #A80036; stroke-width: 1.5;" width="130" x="74" y="8"/><ellipse cx="89" cy="24" fill="#ADD1B2" rx="11" ry="11" style="stroke: #A80036; stroke-width: 1.0;"/><path d="M91.9688,29.6406 Q91.3906,29.9375 90.75,30.0781 Q90.1094,30.2344 89.4063,30.2344 Q86.9063,30.2344 85.5781,28.5938 Q84.2656,26.9375 84.2656,23.8125 Q84.2656,20.6875 85.5781,19.0313 Q86.9063,17.375 89.4063,17.375 Q90.1094,17.375 90.75,17.5313 Q91.4063,17.6875 91.9688,17.9844 L91.9688,20.7031 Q91.3438,20.125 90.75,19.8594 Q90.1563,19.5781 89.5313,19.5781 Q88.1875,19.5781 87.5,20.6563 Q86.8125,21.7188 86.8125,23.8125 Q86.8125,25.9063 87.5,26.9844 Q88.1875,28.0469 89.5313,28.0469 Q90.1563,28.0469 90.75,27.7813 Q91.3438,27.5 91.9688,26.9219 L91.9688,29.6406 Z "/><text fill="#000000" font-family="sans-serif" font-size="12" lengthAdjust="spacingAndGlyphs" textLength="98" x="103" y="28.1543">TradingAccount</text><line style="stroke: #A80036; stroke-width: 1.5;" x1="75" x2="203" y1="40" y2="40"/><line style="stroke: #A80036; stroke-width: 1.5;" x1="75" x2="203" y1="48" y2="48"/><!--link TradingAccount to ServiceResponse--><path d="M139,56.227 C139,69.438 139,86.506 139,102.5669 " fill="none" id="TradingAccount-ServiceResponse" style="stroke: #A80036; stroke-width: 1.0;"/><polygon fill="#A80036" points="139,115.714,143,109.714,139,103.714,135,109.714,139,115.714" style="stroke: #A80036; stroke-width: 1.0;"/><rect fill="#DDDDDD" height="26.2969" rx="5" ry="5" style="stroke: #000000; stroke-width: 1.0;" width="273" x="8" y="208"/><text fill="#000000" font-family="sans-serif" font-size="14" lengthAdjust="spacingAndGlyphs" textLength="261" x="14" y="225.9951">Diagramme de classe - Objet réponse</text><!--
@startuml
legend
Diagramme de classe - Objet réponse
endlegend

class ServiceResponse<T> {
    - message: ConnectorEventEnum
    - data: T
}

class TradingAccount

TradingAccount - -* ServiceResponse
@enduml

PlantUML version 1.2018.10(Sat Aug 25 19:02:59 CEST 2018)
(APACHE source distribution)
Java Runtime: Java(TM) SE Runtime Environment
JVM: Java HotSpot(TM) 64-Bit Server VM
Java Version: 11.0.1+13-LTS
Operating System: Linux
OS Version: 4.9.0-8-amd64
Default Encoding: UTF-8
Language: fr
Country: FR
--></g></svg>