<?xml version="1.0" encoding="UTF-8" standalone="no"?><svg xmlns="http://www.w3.org/2000/svg" xmlns:xlink="http://www.w3.org/1999/xlink" contentScriptType="application/ecmascript" contentStyleType="text/css" height="172px" preserveAspectRatio="none" style="width:308px;height:172px;" version="1.1" viewBox="0 0 308 172" width="308px" zoomAndPan="magnify"><defs><filter height="300%" id="f1kn42ss69gtlg" width="300%" x="-1" y="-1"><feGaussianBlur result="blurOut" stdDeviation="2.0"/><feColorMatrix in="blurOut" result="blurOut2" type="matrix" values="0 0 0 0 0 0 0 0 0 0 0 0 0 0 0 0 0 0 .4 0"/><feOffset dx="4.0" dy="4.0" in="blurOut2" result="blurOut3"/><feBlend in="SourceGraphic" in2="blurOut3" mode="normal"/></filter></defs><g><!--entity Server--><polygon fill="#FEFECE" filter="url(#f1kn42ss69gtlg)" points="104,18,114,8,188,8,188,44.2969,178,54.2969,104,54.2969,104,18" style="stroke: #000000; stroke-width: 1.5;"/><line style="stroke: #000000; stroke-width: 1.5;" x1="178" x2="187" y1="18" y2="9"/><line style="stroke: #000000; stroke-width: 1.5;" x1="104" x2="178" y1="18" y2="18"/><line style="stroke: #000000; stroke-width: 1.5;" x1="178" x2="178" y1="18" y2="54.2969"/><text fill="#000000" font-family="sans-serif" font-size="14" lengthAdjust="spacingAndGlyphs" textLength="44" x="119" y="40.9951">Server</text><!--entity Api1--><polygon fill="#FEFECE" filter="url(#f1kn42ss69gtlg)" points="6,124,16,114,76,114,76,150.2969,66,160.2969,6,160.2969,6,124" style="stroke: #000000; stroke-width: 1.5;"/><line style="stroke: #000000; stroke-width: 1.5;" x1="66" x2="75" y1="124" y2="115"/><line style="stroke: #000000; stroke-width: 1.5;" x1="6" x2="66" y1="124" y2="124"/><line style="stroke: #000000; stroke-width: 1.5;" x1="66" x2="66" y1="124" y2="160.2969"/><text fill="#000000" font-family="sans-serif" font-size="14" lengthAdjust="spacingAndGlyphs" textLength="30" x="21" y="146.9951">Api1</text><!--entity Api2--><polygon fill="#FEFECE" filter="url(#f1kn42ss69gtlg)" points="111,124,121,114,181,114,181,150.2969,171,160.2969,111,160.2969,111,124" style="stroke: #000000; stroke-width: 1.5;"/><line style="stroke: #000000; stroke-width: 1.5;" x1="171" x2="180" y1="124" y2="115"/><line style="stroke: #000000; stroke-width: 1.5;" x1="111" x2="171" y1="124" y2="124"/><line style="stroke: #000000; stroke-width: 1.5;" x1="171" x2="171" y1="124" y2="160.2969"/><text fill="#000000" font-family="sans-serif" font-size="14" lengthAdjust="spacingAndGlyphs" textLength="30" x="126" y="146.9951">Api2</text><!--entity Api3--><polygon fill="#FEFECE" filter="url(#f1kn42ss69gtlg)" points="216,124,226,114,286,114,286,150.2969,276,160.2969,216,160.2969,216,124" style="stroke: #000000; stroke-width: 1.5;"/><line style="stroke: #000000; stroke-width: 1.5;" x1="276" x2="285" y1="124" y2="115"/><line style="stroke: #000000; stroke-width: 1.5;" x1="216" x2="276" y1="124" y2="124"/><line style="stroke: #000000; stroke-width: 1.5;" x1="276" x2="276" y1="124" y2="160.2969"/><text fill="#000000" font-family="sans-serif" font-size="14" lengthAdjust="spacingAndGlyphs" textLength="30" x="231" y="146.9951">Api3</text><!--link Server to Api1--><path d="M123.732,54.056 C105.9133,71.7049 81.0461,96.3353 63.2357,113.9761 " fill="none" id="Server-Api1" style="stroke: #A80036; stroke-width: 1.0;"/><!--link Server to Api2--><path d="M146,54.056 C146,71.7049 146,96.3353 146,113.9761 " fill="none" id="Server-Api2" style="stroke: #A80036; stroke-width: 1.0;"/><!--link Server to Api3--><path d="M168.268,54.056 C186.087,71.7049 210.954,96.3353 228.764,113.9761 " fill="none" id="Server-Api3" style="stroke: #A80036; stroke-width: 1.0;"/><!--
@startuml
node Server
node Api1
node Api2
node Api3

Server -down- Api1
Server -down- Api2
Server -down- Api3
@enduml

PlantUML version 1.2018.10(Sat Aug 25 19:02:59 CEST 2018)
(APACHE source distribution)
Java Runtime: Java(TM) SE Runtime Environment
JVM: Java HotSpot(TM) 64-Bit Server VM
Java Version: 11.0.1+13-LTS
Operating System: Linux
OS Version: 4.9.0-8-amd64
Default Encoding: UTF-8
Language: fr
Country: FR
--></g></svg>