<?xml version="1.0" encoding="UTF-8" standalone="no"?><svg xmlns="http://www.w3.org/2000/svg" xmlns:xlink="http://www.w3.org/1999/xlink" contentScriptType="application/ecmascript" contentStyleType="text/css" height="320px" preserveAspectRatio="none" style="width:290px;height:320px;" version="1.1" viewBox="0 0 290 320" width="290px" zoomAndPan="magnify"><defs><filter height="300%" id="f1g1fu0hrpx5ez" width="300%" x="-1" y="-1"><feGaussianBlur result="blurOut" stdDeviation="2.0"/><feColorMatrix in="blurOut" result="blurOut2" type="matrix" values="0 0 0 0 0 0 0 0 0 0 0 0 0 0 0 0 0 0 .4 0"/><feOffset dx="4.0" dy="4.0" in="blurOut2" result="blurOut3"/><feBlend in="SourceGraphic" in2="blurOut3" mode="normal"/></filter></defs><g><!--cluster Serveur--><polygon fill="#FFFFFF" filter="url(#f1g1fu0hrpx5ez)" points="22,34,32,24,268,24,268,298,258,308,22,308,22,34" style="stroke: #000000; stroke-width: 1.5;"/><line style="stroke: #000000; stroke-width: 1.5;" x1="258" x2="267" y1="34" y2="25"/><line style="stroke: #000000; stroke-width: 1.5;" x1="22" x2="258" y1="34" y2="34"/><line style="stroke: #000000; stroke-width: 1.5;" x1="258" x2="258" y1="34" y2="308"/><text fill="#000000" font-family="sans-serif" font-size="14" font-weight="bold" lengthAdjust="spacingAndGlyphs" textLength="63" x="109.5" y="49.9951">Serveur</text><!--entity reverseproxy--><rect fill="#FEFECE" filter="url(#f1g1fu0hrpx5ez)" height="36.2969" style="stroke: #A80036; stroke-width: 1.5;" width="118" x="86" y="64"/><rect fill="#FEFECE" height="5" style="stroke: #A80036; stroke-width: 1.5;" width="10" x="81" y="69"/><rect fill="#FEFECE" height="5" style="stroke: #A80036; stroke-width: 1.5;" width="10" x="81" y="90.2969"/><text fill="#000000" font-family="sans-serif" font-size="14" lengthAdjust="spacingAndGlyphs" textLength="98" x="96" y="86.9951">Reverse Proxy</text><!--entity dispatcher--><rect fill="#FEFECE" filter="url(#f1g1fu0hrpx5ez)" height="36.2969" style="stroke: #A80036; stroke-width: 1.5;" width="95" x="38.5" y="160"/><rect fill="#FEFECE" height="5" style="stroke: #A80036; stroke-width: 1.5;" width="10" x="33.5" y="165"/><rect fill="#FEFECE" height="5" style="stroke: #A80036; stroke-width: 1.5;" width="10" x="33.5" y="186.2969"/><text fill="#000000" font-family="sans-serif" font-size="14" lengthAdjust="spacingAndGlyphs" textLength="75" x="48.5" y="182.9951">Dispatcher</text><!--entity servicex--><rect fill="#FEFECE" filter="url(#f1g1fu0hrpx5ez)" height="36.2969" style="stroke: #A80036; stroke-width: 1.5;" width="83" x="168.5" y="160"/><rect fill="#FEFECE" height="5" style="stroke: #A80036; stroke-width: 1.5;" width="10" x="163.5" y="165"/><rect fill="#FEFECE" height="5" style="stroke: #A80036; stroke-width: 1.5;" width="10" x="163.5" y="186.2969"/><text fill="#000000" font-family="sans-serif" font-size="14" lengthAdjust="spacingAndGlyphs" textLength="63" x="178.5" y="182.9951">Service X</text><!--entity database--><rect fill="#FEFECE" filter="url(#f1g1fu0hrpx5ez)" height="36.2969" style="stroke: #A80036; stroke-width: 1.5;" width="86" x="104" y="256"/><rect fill="#FEFECE" height="5" style="stroke: #A80036; stroke-width: 1.5;" width="10" x="99" y="261"/><rect fill="#FEFECE" height="5" style="stroke: #A80036; stroke-width: 1.5;" width="10" x="99" y="282.2969"/><text fill="#000000" font-family="sans-serif" font-size="14" lengthAdjust="spacingAndGlyphs" textLength="66" x="114" y="278.9951">Database</text><!--link reverseproxy to dispatcher--><path d="M131.319,104.797 C121.783,119.99 109.116,140.171 99.5986,155.334 " fill="none" id="reverseproxy-dispatcher" style="stroke: #A80036; stroke-width: 1.0;"/><polygon fill="#A80036" points="96.7529,159.868,104.9258,154.3722,99.4113,155.6333,98.1502,150.1188,96.7529,159.868" style="stroke: #A80036; stroke-width: 1.0;"/><polygon fill="#A80036" points="134.178,100.241,126.0068,105.7394,131.5209,104.4766,132.7838,109.9907,134.178,100.241" style="stroke: #A80036; stroke-width: 1.0;"/><!--link dispatcher to servicex--><path d="M139.068,178 C147.168,178 155.268,178 163.368,178 " fill="none" id="dispatcher-servicex" style="stroke: #A80036; stroke-width: 1.0;"/><polygon fill="#A80036" points="168.412,178,159.412,174,163.412,178,159.412,182,168.412,178" style="stroke: #A80036; stroke-width: 1.0;"/><polygon fill="#A80036" points="133.953,178,142.953,182,138.953,178,142.953,174,133.953,178" style="stroke: #A80036; stroke-width: 1.0;"/><!--link reverseproxy to servicex--><path d="M159.776,104.369 C170.396,119.726 184.653,140.344 195.264,155.689 " fill="none" id="reverseproxy-servicex" style="stroke: #A80036; stroke-width: 1.0;"/><polygon fill="#A80036" points="198.154,159.868,196.3248,150.1905,195.31,155.7556,189.7449,154.7409,198.154,159.868" style="stroke: #A80036; stroke-width: 1.0;"/><polygon fill="#A80036" points="156.922,100.241,158.7512,109.9185,159.766,104.3534,165.3311,105.3681,156.922,100.241" style="stroke: #A80036; stroke-width: 1.0;"/><!--link dispatcher to database--><path d="M100.1449,200.797 C110.004,215.99 123.1,236.1709 132.94,251.3345 " fill="none" id="dispatcher-database" style="stroke: #A80036; stroke-width: 1.0;"/><polygon fill="#A80036" points="135.883,255.8683,134.3391,246.1412,133.1612,251.6741,127.6283,250.4961,135.883,255.8683" style="stroke: #A80036; stroke-width: 1.0;"/><polygon fill="#A80036" points="97.1883,196.241,98.7315,205.9682,99.9098,200.4354,105.4426,201.6138,97.1883,196.241" style="stroke: #A80036; stroke-width: 1.0;"/><!--link servicex to database--><path d="M195.391,200.797 C185.209,215.99 171.683,236.1709 161.52,251.3345 " fill="none" id="servicex-database" style="stroke: #A80036; stroke-width: 1.0;"/><polygon fill="#A80036" points="158.482,255.8683,166.8158,250.6196,161.266,251.7151,160.1706,246.1653,158.482,255.8683" style="stroke: #A80036; stroke-width: 1.0;"/><polygon fill="#A80036" points="198.445,196.241,190.1116,201.4902,195.6613,200.3944,196.7571,205.9441,198.445,196.241" style="stroke: #A80036; stroke-width: 1.0;"/><!--
@startuml
node Serveur {
    component "Reverse Proxy" as reverseproxy
    component "Dispatcher" as dispatcher
    component "Service X" as servicex
    component "Database" as database

    reverseproxy <- -> dispatcher
    dispatcher <-right-> servicex
    reverseproxy <- -> servicex

    database <-up-> dispatcher
    database <-up-> servicex
}
@enduml

PlantUML version 1.2018.10(Sat Aug 25 19:02:59 CEST 2018)
(APACHE source distribution)
Java Runtime: Java(TM) SE Runtime Environment
JVM: Java HotSpot(TM) 64-Bit Server VM
Java Version: 11.0.1+13-LTS
Operating System: Linux
OS Version: 4.9.0-8-amd64
Default Encoding: UTF-8
Language: fr
Country: FR
--></g></svg>