<?xml version="1.0" encoding="UTF-8" standalone="no"?><svg xmlns="http://www.w3.org/2000/svg" xmlns:xlink="http://www.w3.org/1999/xlink" contentScriptType="application/ecmascript" contentStyleType="text/css" height="70px" preserveAspectRatio="none" style="width:535px;height:70px;" version="1.1" viewBox="0 0 535 70" width="535px" zoomAndPan="magnify"><defs/><g><text fill="#000000" font-family="sans-serif" font-size="12" lengthAdjust="spacingAndGlyphs" textLength="50" x="8" y="17.1387">Position</text><line style="stroke: #000000; stroke-width: 1.0;" x1="6" x2="6" y1="6" y2="19.9688"/><line style="stroke: #000000; stroke-width: 1.0;" x1="6" x2="61" y1="6" y2="6"/><line style="stroke: #000000; stroke-width: 1.0;" x1="61" x2="61" y1="6" y2="19.9688"/><line style="stroke: #000000; stroke-width: 1.0;" x1="61" x2="71" y1="19.9688" y2="19.9688"/><text fill="#000000" font-family="sans-serif" font-size="12" font-weight="bold" lengthAdjust="spacingAndGlyphs" textLength="49" x="73" y="17.1387">Orders</text><line style="stroke: #000000; stroke-width: 1.0;" x1="71" x2="71" y1="6" y2="19.9688"/><line style="stroke: #000000; stroke-width: 1.0;" x1="71" x2="125" y1="6" y2="6"/><line style="stroke: #000000; stroke-width: 1.0;" x1="125" x2="125" y1="6" y2="19.9688"/><line style="stroke: #000000; stroke-width: 1.0;" x1="125" x2="135" y1="19.9688" y2="19.9688"/><text fill="#000000" font-family="sans-serif" font-size="12" lengthAdjust="spacingAndGlyphs" textLength="58" x="137" y="17.1387">Historical</text><line style="stroke: #000000; stroke-width: 1.0;" x1="135" x2="135" y1="6" y2="19.9688"/><line style="stroke: #000000; stroke-width: 1.0;" x1="135" x2="198" y1="6" y2="6"/><line style="stroke: #000000; stroke-width: 1.0;" x1="198" x2="198" y1="6" y2="19.9688"/><line style="stroke: #000000; stroke-width: 1.0;" x1="198" x2="208" y1="19.9688" y2="19.9688"/><text fill="#000000" font-family="sans-serif" font-size="12" lengthAdjust="spacingAndGlyphs" textLength="10" x="7" y="34.1074">#</text><text fill="#000000" font-family="sans-serif" font-size="12" lengthAdjust="spacingAndGlyphs" textLength="68" x="19" y="34.1074">instrument</text><text fill="#000000" font-family="sans-serif" font-size="12" lengthAdjust="spacingAndGlyphs" textLength="65" x="89" y="34.1074">open date</text><text fill="#000000" font-family="sans-serif" font-size="12" lengthAdjust="spacingAndGlyphs" textLength="23" x="203" y="34.1074">lots</text><text fill="#000000" font-family="sans-serif" font-size="12" lengthAdjust="spacingAndGlyphs" textLength="31" x="228" y="34.1074">price</text><text fill="#000000" font-family="sans-serif" font-size="12" lengthAdjust="spacingAndGlyphs" textLength="10" x="290" y="34.1074">sl</text><text fill="#000000" font-family="sans-serif" font-size="12" lengthAdjust="spacingAndGlyphs" textLength="13" x="344" y="34.1074">tp</text><text fill="#000000" font-family="sans-serif" font-size="12" lengthAdjust="spacingAndGlyphs" textLength="55" x="366" y="34.1074">profit ($)</text><text fill="#000000" font-family="sans-serif" font-size="12" lengthAdjust="spacingAndGlyphs" textLength="19" x="423" y="34.1074">pip</text><text fill="#000000" font-family="sans-serif" font-size="12" lengthAdjust="spacingAndGlyphs" textLength="46" x="461" y="34.1074">actions</text><text fill="#000000" font-family="sans-serif" font-size="12" lengthAdjust="spacingAndGlyphs" textLength="8" x="7" y="50.0762">1</text><text fill="#000000" font-family="sans-serif" font-size="12" lengthAdjust="spacingAndGlyphs" textLength="51" x="19" y="50.0762">EURUSD</text><text fill="#000000" font-family="sans-serif" font-size="12" lengthAdjust="spacingAndGlyphs" textLength="112" x="89" y="50.0762">07.07.1990 12:23</text><text fill="#000000" font-family="sans-serif" font-size="12" lengthAdjust="spacingAndGlyphs" textLength="20" x="203" y="50.0762">1.2</text><text fill="#000000" font-family="sans-serif" font-size="12" lengthAdjust="spacingAndGlyphs" textLength="60" x="228" y="50.0762">1.123452</text><text fill="#000000" font-family="sans-serif" font-size="12" lengthAdjust="spacingAndGlyphs" textLength="52" x="290" y="50.0762">1.23358</text><text fill="#000000" font-family="sans-serif" font-size="12" lengthAdjust="spacingAndGlyphs" textLength="20" x="344" y="50.0762">0.0</text><text fill="#000000" font-family="sans-serif" font-size="12" lengthAdjust="spacingAndGlyphs" textLength="20" x="366" y="50.0762">3.4</text><text fill="#000000" font-family="sans-serif" font-size="12" lengthAdjust="spacingAndGlyphs" textLength="36" x="423" y="50.0762">23.74</text><rect fill="#EEEEEE" height="17.9688" rx="5" ry="5" style="stroke: #000000; stroke-width: 2.5;" width="60" x="463.5" y="41.4375"/><path d="M479.5,47.4063 L477.5,50.4063 L479.5,53.4063 L485.5,53.4063 L485.5,47.4063 L479.5,47.4063 M481,48.1873 L482.5,49.6873 L484,48.1873 L484.719,48.9063 L483.219,50.4063 L484.719,51.9063 L484,52.6253 L482.5,51.1253 L481,52.6253 L480.281,51.9063 L481.781,50.4063 L480.281,48.9063 L481,48.1873 " fill="#000000" style="stroke: ; stroke-width: 0.0; stroke-dasharray: ;"/><text fill="#000000" font-family="sans-serif" font-size="12" lengthAdjust="spacingAndGlyphs" textLength="14" x="486.5" y="54.5762">] [</text><path d="M507.5,46.4063 L506.5,47.4063 L508.5,49.4063 L509.5,48.4063 L507.5,46.4063 M505.5,48.4063 L501.5,52.4063 L501.5,54.4063 L503.5,54.4063 L507.5,50.4063 L505.5,48.4063 " fill="#000000" style="stroke: ; stroke-width: 0.0; stroke-dasharray: ;"/><line style="stroke: #000000; stroke-width: 1.0;" x1="6" x2="18" y1="21.9688" y2="21.9688"/><line style="stroke: #000000; stroke-width: 1.0;" x1="18" x2="88" y1="21.9688" y2="21.9688"/><line style="stroke: #000000; stroke-width: 1.0;" x1="88" x2="202" y1="21.9688" y2="21.9688"/><line style="stroke: #000000; stroke-width: 1.0;" x1="202" x2="227" y1="21.9688" y2="21.9688"/><line style="stroke: #000000; stroke-width: 1.0;" x1="227" x2="289" y1="21.9688" y2="21.9688"/><line style="stroke: #000000; stroke-width: 1.0;" x1="289" x2="343" y1="21.9688" y2="21.9688"/><line style="stroke: #000000; stroke-width: 1.0;" x1="343" x2="365" y1="21.9688" y2="21.9688"/><line style="stroke: #000000; stroke-width: 1.0;" x1="365" x2="422" y1="21.9688" y2="21.9688"/><line style="stroke: #000000; stroke-width: 1.0;" x1="422" x2="460" y1="21.9688" y2="21.9688"/><line style="stroke: #000000; stroke-width: 1.0;" x1="460" x2="527" y1="21.9688" y2="21.9688"/><line style="stroke: #000000; stroke-width: 1.0;" x1="6" x2="18" y1="62.9063" y2="62.9063"/><line style="stroke: #000000; stroke-width: 1.0;" x1="18" x2="88" y1="62.9063" y2="62.9063"/><line style="stroke: #000000; stroke-width: 1.0;" x1="88" x2="202" y1="62.9063" y2="62.9063"/><line style="stroke: #000000; stroke-width: 1.0;" x1="202" x2="227" y1="62.9063" y2="62.9063"/><line style="stroke: #000000; stroke-width: 1.0;" x1="227" x2="289" y1="62.9063" y2="62.9063"/><line style="stroke: #000000; stroke-width: 1.0;" x1="289" x2="343" y1="62.9063" y2="62.9063"/><line style="stroke: #000000; stroke-width: 1.0;" x1="343" x2="365" y1="62.9063" y2="62.9063"/><line style="stroke: #000000; stroke-width: 1.0;" x1="365" x2="422" y1="62.9063" y2="62.9063"/><line style="stroke: #000000; stroke-width: 1.0;" x1="422" x2="460" y1="62.9063" y2="62.9063"/><line style="stroke: #000000; stroke-width: 1.0;" x1="460" x2="527" y1="62.9063" y2="62.9063"/><line style="stroke: #000000; stroke-width: 1.0;" x1="6" x2="18" y1="37.9375" y2="37.9375"/><line style="stroke: #000000; stroke-width: 1.0;" x1="18" x2="88" y1="37.9375" y2="37.9375"/><line style="stroke: #000000; stroke-width: 1.0;" x1="88" x2="202" y1="37.9375" y2="37.9375"/><line style="stroke: #000000; stroke-width: 1.0;" x1="202" x2="227" y1="37.9375" y2="37.9375"/><line style="stroke: #000000; stroke-width: 1.0;" x1="227" x2="289" y1="37.9375" y2="37.9375"/><line style="stroke: #000000; stroke-width: 1.0;" x1="289" x2="343" y1="37.9375" y2="37.9375"/><line style="stroke: #000000; stroke-width: 1.0;" x1="343" x2="365" y1="37.9375" y2="37.9375"/><line style="stroke: #000000; stroke-width: 1.0;" x1="365" x2="422" y1="37.9375" y2="37.9375"/><line style="stroke: #000000; stroke-width: 1.0;" x1="422" x2="460" y1="37.9375" y2="37.9375"/><line style="stroke: #000000; stroke-width: 1.0;" x1="460" x2="527" y1="37.9375" y2="37.9375"/><line style="stroke: #000000; stroke-width: 1.0;" x1="6" x2="6" y1="21.9688" y2="37.9375"/><line style="stroke: #000000; stroke-width: 1.0;" x1="18" x2="18" y1="21.9688" y2="37.9375"/><line style="stroke: #000000; stroke-width: 1.0;" x1="88" x2="88" y1="21.9688" y2="37.9375"/><line style="stroke: #000000; stroke-width: 1.0;" x1="202" x2="202" y1="21.9688" y2="37.9375"/><line style="stroke: #000000; stroke-width: 1.0;" x1="227" x2="227" y1="21.9688" y2="37.9375"/><line style="stroke: #000000; stroke-width: 1.0;" x1="289" x2="289" y1="21.9688" y2="37.9375"/><line style="stroke: #000000; stroke-width: 1.0;" x1="343" x2="343" y1="21.9688" y2="37.9375"/><line style="stroke: #000000; stroke-width: 1.0;" x1="365" x2="365" y1="21.9688" y2="37.9375"/><line style="stroke: #000000; stroke-width: 1.0;" x1="422" x2="422" y1="21.9688" y2="37.9375"/><line style="stroke: #000000; stroke-width: 1.0;" x1="460" x2="460" y1="21.9688" y2="37.9375"/><line style="stroke: #000000; stroke-width: 1.0;" x1="527" x2="527" y1="21.9688" y2="37.9375"/><line style="stroke: #000000; stroke-width: 1.0;" x1="6" x2="6" y1="37.9375" y2="62.9063"/><line style="stroke: #000000; stroke-width: 1.0;" x1="18" x2="18" y1="37.9375" y2="62.9063"/><line style="stroke: #000000; stroke-width: 1.0;" x1="88" x2="88" y1="37.9375" y2="62.9063"/><line style="stroke: #000000; stroke-width: 1.0;" x1="202" x2="202" y1="37.9375" y2="62.9063"/><line style="stroke: #000000; stroke-width: 1.0;" x1="227" x2="227" y1="37.9375" y2="62.9063"/><line style="stroke: #000000; stroke-width: 1.0;" x1="289" x2="289" y1="37.9375" y2="62.9063"/><line style="stroke: #000000; stroke-width: 1.0;" x1="343" x2="343" y1="37.9375" y2="62.9063"/><line style="stroke: #000000; stroke-width: 1.0;" x1="365" x2="365" y1="37.9375" y2="62.9063"/><line style="stroke: #000000; stroke-width: 1.0;" x1="422" x2="422" y1="37.9375" y2="62.9063"/><line style="stroke: #000000; stroke-width: 1.0;" x1="460" x2="460" y1="37.9375" y2="62.9063"/><line style="stroke: #000000; stroke-width: 1.0;" x1="527" x2="527" y1="37.9375" y2="62.9063"/><line style="stroke: #000000; stroke-width: 1.0;" x1="5" x2="528" y1="5" y2="5"/><line style="stroke: #000000; stroke-width: 1.0;" x1="5" x2="528" y1="63.9063" y2="63.9063"/><line style="stroke: #000000; stroke-width: 1.0;" x1="5" x2="5" y1="5" y2="20.9688"/><line style="stroke: #000000; stroke-width: 1.0;" x1="528" x2="528" y1="20.9688" y2="63.9063"/><line style="stroke: #000000; stroke-width: 1.0;" x1="528" x2="528" y1="5" y2="20.9688"/><line style="stroke: #000000; stroke-width: 1.0;" x1="5" x2="5" y1="20.9688" y2="63.9063"/></g></svg>