<?xml version="1.0" encoding="UTF-8" standalone="no"?><svg xmlns="http://www.w3.org/2000/svg" xmlns:xlink="http://www.w3.org/1999/xlink" contentScriptType="application/ecmascript" contentStyleType="text/css" height="73px" preserveAspectRatio="none" style="width:251px;height:73px;" version="1.1" viewBox="0 0 251 73" width="251px" zoomAndPan="magnify"><defs/><g><text fill="#000000" font-family="sans-serif" font-size="12" font-weight="bold" lengthAdjust="spacingAndGlyphs" textLength="56" x="8" y="17.1387">EURUSD</text><line style="stroke: #000000; stroke-width: 1.0;" x1="6" x2="6" y1="6" y2="19.9688"/><line style="stroke: #000000; stroke-width: 1.0;" x1="6" x2="67" y1="6" y2="6"/><line style="stroke: #000000; stroke-width: 1.0;" x1="67" x2="67" y1="6" y2="19.9688"/><line style="stroke: #000000; stroke-width: 1.0;" x1="67" x2="77" y1="19.9688" y2="19.9688"/><text fill="#000000" font-family="sans-serif" font-size="12" lengthAdjust="spacingAndGlyphs" textLength="51" x="79" y="17.1387">GBPUSD</text><line style="stroke: #000000; stroke-width: 1.0;" x1="77" x2="77" y1="6" y2="19.9688"/><line style="stroke: #000000; stroke-width: 1.0;" x1="77" x2="133" y1="6" y2="6"/><line style="stroke: #000000; stroke-width: 1.0;" x1="133" x2="133" y1="6" y2="19.9688"/><line style="stroke: #000000; stroke-width: 1.0;" x1="133" x2="143" y1="19.9688" y2="19.9688"/><rect fill="#EEEEEE" height="17.9688" rx="5" ry="5" style="stroke: #000000; stroke-width: 2.5;" width="36" x="10.5" y="26.4688"/><text fill="#000000" font-family="sans-serif" font-size="12" lengthAdjust="spacingAndGlyphs" textLength="32" x="12.5" y="39.6074">zoom</text><rect fill="#EEEEEE" height="17.9688" rx="5" ry="5" style="stroke: #000000; stroke-width: 2.5;" width="60" x="53.5" y="26.4688"/><text fill="#000000" font-family="sans-serif" font-size="12" lengthAdjust="spacingAndGlyphs" textLength="52" x="57.5" y="39.6074">1.12345</text><rect fill="#EEEEEE" height="17.9688" rx="5" ry="5" style="stroke: #000000; stroke-width: 2.5;" width="60" x="120.5" y="26.4688"/><text fill="#000000" font-family="sans-serif" font-size="12" lengthAdjust="spacingAndGlyphs" textLength="52" x="124.5" y="39.6074">1.12344</text><rect fill="#EEEEEE" height="17.9688" rx="5" ry="5" style="stroke: #000000; stroke-width: 2.5;" width="52" x="187.5" y="26.4688"/><text fill="#000000" font-family="sans-serif" font-size="12" lengthAdjust="spacingAndGlyphs" textLength="48" x="189.5" y="39.6074">unzoom</text><text fill="#000000" font-family="sans-serif" font-size="12" lengthAdjust="spacingAndGlyphs" textLength="92" x="8" y="62.0762">Graphical zone</text><line style="stroke: #000000; stroke-width: 1.0;" x1="6" x2="244" y1="21.9688" y2="21.9688"/><line style="stroke: #000000; stroke-width: 1.0;" x1="6" x2="244" y1="66.9063" y2="66.9063"/><line style="stroke: #000000; stroke-width: 1.0;" x1="6" x2="6" y1="21.9688" y2="48.9375"/><line style="stroke: #000000; stroke-width: 1.0;" x1="244" x2="244" y1="48.9375" y2="66.9063"/><line style="stroke: #000000; stroke-width: 1.0;" x1="244" x2="244" y1="21.9688" y2="48.9375"/><line style="stroke: #000000; stroke-width: 1.0;" x1="6" x2="6" y1="48.9375" y2="66.9063"/></g></svg>