<?xml version="1.0" encoding="UTF-8" standalone="no"?><svg xmlns="http://www.w3.org/2000/svg" xmlns:xlink="http://www.w3.org/1999/xlink" contentScriptType="application/ecmascript" contentStyleType="text/css" height="288px" preserveAspectRatio="none" style="width:451px;height:288px;" version="1.1" viewBox="0 0 451 288" width="451px" zoomAndPan="magnify"><defs><filter height="300%" id="f11eao0nhfn6s" width="300%" x="-1" y="-1"><feGaussianBlur result="blurOut" stdDeviation="2.0"/><feColorMatrix in="blurOut" result="blurOut2" type="matrix" values="0 0 0 0 0 0 0 0 0 0 0 0 0 0 0 0 0 0 .4 0"/><feOffset dx="4.0" dy="4.0" in="blurOut2" result="blurOut3"/><feBlend in="SourceGraphic" in2="blurOut3" mode="normal"/></filter></defs><g><!--cluster Server--><polygon fill="#FFFFFF" filter="url(#f11eao0nhfn6s)" points="22,34,32,24,331,24,331,207,321,217,22,217,22,34" style="stroke: #000000; stroke-width: 1.5;"/><line style="stroke: #000000; stroke-width: 1.5;" x1="321" x2="330" y1="34" y2="25"/><line style="stroke: #000000; stroke-width: 1.5;" x1="22" x2="321" y1="34" y2="34"/><line style="stroke: #000000; stroke-width: 1.5;" x1="321" x2="321" y1="34" y2="217"/><text fill="#000000" font-family="sans-serif" font-size="14" font-weight="bold" lengthAdjust="spacingAndGlyphs" textLength="53" x="146" y="49.9951">Server</text><!--entity ReverseProxy--><rect fill="#FEFECE" filter="url(#f11eao0nhfn6s)" height="36.2969" style="stroke: #A80036; stroke-width: 1.5;" width="118" x="197" y="64"/><rect fill="#FEFECE" height="5" style="stroke: #A80036; stroke-width: 1.5;" width="10" x="192" y="69"/><rect fill="#FEFECE" height="5" style="stroke: #A80036; stroke-width: 1.5;" width="10" x="192" y="90.2969"/><text fill="#000000" font-family="sans-serif" font-size="14" lengthAdjust="spacingAndGlyphs" textLength="98" x="207" y="86.9951">Reverse Proxy</text><!--entity ServiceFactory--><rect fill="#FEFECE" filter="url(#f11eao0nhfn6s)" height="36.2969" style="stroke: #A80036; stroke-width: 1.5;" width="124" x="38" y="64"/><rect fill="#FEFECE" height="5" style="stroke: #A80036; stroke-width: 1.5;" width="10" x="33" y="69"/><rect fill="#FEFECE" height="5" style="stroke: #A80036; stroke-width: 1.5;" width="10" x="33" y="90.2969"/><text fill="#000000" font-family="sans-serif" font-size="14" lengthAdjust="spacingAndGlyphs" textLength="104" x="48" y="86.9951">Service Factory</text><!--entity Service1--><rect fill="#FEFECE" filter="url(#f11eao0nhfn6s)" height="36.2969" style="stroke: #A80036; stroke-width: 1.5;" width="79" x="70.5" y="165"/><rect fill="#FEFECE" height="5" style="stroke: #A80036; stroke-width: 1.5;" width="10" x="65.5" y="170"/><rect fill="#FEFECE" height="5" style="stroke: #A80036; stroke-width: 1.5;" width="10" x="65.5" y="191.2969"/><text fill="#000000" font-family="sans-serif" font-size="14" lengthAdjust="spacingAndGlyphs" textLength="59" x="80.5" y="187.9951">Service1</text><!--entity ServiceX--><rect fill="#FEFECE" filter="url(#f11eao0nhfn6s)" height="36.2969" style="stroke: #A80036; stroke-width: 1.5;" width="79" x="205.5" y="165"/><rect fill="#FEFECE" height="5" style="stroke: #A80036; stroke-width: 1.5;" width="10" x="200.5" y="170"/><rect fill="#FEFECE" height="5" style="stroke: #A80036; stroke-width: 1.5;" width="10" x="200.5" y="191.2969"/><text fill="#000000" font-family="sans-serif" font-size="14" lengthAdjust="spacingAndGlyphs" textLength="59" x="215.5" y="187.9951">ServiceX</text><!--entity Client--><polygon fill="#FEFECE" filter="url(#f11eao0nhfn6s)" points="350.5,69,360.5,59,429.5,59,429.5,95.2969,419.5,105.2969,350.5,105.2969,350.5,69" style="stroke: #000000; stroke-width: 1.5;"/><line style="stroke: #000000; stroke-width: 1.5;" x1="419.5" x2="428.5" y1="69" y2="60"/><line style="stroke: #000000; stroke-width: 1.5;" x1="350.5" x2="419.5" y1="69" y2="69"/><line style="stroke: #000000; stroke-width: 1.5;" x1="419.5" x2="419.5" y1="69" y2="105.2969"/><text fill="#000000" font-family="sans-serif" font-size="14" lengthAdjust="spacingAndGlyphs" textLength="39" x="365.5" y="91.9951">Client</text><!--link ServiceFactory to ReverseProxy--><path d="M162.156,82 C173.765,82 185.373,82 196.981,82 " fill="none" id="ServiceFactory-ReverseProxy" style="stroke: #A80036; stroke-width: 1.0;"/><!--link ServiceFactory to Service1--><path d="M101.7419,100.244 C103.5773,118.415 106.45,146.8572 108.278,164.9531 " fill="none" id="ServiceFactory-Service1" style="stroke: #A80036; stroke-width: 1.0;"/><!--link ServiceFactory to ServiceX--><path d="M124.926,100.019 C151.485,118.152 193.294,146.6971 219.914,164.8721 " fill="none" id="ServiceFactory-ServiceX" style="stroke: #A80036; stroke-width: 1.0;"/><!--link ReverseProxy to Service1--><path d="M230.902,100.019 C204.16,118.152 162.063,146.6971 135.259,164.8721 " fill="none" id="ReverseProxy-Service1" style="stroke: #A80036; stroke-width: 1.0;"/><!--link ReverseProxy to ServiceX--><path d="M254.084,100.244 C252.065,118.415 248.905,146.8572 246.894,164.9531 " fill="none" id="ReverseProxy-ServiceX" style="stroke: #A80036; stroke-width: 1.0;"/><!--link Client to ReverseProxy--><path d="M350.235,82 C338.54,82 326.844,82 315.148,82 " fill="none" id="Client-ReverseProxy" style="stroke: #A80036; stroke-width: 1.0;"/><rect fill="#DDDDDD" height="26.2969" rx="5" ry="5" style="stroke: #000000; stroke-width: 1.0;" width="64" x="191.5" y="251"/><text fill="#000000" font-family="sans-serif" font-size="14" lengthAdjust="spacingAndGlyphs" textLength="52" x="197.5" y="268.9951">Legend</text><!--
@startuml
legend
Legend
endlegend

node Client

node Server {
    component "Reverse Proxy" as ReverseProxy
    component "Service Factory" as ServiceFactory
    component Service1
    component ServiceX

    ReverseProxy -left- ServiceFactory
    ServiceFactory -down- Service1
    ServiceFactory -down- ServiceX
    ReverseProxy -down- Service1
    ReverseProxy -down- ServiceX
}

Client -right- ReverseProxy
@enduml

PlantUML version 1.2018.10(Sat Aug 25 19:02:59 CEST 2018)
(APACHE source distribution)
Java Runtime: Java(TM) SE Runtime Environment
JVM: Java HotSpot(TM) 64-Bit Server VM
Java Version: 11.0.1+13-LTS
Operating System: Linux
OS Version: 4.9.0-8-amd64
Default Encoding: UTF-8
Language: fr
Country: FR
--></g></svg>