<?xml version="1.0" encoding="UTF-8" standalone="no"?><svg xmlns="http://www.w3.org/2000/svg" xmlns:xlink="http://www.w3.org/1999/xlink" contentScriptType="application/ecmascript" contentStyleType="text/css" height="264px" preserveAspectRatio="none" style="width:499px;height:264px;" version="1.1" viewBox="0 0 499 264" width="499px" zoomAndPan="magnify"><defs><filter height="300%" id="f590o958md3i1" width="300%" x="-1" y="-1"><feGaussianBlur result="blurOut" stdDeviation="2.0"/><feColorMatrix in="blurOut" result="blurOut2" type="matrix" values="0 0 0 0 0 0 0 0 0 0 0 0 0 0 0 0 0 0 .4 0"/><feOffset dx="4.0" dy="4.0" in="blurOut2" result="blurOut3"/><feBlend in="SourceGraphic" in2="blurOut3" mode="normal"/></filter></defs><g><!--class InstrumentEnum--><rect fill="#FEFECE" filter="url(#f590o958md3i1)" height="86.4141" id="InstrumentEnum" style="stroke: #A80036; stroke-width: 1.5;" width="135" x="6" y="8"/><ellipse cx="21" cy="24" fill="#EB937F" rx="11" ry="11" style="stroke: #A80036; stroke-width: 1.0;"/><path d="M25.1094,30 L17.3906,30 L17.3906,17.6094 L25.1094,17.6094 L25.1094,19.7656 L19.8438,19.7656 L19.8438,22.4375 L24.6094,22.4375 L24.6094,24.5938 L19.8438,24.5938 L19.8438,27.8438 L25.1094,27.8438 L25.1094,30 Z "/><text fill="#000000" font-family="sans-serif" font-size="12" lengthAdjust="spacingAndGlyphs" textLength="103" x="35" y="28.1543">InstrumentEnum</text><line style="stroke: #A80036; stroke-width: 1.5;" x1="7" x2="140" y1="40" y2="40"/><text fill="#000000" font-family="sans-serif" font-size="11" lengthAdjust="spacingAndGlyphs" textLength="46" x="12" y="54.2104">EURUSD</text><text fill="#000000" font-family="sans-serif" font-size="11" lengthAdjust="spacingAndGlyphs" textLength="48" x="12" y="67.0151">GBPUSD</text><text fill="#000000" font-family="sans-serif" font-size="11" lengthAdjust="spacingAndGlyphs" textLength="12" x="12" y="79.8198">...</text><line style="stroke: #A80036; stroke-width: 1.5;" x1="7" x2="140" y1="86.4141" y2="86.4141"/><!--class Transaction--><rect fill="#FEFECE" filter="url(#f590o958md3i1)" height="48" id="Transaction" style="stroke: #A80036; stroke-width: 1.5;" width="106" x="171.5" y="179.5"/><ellipse cx="186.5" cy="195.5" fill="#ADD1B2" rx="11" ry="11" style="stroke: #A80036; stroke-width: 1.0;"/><path d="M189.4688,201.1406 Q188.8906,201.4375 188.25,201.5781 Q187.6094,201.7344 186.9063,201.7344 Q184.4063,201.7344 183.0781,200.0938 Q181.7656,198.4375 181.7656,195.3125 Q181.7656,192.1875 183.0781,190.5313 Q184.4063,188.875 186.9063,188.875 Q187.6094,188.875 188.25,189.0313 Q188.9063,189.1875 189.4688,189.4844 L189.4688,192.2031 Q188.8438,191.625 188.25,191.3594 Q187.6563,191.0781 187.0313,191.0781 Q185.6875,191.0781 185,192.1563 Q184.3125,193.2188 184.3125,195.3125 Q184.3125,197.4063 185,198.4844 Q185.6875,199.5469 187.0313,199.5469 Q187.6563,199.5469 188.25,199.2813 Q188.8438,199 189.4688,198.4219 L189.4688,201.1406 Z "/><text fill="#000000" font-family="sans-serif" font-size="12" lengthAdjust="spacingAndGlyphs" textLength="74" x="200.5" y="199.6543">Transaction</text><line style="stroke: #A80036; stroke-width: 1.5;" x1="172.5" x2="276.5" y1="211.5" y2="211.5"/><line style="stroke: #A80036; stroke-width: 1.5;" x1="172.5" x2="276.5" y1="219.5" y2="219.5"/><!--class Tick--><rect fill="#FEFECE" filter="url(#f590o958md3i1)" height="99.2188" id="Tick" style="stroke: #A80036; stroke-width: 1.5;" width="176" x="312.5" y="154"/><ellipse cx="384.25" cy="170" fill="#ADD1B2" rx="11" ry="11" style="stroke: #A80036; stroke-width: 1.0;"/><path d="M387.2188,175.6406 Q386.6406,175.9375 386,176.0781 Q385.3594,176.2344 384.6563,176.2344 Q382.1563,176.2344 380.8281,174.5938 Q379.5156,172.9375 379.5156,169.8125 Q379.5156,166.6875 380.8281,165.0313 Q382.1563,163.375 384.6563,163.375 Q385.3594,163.375 386,163.5313 Q386.6563,163.6875 387.2188,163.9844 L387.2188,166.7031 Q386.5938,166.125 386,165.8594 Q385.4063,165.5781 384.7813,165.5781 Q383.4375,165.5781 382.75,166.6563 Q382.0625,167.7188 382.0625,169.8125 Q382.0625,171.9063 382.75,172.9844 Q383.4375,174.0469 384.7813,174.0469 Q385.4063,174.0469 386,173.7813 Q386.5938,173.5 387.2188,172.9219 L387.2188,175.6406 Z "/><text fill="#000000" font-family="sans-serif" font-size="12" lengthAdjust="spacingAndGlyphs" textLength="24" x="404.75" y="174.1543">Tick</text><line style="stroke: #A80036; stroke-width: 1.5;" x1="313.5" x2="487.5" y1="186" y2="186"/><text fill="#000000" font-family="sans-serif" font-size="11" lengthAdjust="spacingAndGlyphs" textLength="67" x="318.5" y="200.2104">ask: Double</text><text fill="#000000" font-family="sans-serif" font-size="11" lengthAdjust="spacingAndGlyphs" textLength="64" x="318.5" y="213.0151">bid: Double</text><text fill="#000000" font-family="sans-serif" font-size="11" lengthAdjust="spacingAndGlyphs" textLength="97" x="318.5" y="225.8198">time: Timestamp</text><text fill="#000000" font-family="sans-serif" font-size="11" lengthAdjust="spacingAndGlyphs" textLength="164" x="318.5" y="238.6245">instrument: InstrumentEnum</text><line style="stroke: #A80036; stroke-width: 1.5;" x1="313.5" x2="487.5" y1="245.2188" y2="245.2188"/><!--class Algorithm--><rect fill="#FEFECE" filter="url(#f590o958md3i1)" height="86.4141" id="Algorithm" style="stroke: #A80036; stroke-width: 1.5;" width="272" x="176.5" y="8"/><ellipse cx="278.75" cy="24" fill="#ADD1B2" rx="11" ry="11" style="stroke: #A80036; stroke-width: 1.0;"/><path d="M281.7188,29.6406 Q281.1406,29.9375 280.5,30.0781 Q279.8594,30.2344 279.1563,30.2344 Q276.6563,30.2344 275.3281,28.5938 Q274.0156,26.9375 274.0156,23.8125 Q274.0156,20.6875 275.3281,19.0313 Q276.6563,17.375 279.1563,17.375 Q279.8594,17.375 280.5,17.5313 Q281.1563,17.6875 281.7188,17.9844 L281.7188,20.7031 Q281.0938,20.125 280.5,19.8594 Q279.9063,19.5781 279.2813,19.5781 Q277.9375,19.5781 277.25,20.6563 Q276.5625,21.7188 276.5625,23.8125 Q276.5625,25.9063 277.25,26.9844 Q277.9375,28.0469 279.2813,28.0469 Q279.9063,28.0469 280.5,27.7813 Q281.0938,27.5 281.7188,26.9219 L281.7188,29.6406 Z "/><text fill="#000000" font-family="sans-serif" font-size="12" lengthAdjust="spacingAndGlyphs" textLength="59" x="299.25" y="28.1543">Algorithm</text><line style="stroke: #A80036; stroke-width: 1.5;" x1="177.5" x2="447.5" y1="40" y2="40"/><line style="stroke: #A80036; stroke-width: 1.5;" x1="177.5" x2="447.5" y1="48" y2="48"/><text fill="#000000" font-family="sans-serif" font-size="11" lengthAdjust="spacingAndGlyphs" textLength="71" x="182.5" y="62.2104">OnInit(): Unit</text><text fill="#000000" font-family="sans-serif" font-size="11" lengthAdjust="spacingAndGlyphs" textLength="125" x="182.5" y="75.0151">OnTick(tick: Tick): Unit</text><text fill="#000000" font-family="sans-serif" font-size="11" lengthAdjust="spacingAndGlyphs" textLength="260" x="182.5" y="87.8198">OnTransaction(transaction: Transaction): Unit</text><!--link Algorithm to Tick--><path d="M337.247,94.323 C347.229,111.395 358.858,131.283 369.403,149.317 " fill="none" id="Algorithm-Tick" style="stroke: #A80036; stroke-width: 1.0; stroke-dasharray: 7.0,7.0;"/><polygon fill="#A80036" points="372.059,153.8586,370.9678,144.0704,369.5346,149.5427,364.0623,148.1094,372.059,153.8586" style="stroke: #A80036; stroke-width: 1.0;"/><!--link Algorithm to Transaction--><path d="M287.753,94.323 C272.693,120.08 253.884,152.247 240.707,174.7832 " fill="none" id="Algorithm-Transaction" style="stroke: #A80036; stroke-width: 1.0; stroke-dasharray: 7.0,7.0;"/><polygon fill="#A80036" points="238.149,179.1572,246.1453,173.4075,240.6731,174.8411,239.2395,169.3689,238.149,179.1572" style="stroke: #A80036; stroke-width: 1.0;"/><!--
@startuml
enum InstrumentEnum {
  EURUSD
  GBPUSD
  ...
}

class Transaction

class Tick {
    ask: Double
    bid: Double
    time: Timestamp
    instrument: InstrumentEnum
}

class Algorithm {
    OnInit(): Unit
    OnTick(tick: Tick): Unit
    OnTransaction(transaction: Transaction): Unit
}

Algorithm ..> Tick
Algorithm ..> Transaction
@enduml

PlantUML version 1.2018.10(Sat Aug 25 19:02:59 CEST 2018)
(APACHE source distribution)
Java Runtime: Java(TM) SE Runtime Environment
JVM: Java HotSpot(TM) 64-Bit Server VM
Java Version: 11.0.1+13-LTS
Operating System: Linux
OS Version: 4.9.0-8-amd64
Default Encoding: UTF-8
Language: fr
Country: FR
--></g></svg>