<?xml version="1.0" encoding="UTF-8" standalone="no"?><svg xmlns="http://www.w3.org/2000/svg" xmlns:xlink="http://www.w3.org/1999/xlink" contentScriptType="application/ecmascript" contentStyleType="text/css" height="64px" preserveAspectRatio="none" style="width:478px;height:64px;" version="1.1" viewBox="0 0 478 64" width="478px" zoomAndPan="magnify"><defs/><g><text fill="#000000" font-family="sans-serif" font-size="12" font-weight="bold" lengthAdjust="spacingAndGlyphs" textLength="58" x="8" y="17.1387">Position</text><line style="stroke: #000000; stroke-width: 1.0;" x1="6" x2="6" y1="6" y2="19.9688"/><line style="stroke: #000000; stroke-width: 1.0;" x1="6" x2="69" y1="6" y2="6"/><line style="stroke: #000000; stroke-width: 1.0;" x1="69" x2="69" y1="6" y2="19.9688"/><line style="stroke: #000000; stroke-width: 1.0;" x1="69" x2="79" y1="19.9688" y2="19.9688"/><text fill="#000000" font-family="sans-serif" font-size="12" lengthAdjust="spacingAndGlyphs" textLength="42" x="81" y="17.1387">Orders</text><line style="stroke: #000000; stroke-width: 1.0;" x1="79" x2="79" y1="6" y2="19.9688"/><line style="stroke: #000000; stroke-width: 1.0;" x1="79" x2="126" y1="6" y2="6"/><line style="stroke: #000000; stroke-width: 1.0;" x1="126" x2="126" y1="6" y2="19.9688"/><line style="stroke: #000000; stroke-width: 1.0;" x1="126" x2="136" y1="19.9688" y2="19.9688"/><text fill="#000000" font-family="sans-serif" font-size="12" lengthAdjust="spacingAndGlyphs" textLength="58" x="138" y="17.1387">Historical</text><line style="stroke: #000000; stroke-width: 1.0;" x1="136" x2="136" y1="6" y2="19.9688"/><line style="stroke: #000000; stroke-width: 1.0;" x1="136" x2="199" y1="6" y2="6"/><line style="stroke: #000000; stroke-width: 1.0;" x1="199" x2="199" y1="6" y2="19.9688"/><line style="stroke: #000000; stroke-width: 1.0;" x1="199" x2="209" y1="19.9688" y2="19.9688"/><text fill="#000000" font-family="sans-serif" font-size="12" lengthAdjust="spacingAndGlyphs" textLength="55" x="211" y="17.1387">Analytics</text><line style="stroke: #000000; stroke-width: 1.0;" x1="209" x2="209" y1="6" y2="19.9688"/><line style="stroke: #000000; stroke-width: 1.0;" x1="209" x2="269" y1="6" y2="6"/><line style="stroke: #000000; stroke-width: 1.0;" x1="269" x2="269" y1="6" y2="19.9688"/><line style="stroke: #000000; stroke-width: 1.0;" x1="269" x2="279" y1="19.9688" y2="19.9688"/><text fill="#000000" font-family="sans-serif" font-size="12" lengthAdjust="spacingAndGlyphs" textLength="10" x="7" y="34.1074">#</text><text fill="#000000" font-family="sans-serif" font-size="12" lengthAdjust="spacingAndGlyphs" textLength="68" x="19" y="34.1074">instrument</text><text fill="#000000" font-family="sans-serif" font-size="12" lengthAdjust="spacingAndGlyphs" textLength="65" x="89" y="34.1074">open date</text><text fill="#000000" font-family="sans-serif" font-size="12" lengthAdjust="spacingAndGlyphs" textLength="23" x="203" y="34.1074">lots</text><text fill="#000000" font-family="sans-serif" font-size="12" lengthAdjust="spacingAndGlyphs" textLength="31" x="228" y="34.1074">price</text><text fill="#000000" font-family="sans-serif" font-size="12" lengthAdjust="spacingAndGlyphs" textLength="10" x="290" y="34.1074">sl</text><text fill="#000000" font-family="sans-serif" font-size="12" lengthAdjust="spacingAndGlyphs" textLength="13" x="344" y="34.1074">tp</text><text fill="#000000" font-family="sans-serif" font-size="12" lengthAdjust="spacingAndGlyphs" textLength="55" x="366" y="34.1074">profit ($)</text><text fill="#000000" font-family="sans-serif" font-size="12" lengthAdjust="spacingAndGlyphs" textLength="46" x="423" y="34.1074">actions</text><text fill="#000000" font-family="sans-serif" font-size="12" lengthAdjust="spacingAndGlyphs" textLength="8" x="7" y="50.0762">1</text><text fill="#000000" font-family="sans-serif" font-size="12" lengthAdjust="spacingAndGlyphs" textLength="51" x="19" y="50.0762">EURUSD</text><text fill="#000000" font-family="sans-serif" font-size="12" lengthAdjust="spacingAndGlyphs" textLength="112" x="89" y="50.0762">07.07.1990 12:23</text><text fill="#000000" font-family="sans-serif" font-size="12" lengthAdjust="spacingAndGlyphs" textLength="20" x="203" y="50.0762">1.2</text><text fill="#000000" font-family="sans-serif" font-size="12" lengthAdjust="spacingAndGlyphs" textLength="60" x="228" y="50.0762">1.123452</text><text fill="#000000" font-family="sans-serif" font-size="12" lengthAdjust="spacingAndGlyphs" textLength="52" x="290" y="50.0762">1.23358</text><text fill="#000000" font-family="sans-serif" font-size="12" lengthAdjust="spacingAndGlyphs" textLength="20" x="344" y="50.0762">0.0</text><text fill="#000000" font-family="sans-serif" font-size="12" lengthAdjust="spacingAndGlyphs" textLength="36" x="366" y="50.0762">23.74</text><rect fill="#EEEEEE" height="12" rx="5" ry="5" style="stroke: #000000; stroke-width: 2.5;" width="20" x="425.5" y="41.4375"/><path d="M433.5,44.4375 L431.5,47.4375 L433.5,50.4375 L439.5,50.4375 L439.5,44.4375 L433.5,44.4375 M435,45.2185 L436.5,46.7185 L438,45.2185 L438.719,45.9375 L437.219,47.4375 L438.719,48.9375 L438,49.6565 L436.5,48.1565 L435,49.6565 L434.281,48.9375 L435.781,47.4375 L434.281,45.9375 L435,45.2185 " fill="#000000" style="stroke: ; stroke-width: 0.0; stroke-dasharray: ;"/><line style="stroke: #000000; stroke-width: 1.0;" x1="6" x2="18" y1="21.9688" y2="21.9688"/><line style="stroke: #000000; stroke-width: 1.0;" x1="18" x2="88" y1="21.9688" y2="21.9688"/><line style="stroke: #000000; stroke-width: 1.0;" x1="88" x2="202" y1="21.9688" y2="21.9688"/><line style="stroke: #000000; stroke-width: 1.0;" x1="202" x2="227" y1="21.9688" y2="21.9688"/><line style="stroke: #000000; stroke-width: 1.0;" x1="227" x2="289" y1="21.9688" y2="21.9688"/><line style="stroke: #000000; stroke-width: 1.0;" x1="289" x2="343" y1="21.9688" y2="21.9688"/><line style="stroke: #000000; stroke-width: 1.0;" x1="343" x2="365" y1="21.9688" y2="21.9688"/><line style="stroke: #000000; stroke-width: 1.0;" x1="365" x2="422" y1="21.9688" y2="21.9688"/><line style="stroke: #000000; stroke-width: 1.0;" x1="422" x2="470" y1="21.9688" y2="21.9688"/><line style="stroke: #000000; stroke-width: 1.0;" x1="6" x2="18" y1="56.9375" y2="56.9375"/><line style="stroke: #000000; stroke-width: 1.0;" x1="18" x2="88" y1="56.9375" y2="56.9375"/><line style="stroke: #000000; stroke-width: 1.0;" x1="88" x2="202" y1="56.9375" y2="56.9375"/><line style="stroke: #000000; stroke-width: 1.0;" x1="202" x2="227" y1="56.9375" y2="56.9375"/><line style="stroke: #000000; stroke-width: 1.0;" x1="227" x2="289" y1="56.9375" y2="56.9375"/><line style="stroke: #000000; stroke-width: 1.0;" x1="289" x2="343" y1="56.9375" y2="56.9375"/><line style="stroke: #000000; stroke-width: 1.0;" x1="343" x2="365" y1="56.9375" y2="56.9375"/><line style="stroke: #000000; stroke-width: 1.0;" x1="365" x2="422" y1="56.9375" y2="56.9375"/><line style="stroke: #000000; stroke-width: 1.0;" x1="422" x2="470" y1="56.9375" y2="56.9375"/><line style="stroke: #000000; stroke-width: 1.0;" x1="6" x2="18" y1="37.9375" y2="37.9375"/><line style="stroke: #000000; stroke-width: 1.0;" x1="18" x2="88" y1="37.9375" y2="37.9375"/><line style="stroke: #000000; stroke-width: 1.0;" x1="88" x2="202" y1="37.9375" y2="37.9375"/><line style="stroke: #000000; stroke-width: 1.0;" x1="202" x2="227" y1="37.9375" y2="37.9375"/><line style="stroke: #000000; stroke-width: 1.0;" x1="227" x2="289" y1="37.9375" y2="37.9375"/><line style="stroke: #000000; stroke-width: 1.0;" x1="289" x2="343" y1="37.9375" y2="37.9375"/><line style="stroke: #000000; stroke-width: 1.0;" x1="343" x2="365" y1="37.9375" y2="37.9375"/><line style="stroke: #000000; stroke-width: 1.0;" x1="365" x2="422" y1="37.9375" y2="37.9375"/><line style="stroke: #000000; stroke-width: 1.0;" x1="422" x2="470" y1="37.9375" y2="37.9375"/><line style="stroke: #000000; stroke-width: 1.0;" x1="6" x2="6" y1="21.9688" y2="37.9375"/><line style="stroke: #000000; stroke-width: 1.0;" x1="18" x2="18" y1="21.9688" y2="37.9375"/><line style="stroke: #000000; stroke-width: 1.0;" x1="88" x2="88" y1="21.9688" y2="37.9375"/><line style="stroke: #000000; stroke-width: 1.0;" x1="202" x2="202" y1="21.9688" y2="37.9375"/><line style="stroke: #000000; stroke-width: 1.0;" x1="227" x2="227" y1="21.9688" y2="37.9375"/><line style="stroke: #000000; stroke-width: 1.0;" x1="289" x2="289" y1="21.9688" y2="37.9375"/><line style="stroke: #000000; stroke-width: 1.0;" x1="343" x2="343" y1="21.9688" y2="37.9375"/><line style="stroke: #000000; stroke-width: 1.0;" x1="365" x2="365" y1="21.9688" y2="37.9375"/><line style="stroke: #000000; stroke-width: 1.0;" x1="422" x2="422" y1="21.9688" y2="37.9375"/><line style="stroke: #000000; stroke-width: 1.0;" x1="470" x2="470" y1="21.9688" y2="37.9375"/><line style="stroke: #000000; stroke-width: 1.0;" x1="6" x2="6" y1="37.9375" y2="56.9375"/><line style="stroke: #000000; stroke-width: 1.0;" x1="18" x2="18" y1="37.9375" y2="56.9375"/><line style="stroke: #000000; stroke-width: 1.0;" x1="88" x2="88" y1="37.9375" y2="56.9375"/><line style="stroke: #000000; stroke-width: 1.0;" x1="202" x2="202" y1="37.9375" y2="56.9375"/><line style="stroke: #000000; stroke-width: 1.0;" x1="227" x2="227" y1="37.9375" y2="56.9375"/><line style="stroke: #000000; stroke-width: 1.0;" x1="289" x2="289" y1="37.9375" y2="56.9375"/><line style="stroke: #000000; stroke-width: 1.0;" x1="343" x2="343" y1="37.9375" y2="56.9375"/><line style="stroke: #000000; stroke-width: 1.0;" x1="365" x2="365" y1="37.9375" y2="56.9375"/><line style="stroke: #000000; stroke-width: 1.0;" x1="422" x2="422" y1="37.9375" y2="56.9375"/><line style="stroke: #000000; stroke-width: 1.0;" x1="470" x2="470" y1="37.9375" y2="56.9375"/><line style="stroke: #000000; stroke-width: 1.0;" x1="5" x2="471" y1="5" y2="5"/><line style="stroke: #000000; stroke-width: 1.0;" x1="5" x2="471" y1="57.9375" y2="57.9375"/><line style="stroke: #000000; stroke-width: 1.0;" x1="5" x2="5" y1="5" y2="20.9688"/><line style="stroke: #000000; stroke-width: 1.0;" x1="471" x2="471" y1="20.9688" y2="57.9375"/><line style="stroke: #000000; stroke-width: 1.0;" x1="471" x2="471" y1="5" y2="20.9688"/><line style="stroke: #000000; stroke-width: 1.0;" x1="5" x2="5" y1="20.9688" y2="57.9375"/></g></svg>