<?xml version="1.0" encoding="UTF-8" standalone="no"?><svg xmlns="http://www.w3.org/2000/svg" xmlns:xlink="http://www.w3.org/1999/xlink" contentScriptType="application/ecmascript" contentStyleType="text/css" height="172px" preserveAspectRatio="none" style="width:383px;height:172px;" version="1.1" viewBox="0 0 383 172" width="383px" zoomAndPan="magnify"><defs><filter height="300%" id="flks3gf4zalrg" width="300%" x="-1" y="-1"><feGaussianBlur result="blurOut" stdDeviation="2.0"/><feColorMatrix in="blurOut" result="blurOut2" type="matrix" values="0 0 0 0 0 0 0 0 0 0 0 0 0 0 0 0 0 0 .4 0"/><feOffset dx="4.0" dy="4.0" in="blurOut2" result="blurOut3"/><feBlend in="SourceGraphic" in2="blurOut3" mode="normal"/></filter></defs><g><!--entity Service--><polygon fill="#FEFECE" filter="url(#flks3gf4zalrg)" points="138.5,18,148.5,8,228.5,8,228.5,44.2969,218.5,54.2969,138.5,54.2969,138.5,18" style="stroke: #000000; stroke-width: 1.5;"/><line style="stroke: #000000; stroke-width: 1.5;" x1="218.5" x2="227.5" y1="18" y2="9"/><line style="stroke: #000000; stroke-width: 1.5;" x1="138.5" x2="218.5" y1="18" y2="18"/><line style="stroke: #000000; stroke-width: 1.5;" x1="218.5" x2="218.5" y1="18" y2="54.2969"/><text fill="#000000" font-family="sans-serif" font-size="14" lengthAdjust="spacingAndGlyphs" textLength="50" x="153.5" y="40.9951">Service</text><!--entity Broker1--><polygon fill="#FEFECE" filter="url(#flks3gf4zalrg)" points="6,124,16,114,101,114,101,150.2969,91,160.2969,6,160.2969,6,124" style="stroke: #000000; stroke-width: 1.5;"/><line style="stroke: #000000; stroke-width: 1.5;" x1="91" x2="100" y1="124" y2="115"/><line style="stroke: #000000; stroke-width: 1.5;" x1="6" x2="91" y1="124" y2="124"/><line style="stroke: #000000; stroke-width: 1.5;" x1="91" x2="91" y1="124" y2="160.2969"/><text fill="#000000" font-family="sans-serif" font-size="14" lengthAdjust="spacingAndGlyphs" textLength="55" x="21" y="146.9951">Broker1</text><!--entity Broker2--><polygon fill="#FEFECE" filter="url(#flks3gf4zalrg)" points="136,124,146,114,231,114,231,150.2969,221,160.2969,136,160.2969,136,124" style="stroke: #000000; stroke-width: 1.5;"/><line style="stroke: #000000; stroke-width: 1.5;" x1="221" x2="230" y1="124" y2="115"/><line style="stroke: #000000; stroke-width: 1.5;" x1="136" x2="221" y1="124" y2="124"/><line style="stroke: #000000; stroke-width: 1.5;" x1="221" x2="221" y1="124" y2="160.2969"/><text fill="#000000" font-family="sans-serif" font-size="14" lengthAdjust="spacingAndGlyphs" textLength="55" x="151" y="146.9951">Broker2</text><!--entity BrokerX--><polygon fill="#FEFECE" filter="url(#flks3gf4zalrg)" points="266,124,276,114,361,114,361,150.2969,351,160.2969,266,160.2969,266,124" style="stroke: #000000; stroke-width: 1.5;"/><line style="stroke: #000000; stroke-width: 1.5;" x1="351" x2="360" y1="124" y2="115"/><line style="stroke: #000000; stroke-width: 1.5;" x1="266" x2="351" y1="124" y2="124"/><line style="stroke: #000000; stroke-width: 1.5;" x1="351" x2="351" y1="124" y2="160.2969"/><text fill="#000000" font-family="sans-serif" font-size="14" lengthAdjust="spacingAndGlyphs" textLength="55" x="281" y="146.9951">BrokerX</text><!--link Service to Broker1--><path d="M155.93,54.056 C133.869,71.7049 103.0809,96.3353 81.0299,113.9761 " fill="none" id="Service-Broker1" style="stroke: #A80036; stroke-width: 1.0;"/><!--link Service to Broker2--><path d="M183.5,54.056 C183.5,71.7049 183.5,96.3353 183.5,113.9761 " fill="none" id="Service-Broker2" style="stroke: #A80036; stroke-width: 1.0;"/><!--link Service to BrokerX--><path d="M211.07,54.056 C233.131,71.7049 263.919,96.3353 285.97,113.9761 " fill="none" id="Service-BrokerX" style="stroke: #A80036; stroke-width: 1.0;"/><!--
@startuml
node Service
node Broker1
node Broker2
node BrokerX

Service -down- Broker1
Service -down- Broker2
Service -down- BrokerX
@enduml

PlantUML version 1.2018.10(Sat Aug 25 19:02:59 CEST 2018)
(APACHE source distribution)
Java Runtime: Java(TM) SE Runtime Environment
JVM: Java HotSpot(TM) 64-Bit Server VM
Java Version: 11.0.1+13-LTS
Operating System: Linux
OS Version: 4.9.0-8-amd64
Default Encoding: UTF-8
Language: fr
Country: FR
--></g></svg>