<?xml version="1.0" encoding="UTF-8" standalone="no"?><svg xmlns="http://www.w3.org/2000/svg" xmlns:xlink="http://www.w3.org/1999/xlink" contentScriptType="application/ecmascript" contentStyleType="text/css" height="344px" preserveAspectRatio="none" style="width:635px;height:344px;" version="1.1" viewBox="0 0 635 344" width="635px" zoomAndPan="magnify"><defs><filter height="300%" id="f1fekvrja4e48" width="300%" x="-1" y="-1"><feGaussianBlur result="blurOut" stdDeviation="2.0"/><feColorMatrix in="blurOut" result="blurOut2" type="matrix" values="0 0 0 0 0 0 0 0 0 0 0 0 0 0 0 0 0 0 .4 0"/><feOffset dx="4.0" dy="4.0" in="blurOut2" result="blurOut3"/><feBlend in="SourceGraphic" in2="blurOut3" mode="normal"/></filter></defs><g><!--entity User--><ellipse cx="22" cy="61" fill="#FEFECE" filter="url(#f1fekvrja4e48)" rx="8" ry="8" style="stroke: #A80036; stroke-width: 2.0;"/><path d="M22,69 L22,96 M9,77 L35,77 M22,96 L9,111 M22,96 L35,111 " fill="none" filter="url(#f1fekvrja4e48)" style="stroke: #A80036; stroke-width: 2.0;"/><text fill="#000000" font-family="sans-serif" font-size="14" lengthAdjust="spacingAndGlyphs" textLength="32" x="6" y="130.9951">User</text><!--entity Client--><polygon fill="#FEFECE" filter="url(#f1fekvrja4e48)" points="73.5,79.5,83.5,69.5,152.5,69.5,152.5,105.7969,142.5,115.7969,73.5,115.7969,73.5,79.5" style="stroke: #000000; stroke-width: 1.5;"/><line style="stroke: #000000; stroke-width: 1.5;" x1="142.5" x2="151.5" y1="79.5" y2="70.5"/><line style="stroke: #000000; stroke-width: 1.5;" x1="73.5" x2="142.5" y1="79.5" y2="79.5"/><line style="stroke: #000000; stroke-width: 1.5;" x1="142.5" x2="142.5" y1="79.5" y2="115.7969"/><text fill="#000000" font-family="sans-serif" font-size="14" lengthAdjust="spacingAndGlyphs" textLength="39" x="88.5" y="102.4951">Client</text><!--entity reverseproxy--><polygon fill="#FEFECE" filter="url(#f1fekvrja4e48)" points="188,79.5,198,69.5,326,69.5,326,105.7969,316,115.7969,188,115.7969,188,79.5" style="stroke: #000000; stroke-width: 1.5;"/><line style="stroke: #000000; stroke-width: 1.5;" x1="316" x2="325" y1="79.5" y2="70.5"/><line style="stroke: #000000; stroke-width: 1.5;" x1="188" x2="316" y1="79.5" y2="79.5"/><line style="stroke: #000000; stroke-width: 1.5;" x1="316" x2="316" y1="79.5" y2="115.7969"/><text fill="#000000" font-family="sans-serif" font-size="14" lengthAdjust="spacingAndGlyphs" textLength="98" x="203" y="102.4951">Reverse proxy</text><!--entity Dispatcher--><polygon fill="#FEFECE" filter="url(#f1fekvrja4e48)" points="361.5,79.5,371.5,69.5,476.5,69.5,476.5,105.7969,466.5,115.7969,361.5,115.7969,361.5,79.5" style="stroke: #000000; stroke-width: 1.5;"/><line style="stroke: #000000; stroke-width: 1.5;" x1="466.5" x2="475.5" y1="79.5" y2="70.5"/><line style="stroke: #000000; stroke-width: 1.5;" x1="361.5" x2="466.5" y1="79.5" y2="79.5"/><line style="stroke: #000000; stroke-width: 1.5;" x1="466.5" x2="466.5" y1="79.5" y2="115.7969"/><text fill="#000000" font-family="sans-serif" font-size="14" lengthAdjust="spacingAndGlyphs" textLength="75" x="376.5" y="102.4951">Dispatcher</text><!--entity Service--><polygon fill="#FEFECE" filter="url(#f1fekvrja4e48)" points="512,79.5,522,69.5,602,69.5,602,105.7969,592,115.7969,512,115.7969,512,79.5" style="stroke: #000000; stroke-width: 1.5;"/><line style="stroke: #000000; stroke-width: 1.5;" x1="592" x2="601" y1="79.5" y2="70.5"/><line style="stroke: #000000; stroke-width: 1.5;" x1="512" x2="592" y1="79.5" y2="79.5"/><line style="stroke: #000000; stroke-width: 1.5;" x1="592" x2="592" y1="79.5" y2="115.7969"/><text fill="#000000" font-family="sans-serif" font-size="14" lengthAdjust="spacingAndGlyphs" textLength="50" x="527" y="102.4951">Service</text><!--entity Connector--><polygon fill="#FEFECE" filter="url(#f1fekvrja4e48)" points="500.5,204,510.5,194,613.5,194,613.5,230.2969,603.5,240.2969,500.5,240.2969,500.5,204" style="stroke: #000000; stroke-width: 1.5;"/><line style="stroke: #000000; stroke-width: 1.5;" x1="603.5" x2="612.5" y1="204" y2="195"/><line style="stroke: #000000; stroke-width: 1.5;" x1="500.5" x2="603.5" y1="204" y2="204"/><line style="stroke: #000000; stroke-width: 1.5;" x1="603.5" x2="603.5" y1="204" y2="240.2969"/><text fill="#000000" font-family="sans-serif" font-size="14" lengthAdjust="spacingAndGlyphs" textLength="73" x="515.5" y="226.9951">Connector</text><!--entity Database--><path d="M377,204.5 C377,194.5 420,194.5 420,194.5 C420,194.5 463,194.5 463,204.5 L463,229.7969 C463,239.7969 420,239.7969 420,239.7969 C420,239.7969 377,239.7969 377,229.7969 L377,204.5 " fill="#FEFECE" filter="url(#f1fekvrja4e48)" style="stroke: #000000; stroke-width: 1.5;"/><path d="M377,204.5 C377,214.5 420,214.5 420,214.5 C420,214.5 463,214.5 463,204.5 " fill="none" style="stroke: #000000; stroke-width: 1.5;"/><text fill="#000000" font-family="sans-serif" font-size="14" lengthAdjust="spacingAndGlyphs" textLength="66" x="387" y="231.4951">Database</text><!--entity Broker--><path d="M527,307 C527,304 529,302 532,302 C535,302 537,304 537,307 C537,304 539,302 542,302 C545,302 547,304 547,307 C547,304 549,302 552,302 C555,302 557,304 557,307 C557,304 559,302 562,302 C565,302 567,304 567,307 C567,304 569,302 572,302 C575,302 577,304 577,307 C577,304 579,302 582,302 C585,302 587,304 587,307 C590,307 592,309 592,312 C592,315 590,317 587,317 C590,317 592,319 592,322 C592,325 590,327 587,327 C587,330 584,332 582,332 C579,332 577,330 577,327 C577,330 574,332 572,332 C569,332 567,330 567,327 C567,330 564,332 562,332 C559,332 557,330 557,327 C557,330 554,332 552,332 C549,332 547,330 547,327 C547,330 544,332 542,332 C539,332 537,330 537,327 C537,330 534,332 532,332 C529,332 527,330 527,327 C524,327 522,325 522,322 C522,319 524,317 527,317 C524,317 522,315 522,312 C522,309 524,307 527,307 " fill="#FEFECE" filter="url(#f1fekvrja4e48)" style="stroke: #000000; stroke-width: 1.5;"/><text fill="#000000" font-family="sans-serif" font-size="14" lengthAdjust="spacingAndGlyphs" textLength="46" x="534" y="322.9951">Broker</text><!--link User to Client--><path d="M43.5456,92.5 C51.7709,92.5 59.9963,92.5 68.2216,92.5 " fill="none" id="User-Client" style="stroke: #A80036; stroke-width: 1.0;"/><polygon fill="#A80036" points="73.343,92.5,64.343,88.5,68.343,92.5,64.343,96.5,73.343,92.5" style="stroke: #A80036; stroke-width: 1.0;"/><polygon fill="#A80036" points="38.3516,92.5,47.3516,96.5,43.3516,92.5,47.3516,88.5,38.3516,92.5" style="stroke: #A80036; stroke-width: 1.0;"/><!--link Client to reverseproxy--><path d="M157.859,92.5 C166.099,92.5 174.339,92.5 182.579,92.5 " fill="none" id="Client-reverseproxy" style="stroke: #A80036; stroke-width: 1.0;"/><polygon fill="#A80036" points="187.709,92.5,178.709,88.5,182.709,92.5,178.709,96.5,187.709,92.5" style="stroke: #A80036; stroke-width: 1.0;"/><polygon fill="#A80036" points="152.656,92.5,161.656,96.5,157.656,92.5,161.656,88.5,152.656,92.5" style="stroke: #A80036; stroke-width: 1.0;"/><!--link reverseproxy to Dispatcher--><path d="M331.507,92.5 C339.764,92.5 348.022,92.5 356.279,92.5 " fill="none" id="reverseproxy-Dispatcher" style="stroke: #A80036; stroke-width: 1.0;"/><polygon fill="#A80036" points="361.42,92.5,352.42,88.5,356.42,92.5,352.42,96.5,361.42,92.5" style="stroke: #A80036; stroke-width: 1.0;"/><polygon fill="#A80036" points="326.293,92.5,335.293,96.5,331.293,92.5,335.293,88.5,326.293,92.5" style="stroke: #A80036; stroke-width: 1.0;"/><!--link Dispatcher to Service--><path d="M481.896,92.5 C490.156,92.5 498.416,92.5 506.677,92.5 " fill="none" id="Dispatcher-Service" style="stroke: #A80036; stroke-width: 1.0;"/><polygon fill="#A80036" points="511.82,92.5,502.82,88.5,506.82,92.5,502.82,96.5,511.82,92.5" style="stroke: #A80036; stroke-width: 1.0;"/><polygon fill="#A80036" points="476.68,92.5,485.68,96.5,481.68,92.5,485.68,88.5,476.68,92.5" style="stroke: #A80036; stroke-width: 1.0;"/><!--link Dispatcher to Database--><path d="M419.223,120.845 C419.39,141.218 419.615,168.898 419.781,189.151 " fill="none" id="Dispatcher-Database" style="stroke: #A80036; stroke-width: 1.0;"/><polygon fill="#A80036" points="419.824,194.392,423.7493,185.3592,419.7826,189.3922,415.7496,185.4255,419.824,194.392" style="stroke: #A80036; stroke-width: 1.0;"/><polygon fill="#A80036" points="419.181,115.684,415.2557,124.7168,419.2224,120.6838,423.2554,124.6505,419.181,115.684" style="stroke: #A80036; stroke-width: 1.0;"/><!--link reverseproxy to Service--><path d="M285.152,66.239 C304.875,49.716 332.755,29.893 361.5,21 C410.328,5.894 428.722,2.845 476.5,21 C499.857,29.875 520.77,48.976 535.423,65.204 " fill="none" id="reverseproxy-Service" style="stroke: #A80036; stroke-width: 1.0;"/><polygon fill="#A80036" points="539.012,69.26,536.044,59.869,535.6988,65.5153,530.0525,65.1701,539.012,69.26" style="stroke: #A80036; stroke-width: 1.0;"/><polygon fill="#A80036" points="281.318,69.495,290.7671,66.7176,285.129,66.2583,285.5883,60.6201,281.318,69.495" style="stroke: #A80036; stroke-width: 1.0;"/><!--link Service to Database--><path d="M528.285,119.176 C504.717,140.25 471.531,169.923 448.125,190.851 " fill="none" id="Service-Database" style="stroke: #A80036; stroke-width: 1.0;"/><polygon fill="#A80036" points="444.165,194.392,453.5402,191.3745,447.8922,191.0591,448.2076,185.4111,444.165,194.392" style="stroke: #A80036; stroke-width: 1.0;"/><polygon fill="#A80036" points="532.19,115.684,522.8148,118.7015,528.4628,119.0169,528.1474,124.6649,532.19,115.684" style="stroke: #A80036; stroke-width: 1.0;"/><!--link Service to Connector--><path d="M557,120.812 C557,141.051 557,168.516 557,188.742 " fill="none" id="Service-Connector" style="stroke: #A80036; stroke-width: 1.0;"/><polygon fill="#A80036" points="557,193.981,561,184.981,557,188.981,553,184.981,557,193.981" style="stroke: #A80036; stroke-width: 1.0;"/><polygon fill="#A80036" points="557,115.684,553,124.684,557,120.684,561,124.684,557,115.684" style="stroke: #A80036; stroke-width: 1.0;"/><!--link Connector to Broker--><path d="M557,245.7042 C557,261.1899 557,280.2319 557,294.74 " fill="none" id="Connector-Broker" style="stroke: #A80036; stroke-width: 1.0;"/><polygon fill="#A80036" points="557,299.865,561,290.865,557,294.865,553,290.865,557,299.865" style="stroke: #A80036; stroke-width: 1.0;"/><polygon fill="#A80036" points="557,240.4646,553,249.4646,557,245.4646,561,249.4646,557,240.4646" style="stroke: #A80036; stroke-width: 1.0;"/><!--
@startuml
actor User

node Client
node "Reverse proxy" as reverseproxy
node Dispatcher
node Service
node Connector
database Database
cloud Broker

User <-right-> Client
Client <-right-> reverseproxy
reverseproxy <-right-> Dispatcher
Dispatcher <-right-> Service
Dispatcher <-right-> Database
reverseproxy <-right-> Service
Service <-down-> Database
Service <-down-> Connector
Connector <-down-> Broker
@enduml

PlantUML version 1.2018.10(Sat Aug 25 19:02:59 CEST 2018)
(APACHE source distribution)
Java Runtime: Java(TM) SE Runtime Environment
JVM: Java HotSpot(TM) 64-Bit Server VM
Java Version: 11.0.1+13-LTS
Operating System: Linux
OS Version: 4.9.0-8-amd64
Default Encoding: UTF-8
Language: fr
Country: FR
--></g></svg>