<?xml version="1.0" encoding="UTF-8" standalone="no"?><svg xmlns="http://www.w3.org/2000/svg" xmlns:xlink="http://www.w3.org/1999/xlink" contentScriptType="application/ecmascript" contentStyleType="text/css" height="61px" preserveAspectRatio="none" style="width:222px;height:61px;" version="1.1" viewBox="0 0 222 61" width="222px" zoomAndPan="magnify"><defs/><g><text fill="#000000" font-family="sans-serif" font-size="12" font-weight="bold" lengthAdjust="spacingAndGlyphs" textLength="58" x="8" y="17.1387">Position</text><line style="stroke: #000000; stroke-width: 1.0;" x1="6" x2="6" y1="6" y2="19.9688"/><line style="stroke: #000000; stroke-width: 1.0;" x1="6" x2="69" y1="6" y2="6"/><line style="stroke: #000000; stroke-width: 1.0;" x1="69" x2="69" y1="6" y2="19.9688"/><line style="stroke: #000000; stroke-width: 1.0;" x1="69" x2="79" y1="19.9688" y2="19.9688"/><text fill="#000000" font-family="sans-serif" font-size="12" lengthAdjust="spacingAndGlyphs" textLength="42" x="81" y="17.1387">Orders</text><line style="stroke: #000000; stroke-width: 1.0;" x1="79" x2="79" y1="6" y2="19.9688"/><line style="stroke: #000000; stroke-width: 1.0;" x1="79" x2="126" y1="6" y2="6"/><line style="stroke: #000000; stroke-width: 1.0;" x1="126" x2="126" y1="6" y2="19.9688"/><line style="stroke: #000000; stroke-width: 1.0;" x1="126" x2="136" y1="19.9688" y2="19.9688"/><text fill="#000000" font-family="sans-serif" font-size="12" lengthAdjust="spacingAndGlyphs" textLength="58" x="138" y="17.1387">Historical</text><line style="stroke: #000000; stroke-width: 1.0;" x1="136" x2="136" y1="6" y2="19.9688"/><line style="stroke: #000000; stroke-width: 1.0;" x1="136" x2="199" y1="6" y2="6"/><line style="stroke: #000000; stroke-width: 1.0;" x1="199" x2="199" y1="6" y2="19.9688"/><line style="stroke: #000000; stroke-width: 1.0;" x1="199" x2="209" y1="19.9688" y2="19.9688"/><text fill="#000000" font-family="sans-serif" font-size="12" lengthAdjust="spacingAndGlyphs" textLength="10" x="7" y="34.1074">#</text><text fill="#000000" font-family="sans-serif" font-size="12" lengthAdjust="spacingAndGlyphs" textLength="58" x="95" y="34.1074">Column 2</text><text fill="#000000" font-family="sans-serif" font-size="12" lengthAdjust="spacingAndGlyphs" textLength="58" x="155" y="34.1074">Column 3</text><text fill="#000000" font-family="sans-serif" font-size="12" lengthAdjust="spacingAndGlyphs" textLength="86" x="7" y="50.0762">Row header 1</text><text fill="#000000" font-family="sans-serif" font-size="12" lengthAdjust="spacingAndGlyphs" textLength="45" x="95" y="50.0762">value 1</text><text fill="#000000" font-family="sans-serif" font-size="12" lengthAdjust="spacingAndGlyphs" textLength="45" x="155" y="50.0762">value 2</text><line style="stroke: #000000; stroke-width: 1.0;" x1="6" x2="94" y1="21.9688" y2="21.9688"/><line style="stroke: #000000; stroke-width: 1.0;" x1="154" x2="214" y1="53.9063" y2="53.9063"/><line style="stroke: #000000; stroke-width: 1.0;" x1="94" x2="154" y1="37.9375" y2="37.9375"/><line style="stroke: #000000; stroke-width: 1.0;" x1="94" x2="154" y1="21.9688" y2="21.9688"/><line style="stroke: #000000; stroke-width: 1.0;" x1="154" x2="214" y1="37.9375" y2="37.9375"/><line style="stroke: #000000; stroke-width: 1.0;" x1="154" x2="214" y1="21.9688" y2="21.9688"/><line style="stroke: #000000; stroke-width: 1.0;" x1="6" x2="94" y1="53.9063" y2="53.9063"/><line style="stroke: #000000; stroke-width: 1.0;" x1="94" x2="154" y1="53.9063" y2="53.9063"/><line style="stroke: #000000; stroke-width: 1.0;" x1="6" x2="94" y1="37.9375" y2="37.9375"/><line style="stroke: #000000; stroke-width: 1.0;" x1="6" x2="6" y1="21.9688" y2="37.9375"/><line style="stroke: #000000; stroke-width: 1.0;" x1="94" x2="94" y1="37.9375" y2="53.9063"/><line style="stroke: #000000; stroke-width: 1.0;" x1="94" x2="94" y1="21.9688" y2="37.9375"/><line style="stroke: #000000; stroke-width: 1.0;" x1="154" x2="154" y1="37.9375" y2="53.9063"/><line style="stroke: #000000; stroke-width: 1.0;" x1="214" x2="214" y1="37.9375" y2="53.9063"/><line style="stroke: #000000; stroke-width: 1.0;" x1="154" x2="154" y1="21.9688" y2="37.9375"/><line style="stroke: #000000; stroke-width: 1.0;" x1="214" x2="214" y1="21.9688" y2="37.9375"/><line style="stroke: #000000; stroke-width: 1.0;" x1="6" x2="6" y1="37.9375" y2="53.9063"/><line style="stroke: #000000; stroke-width: 1.0;" x1="5" x2="215" y1="5" y2="5"/><line style="stroke: #000000; stroke-width: 1.0;" x1="5" x2="215" y1="54.9063" y2="54.9063"/><line style="stroke: #000000; stroke-width: 1.0;" x1="5" x2="5" y1="5" y2="20.9688"/><line style="stroke: #000000; stroke-width: 1.0;" x1="215" x2="215" y1="20.9688" y2="54.9063"/><line style="stroke: #000000; stroke-width: 1.0;" x1="215" x2="215" y1="5" y2="20.9688"/><line style="stroke: #000000; stroke-width: 1.0;" x1="5" x2="5" y1="20.9688" y2="54.9063"/></g></svg>