<?xml version="1.0" encoding="UTF-8" standalone="no"?><svg xmlns="http://www.w3.org/2000/svg" xmlns:xlink="http://www.w3.org/1999/xlink" contentScriptType="application/ecmascript" contentStyleType="text/css" height="172px" preserveAspectRatio="none" style="width:150px;height:172px;" version="1.1" viewBox="0 0 150 172" width="150px" zoomAndPan="magnify"><defs><filter height="300%" id="f6rtoewqi326" width="300%" x="-1" y="-1"><feGaussianBlur result="blurOut" stdDeviation="2.0"/><feColorMatrix in="blurOut" result="blurOut2" type="matrix" values="0 0 0 0 0 0 0 0 0 0 0 0 0 0 0 0 0 0 .4 0"/><feOffset dx="4.0" dy="4.0" in="blurOut2" result="blurOut3"/><feBlend in="SourceGraphic" in2="blurOut3" mode="normal"/></filter></defs><g><!--entity Service--><polygon fill="#FEFECE" filter="url(#f6rtoewqi326)" points="22,18,32,8,112,8,112,44.2969,102,54.2969,22,54.2969,22,18" style="stroke: #000000; stroke-width: 1.5;"/><line style="stroke: #000000; stroke-width: 1.5;" x1="102" x2="111" y1="18" y2="9"/><line style="stroke: #000000; stroke-width: 1.5;" x1="22" x2="102" y1="18" y2="18"/><line style="stroke: #000000; stroke-width: 1.5;" x1="102" x2="102" y1="18" y2="54.2969"/><text fill="#000000" font-family="sans-serif" font-size="14" lengthAdjust="spacingAndGlyphs" textLength="50" x="37" y="40.9951">Service</text><!--entity Connecteur--><polygon fill="#FEFECE" filter="url(#f6rtoewqi326)" points="6,124,16,114,128,114,128,150.2969,118,160.2969,6,160.2969,6,124" style="stroke: #000000; stroke-width: 1.5;"/><line style="stroke: #000000; stroke-width: 1.5;" x1="118" x2="127" y1="124" y2="115"/><line style="stroke: #000000; stroke-width: 1.5;" x1="6" x2="118" y1="124" y2="124"/><line style="stroke: #000000; stroke-width: 1.5;" x1="118" x2="118" y1="124" y2="160.2969"/><text fill="#000000" font-family="sans-serif" font-size="14" lengthAdjust="spacingAndGlyphs" textLength="82" x="21" y="146.9951">Connecteur</text><!--link Service to Connecteur--><path d="M56.3542,54.056 C53.8101,70.0503 53.573,91.7785 55.6429,108.8418 " fill="none" id="Service-Connecteur" style="stroke: #A80036; stroke-width: 1.0;"/><polygon fill="#A80036" points="56.3593,113.9761,59.0771,104.5097,55.6683,109.0241,51.1539,105.6153,56.3593,113.9761" style="stroke: #A80036; stroke-width: 1.0;"/><!--link Service to Connecteur--><path d="M79.0296,59.192 C81.218,76.2616 80.9637,97.9891 78.2666,113.9761 " fill="none" id="Service-Connecteur" style="stroke: #A80036; stroke-width: 1.0;"/><polygon fill="#A80036" points="78.272,54.056,75.6289,63.5436,79.002,59.0024,83.5431,62.3756,78.272,54.056" style="stroke: #A80036; stroke-width: 1.0;"/><!--
@startuml
node Service
node Connecteur

Service -down-> Connecteur
Service <-down- Connecteur
@enduml

PlantUML version 1.2018.10(Sat Aug 25 19:02:59 CEST 2018)
(APACHE source distribution)
Java Runtime: Java(TM) SE Runtime Environment
JVM: Java HotSpot(TM) 64-Bit Server VM
Java Version: 11.0.1+13-LTS
Operating System: Linux
OS Version: 4.9.0-8-amd64
Default Encoding: UTF-8
Language: fr
Country: FR
--></g></svg>