<?xml version="1.0" encoding="UTF-8" standalone="no"?><svg xmlns="http://www.w3.org/2000/svg" xmlns:xlink="http://www.w3.org/1999/xlink" contentScriptType="application/ecmascript" contentStyleType="text/css" height="381px" preserveAspectRatio="none" style="width:1011px;height:381px;" version="1.1" viewBox="0 0 1011 381" width="1011px" zoomAndPan="magnify"><defs><filter height="300%" id="f1bepp7p2cc2cq" width="300%" x="-1" y="-1"><feGaussianBlur result="blurOut" stdDeviation="2.0"/><feColorMatrix in="blurOut" result="blurOut2" type="matrix" values="0 0 0 0 0 0 0 0 0 0 0 0 0 0 0 0 0 0 .4 0"/><feOffset dx="4.0" dy="4.0" in="blurOut2" result="blurOut3"/><feBlend in="SourceGraphic" in2="blurOut3" mode="normal"/></filter></defs><g><!--cluster net.traderbook.service--><polygon fill="#FFFFFF" filter="url(#f1bepp7p2cc2cq)" points="22,36.5,210,36.5,217,58.7969,292,58.7969,292,310,22,310,22,36.5" style="stroke: #000000; stroke-width: 1.5;"/><line style="stroke: #000000; stroke-width: 1.5;" x1="22" x2="217" y1="58.7969" y2="58.7969"/><text fill="#000000" font-family="sans-serif" font-size="14" font-weight="bold" lengthAdjust="spacingAndGlyphs" textLength="182" x="26" y="51.4951">net.traderbook.service</text><!--cluster net.traderbook.api.connector--><polygon fill="#FFFFFF" filter="url(#f1bepp7p2cc2cq)" points="316,24,555,24,562,46.2969,989,46.2969,989,174,316,174,316,24" style="stroke: #000000; stroke-width: 1.5;"/><line style="stroke: #000000; stroke-width: 1.5;" x1="316" x2="562" y1="46.2969" y2="46.2969"/><text fill="#000000" font-family="sans-serif" font-size="14" font-weight="bold" lengthAdjust="spacingAndGlyphs" textLength="233" x="320" y="38.9951">net.traderbook.api.connector</text><!--cluster net.traderbook.connector--><polygon fill="#FFFFFF" filter="url(#f1bepp7p2cc2cq)" points="388,198,599,198,606,220.2969,609,220.2969,609,297,388,297,388,198" style="stroke: #000000; stroke-width: 1.5;"/><line style="stroke: #000000; stroke-width: 1.5;" x1="388" x2="606" y1="220.2969" y2="220.2969"/><text fill="#000000" font-family="sans-serif" font-size="14" font-weight="bold" lengthAdjust="spacingAndGlyphs" textLength="205" x="392" y="212.9951">net.traderbook.connector</text><!--class Service--><rect fill="#FEFECE" filter="url(#f1bepp7p2cc2cq)" height="73.6094" id="Service" style="stroke: #A80036; stroke-width: 1.5;" width="186" x="64" y="71.5"/><ellipse cx="130.25" cy="87.5" fill="#ADD1B2" rx="11" ry="11" style="stroke: #A80036; stroke-width: 1.0;"/><path d="M133.2188,93.1406 Q132.6406,93.4375 132,93.5781 Q131.3594,93.7344 130.6563,93.7344 Q128.1563,93.7344 126.8281,92.0938 Q125.5156,90.4375 125.5156,87.3125 Q125.5156,84.1875 126.8281,82.5313 Q128.1563,80.875 130.6563,80.875 Q131.3594,80.875 132,81.0313 Q132.6563,81.1875 133.2188,81.4844 L133.2188,84.2031 Q132.5938,83.625 132,83.3594 Q131.4063,83.0781 130.7813,83.0781 Q129.4375,83.0781 128.75,84.1563 Q128.0625,85.2188 128.0625,87.3125 Q128.0625,89.4063 128.75,90.4844 Q129.4375,91.5469 130.7813,91.5469 Q131.4063,91.5469 132,91.2813 Q132.5938,91 133.2188,90.4219 L133.2188,93.1406 Z "/><text fill="#000000" font-family="sans-serif" font-size="12" lengthAdjust="spacingAndGlyphs" textLength="45" x="150.75" y="91.6543">Service</text><line style="stroke: #A80036; stroke-width: 1.5;" x1="65" x2="249" y1="103.5" y2="103.5"/><rect fill="none" height="6" style="stroke: #C82930; stroke-width: 1.0;" width="6" x="72" y="112.4023"/><text fill="#000000" font-family="sans-serif" font-size="11" lengthAdjust="spacingAndGlyphs" textLength="160" x="84" y="117.7104">controller: ServiceController</text><line style="stroke: #A80036; stroke-width: 1.5;" x1="65" x2="249" y1="124.3047" y2="124.3047"/><ellipse cx="75" cy="136.207" fill="#84BE84" rx="3" ry="3" style="stroke: #038048; stroke-width: 1.0;"/><text fill="#000000" font-family="sans-serif" font-size="11" lengthAdjust="spacingAndGlyphs" textLength="152" x="84" y="138.5151">main(args: Array&lt;String&gt;)</text><!--class ServiceController--><rect fill="#FEFECE" filter="url(#f1bepp7p2cc2cq)" height="73.6094" id="ServiceController" style="stroke: #A80036; stroke-width: 1.5;" width="237" x="38.5" y="220"/><ellipse cx="99.75" cy="236" fill="#ADD1B2" rx="11" ry="11" style="stroke: #A80036; stroke-width: 1.0;"/><path d="M102.7188,241.6406 Q102.1406,241.9375 101.5,242.0781 Q100.8594,242.2344 100.1563,242.2344 Q97.6563,242.2344 96.3281,240.5938 Q95.0156,238.9375 95.0156,235.8125 Q95.0156,232.6875 96.3281,231.0313 Q97.6563,229.375 100.1563,229.375 Q100.8594,229.375 101.5,229.5313 Q102.1563,229.6875 102.7188,229.9844 L102.7188,232.7031 Q102.0938,232.125 101.5,231.8594 Q100.9063,231.5781 100.2813,231.5781 Q98.9375,231.5781 98.25,232.6563 Q97.5625,233.7188 97.5625,235.8125 Q97.5625,237.9063 98.25,238.9844 Q98.9375,240.0469 100.2813,240.0469 Q100.9063,240.0469 101.5,239.7813 Q102.0938,239.5 102.7188,238.9219 L102.7188,241.6406 Z "/><text fill="#000000" font-family="sans-serif" font-size="12" lengthAdjust="spacingAndGlyphs" textLength="106" x="120.25" y="240.1543">ServiceController</text><line style="stroke: #A80036; stroke-width: 1.5;" x1="39.5" x2="274.5" y1="252" y2="252"/><rect fill="none" height="6" style="stroke: #C82930; stroke-width: 1.0;" width="6" x="46.5" y="260.9023"/><text fill="#000000" font-family="sans-serif" font-size="11" lengthAdjust="spacingAndGlyphs" textLength="125" x="58.5" y="266.2104">connector: IConnector</text><line style="stroke: #A80036; stroke-width: 1.5;" x1="39.5" x2="274.5" y1="272.8047" y2="272.8047"/><rect fill="#F24D5C" height="6" style="stroke: #C82930; stroke-width: 1.0;" width="6" x="46.5" y="281.707"/><text fill="#000000" font-family="sans-serif" font-size="11" lengthAdjust="spacingAndGlyphs" textLength="211" x="58.5" y="287.0151">load(tradingAccount: TradingAccount)</text><!--class IConnectorObserver--><rect fill="#FEFECE" filter="url(#f1bepp7p2cc2cq)" height="73.6094" id="IConnectorObserver" style="stroke: #A80036; stroke-width: 1.5;" width="332" x="332" y="71.5"/><ellipse cx="432.25" cy="87.5" fill="#B4A7E5" rx="11" ry="11" style="stroke: #A80036; stroke-width: 1.0;"/><path d="M428.1719,83.2656 L428.1719,81.1094 L435.5625,81.1094 L435.5625,83.2656 L433.0938,83.2656 L433.0938,91.3438 L435.5625,91.3438 L435.5625,93.5 L428.1719,93.5 L428.1719,91.3438 L430.6406,91.3438 L430.6406,83.2656 L428.1719,83.2656 Z "/><text fill="#000000" font-family="sans-serif" font-size="12" font-style="italic" lengthAdjust="spacingAndGlyphs" textLength="123" x="452.75" y="91.6543">IConnectorObserver</text><line style="stroke: #A80036; stroke-width: 1.5;" x1="333" x2="663" y1="103.5" y2="103.5"/><rect fill="none" height="6" style="stroke: #C82930; stroke-width: 1.0;" width="6" x="340" y="112.4023"/><text fill="#000000" font-family="sans-serif" font-size="11" lengthAdjust="spacingAndGlyphs" textLength="178" x="352" y="117.7104">connector: IConnectorObserver</text><line style="stroke: #A80036; stroke-width: 1.5;" x1="333" x2="663" y1="124.3047" y2="124.3047"/><ellipse cx="343" cy="136.207" fill="#84BE84" rx="3" ry="3" style="stroke: #038048; stroke-width: 1.0;"/><text fill="#000000" font-family="sans-serif" font-size="11" lengthAdjust="spacingAndGlyphs" textLength="306" x="352" y="138.5151">update(message: ConnectorEventEnum, data: Object)</text><!--class IConnector--><rect fill="#FEFECE" filter="url(#f1bepp7p2cc2cq)" height="99.2188" id="IConnector" style="stroke: #A80036; stroke-width: 1.5;" width="274" x="699" y="59"/><ellipse cx="797.25" cy="75" fill="#B4A7E5" rx="11" ry="11" style="stroke: #A80036; stroke-width: 1.0;"/><path d="M793.1719,70.7656 L793.1719,68.6094 L800.5625,68.6094 L800.5625,70.7656 L798.0938,70.7656 L798.0938,78.8438 L800.5625,78.8438 L800.5625,81 L793.1719,81 L793.1719,78.8438 L795.6406,78.8438 L795.6406,70.7656 L793.1719,70.7656 Z "/><text fill="#000000" font-family="sans-serif" font-size="12" font-style="italic" lengthAdjust="spacingAndGlyphs" textLength="69" x="817.75" y="79.1543">IConnector</text><line style="stroke: #A80036; stroke-width: 1.5;" x1="700" x2="972" y1="91" y2="91"/><line style="stroke: #A80036; stroke-width: 1.5;" x1="700" x2="972" y1="99" y2="99"/><ellipse cx="710" cy="110.9023" fill="#84BE84" rx="3" ry="3" style="stroke: #038048; stroke-width: 1.0;"/><text fill="#000000" font-family="sans-serif" font-size="11" lengthAdjust="spacingAndGlyphs" textLength="248" x="719" y="113.2104">connection(tradingAccount: TradingAccount)</text><ellipse cx="710" cy="123.707" fill="#84BE84" rx="3" ry="3" style="stroke: #038048; stroke-width: 1.0;"/><text fill="#000000" font-family="sans-serif" font-size="11" lengthAdjust="spacingAndGlyphs" textLength="237" x="719" y="126.0151">placeTransaction(trasaction: Transaction)</text><ellipse cx="710" cy="136.5117" fill="#84BE84" rx="3" ry="3" style="stroke: #038048; stroke-width: 1.0;"/><text fill="#000000" font-family="sans-serif" font-size="11" lengthAdjust="spacingAndGlyphs" textLength="35" x="719" y="138.8198">login()</text><ellipse cx="710" cy="149.3164" fill="#84BE84" rx="3" ry="3" style="stroke: #038048; stroke-width: 1.0;"/><text fill="#000000" font-family="sans-serif" font-size="11" lengthAdjust="spacingAndGlyphs" textLength="43" x="719" y="151.6245">logout()</text><!--class Connector--><rect fill="#FEFECE" filter="url(#f1bepp7p2cc2cq)" height="48" id="Connector" style="stroke: #A80036; stroke-width: 1.5;" width="97" x="449.5" y="233"/><ellipse cx="464.5" cy="249" fill="#ADD1B2" rx="11" ry="11" style="stroke: #A80036; stroke-width: 1.0;"/><path d="M467.4688,254.6406 Q466.8906,254.9375 466.25,255.0781 Q465.6094,255.2344 464.9063,255.2344 Q462.4063,255.2344 461.0781,253.5938 Q459.7656,251.9375 459.7656,248.8125 Q459.7656,245.6875 461.0781,244.0313 Q462.4063,242.375 464.9063,242.375 Q465.6094,242.375 466.25,242.5313 Q466.9063,242.6875 467.4688,242.9844 L467.4688,245.7031 Q466.8438,245.125 466.25,244.8594 Q465.6563,244.5781 465.0313,244.5781 Q463.6875,244.5781 463,245.6563 Q462.3125,246.7188 462.3125,248.8125 Q462.3125,250.9063 463,251.9844 Q463.6875,253.0469 465.0313,253.0469 Q465.6563,253.0469 466.25,252.7813 Q466.8438,252.5 467.4688,251.9219 L467.4688,254.6406 Z "/><text fill="#000000" font-family="sans-serif" font-size="12" lengthAdjust="spacingAndGlyphs" textLength="65" x="478.5" y="253.1543">Connector</text><line style="stroke: #A80036; stroke-width: 1.5;" x1="450.5" x2="545.5" y1="265" y2="265"/><line style="stroke: #A80036; stroke-width: 1.5;" x1="450.5" x2="545.5" y1="273" y2="273"/><!--link IConnectorObserver to Connector--><path d="M498,145.713 C498,166.07 498,191.605 498,212.976 " fill="none" id="IConnectorObserver-Connector" style="stroke: #A80036; stroke-width: 1.0;"/><polygon fill="none" points="505,212.981,498,232.981,491,212.981,505,212.981" style="stroke: #A80036; stroke-width: 1.0;"/><!--link Connector to IConnector--><path d="M565.733,229.839 C600.661,216.077 643.831,198.644 682,182 C699.201,174.5 717.343,166.26 734.902,158.108 " fill="none" id="Connector-IConnector" style="stroke: #A80036; stroke-width: 1.0;"/><polygon fill="none" points="567.918,236.5011,546.743,237.2809,562.81,223.466,567.918,236.5011" style="stroke: #A80036; stroke-width: 1.0;"/><!--link ServiceController to Connector--><path d="M275.551,257 C329.068,257 382.585,257 436.101,257 " fill="none" id="ServiceController-Connector" style="stroke: #A80036; stroke-width: 1.0;"/><polygon fill="#A80036" points="449.339,257,443.339,253,437.339,257,443.339,261,449.339,257" style="stroke: #A80036; stroke-width: 1.0;"/><!--link Service to ServiceController--><path d="M157,145.713 C157,164.183 157,186.917 157,206.935 " fill="none" id="Service-ServiceController" style="stroke: #A80036; stroke-width: 1.0;"/><polygon fill="#A80036" points="157,219.949,161,213.949,157,207.949,153,213.949,157,219.949" style="stroke: #A80036; stroke-width: 1.0;"/><!--link IConnectorObserver to ServiceController--><path d="M414.145,145.526 C367.37,165.621 308.744,190.808 259.288,212.055 " fill="none" id="IConnectorObserver-ServiceController" style="stroke: #A80036; stroke-width: 1.0;"/><polygon fill="none" points="261.965,218.524,240.826,219.987,256.439,205.66,261.965,218.524" style="stroke: #A80036; stroke-width: 1.0;"/><!--link IConnector to ServiceController--><path d="M748.681,158.089 C727.46,167.771 704.41,176.608 682,182 C628.39,194.899 488.652,182.684 434,190 C388.325,196.114 339.187,206.527 295.163,217.296 " fill="none" id="IConnector-ServiceController" style="stroke: #A80036; stroke-width: 1.0;"/><polygon fill="none" points="296.755,224.113,275.655,222.171,293.361,210.531,296.755,224.113" style="stroke: #A80036; stroke-width: 1.0;"/><rect fill="#DDDDDD" height="26.2969" rx="5" ry="5" style="stroke: #000000; stroke-width: 1.0;" width="315" x="353.5" y="344"/><text fill="#000000" font-family="sans-serif" font-size="14" lengthAdjust="spacingAndGlyphs" textLength="303" x="359.5" y="361.9951">Diagramme de classe - Gestion d'un service</text><!--
@startuml
legend
Diagramme de classe - Gestion d'un service
endlegend

package net.traderbook.service {
    class Service {
        - controller: ServiceController
        + main(args: Array<String>)
    }

    class ServiceController {
        - connector: IConnector
        - load(tradingAccount: TradingAccount)
    }
}

package net.traderbook.api.connector {
  interface IConnectorObserver {
      - connector: IConnectorObserver
      + update(message: ConnectorEventEnum, data: Object)
  }

  interface IConnector {
      + connection(tradingAccount: TradingAccount)
      + placeTransaction(trasaction: Transaction)
      + login()
      + logout()
  }
}

package net.traderbook.connector {
  class Connector

  Connector <|-up- IConnectorObserver
  Connector <|-down- IConnector
}

ServiceController -left-* Connector
Service -up-* ServiceController
ServiceController <|-up- IConnectorObserver
ServiceController <|-up- IConnector
@enduml

PlantUML version 1.2018.10(Sat Aug 25 19:02:59 CEST 2018)
(APACHE source distribution)
Java Runtime: Java(TM) SE Runtime Environment
JVM: Java HotSpot(TM) 64-Bit Server VM
Java Version: 11.0.1+13-LTS
Operating System: Linux
OS Version: 4.9.0-8-amd64
Default Encoding: UTF-8
Language: fr
Country: FR
--></g></svg>