<?xml version="1.0" encoding="UTF-8" standalone="no"?><svg xmlns="http://www.w3.org/2000/svg" xmlns:xlink="http://www.w3.org/1999/xlink" contentScriptType="application/ecmascript" contentStyleType="text/css" height="172px" preserveAspectRatio="none" style="width:226px;height:172px;" version="1.1" viewBox="0 0 226 172" width="226px" zoomAndPan="magnify"><defs><filter height="300%" id="f1b74gqio4ydnq" width="300%" x="-1" y="-1"><feGaussianBlur result="blurOut" stdDeviation="2.0"/><feColorMatrix in="blurOut" result="blurOut2" type="matrix" values="0 0 0 0 0 0 0 0 0 0 0 0 0 0 0 0 0 0 .4 0"/><feOffset dx="4.0" dy="4.0" in="blurOut2" result="blurOut3"/><feBlend in="SourceGraphic" in2="blurOut3" mode="normal"/></filter></defs><g><!--entity API--><polygon fill="#FEFECE" filter="url(#f1b74gqio4ydnq)" points="73,18,83,8,134,8,134,44.2969,124,54.2969,73,54.2969,73,18" style="stroke: #000000; stroke-width: 1.5;"/><line style="stroke: #000000; stroke-width: 1.5;" x1="124" x2="133" y1="18" y2="9"/><line style="stroke: #000000; stroke-width: 1.5;" x1="73" x2="124" y1="18" y2="18"/><line style="stroke: #000000; stroke-width: 1.5;" x1="124" x2="124" y1="18" y2="54.2969"/><text fill="#000000" font-family="sans-serif" font-size="14" lengthAdjust="spacingAndGlyphs" textLength="21" x="88" y="40.9951">API</text><!--entity Client--><polygon fill="#FEFECE" filter="url(#f1b74gqio4ydnq)" points="6,124,16,114,85,114,85,150.2969,75,160.2969,6,160.2969,6,124" style="stroke: #000000; stroke-width: 1.5;"/><line style="stroke: #000000; stroke-width: 1.5;" x1="75" x2="84" y1="124" y2="115"/><line style="stroke: #000000; stroke-width: 1.5;" x1="6" x2="75" y1="124" y2="124"/><line style="stroke: #000000; stroke-width: 1.5;" x1="75" x2="75" y1="124" y2="160.2969"/><text fill="#000000" font-family="sans-serif" font-size="14" lengthAdjust="spacingAndGlyphs" textLength="39" x="21" y="146.9951">Client</text><!--entity Server--><polygon fill="#FEFECE" filter="url(#f1b74gqio4ydnq)" points="120.5,124,130.5,114,204.5,114,204.5,150.2969,194.5,160.2969,120.5,160.2969,120.5,124" style="stroke: #000000; stroke-width: 1.5;"/><line style="stroke: #000000; stroke-width: 1.5;" x1="194.5" x2="203.5" y1="124" y2="115"/><line style="stroke: #000000; stroke-width: 1.5;" x1="120.5" x2="194.5" y1="124" y2="124"/><line style="stroke: #000000; stroke-width: 1.5;" x1="194.5" x2="194.5" y1="124" y2="160.2969"/><text fill="#000000" font-family="sans-serif" font-size="14" lengthAdjust="spacingAndGlyphs" textLength="44" x="135.5" y="146.9951">Server</text><!--link API to Client--><path d="M91.1997,54.056 C81.3569,71.7049 67.6207,96.3353 57.7826,113.9761 " fill="none" id="API-Client" style="stroke: #A80036; stroke-width: 1.0;"/><!--link API to Server--><path d="M116.012,54.056 C126.025,71.7049 139.998,96.3353 150.006,113.9761 " fill="none" id="API-Server" style="stroke: #A80036; stroke-width: 1.0;"/><!--
@startuml
node API
node Client
node Server

API - - Client
API - - Server
@enduml

PlantUML version 1.2018.10(Sat Aug 25 19:02:59 CEST 2018)
(APACHE source distribution)
Java Runtime: Java(TM) SE Runtime Environment
JVM: Java HotSpot(TM) 64-Bit Server VM
Java Version: 11.0.1+13-LTS
Operating System: Linux
OS Version: 4.9.0-8-amd64
Default Encoding: UTF-8
Language: fr
Country: FR
--></g></svg>