<?xml version="1.0" encoding="UTF-8" standalone="no"?><svg xmlns="http://www.w3.org/2000/svg" xmlns:xlink="http://www.w3.org/1999/xlink" contentScriptType="application/ecmascript" contentStyleType="text/css" height="392px" preserveAspectRatio="none" style="width:767px;height:392px;" version="1.1" viewBox="0 0 767 392" width="767px" zoomAndPan="magnify"><defs><filter height="300%" id="f46i9kj4t7tpk" width="300%" x="-1" y="-1"><feGaussianBlur result="blurOut" stdDeviation="2.0"/><feColorMatrix in="blurOut" result="blurOut2" type="matrix" values="0 0 0 0 0 0 0 0 0 0 0 0 0 0 0 0 0 0 .4 0"/><feOffset dx="4.0" dy="4.0" in="blurOut2" result="blurOut3"/><feBlend in="SourceGraphic" in2="blurOut3" mode="normal"/></filter></defs><g><!--class Profile--><rect fill="#FEFECE" filter="url(#f46i9kj4t7tpk)" height="86.4141" id="Profile" style="stroke: #A80036; stroke-width: 1.5;" width="137" x="54.5" y="59.5"/><ellipse cx="99.25" cy="75.5" fill="#ADD1B2" rx="11" ry="11" style="stroke: #A80036; stroke-width: 1.0;"/><path d="M102.2188,81.1406 Q101.6406,81.4375 101,81.5781 Q100.3594,81.7344 99.6563,81.7344 Q97.1563,81.7344 95.8281,80.0938 Q94.5156,78.4375 94.5156,75.3125 Q94.5156,72.1875 95.8281,70.5313 Q97.1563,68.875 99.6563,68.875 Q100.3594,68.875 101,69.0313 Q101.6563,69.1875 102.2188,69.4844 L102.2188,72.2031 Q101.5938,71.625 101,71.3594 Q100.4063,71.0781 99.7813,71.0781 Q98.4375,71.0781 97.75,72.1563 Q97.0625,73.2188 97.0625,75.3125 Q97.0625,77.4063 97.75,78.4844 Q98.4375,79.5469 99.7813,79.5469 Q100.4063,79.5469 101,79.2813 Q101.5938,79 102.2188,78.4219 L102.2188,81.1406 Z "/><text fill="#000000" font-family="sans-serif" font-size="12" lengthAdjust="spacingAndGlyphs" textLength="39" x="119.75" y="79.6543">Profile</text><line style="stroke: #A80036; stroke-width: 1.5;" x1="55.5" x2="190.5" y1="91.5" y2="91.5"/><rect fill="none" height="6" style="stroke: #C82930; stroke-width: 1.0;" width="6" x="62.5" y="100.4023"/><text fill="#000000" font-family="sans-serif" font-size="11" lengthAdjust="spacingAndGlyphs" textLength="111" x="74.5" y="105.7104">accounts: Account[]</text><rect fill="none" height="6" style="stroke: #C82930; stroke-width: 1.0;" width="6" x="62.5" y="113.207"/><text fill="#000000" font-family="sans-serif" font-size="11" lengthAdjust="spacingAndGlyphs" textLength="100" x="74.5" y="118.5151">username: String</text><rect fill="none" height="6" style="stroke: #C82930; stroke-width: 1.0;" width="6" x="62.5" y="126.0117"/><text fill="#000000" font-family="sans-serif" font-size="11" lengthAdjust="spacingAndGlyphs" textLength="98" x="74.5" y="131.3198">password: String</text><line style="stroke: #A80036; stroke-width: 1.5;" x1="55.5" x2="190.5" y1="137.9141" y2="137.9141"/><!--class Account--><rect fill="#FEFECE" filter="url(#f46i9kj4t7tpk)" height="124.8281" id="Account" style="stroke: #A80036; stroke-width: 1.5;" width="208" x="6" y="257"/><ellipse cx="80.25" cy="273" fill="#ADD1B2" rx="11" ry="11" style="stroke: #A80036; stroke-width: 1.0;"/><path d="M83.2188,278.6406 Q82.6406,278.9375 82,279.0781 Q81.3594,279.2344 80.6563,279.2344 Q78.1563,279.2344 76.8281,277.5938 Q75.5156,275.9375 75.5156,272.8125 Q75.5156,269.6875 76.8281,268.0313 Q78.1563,266.375 80.6563,266.375 Q81.3594,266.375 82,266.5313 Q82.6563,266.6875 83.2188,266.9844 L83.2188,269.7031 Q82.5938,269.125 82,268.8594 Q81.4063,268.5781 80.7813,268.5781 Q79.4375,268.5781 78.75,269.6563 Q78.0625,270.7188 78.0625,272.8125 Q78.0625,274.9063 78.75,275.9844 Q79.4375,277.0469 80.7813,277.0469 Q81.4063,277.0469 82,276.7813 Q82.5938,276.5 83.2188,275.9219 L83.2188,278.6406 Z "/><text fill="#000000" font-family="sans-serif" font-size="12" lengthAdjust="spacingAndGlyphs" textLength="51" x="100.75" y="277.1543">Account</text><line style="stroke: #A80036; stroke-width: 1.5;" x1="7" x2="213" y1="289" y2="289"/><rect fill="none" height="6" style="stroke: #C82930; stroke-width: 1.0;" width="6" x="14" y="297.9023"/><text fill="#000000" font-family="sans-serif" font-size="11" lengthAdjust="spacingAndGlyphs" textLength="182" x="26" y="303.2104">accountType: AccountTypeEnum</text><rect fill="none" height="6" style="stroke: #C82930; stroke-width: 1.0;" width="6" x="14" y="310.707"/><text fill="#000000" font-family="sans-serif" font-size="11" lengthAdjust="spacingAndGlyphs" textLength="154" x="26" y="316.0151">transactions: Transaction[]</text><rect fill="none" height="6" style="stroke: #C82930; stroke-width: 1.0;" width="6" x="14" y="323.5117"/><text fill="#000000" font-family="sans-serif" font-size="11" lengthAdjust="spacingAndGlyphs" textLength="79" x="26" y="328.8198">broker: String</text><rect fill="none" height="6" style="stroke: #C82930; stroke-width: 1.0;" width="6" x="14" y="336.3164"/><text fill="#000000" font-family="sans-serif" font-size="11" lengthAdjust="spacingAndGlyphs" textLength="100" x="26" y="341.6245">username: String</text><rect fill="none" height="6" style="stroke: #C82930; stroke-width: 1.0;" width="6" x="14" y="349.1211"/><text fill="#000000" font-family="sans-serif" font-size="11" lengthAdjust="spacingAndGlyphs" textLength="98" x="26" y="354.4292">password: String</text><rect fill="none" height="6" style="stroke: #C82930; stroke-width: 1.0;" width="6" x="14" y="361.9258"/><text fill="#000000" font-family="sans-serif" font-size="11" lengthAdjust="spacingAndGlyphs" textLength="90" x="26" y="367.2339">status: Boolean</text><line style="stroke: #A80036; stroke-width: 1.5;" x1="7" x2="213" y1="373.8281" y2="373.8281"/><!--class Algorithm--><rect fill="#FEFECE" filter="url(#f46i9kj4t7tpk)" height="86.4141" id="Algorithm" style="stroke: #A80036; stroke-width: 1.5;" width="180" x="249" y="276.5"/><ellipse cx="305.25" cy="292.5" fill="#ADD1B2" rx="11" ry="11" style="stroke: #A80036; stroke-width: 1.0;"/><path d="M308.2188,298.1406 Q307.6406,298.4375 307,298.5781 Q306.3594,298.7344 305.6563,298.7344 Q303.1563,298.7344 301.8281,297.0938 Q300.5156,295.4375 300.5156,292.3125 Q300.5156,289.1875 301.8281,287.5313 Q303.1563,285.875 305.6563,285.875 Q306.3594,285.875 307,286.0313 Q307.6563,286.1875 308.2188,286.4844 L308.2188,289.2031 Q307.5938,288.625 307,288.3594 Q306.4063,288.0781 305.7813,288.0781 Q304.4375,288.0781 303.75,289.1563 Q303.0625,290.2188 303.0625,292.3125 Q303.0625,294.4063 303.75,295.4844 Q304.4375,296.5469 305.7813,296.5469 Q306.4063,296.5469 307,296.2813 Q307.5938,296 308.2188,295.4219 L308.2188,298.1406 Z "/><text fill="#000000" font-family="sans-serif" font-size="12" lengthAdjust="spacingAndGlyphs" textLength="59" x="325.75" y="296.6543">Algorithm</text><line style="stroke: #A80036; stroke-width: 1.5;" x1="250" x2="428" y1="308.5" y2="308.5"/><rect fill="none" height="6" style="stroke: #C82930; stroke-width: 1.0;" width="6" x="257" y="317.4023"/><text fill="#000000" font-family="sans-serif" font-size="11" lengthAdjust="spacingAndGlyphs" textLength="154" x="269" y="322.7104">transactions: Transaction[]</text><rect fill="none" height="6" style="stroke: #C82930; stroke-width: 1.0;" width="6" x="257" y="330.207"/><text fill="#000000" font-family="sans-serif" font-size="11" lengthAdjust="spacingAndGlyphs" textLength="74" x="269" y="335.5151">name: String</text><rect fill="none" height="6" style="stroke: #C82930; stroke-width: 1.0;" width="6" x="257" y="343.0117"/><text fill="#000000" font-family="sans-serif" font-size="11" lengthAdjust="spacingAndGlyphs" textLength="125" x="269" y="348.3198">directoryName: String</text><line style="stroke: #A80036; stroke-width: 1.5;" x1="250" x2="428" y1="354.9141" y2="354.9141"/><!--class Transaction--><rect fill="#FEFECE" filter="url(#f46i9kj4t7tpk)" height="188.8516" id="Transaction" style="stroke: #A80036; stroke-width: 1.5;" width="142" x="254" y="8"/><ellipse cx="285.2" cy="24" fill="#ADD1B2" rx="11" ry="11" style="stroke: #A80036; stroke-width: 1.0;"/><path d="M288.1688,29.6406 Q287.5906,29.9375 286.95,30.0781 Q286.3094,30.2344 285.6063,30.2344 Q283.1063,30.2344 281.7781,28.5938 Q280.4656,26.9375 280.4656,23.8125 Q280.4656,20.6875 281.7781,19.0313 Q283.1063,17.375 285.6063,17.375 Q286.3094,17.375 286.95,17.5313 Q287.6063,17.6875 288.1688,17.9844 L288.1688,20.7031 Q287.5438,20.125 286.95,19.8594 Q286.3563,19.5781 285.7313,19.5781 Q284.3875,19.5781 283.7,20.6563 Q283.0125,21.7188 283.0125,23.8125 Q283.0125,25.9063 283.7,26.9844 Q284.3875,28.0469 285.7313,28.0469 Q286.3563,28.0469 286.95,27.7813 Q287.5438,27.5 288.1688,26.9219 L288.1688,29.6406 Z "/><text fill="#000000" font-family="sans-serif" font-size="12" lengthAdjust="spacingAndGlyphs" textLength="74" x="302.8" y="28.1543">Transaction</text><line style="stroke: #A80036; stroke-width: 1.5;" x1="255" x2="395" y1="40" y2="40"/><rect fill="none" height="6" style="stroke: #C82930; stroke-width: 1.0;" width="6" x="262" y="48.9023"/><text fill="#000000" font-family="sans-serif" font-size="11" lengthAdjust="spacingAndGlyphs" textLength="116" x="274" y="54.2104">transactionId: String</text><rect fill="none" height="6" style="stroke: #C82930; stroke-width: 1.0;" width="6" x="262" y="61.707"/><text fill="#000000" font-family="sans-serif" font-size="11" lengthAdjust="spacingAndGlyphs" textLength="104" x="274" y="67.0151">instrument: String</text><rect fill="none" height="6" style="stroke: #C82930; stroke-width: 1.0;" width="6" x="262" y="74.5117"/><text fill="#000000" font-family="sans-serif" font-size="11" lengthAdjust="spacingAndGlyphs" textLength="88" x="274" y="79.8198">openDate: Date</text><rect fill="none" height="6" style="stroke: #C82930; stroke-width: 1.0;" width="6" x="262" y="87.3164"/><text fill="#000000" font-family="sans-serif" font-size="11" lengthAdjust="spacingAndGlyphs" textLength="90" x="274" y="92.6245">closeDate: Date</text><rect fill="none" height="6" style="stroke: #C82930; stroke-width: 1.0;" width="6" x="262" y="100.1211"/><text fill="#000000" font-family="sans-serif" font-size="11" lengthAdjust="spacingAndGlyphs" textLength="68" x="274" y="105.4292">lots: Double</text><rect fill="none" height="6" style="stroke: #C82930; stroke-width: 1.0;" width="6" x="262" y="112.9258"/><text fill="#000000" font-family="sans-serif" font-size="11" lengthAdjust="spacingAndGlyphs" textLength="64" x="274" y="118.2339">pip: Double</text><rect fill="none" height="6" style="stroke: #C82930; stroke-width: 1.0;" width="6" x="262" y="125.7305"/><text fill="#000000" font-family="sans-serif" font-size="11" lengthAdjust="spacingAndGlyphs" textLength="103" x="274" y="131.0386">openPrice: Double</text><rect fill="none" height="6" style="stroke: #C82930; stroke-width: 1.0;" width="6" x="262" y="138.5352"/><text fill="#000000" font-family="sans-serif" font-size="11" lengthAdjust="spacingAndGlyphs" textLength="105" x="274" y="143.8433">closePrice: Double</text><rect fill="none" height="6" style="stroke: #C82930; stroke-width: 1.0;" width="6" x="262" y="151.3398"/><text fill="#000000" font-family="sans-serif" font-size="11" lengthAdjust="spacingAndGlyphs" textLength="96" x="274" y="156.6479">stoploss: Double</text><rect fill="none" height="6" style="stroke: #C82930; stroke-width: 1.0;" width="6" x="262" y="164.1445"/><text fill="#000000" font-family="sans-serif" font-size="11" lengthAdjust="spacingAndGlyphs" textLength="101" x="274" y="169.4526">takeprofit: Double</text><rect fill="none" height="6" style="stroke: #C82930; stroke-width: 1.0;" width="6" x="262" y="176.9492"/><text fill="#000000" font-family="sans-serif" font-size="11" lengthAdjust="spacingAndGlyphs" textLength="77" x="274" y="182.2573">profit: Double</text><line style="stroke: #A80036; stroke-width: 1.5;" x1="255" x2="395" y1="188.8516" y2="188.8516"/><!--class AccountTypeEnum--><rect fill="#FEFECE" filter="url(#f46i9kj4t7tpk)" height="73.6094" id="AccountTypeEnum" style="stroke: #A80036; stroke-width: 1.5;" width="147" x="431.5" y="65.5"/><ellipse cx="446.5" cy="81.5" fill="#EB937F" rx="11" ry="11" style="stroke: #A80036; stroke-width: 1.0;"/><path d="M450.6094,87.5 L442.8906,87.5 L442.8906,75.1094 L450.6094,75.1094 L450.6094,77.2656 L445.3438,77.2656 L445.3438,79.9375 L450.1094,79.9375 L450.1094,82.0938 L445.3438,82.0938 L445.3438,85.3438 L450.6094,85.3438 L450.6094,87.5 Z "/><text fill="#000000" font-family="sans-serif" font-size="12" lengthAdjust="spacingAndGlyphs" textLength="115" x="460.5" y="85.6543">AccountTypeEnum</text><line style="stroke: #A80036; stroke-width: 1.5;" x1="432.5" x2="577.5" y1="97.5" y2="97.5"/><text fill="#000000" font-family="sans-serif" font-size="11" lengthAdjust="spacingAndGlyphs" textLength="33" x="437.5" y="111.7104">DEMO</text><text fill="#000000" font-family="sans-serif" font-size="11" lengthAdjust="spacingAndGlyphs" textLength="27" x="437.5" y="124.5151">REAL</text><line style="stroke: #A80036; stroke-width: 1.5;" x1="432.5" x2="577.5" y1="131.1094" y2="131.1094"/><!--class InstrumentsEnum--><rect fill="#FEFECE" filter="url(#f46i9kj4t7tpk)" height="86.4141" id="InstrumentsEnum" style="stroke: #A80036; stroke-width: 1.5;" width="142" x="614" y="59.5"/><ellipse cx="629" cy="75.5" fill="#EB937F" rx="11" ry="11" style="stroke: #A80036; stroke-width: 1.0;"/><path d="M633.1094,81.5 L625.3906,81.5 L625.3906,69.1094 L633.1094,69.1094 L633.1094,71.2656 L627.8438,71.2656 L627.8438,73.9375 L632.6094,73.9375 L632.6094,76.0938 L627.8438,76.0938 L627.8438,79.3438 L633.1094,79.3438 L633.1094,81.5 Z "/><text fill="#000000" font-family="sans-serif" font-size="12" lengthAdjust="spacingAndGlyphs" textLength="110" x="643" y="79.6543">InstrumentsEnum</text><line style="stroke: #A80036; stroke-width: 1.5;" x1="615" x2="755" y1="91.5" y2="91.5"/><text fill="#000000" font-family="sans-serif" font-size="11" lengthAdjust="spacingAndGlyphs" textLength="46" x="620" y="105.7104">EURUSD</text><text fill="#000000" font-family="sans-serif" font-size="11" lengthAdjust="spacingAndGlyphs" textLength="48" x="620" y="118.5151">GBPUSD</text><text fill="#000000" font-family="sans-serif" font-size="11" lengthAdjust="spacingAndGlyphs" textLength="12" x="620" y="131.3198">...</text><line style="stroke: #A80036; stroke-width: 1.5;" x1="615" x2="755" y1="137.9141" y2="137.9141"/><!--link Profile to Account--><path d="M119.648,158.937 C117.837,188.894 115.595,225.964 113.729,256.831 " fill="none" id="Profile-Account" style="stroke: #A80036; stroke-width: 1.0;"/><polygon fill="#A80036" points="120.447,145.721,116.0917,151.4683,119.7217,157.6991,124.077,151.9518,120.447,145.721" style="stroke: #A80036; stroke-width: 1.0;"/><text fill="#000000" font-family="sans-serif" font-size="13" lengthAdjust="spacingAndGlyphs" textLength="8" x="111.4026" y="165.8491">1</text><text fill="#000000" font-family="sans-serif" font-size="13" lengthAdjust="spacingAndGlyphs" textLength="36" x="76.0787" y="245.8022">many</text><!--link Profile to Algorithm--><path d="M175.092,155.351 C212.347,192.433 261.857,241.715 296.68,276.376 " fill="none" id="Profile-Algorithm" style="stroke: #A80036; stroke-width: 1.0;"/><polygon fill="#A80036" points="165.417,145.721,166.8471,152.7889,173.9214,154.1871,172.4912,147.1193,165.417,145.721" style="stroke: #A80036; stroke-width: 1.0;"/><text fill="#000000" font-family="sans-serif" font-size="13" lengthAdjust="spacingAndGlyphs" textLength="8" x="163.5397" y="165.8491">1</text><text fill="#000000" font-family="sans-serif" font-size="13" lengthAdjust="spacingAndGlyphs" textLength="36" x="251.0665" y="265.3523">many</text><!--link Transaction to Account--><path d="M253.707,174.793 C230.394,198.106 204.508,223.992 181.202,247.298 " fill="none" id="Transaction-Account" style="stroke: #A80036; stroke-width: 1.0;"/><polygon fill="#A80036" points="171.729,256.771,178.8001,255.3568,180.2143,248.2857,173.1432,249.6999,171.729,256.771" style="stroke: #A80036; stroke-width: 1.0;"/><text fill="#000000" font-family="sans-serif" font-size="13" lengthAdjust="spacingAndGlyphs" textLength="36" x="210.0334" y="177.4401">many</text><text fill="#000000" font-family="sans-serif" font-size="13" lengthAdjust="spacingAndGlyphs" textLength="8" x="170.4039" y="245.7353">1</text><!--link Transaction to Algorithm--><path d="M331.1,197.177 C332.568,219.719 334.089,243.085 335.401,263.222 " fill="none" id="Transaction-Algorithm" style="stroke: #A80036; stroke-width: 1.0;"/><polygon fill="#A80036" points="336.25,276.271,339.8512,270.0235,335.4694,264.2964,331.8682,270.5439,336.25,276.271" style="stroke: #A80036; stroke-width: 1.0;"/><text fill="#000000" font-family="sans-serif" font-size="13" lengthAdjust="spacingAndGlyphs" textLength="36" x="294.1889" y="217.0776">many</text><text fill="#000000" font-family="sans-serif" font-size="13" lengthAdjust="spacingAndGlyphs" textLength="8" x="327.2164" y="265.5485">1</text><!--
@startuml
Profile "1" *- - "many" Account
Profile "1" *- - "many" Algorithm
Transaction "many" - -* "1" Account
Transaction "many" - -* "1" Algorithm

class Profile {
 - accounts: Account[]
 - username: String
 - password: String
}

class Account {
 - accountType: AccountTypeEnum
 - transactions: Transaction[]
 - broker: String
 - username: String
 - password: String
 - status: Boolean
}

class Transaction {
 - transactionId: String
 - instrument: String
 - openDate: Date
 - closeDate: Date
 - lots: Double
 - pip: Double
 - openPrice: Double
 - closePrice: Double
 - stoploss: Double
 - takeprofit: Double
 - profit: Double
}

class Algorithm {
 - transactions: Transaction[]
 - name: String
 - directoryName: String
}

enum AccountTypeEnum {
  DEMO
  REAL
}

enum InstrumentsEnum {
  EURUSD
  GBPUSD
  ...
}
@enduml

PlantUML version 1.2018.10(Sat Aug 25 19:02:59 CEST 2018)
(APACHE source distribution)
Java Runtime: Java(TM) SE Runtime Environment
JVM: Java HotSpot(TM) 64-Bit Server VM
Java Version: 11.0.1+13-LTS
Operating System: Linux
OS Version: 4.9.0-8-amd64
Default Encoding: UTF-8
Language: fr
Country: FR
--></g></svg>