<?xml version="1.0" encoding="UTF-8" standalone="no"?><svg xmlns="http://www.w3.org/2000/svg" xmlns:xlink="http://www.w3.org/1999/xlink" contentScriptType="application/ecmascript" contentStyleType="text/css" height="423px" preserveAspectRatio="none" style="width:1087px;height:423px;" version="1.1" viewBox="0 0 1087 423" width="1087px" zoomAndPan="magnify"><defs><filter height="300%" id="f14tynqzp0js7z" width="300%" x="-1" y="-1"><feGaussianBlur result="blurOut" stdDeviation="2.0"/><feColorMatrix in="blurOut" result="blurOut2" type="matrix" values="0 0 0 0 0 0 0 0 0 0 0 0 0 0 0 0 0 0 .4 0"/><feOffset dx="4.0" dy="4.0" in="blurOut2" result="blurOut3"/><feBlend in="SourceGraphic" in2="blurOut3" mode="normal"/></filter></defs><g><line style="stroke: #A80036; stroke-width: 1.0; stroke-dasharray: 5.0,5.0;" x1="42" x2="42" y1="38.2969" y2="343.3594"/><line style="stroke: #A80036; stroke-width: 1.0; stroke-dasharray: 5.0,5.0;" x1="349.5" x2="349.5" y1="38.2969" y2="343.3594"/><line style="stroke: #A80036; stroke-width: 1.0; stroke-dasharray: 5.0,5.0;" x1="720.5" x2="720.5" y1="38.2969" y2="343.3594"/><rect fill="#FEFECE" filter="url(#f14tynqzp0js7z)" height="30.2969" style="stroke: #A80036; stroke-width: 1.5;" width="64" x="8" y="3"/><text fill="#000000" font-family="sans-serif" font-size="14" lengthAdjust="spacingAndGlyphs" textLength="50" x="15" y="22.9951">Service</text><rect fill="#FEFECE" filter="url(#f14tynqzp0js7z)" height="30.2969" style="stroke: #A80036; stroke-width: 1.5;" width="64" x="8" y="342.3594"/><text fill="#000000" font-family="sans-serif" font-size="14" lengthAdjust="spacingAndGlyphs" textLength="50" x="15" y="362.3545">Service</text><rect fill="#FEFECE" filter="url(#f14tynqzp0js7z)" height="30.2969" style="stroke: #A80036; stroke-width: 1.5;" width="131" x="282.5" y="3"/><text fill="#000000" font-family="sans-serif" font-size="14" lengthAdjust="spacingAndGlyphs" textLength="117" x="289.5" y="22.9951">ServiceController</text><rect fill="#FEFECE" filter="url(#f14tynqzp0js7z)" height="30.2969" style="stroke: #A80036; stroke-width: 1.5;" width="131" x="282.5" y="342.3594"/><text fill="#000000" font-family="sans-serif" font-size="14" lengthAdjust="spacingAndGlyphs" textLength="117" x="289.5" y="362.3545">ServiceController</text><rect fill="#FEFECE" filter="url(#f14tynqzp0js7z)" height="30.2969" style="stroke: #A80036; stroke-width: 1.5;" width="87" x="675.5" y="3"/><text fill="#000000" font-family="sans-serif" font-size="14" lengthAdjust="spacingAndGlyphs" textLength="73" x="682.5" y="22.9951">Connector</text><rect fill="#FEFECE" filter="url(#f14tynqzp0js7z)" height="30.2969" style="stroke: #A80036; stroke-width: 1.5;" width="87" x="675.5" y="342.3594"/><text fill="#000000" font-family="sans-serif" font-size="14" lengthAdjust="spacingAndGlyphs" textLength="73" x="682.5" y="362.3545">Connector</text><polygon fill="#A80036" points="338,65.4297,348,69.4297,338,73.4297,342,69.4297" style="stroke: #A80036; stroke-width: 1.0;"/><line style="stroke: #A80036; stroke-width: 1.0;" x1="42" x2="344" y1="69.4297" y2="69.4297"/><text fill="#000000" font-family="sans-serif" font-size="13" lengthAdjust="spacingAndGlyphs" textLength="284" x="49" y="64.3638">connection(tradingAccount: TradingAccount)</text><line style="stroke: #A80036; stroke-width: 1.0;" x1="350" x2="392" y1="98.5625" y2="98.5625"/><line style="stroke: #A80036; stroke-width: 1.0;" x1="392" x2="392" y1="98.5625" y2="111.5625"/><line style="stroke: #A80036; stroke-width: 1.0;" x1="351" x2="392" y1="111.5625" y2="111.5625"/><polygon fill="#A80036" points="361,107.5625,351,111.5625,361,115.5625,357,111.5625" style="stroke: #A80036; stroke-width: 1.0;"/><text fill="#000000" font-family="sans-serif" font-size="13" lengthAdjust="spacingAndGlyphs" textLength="241" x="357" y="93.4966">load(tradingAccount: TradingAccount)</text><polygon fill="#A80036" points="709,136.6953,719,140.6953,709,144.6953,713,140.6953" style="stroke: #A80036; stroke-width: 1.0;"/><line style="stroke: #A80036; stroke-width: 1.0;" x1="350" x2="715" y1="140.6953" y2="140.6953"/><text fill="#000000" font-family="sans-serif" font-size="13" lengthAdjust="spacingAndGlyphs" textLength="284" x="357" y="135.6294">connection(tradingAccount: TradingAccount)</text><line style="stroke: #A80036; stroke-width: 1.0;" x1="721" x2="763" y1="169.8281" y2="169.8281"/><line style="stroke: #A80036; stroke-width: 1.0;" x1="763" x2="763" y1="169.8281" y2="182.8281"/><line style="stroke: #A80036; stroke-width: 1.0;" x1="722" x2="763" y1="182.8281" y2="182.8281"/><polygon fill="#A80036" points="732,178.8281,722,182.8281,732,186.8281,728,182.8281" style="stroke: #A80036; stroke-width: 1.0;"/><text fill="#000000" font-family="sans-serif" font-size="13" lengthAdjust="spacingAndGlyphs" textLength="284" x="728" y="164.7622">connection(tradingAccount: TradingAccount)</text><polygon fill="#A80036" points="709,207.9609,719,211.9609,709,215.9609,713,211.9609" style="stroke: #A80036; stroke-width: 1.0;"/><line style="stroke: #A80036; stroke-width: 1.0;" x1="350" x2="715" y1="211.9609" y2="211.9609"/><text fill="#000000" font-family="sans-serif" font-size="13" lengthAdjust="spacingAndGlyphs" textLength="40" x="357" y="206.895">login()</text><line style="stroke: #A80036; stroke-width: 1.0;" x1="721" x2="763" y1="241.0938" y2="241.0938"/><line style="stroke: #A80036; stroke-width: 1.0;" x1="763" x2="763" y1="241.0938" y2="254.0938"/><line style="stroke: #A80036; stroke-width: 1.0;" x1="722" x2="763" y1="254.0938" y2="254.0938"/><polygon fill="#A80036" points="732,250.0938,722,254.0938,732,258.0938,728,254.0938" style="stroke: #A80036; stroke-width: 1.0;"/><text fill="#000000" font-family="sans-serif" font-size="13" lengthAdjust="spacingAndGlyphs" textLength="40" x="728" y="236.0278">login()</text><line style="stroke: #A80036; stroke-width: 1.0;" x1="721" x2="763" y1="283.2266" y2="283.2266"/><line style="stroke: #A80036; stroke-width: 1.0;" x1="763" x2="763" y1="283.2266" y2="296.2266"/><line style="stroke: #A80036; stroke-width: 1.0;" x1="722" x2="763" y1="296.2266" y2="296.2266"/><polygon fill="#A80036" points="732,292.2266,722,296.2266,732,300.2266,728,296.2266" style="stroke: #A80036; stroke-width: 1.0;"/><text fill="#000000" font-family="sans-serif" font-size="13" lengthAdjust="spacingAndGlyphs" textLength="347" x="728" y="278.1606">update(message: ConnectorEventEnum, data: Object)</text><polygon fill="#A80036" points="361,321.3594,351,325.3594,361,329.3594,357,325.3594" style="stroke: #A80036; stroke-width: 1.0;"/><line style="stroke: #A80036; stroke-width: 1.0;" x1="355" x2="720" y1="325.3594" y2="325.3594"/><text fill="#000000" font-family="sans-serif" font-size="13" lengthAdjust="spacingAndGlyphs" textLength="347" x="367" y="320.2935">update(message: ConnectorEventEnum, data: Object)</text><rect fill="#DDDDDD" height="26.2969" rx="5" ry="5" style="stroke: #000000; stroke-width: 1.0;" width="405" x="339.5" y="386.6563"/><text fill="#000000" font-family="sans-serif" font-size="14" lengthAdjust="spacingAndGlyphs" textLength="393" x="345.5" y="404.6514">Diagramme de séquences - Chargement d'un Connector</text><!--
@startuml
legend
Diagramme de séquences - Chargement d'un Connector
endlegend

Service -> ServiceController: connection(tradingAccount: TradingAccount)
ServiceController -> ServiceController: load(tradingAccount: TradingAccount)
ServiceController -> Connector: connection(tradingAccount: TradingAccount)
Connector -> Connector: connection(tradingAccount: TradingAccount)
ServiceController -> Connector: login()
Connector -> Connector: login()
Connector -> Connector: update(message: ConnectorEventEnum, data: Object)
Connector -> ServiceController: update(message: ConnectorEventEnum, data: Object)
@enduml

PlantUML version 1.2018.10(Sat Aug 25 19:02:59 CEST 2018)
(APACHE source distribution)
Java Runtime: Java(TM) SE Runtime Environment
JVM: Java HotSpot(TM) 64-Bit Server VM
Java Version: 11.0.1+13-LTS
Operating System: Linux
OS Version: 4.9.0-8-amd64
Default Encoding: UTF-8
Language: fr
Country: FR
--></g></svg>